%TF.GenerationSoftware,KiCad,Pcbnew,8.0.6*%
%TF.CreationDate,2024-10-28T22:07:04-04:00*%
%TF.ProjectId,VexQwiic,56657851-7769-4696-932e-6b696361645f,rev?*%
%TF.SameCoordinates,Original*%
%TF.FileFunction,Copper,L2,Bot*%
%TF.FilePolarity,Positive*%
%FSLAX46Y46*%
G04 Gerber Fmt 4.6, Leading zero omitted, Abs format (unit mm)*
G04 Created by KiCad (PCBNEW 8.0.6) date 2024-10-28 22:07:04*
%MOMM*%
%LPD*%
G01*
G04 APERTURE LIST*
%ADD10C,0.100000*%
%TA.AperFunction,NonConductor*%
%ADD11C,0.100000*%
%TD*%
%TA.AperFunction,ComponentPad*%
%ADD12C,1.300000*%
%TD*%
%TA.AperFunction,ComponentPad*%
%ADD13R,1.676400X1.676400*%
%TD*%
%TA.AperFunction,ComponentPad*%
%ADD14C,1.524000*%
%TD*%
%TA.AperFunction,ComponentPad*%
%ADD15R,1.524000X1.524000*%
%TD*%
%TA.AperFunction,ComponentPad*%
%ADD16R,2.032000X2.032000*%
%TD*%
%TA.AperFunction,ComponentPad*%
%ADD17C,2.032000*%
%TD*%
%TA.AperFunction,ViaPad*%
%ADD18C,0.600000*%
%TD*%
%TA.AperFunction,Conductor*%
%ADD19C,0.250000*%
%TD*%
G04 APERTURE END LIST*
D10*
D11*
X164510401Y-123952657D02*
X164558020Y-123928847D01*
X164558020Y-123928847D02*
X164653258Y-123928847D01*
X164653258Y-123928847D02*
X164700877Y-123952657D01*
X164700877Y-123952657D02*
X164748496Y-124000276D01*
X164748496Y-124000276D02*
X164772306Y-124047895D01*
X164772306Y-124047895D02*
X164772306Y-124143133D01*
X164772306Y-124143133D02*
X164748496Y-124190752D01*
X164748496Y-124190752D02*
X164700877Y-124238371D01*
X164700877Y-124238371D02*
X164653258Y-124262180D01*
X164653258Y-124262180D02*
X164558020Y-124262180D01*
X164558020Y-124262180D02*
X164510401Y-124238371D01*
X164605639Y-123762180D02*
X164724687Y-123785990D01*
X164724687Y-123785990D02*
X164843734Y-123857419D01*
X164843734Y-123857419D02*
X164915163Y-123976466D01*
X164915163Y-123976466D02*
X164938972Y-124095514D01*
X164938972Y-124095514D02*
X164915163Y-124214561D01*
X164915163Y-124214561D02*
X164843734Y-124333609D01*
X164843734Y-124333609D02*
X164724687Y-124405038D01*
X164724687Y-124405038D02*
X164605639Y-124428847D01*
X164605639Y-124428847D02*
X164486591Y-124405038D01*
X164486591Y-124405038D02*
X164367544Y-124333609D01*
X164367544Y-124333609D02*
X164296115Y-124214561D01*
X164296115Y-124214561D02*
X164272306Y-124095514D01*
X164272306Y-124095514D02*
X164296115Y-123976466D01*
X164296115Y-123976466D02*
X164367544Y-123857419D01*
X164367544Y-123857419D02*
X164486591Y-123785990D01*
X164486591Y-123785990D02*
X164605639Y-123762180D01*
X163772306Y-124333609D02*
X163938972Y-124095514D01*
X164058020Y-124333609D02*
X164058020Y-123833609D01*
X164058020Y-123833609D02*
X163867544Y-123833609D01*
X163867544Y-123833609D02*
X163819925Y-123857419D01*
X163819925Y-123857419D02*
X163796115Y-123881228D01*
X163796115Y-123881228D02*
X163772306Y-123928847D01*
X163772306Y-123928847D02*
X163772306Y-124000276D01*
X163772306Y-124000276D02*
X163796115Y-124047895D01*
X163796115Y-124047895D02*
X163819925Y-124071704D01*
X163819925Y-124071704D02*
X163867544Y-124095514D01*
X163867544Y-124095514D02*
X164058020Y-124095514D01*
X163605639Y-124000276D02*
X163486591Y-124333609D01*
X163367544Y-124000276D02*
X163486591Y-124333609D01*
X163486591Y-124333609D02*
X163534210Y-124452657D01*
X163534210Y-124452657D02*
X163558020Y-124476466D01*
X163558020Y-124476466D02*
X163605639Y-124500276D01*
X162962782Y-124333609D02*
X162962782Y-124071704D01*
X162962782Y-124071704D02*
X162986592Y-124024085D01*
X162986592Y-124024085D02*
X163034211Y-124000276D01*
X163034211Y-124000276D02*
X163129449Y-124000276D01*
X163129449Y-124000276D02*
X163177068Y-124024085D01*
X162962782Y-124309800D02*
X163010401Y-124333609D01*
X163010401Y-124333609D02*
X163129449Y-124333609D01*
X163129449Y-124333609D02*
X163177068Y-124309800D01*
X163177068Y-124309800D02*
X163200877Y-124262180D01*
X163200877Y-124262180D02*
X163200877Y-124214561D01*
X163200877Y-124214561D02*
X163177068Y-124166942D01*
X163177068Y-124166942D02*
X163129449Y-124143133D01*
X163129449Y-124143133D02*
X163010401Y-124143133D01*
X163010401Y-124143133D02*
X162962782Y-124119323D01*
X162724687Y-124000276D02*
X162724687Y-124333609D01*
X162724687Y-124047895D02*
X162700877Y-124024085D01*
X162700877Y-124024085D02*
X162653258Y-124000276D01*
X162653258Y-124000276D02*
X162581830Y-124000276D01*
X162581830Y-124000276D02*
X162534211Y-124024085D01*
X162534211Y-124024085D02*
X162510401Y-124071704D01*
X162510401Y-124071704D02*
X162510401Y-124333609D01*
X161891354Y-124333609D02*
X161891354Y-123833609D01*
X161891354Y-123833609D02*
X161724687Y-124190752D01*
X161724687Y-124190752D02*
X161558021Y-123833609D01*
X161558021Y-123833609D02*
X161558021Y-124333609D01*
X161105639Y-124309800D02*
X161153258Y-124333609D01*
X161153258Y-124333609D02*
X161248496Y-124333609D01*
X161248496Y-124333609D02*
X161296115Y-124309800D01*
X161296115Y-124309800D02*
X161319925Y-124285990D01*
X161319925Y-124285990D02*
X161343734Y-124238371D01*
X161343734Y-124238371D02*
X161343734Y-124095514D01*
X161343734Y-124095514D02*
X161319925Y-124047895D01*
X161319925Y-124047895D02*
X161296115Y-124024085D01*
X161296115Y-124024085D02*
X161248496Y-124000276D01*
X161248496Y-124000276D02*
X161153258Y-124000276D01*
X161153258Y-124000276D02*
X161105639Y-124024085D01*
X160629449Y-123857419D02*
X160677068Y-123833609D01*
X160677068Y-123833609D02*
X160748497Y-123833609D01*
X160748497Y-123833609D02*
X160819925Y-123857419D01*
X160819925Y-123857419D02*
X160867544Y-123905038D01*
X160867544Y-123905038D02*
X160891354Y-123952657D01*
X160891354Y-123952657D02*
X160915163Y-124047895D01*
X160915163Y-124047895D02*
X160915163Y-124119323D01*
X160915163Y-124119323D02*
X160891354Y-124214561D01*
X160891354Y-124214561D02*
X160867544Y-124262180D01*
X160867544Y-124262180D02*
X160819925Y-124309800D01*
X160819925Y-124309800D02*
X160748497Y-124333609D01*
X160748497Y-124333609D02*
X160700878Y-124333609D01*
X160700878Y-124333609D02*
X160629449Y-124309800D01*
X160629449Y-124309800D02*
X160605640Y-124285990D01*
X160605640Y-124285990D02*
X160605640Y-124119323D01*
X160605640Y-124119323D02*
X160700878Y-124119323D01*
X160200878Y-124309800D02*
X160248497Y-124333609D01*
X160248497Y-124333609D02*
X160343735Y-124333609D01*
X160343735Y-124333609D02*
X160391354Y-124309800D01*
X160391354Y-124309800D02*
X160415163Y-124262180D01*
X160415163Y-124262180D02*
X160415163Y-124071704D01*
X160415163Y-124071704D02*
X160391354Y-124024085D01*
X160391354Y-124024085D02*
X160343735Y-124000276D01*
X160343735Y-124000276D02*
X160248497Y-124000276D01*
X160248497Y-124000276D02*
X160200878Y-124024085D01*
X160200878Y-124024085D02*
X160177068Y-124071704D01*
X160177068Y-124071704D02*
X160177068Y-124119323D01*
X160177068Y-124119323D02*
X160415163Y-124166942D01*
X159772307Y-124309800D02*
X159819926Y-124333609D01*
X159819926Y-124333609D02*
X159915164Y-124333609D01*
X159915164Y-124333609D02*
X159962783Y-124309800D01*
X159962783Y-124309800D02*
X159986592Y-124262180D01*
X159986592Y-124262180D02*
X159986592Y-124071704D01*
X159986592Y-124071704D02*
X159962783Y-124024085D01*
X159962783Y-124024085D02*
X159915164Y-124000276D01*
X159915164Y-124000276D02*
X159819926Y-124000276D01*
X159819926Y-124000276D02*
X159772307Y-124024085D01*
X159772307Y-124024085D02*
X159748497Y-124071704D01*
X159748497Y-124071704D02*
X159748497Y-124119323D01*
X159748497Y-124119323D02*
X159986592Y-124166942D01*
X159177069Y-123881228D02*
X159153260Y-123857419D01*
X159153260Y-123857419D02*
X159105641Y-123833609D01*
X159105641Y-123833609D02*
X158986593Y-123833609D01*
X158986593Y-123833609D02*
X158938974Y-123857419D01*
X158938974Y-123857419D02*
X158915165Y-123881228D01*
X158915165Y-123881228D02*
X158891355Y-123928847D01*
X158891355Y-123928847D02*
X158891355Y-123976466D01*
X158891355Y-123976466D02*
X158915165Y-124047895D01*
X158915165Y-124047895D02*
X159200879Y-124333609D01*
X159200879Y-124333609D02*
X158891355Y-124333609D01*
X158581832Y-123833609D02*
X158534213Y-123833609D01*
X158534213Y-123833609D02*
X158486594Y-123857419D01*
X158486594Y-123857419D02*
X158462784Y-123881228D01*
X158462784Y-123881228D02*
X158438975Y-123928847D01*
X158438975Y-123928847D02*
X158415165Y-124024085D01*
X158415165Y-124024085D02*
X158415165Y-124143133D01*
X158415165Y-124143133D02*
X158438975Y-124238371D01*
X158438975Y-124238371D02*
X158462784Y-124285990D01*
X158462784Y-124285990D02*
X158486594Y-124309800D01*
X158486594Y-124309800D02*
X158534213Y-124333609D01*
X158534213Y-124333609D02*
X158581832Y-124333609D01*
X158581832Y-124333609D02*
X158629451Y-124309800D01*
X158629451Y-124309800D02*
X158653260Y-124285990D01*
X158653260Y-124285990D02*
X158677070Y-124238371D01*
X158677070Y-124238371D02*
X158700879Y-124143133D01*
X158700879Y-124143133D02*
X158700879Y-124024085D01*
X158700879Y-124024085D02*
X158677070Y-123928847D01*
X158677070Y-123928847D02*
X158653260Y-123881228D01*
X158653260Y-123881228D02*
X158629451Y-123857419D01*
X158629451Y-123857419D02*
X158581832Y-123833609D01*
X158224689Y-123881228D02*
X158200880Y-123857419D01*
X158200880Y-123857419D02*
X158153261Y-123833609D01*
X158153261Y-123833609D02*
X158034213Y-123833609D01*
X158034213Y-123833609D02*
X157986594Y-123857419D01*
X157986594Y-123857419D02*
X157962785Y-123881228D01*
X157962785Y-123881228D02*
X157938975Y-123928847D01*
X157938975Y-123928847D02*
X157938975Y-123976466D01*
X157938975Y-123976466D02*
X157962785Y-124047895D01*
X157962785Y-124047895D02*
X158248499Y-124333609D01*
X158248499Y-124333609D02*
X157938975Y-124333609D01*
X157510404Y-124000276D02*
X157510404Y-124333609D01*
X157629452Y-123809800D02*
X157748499Y-124166942D01*
X157748499Y-124166942D02*
X157438976Y-124166942D01*
D12*
%TO.P,CONN1,1,DA*%
%TO.N,/RJ9_DA*%
X143805000Y-61200000D03*
%TO.P,CONN1,2,DB*%
%TO.N,/RJ9_DB*%
X142535000Y-63740000D03*
%TO.P,CONN1,3,GND*%
%TO.N,GND*%
X141265000Y-61200000D03*
%TO.P,CONN1,4,+12V*%
%TO.N,+12V*%
X139995000Y-63740000D03*
%TD*%
D13*
%TO.P,CON1,P1,AN*%
%TO.N,/MKBUS_AN*%
X138065306Y-97058858D03*
D14*
%TO.P,CON1,P2,RST*%
%TO.N,/MKBUS_RST*%
X138065306Y-99598858D03*
%TO.P,CON1,P3,CS*%
%TO.N,/MKBUS_CS*%
X138065306Y-102138858D03*
%TO.P,CON1,P4,SCK*%
%TO.N,/MKBUS_SCK*%
X138065306Y-104678858D03*
%TO.P,CON1,P5,MISO*%
%TO.N,/MKBUS_MISO*%
X138065306Y-107218858D03*
%TO.P,CON1,P6,MOSI*%
%TO.N,/MKBUS_MOSI*%
X138065306Y-109758858D03*
%TO.P,CON1,P7,3V3*%
%TO.N,+3.3V*%
X138065306Y-112298858D03*
%TO.P,CON1,P8,GND1*%
%TO.N,GND*%
X138065306Y-114838858D03*
%TO.P,CON1,P9,GND2*%
X160925306Y-114838858D03*
%TO.P,CON1,P10,5V*%
%TO.N,+5V*%
X160925306Y-112298858D03*
%TO.P,CON1,P11,SDA*%
%TO.N,/MKBUS_SDA*%
X160925306Y-109758858D03*
%TO.P,CON1,P12,SCL*%
%TO.N,/MKBUS_SCL*%
X160925306Y-107218858D03*
%TO.P,CON1,P13,TX*%
%TO.N,/MKBUS_TX*%
X160925306Y-104678858D03*
%TO.P,CON1,P14,RX*%
%TO.N,/MKBUS_RX*%
X160925306Y-102138858D03*
%TO.P,CON1,P15,INT*%
%TO.N,/MKBUS_INT*%
X160925306Y-99598858D03*
D15*
%TO.P,CON1,P16,PWM*%
%TO.N,/MKBUS_PWM*%
X160925306Y-97058858D03*
%TD*%
D16*
%TO.P,J1,1,Pin_1*%
%TO.N,+5V*%
X158850000Y-54700000D03*
D17*
%TO.P,J1,2,Pin_2*%
%TO.N,GND*%
X155350000Y-54700000D03*
%TD*%
D18*
%TO.N,GND*%
X135950000Y-66550000D03*
X143754972Y-71000000D03*
X147000000Y-68175000D03*
X157200000Y-66800000D03*
X142000000Y-82100000D03*
X137488770Y-71160326D03*
%TO.N,/RJ9_DB*%
X137100000Y-79400000D03*
%TO.N,/RJ9_DA*%
X140800000Y-79400000D03*
%TO.N,/MKBUS_MISO*%
X140466228Y-99618000D03*
%TO.N,/MKBUS_CS*%
X139773689Y-94538000D03*
%TO.N,/MKBUS_MOSI*%
X142466228Y-96500000D03*
%TO.N,/MKBUS_RX*%
X156466228Y-96300000D03*
%TD*%
D19*
%TO.N,/RJ9_DB*%
X139841930Y-66433070D02*
X142535000Y-63740000D01*
X139841930Y-76658070D02*
X139841930Y-66433070D01*
X137100000Y-79400000D02*
X139841930Y-76658070D01*
%TO.N,/RJ9_DA*%
X140800000Y-79400000D02*
X140800000Y-66853859D01*
X140800000Y-66853859D02*
X143805000Y-63848859D01*
X143805000Y-63848859D02*
X143805000Y-61200000D01*
%TO.N,/MKBUS_MISO*%
X140466228Y-99618000D02*
X140466228Y-104817936D01*
X140466228Y-104817936D02*
X138065306Y-107218858D01*
%TO.N,/MKBUS_CS*%
X139766228Y-100437936D02*
X138065306Y-102138858D01*
X139773689Y-94538000D02*
X139766228Y-94545461D01*
X139766228Y-94545461D02*
X139766228Y-100437936D01*
%TO.N,/MKBUS_MOSI*%
X142466228Y-96500000D02*
X143066228Y-97100000D01*
X140407370Y-109758858D02*
X138065306Y-109758858D01*
X143066228Y-107100000D02*
X140407370Y-109758858D01*
X143066228Y-97100000D02*
X143066228Y-107100000D01*
%TO.N,/MKBUS_RX*%
X156466228Y-97679780D02*
X160925306Y-102138858D01*
X156466228Y-96300000D02*
X156466228Y-97679780D01*
%TD*%
%TA.AperFunction,Conductor*%
%TO.N,GND*%
G36*
X164942539Y-50520185D02*
G01*
X164988294Y-50572989D01*
X164999500Y-50624500D01*
X164999500Y-123379686D01*
X164979815Y-123446725D01*
X164927011Y-123492480D01*
X164875500Y-123503686D01*
X157183476Y-123503686D01*
X157183476Y-124375500D01*
X157163791Y-124442539D01*
X157110987Y-124488294D01*
X157059476Y-124499500D01*
X134124500Y-124499500D01*
X134057461Y-124479815D01*
X134011706Y-124427011D01*
X134000500Y-124375500D01*
X134000500Y-114838857D01*
X136798485Y-114838857D01*
X136798485Y-114838858D01*
X136817730Y-115058834D01*
X136817732Y-115058844D01*
X136874881Y-115272128D01*
X136874886Y-115272142D01*
X136968204Y-115472263D01*
X136968207Y-115472269D01*
X137013564Y-115537045D01*
X137013565Y-115537046D01*
X137627658Y-114922952D01*
X137651098Y-115010429D01*
X137709617Y-115111788D01*
X137792376Y-115194547D01*
X137893735Y-115253066D01*
X137981211Y-115276505D01*
X137367116Y-115890598D01*
X137431896Y-115935957D01*
X137431898Y-115935958D01*
X137632021Y-116029277D01*
X137632035Y-116029282D01*
X137845319Y-116086431D01*
X137845329Y-116086433D01*
X138065305Y-116105679D01*
X138065307Y-116105679D01*
X138285282Y-116086433D01*
X138285292Y-116086431D01*
X138498576Y-116029282D01*
X138498590Y-116029277D01*
X138698713Y-115935958D01*
X138698723Y-115935952D01*
X138763494Y-115890599D01*
X138149401Y-115276505D01*
X138236877Y-115253066D01*
X138338236Y-115194547D01*
X138420995Y-115111788D01*
X138479514Y-115010429D01*
X138502953Y-114922952D01*
X139117047Y-115537046D01*
X139162400Y-115472275D01*
X139162406Y-115472265D01*
X139255725Y-115272142D01*
X139255730Y-115272128D01*
X139312879Y-115058844D01*
X139312881Y-115058834D01*
X139332127Y-114838858D01*
X139332127Y-114838857D01*
X159658485Y-114838857D01*
X159658485Y-114838858D01*
X159677730Y-115058834D01*
X159677732Y-115058844D01*
X159734881Y-115272128D01*
X159734886Y-115272142D01*
X159828204Y-115472263D01*
X159828207Y-115472269D01*
X159873564Y-115537045D01*
X159873565Y-115537046D01*
X160487658Y-114922952D01*
X160511098Y-115010429D01*
X160569617Y-115111788D01*
X160652376Y-115194547D01*
X160753735Y-115253066D01*
X160841211Y-115276505D01*
X160227116Y-115890598D01*
X160291896Y-115935957D01*
X160291898Y-115935958D01*
X160492021Y-116029277D01*
X160492035Y-116029282D01*
X160705319Y-116086431D01*
X160705329Y-116086433D01*
X160925305Y-116105679D01*
X160925307Y-116105679D01*
X161145282Y-116086433D01*
X161145292Y-116086431D01*
X161358576Y-116029282D01*
X161358590Y-116029277D01*
X161558713Y-115935958D01*
X161558723Y-115935952D01*
X161623494Y-115890599D01*
X161009401Y-115276505D01*
X161096877Y-115253066D01*
X161198236Y-115194547D01*
X161280995Y-115111788D01*
X161339514Y-115010429D01*
X161362953Y-114922952D01*
X161977047Y-115537046D01*
X162022400Y-115472275D01*
X162022406Y-115472265D01*
X162115725Y-115272142D01*
X162115730Y-115272128D01*
X162172879Y-115058844D01*
X162172881Y-115058834D01*
X162192127Y-114838858D01*
X162192127Y-114838857D01*
X162172881Y-114618881D01*
X162172879Y-114618871D01*
X162115730Y-114405587D01*
X162115726Y-114405578D01*
X162022402Y-114205444D01*
X161977047Y-114140669D01*
X161977046Y-114140668D01*
X161362953Y-114754762D01*
X161339514Y-114667287D01*
X161280995Y-114565928D01*
X161198236Y-114483169D01*
X161096877Y-114424650D01*
X161009401Y-114401210D01*
X161623494Y-113787117D01*
X161623493Y-113787116D01*
X161558717Y-113741759D01*
X161558711Y-113741756D01*
X161358590Y-113648438D01*
X161358576Y-113648433D01*
X161145292Y-113591284D01*
X161145282Y-113591282D01*
X160925307Y-113572037D01*
X160925305Y-113572037D01*
X160705329Y-113591282D01*
X160705319Y-113591284D01*
X160492035Y-113648433D01*
X160492026Y-113648437D01*
X160291896Y-113741759D01*
X160227117Y-113787116D01*
X160841211Y-114401210D01*
X160753735Y-114424650D01*
X160652376Y-114483169D01*
X160569617Y-114565928D01*
X160511098Y-114667287D01*
X160487658Y-114754762D01*
X159873564Y-114140669D01*
X159828207Y-114205448D01*
X159734885Y-114405578D01*
X159734881Y-114405587D01*
X159677732Y-114618871D01*
X159677730Y-114618881D01*
X159658485Y-114838857D01*
X139332127Y-114838857D01*
X139312881Y-114618881D01*
X139312879Y-114618871D01*
X139255730Y-114405587D01*
X139255726Y-114405578D01*
X139162402Y-114205444D01*
X139117047Y-114140669D01*
X139117046Y-114140668D01*
X138502953Y-114754762D01*
X138479514Y-114667287D01*
X138420995Y-114565928D01*
X138338236Y-114483169D01*
X138236877Y-114424650D01*
X138149401Y-114401210D01*
X138763494Y-113787117D01*
X138763493Y-113787116D01*
X138698717Y-113741759D01*
X138698711Y-113741756D01*
X138498590Y-113648438D01*
X138498576Y-113648433D01*
X138285292Y-113591284D01*
X138285282Y-113591282D01*
X138065307Y-113572037D01*
X138065305Y-113572037D01*
X137845329Y-113591282D01*
X137845319Y-113591284D01*
X137632035Y-113648433D01*
X137632026Y-113648437D01*
X137431896Y-113741759D01*
X137367117Y-113787116D01*
X137981211Y-114401210D01*
X137893735Y-114424650D01*
X137792376Y-114483169D01*
X137709617Y-114565928D01*
X137651098Y-114667287D01*
X137627658Y-114754763D01*
X137013564Y-114140669D01*
X136968207Y-114205448D01*
X136874885Y-114405578D01*
X136874881Y-114405587D01*
X136817732Y-114618871D01*
X136817730Y-114618881D01*
X136798485Y-114838857D01*
X134000500Y-114838857D01*
X134000500Y-112298858D01*
X137098149Y-112298858D01*
X137116732Y-112487539D01*
X137116733Y-112487541D01*
X137171769Y-112668973D01*
X137171770Y-112668976D01*
X137171771Y-112668977D01*
X137171772Y-112668980D01*
X137261140Y-112836176D01*
X137261144Y-112836183D01*
X137381422Y-112982741D01*
X137527980Y-113103019D01*
X137527987Y-113103023D01*
X137695183Y-113192391D01*
X137695184Y-113192391D01*
X137695191Y-113192395D01*
X137876623Y-113247431D01*
X137876622Y-113247431D01*
X137893539Y-113249097D01*
X138065306Y-113266015D01*
X138253989Y-113247431D01*
X138435421Y-113192395D01*
X138602630Y-113103020D01*
X138749189Y-112982741D01*
X138869468Y-112836182D01*
X138958843Y-112668973D01*
X139013879Y-112487541D01*
X139032463Y-112298858D01*
X159958149Y-112298858D01*
X159976732Y-112487539D01*
X159976733Y-112487541D01*
X160031769Y-112668973D01*
X160031770Y-112668976D01*
X160031771Y-112668977D01*
X160031772Y-112668980D01*
X160121140Y-112836176D01*
X160121144Y-112836183D01*
X160241422Y-112982741D01*
X160387980Y-113103019D01*
X160387987Y-113103023D01*
X160555183Y-113192391D01*
X160555184Y-113192391D01*
X160555191Y-113192395D01*
X160736623Y-113247431D01*
X160736622Y-113247431D01*
X160753539Y-113249097D01*
X160925306Y-113266015D01*
X161113989Y-113247431D01*
X161295421Y-113192395D01*
X161462630Y-113103020D01*
X161609189Y-112982741D01*
X161729468Y-112836182D01*
X161818843Y-112668973D01*
X161873879Y-112487541D01*
X161892463Y-112298858D01*
X161873879Y-112110175D01*
X161818843Y-111928743D01*
X161729468Y-111761534D01*
X161729467Y-111761532D01*
X161609189Y-111614974D01*
X161462631Y-111494696D01*
X161462624Y-111494692D01*
X161295428Y-111405324D01*
X161295425Y-111405323D01*
X161295424Y-111405322D01*
X161295421Y-111405321D01*
X161113989Y-111350285D01*
X161113987Y-111350284D01*
X161113989Y-111350284D01*
X160925306Y-111331701D01*
X160736624Y-111350284D01*
X160629500Y-111382779D01*
X160555191Y-111405321D01*
X160555188Y-111405322D01*
X160555186Y-111405323D01*
X160555183Y-111405324D01*
X160387987Y-111494692D01*
X160387980Y-111494696D01*
X160241422Y-111614974D01*
X160121144Y-111761532D01*
X160121140Y-111761539D01*
X160031772Y-111928735D01*
X160031771Y-111928738D01*
X159976732Y-112110176D01*
X159958149Y-112298858D01*
X139032463Y-112298858D01*
X139013879Y-112110175D01*
X138958843Y-111928743D01*
X138869468Y-111761534D01*
X138869467Y-111761532D01*
X138749189Y-111614974D01*
X138602631Y-111494696D01*
X138602624Y-111494692D01*
X138435428Y-111405324D01*
X138435425Y-111405323D01*
X138435424Y-111405322D01*
X138435421Y-111405321D01*
X138253989Y-111350285D01*
X138253987Y-111350284D01*
X138253989Y-111350284D01*
X138065306Y-111331701D01*
X137876624Y-111350284D01*
X137769500Y-111382779D01*
X137695191Y-111405321D01*
X137695188Y-111405322D01*
X137695186Y-111405323D01*
X137695183Y-111405324D01*
X137527987Y-111494692D01*
X137527980Y-111494696D01*
X137381422Y-111614974D01*
X137261144Y-111761532D01*
X137261140Y-111761539D01*
X137171772Y-111928735D01*
X137171771Y-111928738D01*
X137116732Y-112110176D01*
X137098149Y-112298858D01*
X134000500Y-112298858D01*
X134000500Y-109758858D01*
X137098149Y-109758858D01*
X137116732Y-109947539D01*
X137116733Y-109947541D01*
X137171769Y-110128973D01*
X137171770Y-110128976D01*
X137171771Y-110128977D01*
X137171772Y-110128980D01*
X137261140Y-110296176D01*
X137261144Y-110296183D01*
X137381422Y-110442741D01*
X137527980Y-110563019D01*
X137527987Y-110563023D01*
X137695183Y-110652391D01*
X137695184Y-110652391D01*
X137695191Y-110652395D01*
X137876623Y-110707431D01*
X137876622Y-110707431D01*
X137893539Y-110709097D01*
X138065306Y-110726015D01*
X138253989Y-110707431D01*
X138435421Y-110652395D01*
X138602630Y-110563020D01*
X138749189Y-110442741D01*
X138869468Y-110296182D01*
X138947655Y-110149905D01*
X138996617Y-110100061D01*
X139057013Y-110084358D01*
X140450221Y-110084358D01*
X140450223Y-110084358D01*
X140533009Y-110062176D01*
X140607232Y-110019323D01*
X140867697Y-109758858D01*
X159958149Y-109758858D01*
X159976732Y-109947539D01*
X159976733Y-109947541D01*
X160031769Y-110128973D01*
X160031770Y-110128976D01*
X160031771Y-110128977D01*
X160031772Y-110128980D01*
X160121140Y-110296176D01*
X160121144Y-110296183D01*
X160241422Y-110442741D01*
X160387980Y-110563019D01*
X160387987Y-110563023D01*
X160555183Y-110652391D01*
X160555184Y-110652391D01*
X160555191Y-110652395D01*
X160736623Y-110707431D01*
X160736622Y-110707431D01*
X160753539Y-110709097D01*
X160925306Y-110726015D01*
X161113989Y-110707431D01*
X161295421Y-110652395D01*
X161462630Y-110563020D01*
X161609189Y-110442741D01*
X161729468Y-110296182D01*
X161818843Y-110128973D01*
X161873879Y-109947541D01*
X161892463Y-109758858D01*
X161873879Y-109570175D01*
X161818843Y-109388743D01*
X161729468Y-109221534D01*
X161729467Y-109221532D01*
X161609189Y-109074974D01*
X161462631Y-108954696D01*
X161462624Y-108954692D01*
X161295428Y-108865324D01*
X161295425Y-108865323D01*
X161295424Y-108865322D01*
X161295421Y-108865321D01*
X161113989Y-108810285D01*
X161113987Y-108810284D01*
X161113989Y-108810284D01*
X160925306Y-108791701D01*
X160736624Y-108810284D01*
X160629500Y-108842779D01*
X160555191Y-108865321D01*
X160555188Y-108865322D01*
X160555186Y-108865323D01*
X160555183Y-108865324D01*
X160387987Y-108954692D01*
X160387980Y-108954696D01*
X160241422Y-109074974D01*
X160121144Y-109221532D01*
X160121140Y-109221539D01*
X160031772Y-109388735D01*
X160031771Y-109388738D01*
X160031770Y-109388740D01*
X160031769Y-109388743D01*
X160009227Y-109463052D01*
X159976732Y-109570176D01*
X159958149Y-109758858D01*
X140867697Y-109758858D01*
X143326693Y-107299862D01*
X143369546Y-107225639D01*
X143371363Y-107218858D01*
X159958149Y-107218858D01*
X159976732Y-107407539D01*
X159976733Y-107407541D01*
X160031769Y-107588973D01*
X160031770Y-107588976D01*
X160031771Y-107588977D01*
X160031772Y-107588980D01*
X160121140Y-107756176D01*
X160121144Y-107756183D01*
X160241422Y-107902741D01*
X160387980Y-108023019D01*
X160387987Y-108023023D01*
X160555183Y-108112391D01*
X160555184Y-108112391D01*
X160555191Y-108112395D01*
X160736623Y-108167431D01*
X160736622Y-108167431D01*
X160753539Y-108169097D01*
X160925306Y-108186015D01*
X161113989Y-108167431D01*
X161295421Y-108112395D01*
X161462630Y-108023020D01*
X161609189Y-107902741D01*
X161729468Y-107756182D01*
X161818843Y-107588973D01*
X161873879Y-107407541D01*
X161892463Y-107218858D01*
X161873879Y-107030175D01*
X161818843Y-106848743D01*
X161729468Y-106681534D01*
X161729467Y-106681532D01*
X161609189Y-106534974D01*
X161462631Y-106414696D01*
X161462624Y-106414692D01*
X161295428Y-106325324D01*
X161295425Y-106325323D01*
X161295424Y-106325322D01*
X161295421Y-106325321D01*
X161113989Y-106270285D01*
X161113987Y-106270284D01*
X161113989Y-106270284D01*
X160925306Y-106251701D01*
X160736624Y-106270284D01*
X160629500Y-106302779D01*
X160555191Y-106325321D01*
X160555188Y-106325322D01*
X160555186Y-106325323D01*
X160555183Y-106325324D01*
X160387987Y-106414692D01*
X160387980Y-106414696D01*
X160241422Y-106534974D01*
X160121144Y-106681532D01*
X160121140Y-106681539D01*
X160031772Y-106848735D01*
X160031771Y-106848738D01*
X160031770Y-106848740D01*
X160031769Y-106848743D01*
X160012031Y-106913811D01*
X159976732Y-107030176D01*
X159958149Y-107218858D01*
X143371363Y-107218858D01*
X143391728Y-107142853D01*
X143391728Y-107057147D01*
X143391728Y-104678858D01*
X159958149Y-104678858D01*
X159976732Y-104867539D01*
X159976733Y-104867541D01*
X160031769Y-105048973D01*
X160031770Y-105048976D01*
X160031771Y-105048977D01*
X160031772Y-105048980D01*
X160121140Y-105216176D01*
X160121144Y-105216183D01*
X160241422Y-105362741D01*
X160387980Y-105483019D01*
X160387987Y-105483023D01*
X160555183Y-105572391D01*
X160555184Y-105572391D01*
X160555191Y-105572395D01*
X160736623Y-105627431D01*
X160736622Y-105627431D01*
X160753539Y-105629097D01*
X160925306Y-105646015D01*
X161113989Y-105627431D01*
X161295421Y-105572395D01*
X161462630Y-105483020D01*
X161609189Y-105362741D01*
X161729468Y-105216182D01*
X161818843Y-105048973D01*
X161873879Y-104867541D01*
X161892463Y-104678858D01*
X161873879Y-104490175D01*
X161818843Y-104308743D01*
X161729468Y-104141534D01*
X161729467Y-104141532D01*
X161609189Y-103994974D01*
X161462631Y-103874696D01*
X161462624Y-103874692D01*
X161295428Y-103785324D01*
X161295425Y-103785323D01*
X161295424Y-103785322D01*
X161295421Y-103785321D01*
X161113989Y-103730285D01*
X161113987Y-103730284D01*
X161113989Y-103730284D01*
X160925306Y-103711701D01*
X160736624Y-103730284D01*
X160629500Y-103762779D01*
X160555191Y-103785321D01*
X160555188Y-103785322D01*
X160555186Y-103785323D01*
X160555183Y-103785324D01*
X160387987Y-103874692D01*
X160387980Y-103874696D01*
X160241422Y-103994974D01*
X160121144Y-104141532D01*
X160121140Y-104141539D01*
X160031772Y-104308735D01*
X160031771Y-104308738D01*
X159976732Y-104490176D01*
X159958149Y-104678858D01*
X143391728Y-104678858D01*
X143391728Y-97057147D01*
X143369546Y-96974362D01*
X143369546Y-96974361D01*
X143326693Y-96900138D01*
X143008194Y-96581639D01*
X142974709Y-96520316D01*
X142973463Y-96508732D01*
X142973137Y-96508779D01*
X142963601Y-96442456D01*
X142951393Y-96357543D01*
X142925114Y-96300000D01*
X155960581Y-96300000D01*
X155981062Y-96442456D01*
X156016620Y-96520316D01*
X156040851Y-96573373D01*
X156110441Y-96653685D01*
X156139466Y-96717240D01*
X156140728Y-96734887D01*
X156140728Y-97722632D01*
X156162910Y-97805420D01*
X156183225Y-97840606D01*
X156205763Y-97879642D01*
X156205765Y-97879644D01*
X159993899Y-101667778D01*
X160027384Y-101729101D01*
X160024879Y-101791453D01*
X159976732Y-101950175D01*
X159958149Y-102138858D01*
X159976732Y-102327539D01*
X159976733Y-102327541D01*
X160031769Y-102508973D01*
X160031770Y-102508976D01*
X160031771Y-102508977D01*
X160031772Y-102508980D01*
X160121140Y-102676176D01*
X160121144Y-102676183D01*
X160241422Y-102822741D01*
X160387980Y-102943019D01*
X160387987Y-102943023D01*
X160555183Y-103032391D01*
X160555184Y-103032391D01*
X160555191Y-103032395D01*
X160736623Y-103087431D01*
X160736622Y-103087431D01*
X160753539Y-103089097D01*
X160925306Y-103106015D01*
X161113989Y-103087431D01*
X161295421Y-103032395D01*
X161462630Y-102943020D01*
X161609189Y-102822741D01*
X161729468Y-102676182D01*
X161818843Y-102508973D01*
X161873879Y-102327541D01*
X161892463Y-102138858D01*
X161873879Y-101950175D01*
X161818843Y-101768743D01*
X161729468Y-101601534D01*
X161729467Y-101601532D01*
X161609189Y-101454974D01*
X161462631Y-101334696D01*
X161462624Y-101334692D01*
X161295428Y-101245324D01*
X161295425Y-101245323D01*
X161295424Y-101245322D01*
X161295421Y-101245321D01*
X161113989Y-101190285D01*
X161113987Y-101190284D01*
X161113989Y-101190284D01*
X160925306Y-101171701D01*
X160736623Y-101190284D01*
X160577901Y-101238431D01*
X160508034Y-101239054D01*
X160454226Y-101207451D01*
X158845633Y-99598858D01*
X159958149Y-99598858D01*
X159976732Y-99787539D01*
X159976733Y-99787541D01*
X160031769Y-99968973D01*
X160031770Y-99968976D01*
X160031771Y-99968977D01*
X160031772Y-99968980D01*
X160121140Y-100136176D01*
X160121144Y-100136183D01*
X160241422Y-100282741D01*
X160387980Y-100403019D01*
X160387987Y-100403023D01*
X160555183Y-100492391D01*
X160555184Y-100492391D01*
X160555191Y-100492395D01*
X160736623Y-100547431D01*
X160736622Y-100547431D01*
X160753539Y-100549097D01*
X160925306Y-100566015D01*
X161113989Y-100547431D01*
X161295421Y-100492395D01*
X161462630Y-100403020D01*
X161609189Y-100282741D01*
X161729468Y-100136182D01*
X161818843Y-99968973D01*
X161873879Y-99787541D01*
X161892463Y-99598858D01*
X161873879Y-99410175D01*
X161818843Y-99228743D01*
X161781920Y-99159665D01*
X161729471Y-99061539D01*
X161729467Y-99061532D01*
X161609189Y-98914974D01*
X161462631Y-98794696D01*
X161462624Y-98794692D01*
X161295428Y-98705324D01*
X161295425Y-98705323D01*
X161295424Y-98705322D01*
X161295421Y-98705321D01*
X161113989Y-98650285D01*
X161113987Y-98650284D01*
X161113989Y-98650284D01*
X160925306Y-98631701D01*
X160736624Y-98650284D01*
X160629500Y-98682779D01*
X160555191Y-98705321D01*
X160555188Y-98705322D01*
X160555186Y-98705323D01*
X160555183Y-98705324D01*
X160387987Y-98794692D01*
X160387980Y-98794696D01*
X160241422Y-98914974D01*
X160121144Y-99061532D01*
X160121140Y-99061539D01*
X160031772Y-99228735D01*
X160031771Y-99228738D01*
X160031770Y-99228740D01*
X160031769Y-99228743D01*
X160029611Y-99235857D01*
X159976732Y-99410176D01*
X159958149Y-99598858D01*
X158845633Y-99598858D01*
X156828047Y-97581272D01*
X156794562Y-97519949D01*
X156791728Y-97493591D01*
X156791728Y-96734887D01*
X156811413Y-96667848D01*
X156822010Y-96653689D01*
X156891605Y-96573373D01*
X156951393Y-96442457D01*
X156971875Y-96300000D01*
X156968583Y-96277105D01*
X159962806Y-96277105D01*
X159962806Y-97840610D01*
X159974437Y-97899087D01*
X159974438Y-97899088D01*
X160018753Y-97965410D01*
X160085075Y-98009725D01*
X160085076Y-98009726D01*
X160143553Y-98021357D01*
X160143556Y-98021358D01*
X160143558Y-98021358D01*
X161707056Y-98021358D01*
X161707057Y-98021357D01*
X161721874Y-98018410D01*
X161765535Y-98009726D01*
X161765535Y-98009725D01*
X161765537Y-98009725D01*
X161831858Y-97965410D01*
X161876173Y-97899089D01*
X161876173Y-97899087D01*
X161876174Y-97899087D01*
X161887805Y-97840610D01*
X161887806Y-97840608D01*
X161887806Y-96277107D01*
X161887805Y-96277105D01*
X161876174Y-96218628D01*
X161876173Y-96218627D01*
X161831858Y-96152305D01*
X161765536Y-96107990D01*
X161765535Y-96107989D01*
X161707058Y-96096358D01*
X161707054Y-96096358D01*
X160143558Y-96096358D01*
X160143553Y-96096358D01*
X160085076Y-96107989D01*
X160085075Y-96107990D01*
X160018753Y-96152305D01*
X159974438Y-96218627D01*
X159974437Y-96218628D01*
X159962806Y-96277105D01*
X156968583Y-96277105D01*
X156951393Y-96157543D01*
X156891605Y-96026627D01*
X156797356Y-95917857D01*
X156676281Y-95840047D01*
X156676279Y-95840046D01*
X156676277Y-95840045D01*
X156676278Y-95840045D01*
X156538191Y-95799500D01*
X156538189Y-95799500D01*
X156394267Y-95799500D01*
X156394264Y-95799500D01*
X156256177Y-95840045D01*
X156135101Y-95917856D01*
X156040851Y-96026626D01*
X156040850Y-96026628D01*
X155981062Y-96157543D01*
X155960581Y-96300000D01*
X142925114Y-96300000D01*
X142891605Y-96226627D01*
X142797356Y-96117857D01*
X142676281Y-96040047D01*
X142676279Y-96040046D01*
X142676277Y-96040045D01*
X142676278Y-96040045D01*
X142538191Y-95999500D01*
X142538189Y-95999500D01*
X142394267Y-95999500D01*
X142394264Y-95999500D01*
X142256177Y-96040045D01*
X142135101Y-96117856D01*
X142040851Y-96226626D01*
X142040850Y-96226628D01*
X141981062Y-96357543D01*
X141960581Y-96500000D01*
X141981062Y-96642456D01*
X142023275Y-96734887D01*
X142040851Y-96773373D01*
X142135100Y-96882143D01*
X142256175Y-96959953D01*
X142256178Y-96959954D01*
X142256177Y-96959954D01*
X142394264Y-97000499D01*
X142394266Y-97000500D01*
X142394267Y-97000500D01*
X142455039Y-97000500D01*
X142522078Y-97020185D01*
X142542720Y-97036819D01*
X142704409Y-97198508D01*
X142737894Y-97259831D01*
X142740728Y-97286189D01*
X142740728Y-106913811D01*
X142721043Y-106980850D01*
X142704409Y-107001492D01*
X140308862Y-109397039D01*
X140247539Y-109430524D01*
X140221181Y-109433358D01*
X139057013Y-109433358D01*
X138989974Y-109413673D01*
X138947655Y-109367811D01*
X138869471Y-109221539D01*
X138869467Y-109221532D01*
X138749189Y-109074974D01*
X138602631Y-108954696D01*
X138602624Y-108954692D01*
X138435428Y-108865324D01*
X138435425Y-108865323D01*
X138435424Y-108865322D01*
X138435421Y-108865321D01*
X138253989Y-108810285D01*
X138253987Y-108810284D01*
X138253989Y-108810284D01*
X138065306Y-108791701D01*
X137876624Y-108810284D01*
X137769500Y-108842779D01*
X137695191Y-108865321D01*
X137695188Y-108865322D01*
X137695186Y-108865323D01*
X137695183Y-108865324D01*
X137527987Y-108954692D01*
X137527980Y-108954696D01*
X137381422Y-109074974D01*
X137261144Y-109221532D01*
X137261140Y-109221539D01*
X137171772Y-109388735D01*
X137171771Y-109388738D01*
X137171770Y-109388740D01*
X137171769Y-109388743D01*
X137149227Y-109463052D01*
X137116732Y-109570176D01*
X137098149Y-109758858D01*
X134000500Y-109758858D01*
X134000500Y-104678858D01*
X137098149Y-104678858D01*
X137116732Y-104867539D01*
X137116733Y-104867541D01*
X137171769Y-105048973D01*
X137171770Y-105048976D01*
X137171771Y-105048977D01*
X137171772Y-105048980D01*
X137261140Y-105216176D01*
X137261144Y-105216183D01*
X137381422Y-105362741D01*
X137527980Y-105483019D01*
X137527987Y-105483023D01*
X137695183Y-105572391D01*
X137695184Y-105572391D01*
X137695191Y-105572395D01*
X137876623Y-105627431D01*
X137876622Y-105627431D01*
X137893539Y-105629097D01*
X138065306Y-105646015D01*
X138253989Y-105627431D01*
X138435421Y-105572395D01*
X138602630Y-105483020D01*
X138749189Y-105362741D01*
X138869468Y-105216182D01*
X138958843Y-105048973D01*
X139013879Y-104867541D01*
X139032463Y-104678858D01*
X139013879Y-104490175D01*
X138958843Y-104308743D01*
X138869468Y-104141534D01*
X138869467Y-104141532D01*
X138749189Y-103994974D01*
X138602631Y-103874696D01*
X138602624Y-103874692D01*
X138435428Y-103785324D01*
X138435425Y-103785323D01*
X138435424Y-103785322D01*
X138435421Y-103785321D01*
X138253989Y-103730285D01*
X138253987Y-103730284D01*
X138253989Y-103730284D01*
X138065306Y-103711701D01*
X137876624Y-103730284D01*
X137769500Y-103762779D01*
X137695191Y-103785321D01*
X137695188Y-103785322D01*
X137695186Y-103785323D01*
X137695183Y-103785324D01*
X137527987Y-103874692D01*
X137527980Y-103874696D01*
X137381422Y-103994974D01*
X137261144Y-104141532D01*
X137261140Y-104141539D01*
X137171772Y-104308735D01*
X137171771Y-104308738D01*
X137116732Y-104490176D01*
X137098149Y-104678858D01*
X134000500Y-104678858D01*
X134000500Y-102138858D01*
X137098149Y-102138858D01*
X137116732Y-102327539D01*
X137116733Y-102327541D01*
X137171769Y-102508973D01*
X137171770Y-102508976D01*
X137171771Y-102508977D01*
X137171772Y-102508980D01*
X137261140Y-102676176D01*
X137261144Y-102676183D01*
X137381422Y-102822741D01*
X137527980Y-102943019D01*
X137527987Y-102943023D01*
X137695183Y-103032391D01*
X137695184Y-103032391D01*
X137695191Y-103032395D01*
X137876623Y-103087431D01*
X137876622Y-103087431D01*
X137893539Y-103089097D01*
X138065306Y-103106015D01*
X138253989Y-103087431D01*
X138435421Y-103032395D01*
X138602630Y-102943020D01*
X138749189Y-102822741D01*
X138869468Y-102676182D01*
X138958843Y-102508973D01*
X139013879Y-102327541D01*
X139032463Y-102138858D01*
X139013879Y-101950175D01*
X138965730Y-101791449D01*
X138965108Y-101721588D01*
X138996709Y-101667780D01*
X139929049Y-100735441D01*
X139990370Y-100701958D01*
X140060062Y-100706942D01*
X140115995Y-100748814D01*
X140140412Y-100814278D01*
X140140728Y-100823124D01*
X140140728Y-104631746D01*
X140121043Y-104698785D01*
X140104409Y-104719427D01*
X138536384Y-106287451D01*
X138475061Y-106320936D01*
X138412708Y-106318431D01*
X138338708Y-106295983D01*
X138253989Y-106270285D01*
X138253987Y-106270284D01*
X138253989Y-106270284D01*
X138065306Y-106251701D01*
X137876624Y-106270284D01*
X137769500Y-106302779D01*
X137695191Y-106325321D01*
X137695188Y-106325322D01*
X137695186Y-106325323D01*
X137695183Y-106325324D01*
X137527987Y-106414692D01*
X137527980Y-106414696D01*
X137381422Y-106534974D01*
X137261144Y-106681532D01*
X137261140Y-106681539D01*
X137171772Y-106848735D01*
X137171771Y-106848738D01*
X137171770Y-106848740D01*
X137171769Y-106848743D01*
X137152031Y-106913811D01*
X137116732Y-107030176D01*
X137098149Y-107218858D01*
X137116732Y-107407539D01*
X137116733Y-107407541D01*
X137171769Y-107588973D01*
X137171770Y-107588976D01*
X137171771Y-107588977D01*
X137171772Y-107588980D01*
X137261140Y-107756176D01*
X137261144Y-107756183D01*
X137381422Y-107902741D01*
X137527980Y-108023019D01*
X137527987Y-108023023D01*
X137695183Y-108112391D01*
X137695184Y-108112391D01*
X137695191Y-108112395D01*
X137876623Y-108167431D01*
X137876622Y-108167431D01*
X137893539Y-108169097D01*
X138065306Y-108186015D01*
X138253989Y-108167431D01*
X138435421Y-108112395D01*
X138602630Y-108023020D01*
X138749189Y-107902741D01*
X138869468Y-107756182D01*
X138958843Y-107588973D01*
X139013879Y-107407541D01*
X139032463Y-107218858D01*
X139013879Y-107030175D01*
X138965730Y-106871449D01*
X138965108Y-106801588D01*
X138996709Y-106747780D01*
X140726693Y-105017798D01*
X140769545Y-104943575D01*
X140769546Y-104943574D01*
X140791728Y-104860789D01*
X140791728Y-100052887D01*
X140811413Y-99985848D01*
X140822010Y-99971689D01*
X140891605Y-99891373D01*
X140951393Y-99760457D01*
X140971875Y-99618000D01*
X140951393Y-99475543D01*
X140891605Y-99344627D01*
X140797356Y-99235857D01*
X140676281Y-99158047D01*
X140676279Y-99158046D01*
X140676277Y-99158045D01*
X140676278Y-99158045D01*
X140538191Y-99117500D01*
X140538189Y-99117500D01*
X140394267Y-99117500D01*
X140394264Y-99117500D01*
X140250662Y-99159665D01*
X140180793Y-99159665D01*
X140122015Y-99121890D01*
X140092990Y-99058335D01*
X140091728Y-99040688D01*
X140091728Y-94981498D01*
X140111413Y-94914459D01*
X140122015Y-94900296D01*
X140199063Y-94811377D01*
X140199063Y-94811375D01*
X140199066Y-94811373D01*
X140258854Y-94680457D01*
X140279336Y-94538000D01*
X140258854Y-94395543D01*
X140199066Y-94264627D01*
X140104817Y-94155857D01*
X139983742Y-94078047D01*
X139983740Y-94078046D01*
X139983738Y-94078045D01*
X139983739Y-94078045D01*
X139845652Y-94037500D01*
X139845650Y-94037500D01*
X139701728Y-94037500D01*
X139701725Y-94037500D01*
X139563638Y-94078045D01*
X139442562Y-94155856D01*
X139348312Y-94264626D01*
X139348311Y-94264628D01*
X139288523Y-94395543D01*
X139268042Y-94538000D01*
X139288523Y-94680456D01*
X139348311Y-94811371D01*
X139348312Y-94811373D01*
X139410441Y-94883074D01*
X139439466Y-94946629D01*
X139440728Y-94964276D01*
X139440728Y-100251746D01*
X139421043Y-100318785D01*
X139404409Y-100339427D01*
X138536384Y-101207451D01*
X138475061Y-101240936D01*
X138412708Y-101238431D01*
X138338708Y-101215983D01*
X138253989Y-101190285D01*
X138253987Y-101190284D01*
X138253989Y-101190284D01*
X138065306Y-101171701D01*
X137876624Y-101190284D01*
X137769500Y-101222779D01*
X137695191Y-101245321D01*
X137695188Y-101245322D01*
X137695186Y-101245323D01*
X137695183Y-101245324D01*
X137527987Y-101334692D01*
X137527980Y-101334696D01*
X137381422Y-101454974D01*
X137261144Y-101601532D01*
X137261140Y-101601539D01*
X137171772Y-101768735D01*
X137171771Y-101768738D01*
X137171770Y-101768740D01*
X137171769Y-101768743D01*
X137149227Y-101843052D01*
X137116732Y-101950176D01*
X137098149Y-102138858D01*
X134000500Y-102138858D01*
X134000500Y-99598858D01*
X137098149Y-99598858D01*
X137116732Y-99787539D01*
X137116733Y-99787541D01*
X137171769Y-99968973D01*
X137171770Y-99968976D01*
X137171771Y-99968977D01*
X137171772Y-99968980D01*
X137261140Y-100136176D01*
X137261144Y-100136183D01*
X137381422Y-100282741D01*
X137527980Y-100403019D01*
X137527987Y-100403023D01*
X137695183Y-100492391D01*
X137695184Y-100492391D01*
X137695191Y-100492395D01*
X137876623Y-100547431D01*
X137876622Y-100547431D01*
X137893539Y-100549097D01*
X138065306Y-100566015D01*
X138253989Y-100547431D01*
X138435421Y-100492395D01*
X138602630Y-100403020D01*
X138749189Y-100282741D01*
X138869468Y-100136182D01*
X138958843Y-99968973D01*
X139013879Y-99787541D01*
X139032463Y-99598858D01*
X139013879Y-99410175D01*
X138958843Y-99228743D01*
X138921920Y-99159665D01*
X138869471Y-99061539D01*
X138869467Y-99061532D01*
X138749189Y-98914974D01*
X138602631Y-98794696D01*
X138602624Y-98794692D01*
X138435428Y-98705324D01*
X138435425Y-98705323D01*
X138435424Y-98705322D01*
X138435421Y-98705321D01*
X138253989Y-98650285D01*
X138253987Y-98650284D01*
X138253989Y-98650284D01*
X138065306Y-98631701D01*
X137876624Y-98650284D01*
X137769500Y-98682779D01*
X137695191Y-98705321D01*
X137695188Y-98705322D01*
X137695186Y-98705323D01*
X137695183Y-98705324D01*
X137527987Y-98794692D01*
X137527980Y-98794696D01*
X137381422Y-98914974D01*
X137261144Y-99061532D01*
X137261140Y-99061539D01*
X137171772Y-99228735D01*
X137171771Y-99228738D01*
X137171770Y-99228740D01*
X137171769Y-99228743D01*
X137169611Y-99235857D01*
X137116732Y-99410176D01*
X137098149Y-99598858D01*
X134000500Y-99598858D01*
X134000500Y-96200905D01*
X137026606Y-96200905D01*
X137026606Y-97916810D01*
X137038237Y-97975287D01*
X137038238Y-97975288D01*
X137082553Y-98041610D01*
X137148875Y-98085925D01*
X137148876Y-98085926D01*
X137207353Y-98097557D01*
X137207356Y-98097558D01*
X137207358Y-98097558D01*
X138923256Y-98097558D01*
X138923257Y-98097557D01*
X138938074Y-98094610D01*
X138981735Y-98085926D01*
X138981735Y-98085925D01*
X138981737Y-98085925D01*
X139048058Y-98041610D01*
X139092373Y-97975289D01*
X139092373Y-97975287D01*
X139092374Y-97975287D01*
X139104005Y-97916810D01*
X139104006Y-97916808D01*
X139104006Y-96200907D01*
X139104005Y-96200905D01*
X139092374Y-96142428D01*
X139092373Y-96142427D01*
X139048058Y-96076105D01*
X138981736Y-96031790D01*
X138981735Y-96031789D01*
X138923258Y-96020158D01*
X138923254Y-96020158D01*
X137207358Y-96020158D01*
X137207353Y-96020158D01*
X137148876Y-96031789D01*
X137148875Y-96031790D01*
X137082553Y-96076105D01*
X137038238Y-96142427D01*
X137038237Y-96142428D01*
X137026606Y-96200905D01*
X134000500Y-96200905D01*
X134000500Y-79999993D01*
X143994539Y-79999993D01*
X143994539Y-80000006D01*
X144014370Y-80466882D01*
X144014372Y-80466896D01*
X144060457Y-80826781D01*
X144073730Y-80930426D01*
X144172184Y-81387255D01*
X144172186Y-81387263D01*
X144309025Y-81834090D01*
X144309027Y-81834095D01*
X144483262Y-82267695D01*
X144483266Y-82267706D01*
X144693645Y-82684967D01*
X144693655Y-82684985D01*
X144938672Y-83082919D01*
X144938675Y-83082923D01*
X145216557Y-83458645D01*
X145216563Y-83458653D01*
X145525297Y-83809440D01*
X145525310Y-83809453D01*
X145862677Y-84132794D01*
X145862681Y-84132797D01*
X146226270Y-84426375D01*
X146613447Y-84688060D01*
X146794768Y-84789352D01*
X147021411Y-84915963D01*
X147021433Y-84915974D01*
X147447247Y-85108455D01*
X147447252Y-85108457D01*
X147650332Y-85180209D01*
X147887876Y-85264139D01*
X148340113Y-85381892D01*
X148800708Y-85460869D01*
X148944850Y-85473137D01*
X149266323Y-85500499D01*
X149266340Y-85500499D01*
X149266342Y-85500500D01*
X149266343Y-85500500D01*
X149733657Y-85500500D01*
X149733658Y-85500500D01*
X149733659Y-85500499D01*
X149733676Y-85500499D01*
X150010812Y-85476910D01*
X150199292Y-85460869D01*
X150659887Y-85381892D01*
X151112124Y-85264139D01*
X151552747Y-85108457D01*
X151552752Y-85108455D01*
X151978566Y-84915974D01*
X151978568Y-84915972D01*
X151978579Y-84915968D01*
X152386553Y-84688060D01*
X152773730Y-84426375D01*
X153137319Y-84132797D01*
X153474701Y-83809442D01*
X153652296Y-83607655D01*
X153783436Y-83458653D01*
X153783442Y-83458645D01*
X153783446Y-83458641D01*
X154061328Y-83082919D01*
X154306345Y-82684985D01*
X154516733Y-82267706D01*
X154690975Y-81834088D01*
X154827816Y-81387255D01*
X154926270Y-80930427D01*
X154985628Y-80466896D01*
X155005461Y-80000000D01*
X155005461Y-79999993D01*
X154985629Y-79533117D01*
X154985628Y-79533111D01*
X154985628Y-79533104D01*
X154926270Y-79069573D01*
X154827816Y-78612745D01*
X154690975Y-78165912D01*
X154516733Y-77732294D01*
X154516733Y-77732293D01*
X154306354Y-77315032D01*
X154306343Y-77315012D01*
X154289985Y-77288445D01*
X154061328Y-76917081D01*
X153783446Y-76541359D01*
X153783442Y-76541354D01*
X153783436Y-76541346D01*
X153474702Y-76190559D01*
X153474689Y-76190546D01*
X153137322Y-75867205D01*
X152895894Y-75672266D01*
X152773730Y-75573625D01*
X152386553Y-75311940D01*
X152375835Y-75305953D01*
X151978588Y-75084036D01*
X151978566Y-75084025D01*
X151552752Y-74891544D01*
X151552747Y-74891542D01*
X151112119Y-74735859D01*
X150659885Y-74618107D01*
X150199302Y-74539132D01*
X150199276Y-74539129D01*
X149733676Y-74499500D01*
X149733658Y-74499500D01*
X149266342Y-74499500D01*
X149266323Y-74499500D01*
X148800723Y-74539129D01*
X148800697Y-74539132D01*
X148340114Y-74618107D01*
X147887880Y-74735859D01*
X147447252Y-74891542D01*
X147447247Y-74891544D01*
X147021433Y-75084025D01*
X147021411Y-75084036D01*
X146613455Y-75311935D01*
X146613436Y-75311947D01*
X146226275Y-75573621D01*
X145862677Y-75867205D01*
X145525310Y-76190546D01*
X145525297Y-76190559D01*
X145216563Y-76541346D01*
X145216557Y-76541354D01*
X144938675Y-76917076D01*
X144693656Y-77315012D01*
X144693645Y-77315032D01*
X144483266Y-77732293D01*
X144483262Y-77732304D01*
X144309027Y-78165904D01*
X144309025Y-78165909D01*
X144172186Y-78612736D01*
X144172184Y-78612744D01*
X144073730Y-79069573D01*
X144014370Y-79533117D01*
X143994539Y-79999993D01*
X134000500Y-79999993D01*
X134000500Y-79400000D01*
X136594353Y-79400000D01*
X136614834Y-79542456D01*
X136634190Y-79584839D01*
X136674623Y-79673373D01*
X136768872Y-79782143D01*
X136889947Y-79859953D01*
X136889950Y-79859954D01*
X136889949Y-79859954D01*
X137028036Y-79900499D01*
X137028038Y-79900500D01*
X137028039Y-79900500D01*
X137171962Y-79900500D01*
X137171962Y-79900499D01*
X137310053Y-79859953D01*
X137431128Y-79782143D01*
X137525377Y-79673373D01*
X137585165Y-79542457D01*
X137605647Y-79400000D01*
X137605646Y-79399999D01*
X137606909Y-79391222D01*
X137609872Y-79391648D01*
X137625332Y-79339001D01*
X137641961Y-79318364D01*
X140031582Y-76928742D01*
X140031587Y-76928739D01*
X140041790Y-76918535D01*
X140041792Y-76918535D01*
X140102395Y-76857932D01*
X140145248Y-76783708D01*
X140167431Y-76700923D01*
X140167431Y-76615217D01*
X140167431Y-76607622D01*
X140167430Y-76607604D01*
X140167430Y-66619258D01*
X140187115Y-66552219D01*
X140203744Y-66531582D01*
X142150029Y-64585296D01*
X142211350Y-64551813D01*
X142263848Y-64554460D01*
X142264376Y-64551978D01*
X142352048Y-64570613D01*
X142413530Y-64603805D01*
X142447306Y-64664968D01*
X142442654Y-64734683D01*
X142413948Y-64779584D01*
X140539537Y-66653994D01*
X140539535Y-66653997D01*
X140496680Y-66728221D01*
X140488550Y-66758569D01*
X140474500Y-66811004D01*
X140474500Y-78965112D01*
X140454815Y-79032151D01*
X140444213Y-79046314D01*
X140374625Y-79126622D01*
X140374622Y-79126628D01*
X140314834Y-79257543D01*
X140294353Y-79400000D01*
X140314834Y-79542456D01*
X140334190Y-79584839D01*
X140374623Y-79673373D01*
X140468872Y-79782143D01*
X140589947Y-79859953D01*
X140589950Y-79859954D01*
X140589949Y-79859954D01*
X140728036Y-79900499D01*
X140728038Y-79900500D01*
X140728039Y-79900500D01*
X140871962Y-79900500D01*
X140871962Y-79900499D01*
X141010053Y-79859953D01*
X141131128Y-79782143D01*
X141225377Y-79673373D01*
X141285165Y-79542457D01*
X141305647Y-79400000D01*
X141285165Y-79257543D01*
X141225377Y-79126627D01*
X141225375Y-79126625D01*
X141225374Y-79126622D01*
X141155787Y-79046314D01*
X141126762Y-78982758D01*
X141125500Y-78965112D01*
X141125500Y-67040046D01*
X141145185Y-66973007D01*
X141161814Y-66952370D01*
X143994652Y-64119531D01*
X143994657Y-64119528D01*
X144004860Y-64109324D01*
X144004862Y-64109324D01*
X144065465Y-64048721D01*
X144086891Y-64011609D01*
X144108318Y-63974498D01*
X144130501Y-63891712D01*
X144130501Y-63806006D01*
X144130501Y-63798411D01*
X144130500Y-63798393D01*
X144130500Y-62066593D01*
X144150185Y-61999554D01*
X144202989Y-61953799D01*
X144204007Y-61953338D01*
X144232593Y-61940612D01*
X144377230Y-61835526D01*
X144496859Y-61702665D01*
X144586250Y-61547835D01*
X144641497Y-61377803D01*
X144660185Y-61200000D01*
X144641497Y-61022197D01*
X144586250Y-60852165D01*
X144496859Y-60697335D01*
X144450003Y-60645296D01*
X144377235Y-60564478D01*
X144377232Y-60564476D01*
X144377231Y-60564475D01*
X144377230Y-60564474D01*
X144232593Y-60459388D01*
X144069267Y-60386671D01*
X144069265Y-60386670D01*
X143941594Y-60359533D01*
X143894391Y-60349500D01*
X143715609Y-60349500D01*
X143684954Y-60356015D01*
X143540733Y-60386670D01*
X143540728Y-60386672D01*
X143377408Y-60459387D01*
X143232768Y-60564475D01*
X143113140Y-60697336D01*
X143023750Y-60852164D01*
X143023747Y-60852170D01*
X142968504Y-61022192D01*
X142968503Y-61022194D01*
X142949815Y-61200000D01*
X142968503Y-61377805D01*
X142968504Y-61377807D01*
X143023747Y-61547829D01*
X143023750Y-61547835D01*
X143113141Y-61702665D01*
X143154812Y-61748946D01*
X143232764Y-61835521D01*
X143232767Y-61835523D01*
X143232770Y-61835526D01*
X143377407Y-61940612D01*
X143405933Y-61953312D01*
X143459171Y-61998561D01*
X143479494Y-62065410D01*
X143479500Y-62066593D01*
X143479500Y-63212147D01*
X143459815Y-63279186D01*
X143407011Y-63324941D01*
X143337853Y-63334885D01*
X143274297Y-63305860D01*
X143248113Y-63274147D01*
X143226860Y-63237336D01*
X143107235Y-63104478D01*
X143107232Y-63104476D01*
X143107231Y-63104475D01*
X143107230Y-63104474D01*
X142962593Y-62999388D01*
X142799267Y-62926671D01*
X142799265Y-62926670D01*
X142671594Y-62899533D01*
X142624391Y-62889500D01*
X142445609Y-62889500D01*
X142414954Y-62896015D01*
X142270733Y-62926670D01*
X142270728Y-62926672D01*
X142107408Y-62999387D01*
X141962768Y-63104475D01*
X141843140Y-63237336D01*
X141753750Y-63392164D01*
X141753747Y-63392170D01*
X141698504Y-63562192D01*
X141698503Y-63562194D01*
X141679815Y-63740000D01*
X141698503Y-63917805D01*
X141698504Y-63917807D01*
X141723668Y-63995254D01*
X141725663Y-64065096D01*
X141693418Y-64121253D01*
X139581467Y-66233205D01*
X139581463Y-66233211D01*
X139538611Y-66307431D01*
X139538612Y-66307432D01*
X139516430Y-66390217D01*
X139516430Y-76471881D01*
X139496745Y-76538920D01*
X139480111Y-76559562D01*
X137176492Y-78863181D01*
X137115169Y-78896666D01*
X137088811Y-78899500D01*
X137028036Y-78899500D01*
X136889949Y-78940045D01*
X136768873Y-79017856D01*
X136674623Y-79126626D01*
X136674622Y-79126628D01*
X136614834Y-79257543D01*
X136594353Y-79400000D01*
X134000500Y-79400000D01*
X134000500Y-63740000D01*
X139139815Y-63740000D01*
X139158503Y-63917805D01*
X139158504Y-63917807D01*
X139213747Y-64087829D01*
X139213750Y-64087835D01*
X139303141Y-64242665D01*
X139344812Y-64288946D01*
X139422764Y-64375521D01*
X139422767Y-64375523D01*
X139422770Y-64375526D01*
X139567407Y-64480612D01*
X139730733Y-64553329D01*
X139905609Y-64590500D01*
X139905610Y-64590500D01*
X140084389Y-64590500D01*
X140084391Y-64590500D01*
X140259267Y-64553329D01*
X140422593Y-64480612D01*
X140567230Y-64375526D01*
X140686859Y-64242665D01*
X140776250Y-64087835D01*
X140831497Y-63917803D01*
X140850185Y-63740000D01*
X140831497Y-63562197D01*
X140776250Y-63392165D01*
X140686859Y-63237335D01*
X140640003Y-63185296D01*
X140567235Y-63104478D01*
X140567232Y-63104476D01*
X140567231Y-63104475D01*
X140567230Y-63104474D01*
X140422593Y-62999388D01*
X140259267Y-62926671D01*
X140259265Y-62926670D01*
X140131594Y-62899533D01*
X140084391Y-62889500D01*
X139905609Y-62889500D01*
X139874954Y-62896015D01*
X139730733Y-62926670D01*
X139730728Y-62926672D01*
X139567408Y-62999387D01*
X139422768Y-63104475D01*
X139303140Y-63237336D01*
X139213750Y-63392164D01*
X139213747Y-63392170D01*
X139158504Y-63562192D01*
X139158503Y-63562194D01*
X139139815Y-63740000D01*
X134000500Y-63740000D01*
X134000500Y-61199999D01*
X140110073Y-61199999D01*
X140110073Y-61200000D01*
X140129737Y-61412216D01*
X140129738Y-61412219D01*
X140188058Y-61617196D01*
X140188064Y-61617211D01*
X140283061Y-61807991D01*
X140283064Y-61807996D01*
X140291836Y-61819610D01*
X140822861Y-61288584D01*
X140845667Y-61373694D01*
X140904910Y-61476306D01*
X140988694Y-61560090D01*
X141091306Y-61619333D01*
X141176414Y-61642137D01*
X140647991Y-62170559D01*
X140750204Y-62233847D01*
X140750208Y-62233849D01*
X140948936Y-62310836D01*
X140948941Y-62310837D01*
X141158439Y-62350000D01*
X141371561Y-62350000D01*
X141581058Y-62310837D01*
X141581063Y-62310836D01*
X141779791Y-62233849D01*
X141779798Y-62233846D01*
X141882006Y-62170560D01*
X141882006Y-62170559D01*
X141353585Y-61642137D01*
X141438694Y-61619333D01*
X141541306Y-61560090D01*
X141625090Y-61476306D01*
X141684333Y-61373694D01*
X141707138Y-61288585D01*
X142238162Y-61819609D01*
X142238163Y-61819609D01*
X142246940Y-61807988D01*
X142246942Y-61807985D01*
X142341933Y-61617216D01*
X142341941Y-61617196D01*
X142400261Y-61412219D01*
X142400262Y-61412216D01*
X142419927Y-61200000D01*
X142419927Y-61199999D01*
X142400262Y-60987783D01*
X142400261Y-60987780D01*
X142341941Y-60782803D01*
X142341933Y-60782783D01*
X142246942Y-60592014D01*
X142246937Y-60592006D01*
X142238163Y-60580389D01*
X141707137Y-61111414D01*
X141684333Y-61026306D01*
X141625090Y-60923694D01*
X141541306Y-60839910D01*
X141438694Y-60780667D01*
X141353585Y-60757862D01*
X141882007Y-60229439D01*
X141779793Y-60166151D01*
X141779789Y-60166149D01*
X141581063Y-60089163D01*
X141581058Y-60089162D01*
X141371561Y-60050000D01*
X141158439Y-60050000D01*
X140948941Y-60089162D01*
X140948936Y-60089163D01*
X140750210Y-60166149D01*
X140750201Y-60166154D01*
X140647992Y-60229438D01*
X140647991Y-60229439D01*
X141176414Y-60757861D01*
X141091306Y-60780667D01*
X140988694Y-60839910D01*
X140904910Y-60923694D01*
X140845667Y-61026306D01*
X140822862Y-61111414D01*
X140291836Y-60580388D01*
X140283059Y-60592010D01*
X140188066Y-60782783D01*
X140188058Y-60782803D01*
X140129738Y-60987780D01*
X140129737Y-60987783D01*
X140110073Y-61199999D01*
X134000500Y-61199999D01*
X134000500Y-54728711D01*
X136239500Y-54728711D01*
X136239500Y-54971288D01*
X136271161Y-55211785D01*
X136333947Y-55446104D01*
X136426773Y-55670205D01*
X136426776Y-55670212D01*
X136548064Y-55880289D01*
X136548066Y-55880292D01*
X136548067Y-55880293D01*
X136695733Y-56072736D01*
X136695739Y-56072743D01*
X136867256Y-56244260D01*
X136867262Y-56244265D01*
X137059711Y-56391936D01*
X137269788Y-56513224D01*
X137493900Y-56606054D01*
X137728211Y-56668838D01*
X137908586Y-56692584D01*
X137968711Y-56700500D01*
X137968712Y-56700500D01*
X138211289Y-56700500D01*
X138259388Y-56694167D01*
X138451789Y-56668838D01*
X138686100Y-56606054D01*
X138910212Y-56513224D01*
X139120289Y-56391936D01*
X139312738Y-56244265D01*
X139484265Y-56072738D01*
X139631936Y-55880289D01*
X139753224Y-55670212D01*
X139846054Y-55446100D01*
X139908838Y-55211789D01*
X139940500Y-54971288D01*
X139940500Y-54728712D01*
X139940500Y-54728711D01*
X143859500Y-54728711D01*
X143859500Y-54971288D01*
X143891161Y-55211785D01*
X143953947Y-55446104D01*
X144046773Y-55670205D01*
X144046776Y-55670212D01*
X144168064Y-55880289D01*
X144168066Y-55880292D01*
X144168067Y-55880293D01*
X144315733Y-56072736D01*
X144315739Y-56072743D01*
X144487256Y-56244260D01*
X144487262Y-56244265D01*
X144679711Y-56391936D01*
X144889788Y-56513224D01*
X145113900Y-56606054D01*
X145348211Y-56668838D01*
X145528586Y-56692584D01*
X145588711Y-56700500D01*
X145588712Y-56700500D01*
X145831289Y-56700500D01*
X145879388Y-56694167D01*
X146071789Y-56668838D01*
X146306100Y-56606054D01*
X146530212Y-56513224D01*
X146740289Y-56391936D01*
X146932738Y-56244265D01*
X147104265Y-56072738D01*
X147251936Y-55880289D01*
X147373224Y-55670212D01*
X147466054Y-55446100D01*
X147528838Y-55211789D01*
X147560500Y-54971288D01*
X147560500Y-54728712D01*
X147556720Y-54700000D01*
X153829312Y-54700000D01*
X153848033Y-54937883D01*
X153903742Y-55169925D01*
X153995056Y-55390378D01*
X154113229Y-55583217D01*
X154785387Y-54911059D01*
X154790889Y-54931591D01*
X154869881Y-55068408D01*
X154981592Y-55180119D01*
X155118409Y-55259111D01*
X155138940Y-55264612D01*
X154466781Y-55936769D01*
X154659621Y-56054943D01*
X154880075Y-56146257D01*
X154880072Y-56146257D01*
X155112116Y-56201966D01*
X155350000Y-56220687D01*
X155587883Y-56201966D01*
X155819925Y-56146257D01*
X156040378Y-56054943D01*
X156233217Y-55936770D01*
X156233217Y-55936769D01*
X155561059Y-55264612D01*
X155581591Y-55259111D01*
X155718408Y-55180119D01*
X155830119Y-55068408D01*
X155909111Y-54931591D01*
X155914612Y-54911059D01*
X156586769Y-55583217D01*
X156586770Y-55583217D01*
X156704943Y-55390378D01*
X156796257Y-55169925D01*
X156851966Y-54937883D01*
X156870687Y-54700000D01*
X156851966Y-54462116D01*
X156796257Y-54230074D01*
X156704943Y-54009621D01*
X156586769Y-53816781D01*
X155914612Y-54488939D01*
X155909111Y-54468409D01*
X155830119Y-54331592D01*
X155718408Y-54219881D01*
X155581591Y-54140889D01*
X155561059Y-54135387D01*
X156032199Y-53664247D01*
X157633500Y-53664247D01*
X157633500Y-55735752D01*
X157645131Y-55794229D01*
X157645132Y-55794230D01*
X157689447Y-55860552D01*
X157755769Y-55904867D01*
X157755770Y-55904868D01*
X157814247Y-55916499D01*
X157814250Y-55916500D01*
X157814252Y-55916500D01*
X159885750Y-55916500D01*
X159885751Y-55916499D01*
X159900568Y-55913552D01*
X159944229Y-55904868D01*
X159944229Y-55904867D01*
X159944231Y-55904867D01*
X160010552Y-55860552D01*
X160054867Y-55794231D01*
X160054867Y-55794229D01*
X160054868Y-55794229D01*
X160066499Y-55735752D01*
X160066500Y-55735750D01*
X160066500Y-53664249D01*
X160066499Y-53664247D01*
X160054868Y-53605770D01*
X160054867Y-53605769D01*
X160010552Y-53539447D01*
X159944230Y-53495132D01*
X159944229Y-53495131D01*
X159885752Y-53483500D01*
X159885748Y-53483500D01*
X157814252Y-53483500D01*
X157814247Y-53483500D01*
X157755770Y-53495131D01*
X157755769Y-53495132D01*
X157689447Y-53539447D01*
X157645132Y-53605769D01*
X157645131Y-53605770D01*
X157633500Y-53664247D01*
X156032199Y-53664247D01*
X156233217Y-53463229D01*
X156040378Y-53345056D01*
X155819924Y-53253742D01*
X155819927Y-53253742D01*
X155587883Y-53198033D01*
X155350000Y-53179312D01*
X155112116Y-53198033D01*
X154880074Y-53253742D01*
X154659621Y-53345056D01*
X154466781Y-53463229D01*
X155138940Y-54135387D01*
X155118409Y-54140889D01*
X154981592Y-54219881D01*
X154869881Y-54331592D01*
X154790889Y-54468409D01*
X154785387Y-54488939D01*
X154113229Y-53816781D01*
X153995056Y-54009621D01*
X153903742Y-54230074D01*
X153848033Y-54462116D01*
X153829312Y-54700000D01*
X147556720Y-54700000D01*
X147528838Y-54488211D01*
X147466054Y-54253900D01*
X147373224Y-54029788D01*
X147251936Y-53819711D01*
X147191018Y-53740321D01*
X147104266Y-53627263D01*
X147104260Y-53627256D01*
X146932743Y-53455739D01*
X146932736Y-53455733D01*
X146740293Y-53308067D01*
X146740292Y-53308066D01*
X146740289Y-53308064D01*
X146530212Y-53186776D01*
X146530205Y-53186773D01*
X146306104Y-53093947D01*
X146071785Y-53031161D01*
X145831289Y-52999500D01*
X145831288Y-52999500D01*
X145588712Y-52999500D01*
X145588711Y-52999500D01*
X145348214Y-53031161D01*
X145113895Y-53093947D01*
X144889794Y-53186773D01*
X144889785Y-53186777D01*
X144679706Y-53308067D01*
X144487263Y-53455733D01*
X144487256Y-53455739D01*
X144315739Y-53627256D01*
X144315733Y-53627263D01*
X144168067Y-53819706D01*
X144046777Y-54029785D01*
X144046773Y-54029794D01*
X143953947Y-54253895D01*
X143891161Y-54488214D01*
X143859500Y-54728711D01*
X139940500Y-54728711D01*
X139908838Y-54488211D01*
X139846054Y-54253900D01*
X139753224Y-54029788D01*
X139631936Y-53819711D01*
X139571018Y-53740321D01*
X139484266Y-53627263D01*
X139484260Y-53627256D01*
X139312743Y-53455739D01*
X139312736Y-53455733D01*
X139120293Y-53308067D01*
X139120292Y-53308066D01*
X139120289Y-53308064D01*
X138910212Y-53186776D01*
X138910205Y-53186773D01*
X138686104Y-53093947D01*
X138451785Y-53031161D01*
X138211289Y-52999500D01*
X138211288Y-52999500D01*
X137968712Y-52999500D01*
X137968711Y-52999500D01*
X137728214Y-53031161D01*
X137493895Y-53093947D01*
X137269794Y-53186773D01*
X137269785Y-53186777D01*
X137059706Y-53308067D01*
X136867263Y-53455733D01*
X136867256Y-53455739D01*
X136695739Y-53627256D01*
X136695733Y-53627263D01*
X136548067Y-53819706D01*
X136426777Y-54029785D01*
X136426773Y-54029794D01*
X136333947Y-54253895D01*
X136271161Y-54488214D01*
X136239500Y-54728711D01*
X134000500Y-54728711D01*
X134000500Y-50624500D01*
X134020185Y-50557461D01*
X134072989Y-50511706D01*
X134124500Y-50500500D01*
X164875500Y-50500500D01*
X164942539Y-50520185D01*
G37*
%TD.AperFunction*%
%TD*%
M02*
