%TF.GenerationSoftware,KiCad,Pcbnew,8.0.6*%
%TF.CreationDate,2024-10-28T22:07:04-04:00*%
%TF.ProjectId,VexQwiic,56657851-7769-4696-932e-6b696361645f,rev?*%
%TF.SameCoordinates,Original*%
%TF.FileFunction,Copper,L1,Top*%
%TF.FilePolarity,Positive*%
%FSLAX46Y46*%
G04 Gerber Fmt 4.6, Leading zero omitted, Abs format (unit mm)*
G04 Created by KiCad (PCBNEW 8.0.6) date 2024-10-28 22:07:04*
%MOMM*%
%LPD*%
G01*
G04 APERTURE LIST*
G04 Aperture macros list*
%AMRoundRect*
0 Rectangle with rounded corners*
0 $1 Rounding radius*
0 $2 $3 $4 $5 $6 $7 $8 $9 X,Y pos of 4 corners*
0 Add a 4 corners polygon primitive as box body*
4,1,4,$2,$3,$4,$5,$6,$7,$8,$9,$2,$3,0*
0 Add four circle primitives for the rounded corners*
1,1,$1+$1,$2,$3*
1,1,$1+$1,$4,$5*
1,1,$1+$1,$6,$7*
1,1,$1+$1,$8,$9*
0 Add four rect primitives between the rounded corners*
20,1,$1+$1,$2,$3,$4,$5,0*
20,1,$1+$1,$4,$5,$6,$7,0*
20,1,$1+$1,$6,$7,$8,$9,0*
20,1,$1+$1,$8,$9,$2,$3,0*%
G04 Aperture macros list end*
%TA.AperFunction,ComponentPad*%
%ADD10C,1.300000*%
%TD*%
%TA.AperFunction,SMDPad,CuDef*%
%ADD11RoundRect,0.225000X0.250000X-0.225000X0.250000X0.225000X-0.250000X0.225000X-0.250000X-0.225000X0*%
%TD*%
%TA.AperFunction,SMDPad,CuDef*%
%ADD12RoundRect,0.150000X0.150000X-0.512500X0.150000X0.512500X-0.150000X0.512500X-0.150000X-0.512500X0*%
%TD*%
%TA.AperFunction,ComponentPad*%
%ADD13R,1.676400X1.676400*%
%TD*%
%TA.AperFunction,ComponentPad*%
%ADD14C,1.524000*%
%TD*%
%TA.AperFunction,ComponentPad*%
%ADD15R,1.524000X1.524000*%
%TD*%
%TA.AperFunction,SMDPad,CuDef*%
%ADD16RoundRect,0.200000X0.275000X-0.200000X0.275000X0.200000X-0.275000X0.200000X-0.275000X-0.200000X0*%
%TD*%
%TA.AperFunction,SMDPad,CuDef*%
%ADD17RoundRect,0.250000X-0.650000X1.500000X-0.650000X-1.500000X0.650000X-1.500000X0.650000X1.500000X0*%
%TD*%
%TA.AperFunction,SMDPad,CuDef*%
%ADD18RoundRect,0.200000X-0.200000X-0.275000X0.200000X-0.275000X0.200000X0.275000X-0.200000X0.275000X0*%
%TD*%
%TA.AperFunction,SMDPad,CuDef*%
%ADD19RoundRect,0.225000X-0.250000X0.225000X-0.250000X-0.225000X0.250000X-0.225000X0.250000X0.225000X0*%
%TD*%
%TA.AperFunction,SMDPad,CuDef*%
%ADD20RoundRect,0.225000X0.225000X0.250000X-0.225000X0.250000X-0.225000X-0.250000X0.225000X-0.250000X0*%
%TD*%
%TA.AperFunction,SMDPad,CuDef*%
%ADD21RoundRect,0.250000X-0.250000X0.250000X-0.250000X-0.250000X0.250000X-0.250000X0.250000X0.250000X0*%
%TD*%
%TA.AperFunction,SMDPad,CuDef*%
%ADD22RoundRect,0.375000X-1.625000X0.375000X-1.625000X-0.375000X1.625000X-0.375000X1.625000X0.375000X0*%
%TD*%
%TA.AperFunction,SMDPad,CuDef*%
%ADD23RoundRect,0.381000X0.762000X0.381000X-0.762000X0.381000X-0.762000X-0.381000X0.762000X-0.381000X0*%
%TD*%
%TA.AperFunction,SMDPad,CuDef*%
%ADD24RoundRect,0.042000X0.258000X-0.943000X0.258000X0.943000X-0.258000X0.943000X-0.258000X-0.943000X0*%
%TD*%
%TA.AperFunction,ComponentPad*%
%ADD25R,2.032000X2.032000*%
%TD*%
%TA.AperFunction,ComponentPad*%
%ADD26C,2.032000*%
%TD*%
%TA.AperFunction,ViaPad*%
%ADD27C,0.600000*%
%TD*%
%TA.AperFunction,Conductor*%
%ADD28C,0.600000*%
%TD*%
%TA.AperFunction,Conductor*%
%ADD29C,0.760000*%
%TD*%
%TA.AperFunction,Conductor*%
%ADD30C,0.250000*%
%TD*%
%TA.AperFunction,Conductor*%
%ADD31C,0.200000*%
%TD*%
G04 APERTURE END LIST*
D10*
%TO.P,CONN1,1,DA*%
%TO.N,/RJ9_DA*%
X143805000Y-61200000D03*
%TO.P,CONN1,2,DB*%
%TO.N,/RJ9_DB*%
X142535000Y-63740000D03*
%TO.P,CONN1,3,GND*%
%TO.N,GND*%
X141265000Y-61200000D03*
%TO.P,CONN1,4,+12V*%
%TO.N,+12V*%
X139995000Y-63740000D03*
%TD*%
D11*
%TO.P,C4,1*%
%TO.N,Net-(D3-A)*%
X144500000Y-73775000D03*
%TO.P,C4,2*%
%TO.N,GND*%
X144500000Y-72225000D03*
%TD*%
D12*
%TO.P,U3,1,GND*%
%TO.N,GND*%
X138550000Y-70637500D03*
%TO.P,U3,2,SW*%
%TO.N,Net-(U3-SW)*%
X139500000Y-70637500D03*
%TO.P,U3,3,VIN*%
%TO.N,+12V*%
X140450000Y-70637500D03*
%TO.P,U3,4,VFB*%
%TO.N,Net-(U3-VFB)*%
X140450000Y-68362500D03*
%TO.P,U3,5,EN*%
%TO.N,+12V*%
X139500000Y-68362500D03*
%TO.P,U3,6,VBST*%
%TO.N,Net-(U3-VBST)*%
X138550000Y-68362500D03*
%TD*%
D13*
%TO.P,CON1,P1,AN*%
%TO.N,/MKBUS_AN*%
X138065306Y-97058858D03*
D14*
%TO.P,CON1,P2,RST*%
%TO.N,/MKBUS_RST*%
X138065306Y-99598858D03*
%TO.P,CON1,P3,CS*%
%TO.N,/MKBUS_CS*%
X138065306Y-102138858D03*
%TO.P,CON1,P4,SCK*%
%TO.N,/MKBUS_SCK*%
X138065306Y-104678858D03*
%TO.P,CON1,P5,MISO*%
%TO.N,/MKBUS_MISO*%
X138065306Y-107218858D03*
%TO.P,CON1,P6,MOSI*%
%TO.N,/MKBUS_MOSI*%
X138065306Y-109758858D03*
%TO.P,CON1,P7,3V3*%
%TO.N,+3.3V*%
X138065306Y-112298858D03*
%TO.P,CON1,P8,GND1*%
%TO.N,GND*%
X138065306Y-114838858D03*
%TO.P,CON1,P9,GND2*%
X160925306Y-114838858D03*
%TO.P,CON1,P10,5V*%
%TO.N,+5V*%
X160925306Y-112298858D03*
%TO.P,CON1,P11,SDA*%
%TO.N,/MKBUS_SDA*%
X160925306Y-109758858D03*
%TO.P,CON1,P12,SCL*%
%TO.N,/MKBUS_SCL*%
X160925306Y-107218858D03*
%TO.P,CON1,P13,TX*%
%TO.N,/MKBUS_TX*%
X160925306Y-104678858D03*
%TO.P,CON1,P14,RX*%
%TO.N,/MKBUS_RX*%
X160925306Y-102138858D03*
%TO.P,CON1,P15,INT*%
%TO.N,/MKBUS_INT*%
X160925306Y-99598858D03*
D15*
%TO.P,CON1,P16,PWM*%
%TO.N,/MKBUS_PWM*%
X160925306Y-97058858D03*
%TD*%
D11*
%TO.P,C3,1*%
%TO.N,Net-(U3-SW)*%
X136500000Y-70000000D03*
%TO.P,C3,2*%
%TO.N,Net-(U3-VBST)*%
X136500000Y-68450000D03*
%TD*%
D16*
%TO.P,R2,1*%
%TO.N,Net-(U3-VFB)*%
X146000000Y-69825000D03*
%TO.P,R2,2*%
%TO.N,GND*%
X146000000Y-68175000D03*
%TD*%
D17*
%TO.P,D1,1,A1*%
%TO.N,/RJ9_DB*%
X158900000Y-61800000D03*
%TO.P,D1,2,A2*%
%TO.N,GND*%
X158900000Y-66800000D03*
%TD*%
%TO.P,D2,1,A1*%
%TO.N,/RJ9_DA*%
X155400000Y-61800000D03*
%TO.P,D2,2,A2*%
%TO.N,GND*%
X155400000Y-66800000D03*
%TD*%
D16*
%TO.P,R1,1*%
%TO.N,Net-(D3-A)*%
X146000000Y-73825000D03*
%TO.P,R1,2*%
%TO.N,Net-(U3-VFB)*%
X146000000Y-72175000D03*
%TD*%
D18*
%TO.P,R3,1*%
%TO.N,/RJ9_DB*%
X138075000Y-79400000D03*
%TO.P,R3,2*%
%TO.N,/RJ9_DA*%
X139725000Y-79400000D03*
%TD*%
D19*
%TO.P,C2,1*%
%TO.N,+12V*%
X144500000Y-68225000D03*
%TO.P,C2,2*%
%TO.N,GND*%
X144500000Y-69775000D03*
%TD*%
%TO.P,C1,1*%
%TO.N,+12V*%
X143000000Y-68225000D03*
%TO.P,C1,2*%
%TO.N,GND*%
X143000000Y-69775000D03*
%TD*%
D20*
%TO.P,C6,1*%
%TO.N,+12V*%
X138450000Y-66550000D03*
%TO.P,C6,2*%
%TO.N,GND*%
X136900000Y-66550000D03*
%TD*%
D21*
%TO.P,D3,1,K*%
%TO.N,+5V*%
X148000000Y-69750000D03*
%TO.P,D3,2,A*%
%TO.N,Net-(D3-A)*%
X148000000Y-72250000D03*
%TD*%
D22*
%TO.P,L1,1,1*%
%TO.N,Net-(U3-SW)*%
X139500000Y-72700000D03*
%TO.P,L1,2,2*%
%TO.N,Net-(D3-A)*%
X139500000Y-76300000D03*
%TD*%
D11*
%TO.P,C5,1*%
%TO.N,Net-(D3-A)*%
X143000000Y-73775000D03*
%TO.P,C5,2*%
%TO.N,GND*%
X143000000Y-72225000D03*
%TD*%
D23*
%TO.P,U1,0,0/TX*%
%TO.N,/RS485_TX*%
X158345762Y-121200000D03*
%TO.P,U1,1,1/RX*%
%TO.N,/RS485_RX*%
X158345762Y-118660000D03*
%TO.P,U1,2,GND*%
%TO.N,GND*%
X158345762Y-116120000D03*
%TO.P,U1,3,GND*%
X158345762Y-113580000D03*
%TO.P,U1,4,2*%
%TO.N,/RS485_MODE*%
X158345762Y-111040000D03*
%TO.P,U1,5,3*%
%TO.N,unconnected-(U1-3-Pad5)*%
X158345762Y-108500000D03*
%TO.P,U1,6,4*%
%TO.N,/MKBUS_SDA*%
X158345762Y-105960000D03*
%TO.P,U1,7,5*%
%TO.N,/MKBUS_SCL*%
X158345762Y-103420000D03*
%TO.P,U1,8,6*%
%TO.N,/MKBUS_INT*%
X158345762Y-100880000D03*
%TO.P,U1,9,7*%
%TO.N,/MKBUS_PWM*%
X158345762Y-98340000D03*
%TO.P,U1,10,8/TX1*%
%TO.N,/MKBUS_TX*%
X158345762Y-95800000D03*
%TO.P,U1,11,9/RX1*%
%TO.N,/MKBUS_RX*%
X158345762Y-93260000D03*
%TO.P,U1,12,RAW*%
%TO.N,+5V*%
X140565762Y-121200000D03*
%TO.P,U1,13,GND*%
%TO.N,GND*%
X140565762Y-118660000D03*
%TO.P,U1,14,RESET*%
%TO.N,unconnected-(U1-RESET-Pad14)*%
X140565762Y-116120000D03*
%TO.P,U1,15,3.3V*%
%TO.N,+3.3V*%
X140565762Y-113580000D03*
%TO.P,U1,16,A3*%
%TO.N,unconnected-(U1-A3-Pad16)*%
X140565762Y-111040000D03*
%TO.P,U1,17,A2*%
%TO.N,unconnected-(U1-A2-Pad17)*%
X140565762Y-108500000D03*
%TO.P,U1,18,A1*%
%TO.N,unconnected-(U1-A1-Pad18)*%
X140565762Y-105960000D03*
%TO.P,U1,19,A0*%
%TO.N,/MKBUS_AN*%
X140565762Y-103420000D03*
%TO.P,U1,20,22/SPI_SCK*%
%TO.N,/MKBUS_SCK*%
X140565762Y-100880000D03*
%TO.P,U1,21,20/SPI_POCI*%
%TO.N,/MKBUS_MISO*%
X140565762Y-98340000D03*
%TO.P,U1,22,23/SPI_PICO*%
%TO.N,/MKBUS_MOSI*%
X140565762Y-95800000D03*
%TO.P,U1,23,21/SPI_CS*%
%TO.N,/MKBUS_CS*%
X140565762Y-93260000D03*
%TD*%
D24*
%TO.P,U5,1,RO*%
%TO.N,/RS485_RX*%
X136895000Y-86620000D03*
%TO.P,U5,2,RE\u002A*%
%TO.N,/RS485_MODE*%
X138165000Y-86620000D03*
%TO.P,U5,3,DE*%
X139435000Y-86620000D03*
%TO.P,U5,4,DI*%
%TO.N,/RS485_TX*%
X140705000Y-86620000D03*
%TO.P,U5,5,GND*%
%TO.N,GND*%
X140705000Y-81670000D03*
%TO.P,U5,6,A*%
%TO.N,/RJ9_DA*%
X139435000Y-81670000D03*
%TO.P,U5,7,B*%
%TO.N,/RJ9_DB*%
X138165000Y-81670000D03*
%TO.P,U5,8,VCC*%
%TO.N,+3.3V*%
X136895000Y-81670000D03*
%TD*%
D25*
%TO.P,J1,1,Pin_1*%
%TO.N,+5V*%
X158850000Y-54700000D03*
D26*
%TO.P,J1,2,Pin_2*%
%TO.N,GND*%
X155350000Y-54700000D03*
%TD*%
D27*
%TO.N,GND*%
X135950000Y-66550000D03*
X143754972Y-71000000D03*
X147000000Y-68175000D03*
X157200000Y-66800000D03*
X142000000Y-82100000D03*
X137488770Y-71160326D03*
%TO.N,/RJ9_DB*%
X137100000Y-79400000D03*
%TO.N,/RJ9_DA*%
X140800000Y-79400000D03*
%TO.N,/MKBUS_MISO*%
X140466228Y-99618000D03*
%TO.N,/MKBUS_CS*%
X139773689Y-94538000D03*
%TO.N,/MKBUS_MOSI*%
X142466228Y-96500000D03*
%TO.N,/MKBUS_RX*%
X156466228Y-96300000D03*
%TD*%
D28*
%TO.N,GND*%
X159666448Y-113580000D02*
X160925306Y-114838858D01*
X160925306Y-114838858D02*
X160911142Y-114838858D01*
X138065306Y-116159544D02*
X140565762Y-118660000D01*
X159630000Y-116120000D02*
X158345762Y-116120000D01*
D29*
X143000000Y-72225000D02*
X143000000Y-72108900D01*
D30*
X140705000Y-81670000D02*
X141570000Y-81670000D01*
D28*
X138065306Y-114838858D02*
X138065306Y-116159544D01*
D30*
X138011596Y-70637500D02*
X138550000Y-70637500D01*
D31*
X147000000Y-68175000D02*
X146000000Y-68175000D01*
D28*
X158345762Y-113580000D02*
X159666448Y-113580000D01*
D31*
X136900000Y-66550000D02*
X135950000Y-66550000D01*
D28*
X157400000Y-66800000D02*
X157200000Y-66800000D01*
X160911142Y-114838858D02*
X159630000Y-116120000D01*
D29*
X144500000Y-72117106D02*
X144500000Y-72225000D01*
D28*
X157400000Y-66800000D02*
X155400000Y-66800000D01*
D30*
X141570000Y-81670000D02*
X142000000Y-82100000D01*
D28*
X158900000Y-66800000D02*
X157400000Y-66800000D01*
D30*
X137488770Y-71160326D02*
X138011596Y-70637500D01*
D28*
%TO.N,+12V*%
X139500000Y-68998394D02*
X139500000Y-68362500D01*
X140450000Y-69948394D02*
X139500000Y-68998394D01*
X140450000Y-70637500D02*
X140450000Y-69948394D01*
%TO.N,/RJ9_DB*%
X158900000Y-61800000D02*
X156650000Y-64050000D01*
D30*
X138165000Y-81670000D02*
X138165000Y-79490000D01*
X138165000Y-79490000D02*
X138075000Y-79400000D01*
D28*
X142845000Y-64050000D02*
X142535000Y-63740000D01*
D30*
X138075000Y-79400000D02*
X137100000Y-79400000D01*
D28*
X156650000Y-64050000D02*
X142845000Y-64050000D01*
%TO.N,/RJ9_DA*%
X143805000Y-61200000D02*
X154800000Y-61200000D01*
D30*
X139725000Y-79400000D02*
X140800000Y-79400000D01*
X139725000Y-81380000D02*
X139435000Y-81670000D01*
X139725000Y-79400000D02*
X139725000Y-81380000D01*
D28*
X154800000Y-61200000D02*
X155400000Y-61800000D01*
D30*
%TO.N,/MKBUS_SDA*%
X159813762Y-108647314D02*
X160925306Y-109758858D01*
X158345762Y-105960000D02*
X159813762Y-107428000D01*
X159813762Y-107428000D02*
X159813762Y-108647314D01*
D31*
%TO.N,/MKBUS_PWM*%
X160241142Y-97058858D02*
X160925306Y-97058858D01*
X158345762Y-98340000D02*
X158960000Y-98340000D01*
X158960000Y-98340000D02*
X160241142Y-97058858D01*
X160341142Y-97058858D02*
X160925306Y-97058858D01*
D30*
%TO.N,/RS485_TX*%
X159813762Y-110366566D02*
X159147196Y-109700000D01*
X159147196Y-109700000D02*
X157404328Y-109700000D01*
X158345762Y-121200000D02*
X162012306Y-117533456D01*
X162012306Y-117533456D02*
X162012306Y-113812306D01*
X156425000Y-103993958D02*
X140705000Y-88273958D01*
X157404328Y-109700000D02*
X156425000Y-108720672D01*
X162012306Y-113812306D02*
X161700000Y-113500000D01*
X161700000Y-113500000D02*
X160589197Y-113500000D01*
X158295000Y-121250762D02*
X158345762Y-121200000D01*
X140705000Y-88273958D02*
X140705000Y-86620000D01*
X160589197Y-113500000D02*
X159813762Y-112724565D01*
X156425000Y-108720672D02*
X156425000Y-103993958D01*
X159813762Y-112724565D02*
X159813762Y-110366566D01*
%TO.N,/MKBUS_AN*%
X142366228Y-97999032D02*
X142366228Y-101619534D01*
X142366228Y-101619534D02*
X140565762Y-103420000D01*
X141426054Y-97058858D02*
X142366228Y-97999032D01*
X138065306Y-97058858D02*
X141426054Y-97058858D01*
%TO.N,/MKBUS_SCL*%
X159813762Y-104888000D02*
X159813762Y-106107314D01*
X159813762Y-106107314D02*
X160925306Y-107218858D01*
X158345762Y-103420000D02*
X159813762Y-104888000D01*
D31*
%TO.N,/RS485_RX*%
X136895000Y-87035824D02*
X136895000Y-86620000D01*
X158345762Y-118660000D02*
X155600000Y-115914238D01*
X155600000Y-104335685D02*
X139169315Y-87905000D01*
X139169315Y-87905000D02*
X137764176Y-87905000D01*
X155600000Y-115914238D02*
X155600000Y-104335685D01*
X137764176Y-87905000D02*
X136895000Y-87035824D01*
D30*
%TO.N,/MKBUS_MISO*%
X140466228Y-98439534D02*
X140565762Y-98340000D01*
X140466228Y-99618000D02*
X140466228Y-98439534D01*
%TO.N,/MKBUS_SCK*%
X138065306Y-103779022D02*
X138065306Y-104678858D01*
X140565762Y-101278566D02*
X138065306Y-103779022D01*
X140565762Y-100880000D02*
X140565762Y-101278566D01*
%TO.N,/MKBUS_CS*%
X139773689Y-94538000D02*
X139773689Y-94052073D01*
X139773689Y-94052073D02*
X140565762Y-93260000D01*
D31*
%TO.N,/MKBUS_INT*%
X158345762Y-100880000D02*
X159020000Y-100880000D01*
X159020000Y-100880000D02*
X160301142Y-99598858D01*
X160301142Y-99598858D02*
X160925306Y-99598858D01*
D30*
%TO.N,/MKBUS_MOSI*%
X142466228Y-96500000D02*
X141766228Y-95800000D01*
X141766228Y-95800000D02*
X140565762Y-95800000D01*
%TO.N,/MKBUS_TX*%
X158345762Y-95800000D02*
X156877762Y-97268000D01*
X159321275Y-102072078D02*
X160925306Y-103676109D01*
X156877762Y-101553434D02*
X157396406Y-102072078D01*
X157396406Y-102072078D02*
X159321275Y-102072078D01*
X160925306Y-103676109D02*
X160925306Y-104678858D01*
X156877762Y-97268000D02*
X156877762Y-101553434D01*
%TO.N,/MKBUS_RX*%
X156466228Y-95139534D02*
X156466228Y-96300000D01*
X158345762Y-93260000D02*
X156466228Y-95139534D01*
D31*
%TO.N,Net-(U3-VBST)*%
X138462500Y-68450000D02*
X138550000Y-68362500D01*
X136500000Y-68450000D02*
X138462500Y-68450000D01*
%TO.N,Net-(U3-VFB)*%
X141062500Y-68975000D02*
X145150000Y-68975000D01*
X140450000Y-68362500D02*
X141062500Y-68975000D01*
X146000000Y-72175000D02*
X146000000Y-69825000D01*
X145150000Y-68975000D02*
X146000000Y-69825000D01*
D30*
%TO.N,Net-(U3-SW)*%
X137000000Y-69500000D02*
X138750908Y-69500000D01*
X139500000Y-70249092D02*
X139500000Y-70637500D01*
X136500000Y-70000000D02*
X137000000Y-69500000D01*
X138750908Y-69500000D02*
X139500000Y-70249092D01*
D31*
%TO.N,/RS485_MODE*%
X157440000Y-111040000D02*
X156000000Y-109600000D01*
X158345762Y-111040000D02*
X157440000Y-111040000D01*
X139435000Y-87604999D02*
X139435000Y-86620000D01*
D30*
X139435000Y-86620000D02*
X138165000Y-86620000D01*
D31*
X156000000Y-104169999D02*
X139435000Y-87604999D01*
X156000000Y-109600000D02*
X156000000Y-104169999D01*
%TD*%
%TA.AperFunction,Conductor*%
%TO.N,+5V*%
G36*
X164942539Y-50520185D02*
G01*
X164988294Y-50572989D01*
X164999500Y-50624500D01*
X164999500Y-124375500D01*
X164979815Y-124442539D01*
X164927011Y-124488294D01*
X164875500Y-124499500D01*
X134124500Y-124499500D01*
X134057461Y-124479815D01*
X134011706Y-124427011D01*
X134000500Y-124375500D01*
X134000500Y-120024000D01*
X134020185Y-119956961D01*
X134072989Y-119911206D01*
X134124500Y-119900000D01*
X158100001Y-119900000D01*
X158300000Y-119900000D01*
X158300000Y-119713824D01*
X158327947Y-119660398D01*
X158388663Y-119625824D01*
X158417180Y-119622500D01*
X159145871Y-119622500D01*
X159145878Y-119622500D01*
X159148830Y-119622111D01*
X159149709Y-119622248D01*
X159149930Y-119622234D01*
X159149933Y-119622283D01*
X159217865Y-119632872D01*
X159270124Y-119679248D01*
X159289014Y-119746515D01*
X159268538Y-119813317D01*
X159252704Y-119832730D01*
X158884254Y-120201181D01*
X158822931Y-120234666D01*
X158796573Y-120237500D01*
X157545638Y-120237500D01*
X157431960Y-120252467D01*
X157431959Y-120252467D01*
X157290503Y-120311060D01*
X157169031Y-120404269D01*
X157075822Y-120525741D01*
X157017229Y-120667197D01*
X157017229Y-120667198D01*
X157002262Y-120780876D01*
X157002262Y-121619123D01*
X157017229Y-121732801D01*
X157017229Y-121732802D01*
X157075822Y-121874258D01*
X157075823Y-121874259D01*
X157169031Y-121995731D01*
X157290503Y-122088939D01*
X157431960Y-122147533D01*
X157545646Y-122162500D01*
X157545653Y-122162500D01*
X159145871Y-122162500D01*
X159145878Y-122162500D01*
X159259564Y-122147533D01*
X159401021Y-122088939D01*
X159522493Y-121995731D01*
X159615701Y-121874259D01*
X159674295Y-121732802D01*
X159689262Y-121619116D01*
X159689262Y-120780884D01*
X159674295Y-120667198D01*
X159615701Y-120525741D01*
X159615695Y-120525733D01*
X159613739Y-120522345D01*
X159612952Y-120519104D01*
X159612591Y-120518232D01*
X159612726Y-120518175D01*
X159597258Y-120454447D01*
X159620101Y-120388417D01*
X159633431Y-120372656D01*
X162272771Y-117733318D01*
X162315624Y-117659095D01*
X162337806Y-117576309D01*
X162337806Y-117490603D01*
X162337806Y-113769453D01*
X162315624Y-113686668D01*
X162315620Y-113686661D01*
X162272775Y-113612450D01*
X162272769Y-113612442D01*
X161899864Y-113239537D01*
X161899862Y-113239535D01*
X161862750Y-113218108D01*
X161825640Y-113196682D01*
X161784246Y-113185591D01*
X161742853Y-113174500D01*
X161742852Y-113174500D01*
X160775385Y-113174500D01*
X160708346Y-113154815D01*
X160687704Y-113138181D01*
X160175581Y-112626057D01*
X160142096Y-112564734D01*
X160139262Y-112538376D01*
X160139262Y-110621076D01*
X160158947Y-110554037D01*
X160211751Y-110508282D01*
X160280909Y-110498338D01*
X160341928Y-110525224D01*
X160387979Y-110563018D01*
X160387987Y-110563023D01*
X160555183Y-110652391D01*
X160555184Y-110652391D01*
X160555191Y-110652395D01*
X160736623Y-110707431D01*
X160736622Y-110707431D01*
X160753539Y-110709097D01*
X160925306Y-110726015D01*
X161113989Y-110707431D01*
X161295421Y-110652395D01*
X161462630Y-110563020D01*
X161609189Y-110442741D01*
X161729468Y-110296182D01*
X161818843Y-110128973D01*
X161873879Y-109947541D01*
X161892463Y-109758858D01*
X161873879Y-109570175D01*
X161818843Y-109388743D01*
X161797654Y-109349101D01*
X161729471Y-109221539D01*
X161729467Y-109221532D01*
X161609189Y-109074974D01*
X161462631Y-108954696D01*
X161462624Y-108954692D01*
X161295428Y-108865324D01*
X161295425Y-108865323D01*
X161295424Y-108865322D01*
X161295421Y-108865321D01*
X161113989Y-108810285D01*
X161113987Y-108810284D01*
X161113989Y-108810284D01*
X160925306Y-108791701D01*
X160736623Y-108810284D01*
X160577901Y-108858431D01*
X160508034Y-108859054D01*
X160454226Y-108827451D01*
X160175581Y-108548806D01*
X160142096Y-108487483D01*
X160139262Y-108461125D01*
X160139262Y-108081076D01*
X160158947Y-108014037D01*
X160211751Y-107968282D01*
X160280909Y-107958338D01*
X160341928Y-107985224D01*
X160387979Y-108023018D01*
X160387987Y-108023023D01*
X160555183Y-108112391D01*
X160555184Y-108112391D01*
X160555191Y-108112395D01*
X160736623Y-108167431D01*
X160736622Y-108167431D01*
X160753539Y-108169097D01*
X160925306Y-108186015D01*
X161113989Y-108167431D01*
X161295421Y-108112395D01*
X161462630Y-108023020D01*
X161609189Y-107902741D01*
X161729468Y-107756182D01*
X161818843Y-107588973D01*
X161873879Y-107407541D01*
X161892463Y-107218858D01*
X161873879Y-107030175D01*
X161818843Y-106848743D01*
X161729468Y-106681534D01*
X161729467Y-106681532D01*
X161609189Y-106534974D01*
X161462631Y-106414696D01*
X161462624Y-106414692D01*
X161295428Y-106325324D01*
X161295425Y-106325323D01*
X161295424Y-106325322D01*
X161295421Y-106325321D01*
X161113989Y-106270285D01*
X161113987Y-106270284D01*
X161113989Y-106270284D01*
X160925306Y-106251701D01*
X160736623Y-106270284D01*
X160577901Y-106318431D01*
X160508034Y-106319054D01*
X160454226Y-106287451D01*
X160175581Y-106008806D01*
X160142096Y-105947483D01*
X160139262Y-105921125D01*
X160139262Y-105541076D01*
X160158947Y-105474037D01*
X160211751Y-105428282D01*
X160280909Y-105418338D01*
X160341928Y-105445224D01*
X160387979Y-105483018D01*
X160387987Y-105483023D01*
X160555183Y-105572391D01*
X160555184Y-105572391D01*
X160555191Y-105572395D01*
X160736623Y-105627431D01*
X160736622Y-105627431D01*
X160753539Y-105629097D01*
X160925306Y-105646015D01*
X161113989Y-105627431D01*
X161295421Y-105572395D01*
X161462630Y-105483020D01*
X161609189Y-105362741D01*
X161729468Y-105216182D01*
X161818843Y-105048973D01*
X161873879Y-104867541D01*
X161892463Y-104678858D01*
X161873879Y-104490175D01*
X161818843Y-104308743D01*
X161818839Y-104308735D01*
X161729471Y-104141539D01*
X161729467Y-104141532D01*
X161609189Y-103994974D01*
X161462631Y-103874696D01*
X161462624Y-103874691D01*
X161316353Y-103796508D01*
X161266508Y-103747546D01*
X161250806Y-103687150D01*
X161250806Y-103633258D01*
X161250806Y-103633256D01*
X161228624Y-103550471D01*
X161228620Y-103550464D01*
X161185775Y-103476253D01*
X161185769Y-103476245D01*
X161010766Y-103301242D01*
X160977281Y-103239919D01*
X160982265Y-103170227D01*
X161024137Y-103114294D01*
X161086294Y-103090158D01*
X161113989Y-103087431D01*
X161295421Y-103032395D01*
X161462630Y-102943020D01*
X161609189Y-102822741D01*
X161729468Y-102676182D01*
X161818843Y-102508973D01*
X161873879Y-102327541D01*
X161892463Y-102138858D01*
X161873879Y-101950175D01*
X161818843Y-101768743D01*
X161814005Y-101759692D01*
X161729471Y-101601539D01*
X161729467Y-101601532D01*
X161609189Y-101454974D01*
X161462631Y-101334696D01*
X161462624Y-101334692D01*
X161295428Y-101245324D01*
X161295425Y-101245323D01*
X161295424Y-101245322D01*
X161295421Y-101245321D01*
X161113989Y-101190285D01*
X161113987Y-101190284D01*
X161113989Y-101190284D01*
X160925306Y-101171701D01*
X160736624Y-101190284D01*
X160629500Y-101222779D01*
X160555191Y-101245321D01*
X160555188Y-101245322D01*
X160555186Y-101245323D01*
X160555183Y-101245324D01*
X160387987Y-101334692D01*
X160387980Y-101334696D01*
X160241422Y-101454974D01*
X160121144Y-101601532D01*
X160121140Y-101601539D01*
X160031772Y-101768735D01*
X160031771Y-101768738D01*
X159976732Y-101950176D01*
X159974005Y-101977871D01*
X159947844Y-102042658D01*
X159890809Y-102083016D01*
X159821009Y-102086133D01*
X159762921Y-102053397D01*
X159539802Y-101830278D01*
X159506317Y-101768955D01*
X159511301Y-101699263D01*
X159529107Y-101667111D01*
X159532732Y-101662387D01*
X159615701Y-101554259D01*
X159674295Y-101412802D01*
X159689262Y-101299116D01*
X159689262Y-100687070D01*
X159708947Y-100620031D01*
X159725577Y-100599393D01*
X160054895Y-100270074D01*
X160116216Y-100236591D01*
X160185907Y-100241575D01*
X160238423Y-100279087D01*
X160241421Y-100282740D01*
X160387980Y-100403019D01*
X160387987Y-100403023D01*
X160555183Y-100492391D01*
X160555184Y-100492391D01*
X160555191Y-100492395D01*
X160736623Y-100547431D01*
X160736622Y-100547431D01*
X160753539Y-100549097D01*
X160925306Y-100566015D01*
X161113989Y-100547431D01*
X161295421Y-100492395D01*
X161462630Y-100403020D01*
X161609189Y-100282741D01*
X161729468Y-100136182D01*
X161818843Y-99968973D01*
X161873879Y-99787541D01*
X161892463Y-99598858D01*
X161873879Y-99410175D01*
X161818843Y-99228743D01*
X161729468Y-99061534D01*
X161729467Y-99061532D01*
X161609189Y-98914974D01*
X161462631Y-98794696D01*
X161462624Y-98794692D01*
X161295428Y-98705324D01*
X161295425Y-98705323D01*
X161295424Y-98705322D01*
X161295421Y-98705321D01*
X161113989Y-98650285D01*
X161113987Y-98650284D01*
X161113989Y-98650284D01*
X160925306Y-98631701D01*
X160736624Y-98650284D01*
X160629500Y-98682779D01*
X160555191Y-98705321D01*
X160555188Y-98705322D01*
X160555186Y-98705323D01*
X160555183Y-98705324D01*
X160387987Y-98794692D01*
X160387980Y-98794696D01*
X160241422Y-98914974D01*
X160121144Y-99061532D01*
X160121140Y-99061539D01*
X160031772Y-99228735D01*
X160031771Y-99228738D01*
X159976732Y-99410175D01*
X159971453Y-99463772D01*
X159945290Y-99528558D01*
X159935731Y-99539296D01*
X159518259Y-99956768D01*
X159456936Y-99990253D01*
X159387244Y-99985269D01*
X159383125Y-99983648D01*
X159318231Y-99956768D01*
X159259564Y-99932467D01*
X159245353Y-99930596D01*
X159145885Y-99917500D01*
X159145878Y-99917500D01*
X158424000Y-99917500D01*
X158356961Y-99897815D01*
X158311206Y-99845011D01*
X158300000Y-99793500D01*
X158300000Y-99426500D01*
X158319685Y-99359461D01*
X158372489Y-99313706D01*
X158424000Y-99302500D01*
X159145871Y-99302500D01*
X159145878Y-99302500D01*
X159259564Y-99287533D01*
X159401021Y-99228939D01*
X159522493Y-99135731D01*
X159615701Y-99014259D01*
X159674295Y-98872802D01*
X159689262Y-98759116D01*
X159689262Y-98087071D01*
X159708947Y-98020032D01*
X159725575Y-97999395D01*
X159808098Y-97916872D01*
X159869417Y-97883390D01*
X159939109Y-97888374D01*
X159995043Y-97930245D01*
X159998877Y-97935664D01*
X160018752Y-97965409D01*
X160085075Y-98009725D01*
X160085076Y-98009726D01*
X160143553Y-98021357D01*
X160143556Y-98021358D01*
X160143558Y-98021358D01*
X161707056Y-98021358D01*
X161707057Y-98021357D01*
X161721874Y-98018410D01*
X161765535Y-98009726D01*
X161765535Y-98009725D01*
X161765537Y-98009725D01*
X161831858Y-97965410D01*
X161876173Y-97899089D01*
X161876173Y-97899087D01*
X161876174Y-97899087D01*
X161887805Y-97840610D01*
X161887806Y-97840608D01*
X161887806Y-96277107D01*
X161887805Y-96277105D01*
X161876174Y-96218628D01*
X161876173Y-96218627D01*
X161831858Y-96152305D01*
X161765536Y-96107990D01*
X161765535Y-96107989D01*
X161707058Y-96096358D01*
X161707054Y-96096358D01*
X160143558Y-96096358D01*
X160143553Y-96096358D01*
X160085076Y-96107989D01*
X160085075Y-96107990D01*
X160018753Y-96152305D01*
X159974438Y-96218627D01*
X159974437Y-96218628D01*
X159962806Y-96277105D01*
X159962806Y-96860860D01*
X159943121Y-96927899D01*
X159926487Y-96948541D01*
X159475833Y-97399195D01*
X159414510Y-97432680D01*
X159344818Y-97427696D01*
X159340720Y-97426083D01*
X159259564Y-97392467D01*
X159245353Y-97390596D01*
X159145885Y-97377500D01*
X159145878Y-97377500D01*
X158424000Y-97377500D01*
X158356961Y-97357815D01*
X158311206Y-97305011D01*
X158300000Y-97253500D01*
X158300000Y-96886500D01*
X158319685Y-96819461D01*
X158372489Y-96773706D01*
X158424000Y-96762500D01*
X159145871Y-96762500D01*
X159145878Y-96762500D01*
X159259564Y-96747533D01*
X159401021Y-96688939D01*
X159522493Y-96595731D01*
X159615701Y-96474259D01*
X159674295Y-96332802D01*
X159689262Y-96219116D01*
X159689262Y-95380884D01*
X159674295Y-95267198D01*
X159615701Y-95125741D01*
X159522493Y-95004269D01*
X159401021Y-94911061D01*
X159401020Y-94911060D01*
X159318157Y-94876737D01*
X159259564Y-94852467D01*
X159245353Y-94850596D01*
X159145885Y-94837500D01*
X159145878Y-94837500D01*
X158424000Y-94837500D01*
X158356961Y-94817815D01*
X158311206Y-94765011D01*
X158300000Y-94713500D01*
X158300000Y-94346500D01*
X158319685Y-94279461D01*
X158372489Y-94233706D01*
X158424000Y-94222500D01*
X159145871Y-94222500D01*
X159145878Y-94222500D01*
X159259564Y-94207533D01*
X159401021Y-94148939D01*
X159522493Y-94055731D01*
X159615701Y-93934259D01*
X159674295Y-93792802D01*
X159689262Y-93679116D01*
X159689262Y-92840884D01*
X159674295Y-92727198D01*
X159615701Y-92585741D01*
X159522493Y-92464269D01*
X159401021Y-92371061D01*
X159401020Y-92371060D01*
X159318157Y-92336737D01*
X159259564Y-92312467D01*
X159245353Y-92310596D01*
X159145885Y-92297500D01*
X159145878Y-92297500D01*
X158424000Y-92297500D01*
X158356961Y-92277815D01*
X158311206Y-92225011D01*
X158300000Y-92173500D01*
X158300000Y-92052574D01*
X158300000Y-92000000D01*
X153639889Y-83747722D01*
X153624066Y-83679673D01*
X153647547Y-83613867D01*
X153654752Y-83604864D01*
X153783446Y-83458641D01*
X154061328Y-83082919D01*
X154306345Y-82684985D01*
X154516733Y-82267706D01*
X154690975Y-81834088D01*
X154827816Y-81387255D01*
X154926270Y-80930427D01*
X154985628Y-80466896D01*
X155005332Y-80003050D01*
X155005461Y-80000006D01*
X155005461Y-79999993D01*
X154985629Y-79533117D01*
X154985628Y-79533111D01*
X154985628Y-79533104D01*
X154926270Y-79069573D01*
X154827816Y-78612745D01*
X154690975Y-78165912D01*
X154516733Y-77732294D01*
X154516733Y-77732293D01*
X154306354Y-77315032D01*
X154306343Y-77315012D01*
X154289985Y-77288445D01*
X154061328Y-76917081D01*
X153783446Y-76541359D01*
X153783442Y-76541354D01*
X153783436Y-76541346D01*
X153474702Y-76190559D01*
X153474689Y-76190546D01*
X153137322Y-75867205D01*
X152895894Y-75672266D01*
X152773730Y-75573625D01*
X152386553Y-75311940D01*
X152375835Y-75305953D01*
X151978588Y-75084036D01*
X151978566Y-75084025D01*
X151552752Y-74891544D01*
X151552747Y-74891542D01*
X151112119Y-74735859D01*
X150659885Y-74618107D01*
X150199302Y-74539132D01*
X150199276Y-74539129D01*
X149733676Y-74499500D01*
X149733658Y-74499500D01*
X149266342Y-74499500D01*
X149266323Y-74499500D01*
X148834516Y-74536253D01*
X148766049Y-74522325D01*
X148715980Y-74473592D01*
X148700000Y-74412700D01*
X148700000Y-72565398D01*
X148700385Y-72557163D01*
X148700365Y-72557163D01*
X148700500Y-72554277D01*
X148700500Y-71945730D01*
X148697646Y-71915300D01*
X148697646Y-71915298D01*
X148652793Y-71787119D01*
X148652792Y-71787117D01*
X148635962Y-71764313D01*
X148572150Y-71677850D01*
X148462882Y-71597207D01*
X148462880Y-71597206D01*
X148334700Y-71552353D01*
X148304270Y-71549500D01*
X148304266Y-71549500D01*
X147695734Y-71549500D01*
X147695730Y-71549500D01*
X147665300Y-71552353D01*
X147665298Y-71552354D01*
X147549022Y-71593041D01*
X147508067Y-71600000D01*
X147212211Y-71600000D01*
X147188020Y-71597617D01*
X147172744Y-71594578D01*
X147147656Y-71589588D01*
X147102956Y-71571072D01*
X147079086Y-71555122D01*
X147044877Y-71520913D01*
X147028927Y-71497043D01*
X147010412Y-71452346D01*
X147002381Y-71411971D01*
X147000000Y-71387789D01*
X147000000Y-68789455D01*
X147019685Y-68722416D01*
X147072489Y-68676661D01*
X147089066Y-68670478D01*
X147210050Y-68634954D01*
X147210050Y-68634953D01*
X147210053Y-68634953D01*
X147331128Y-68557143D01*
X147425377Y-68448373D01*
X147485165Y-68317457D01*
X147505647Y-68175000D01*
X147485165Y-68032543D01*
X147425377Y-67901627D01*
X147331128Y-67792857D01*
X147210053Y-67715047D01*
X147210051Y-67715046D01*
X147210049Y-67715045D01*
X147210050Y-67715045D01*
X147071964Y-67674500D01*
X147067969Y-67673926D01*
X147064297Y-67672249D01*
X147063452Y-67672001D01*
X147063487Y-67671879D01*
X147004414Y-67644900D01*
X147000000Y-67639897D01*
X147000000Y-67500000D01*
X146800004Y-67500000D01*
X145235085Y-67500000D01*
X145168046Y-67480315D01*
X145130987Y-67443377D01*
X145125048Y-67434200D01*
X145112358Y-67416371D01*
X145101193Y-67402066D01*
X144833512Y-67088683D01*
X144159418Y-66299500D01*
X143259323Y-65245730D01*
X154299500Y-65245730D01*
X154299500Y-68354269D01*
X154302353Y-68384699D01*
X154302353Y-68384701D01*
X154347206Y-68512880D01*
X154347207Y-68512882D01*
X154427850Y-68622150D01*
X154537118Y-68702793D01*
X154579845Y-68717744D01*
X154665299Y-68747646D01*
X154695730Y-68750500D01*
X154695734Y-68750500D01*
X156104270Y-68750500D01*
X156134699Y-68747646D01*
X156134701Y-68747646D01*
X156206802Y-68722416D01*
X156262882Y-68702793D01*
X156372150Y-68622150D01*
X156452793Y-68512882D01*
X156475366Y-68448371D01*
X156497646Y-68384701D01*
X156497646Y-68384699D01*
X156500500Y-68354269D01*
X156500500Y-67424500D01*
X156520185Y-67357461D01*
X156572989Y-67311706D01*
X156624500Y-67300500D01*
X157128039Y-67300500D01*
X157134108Y-67300500D01*
X157334108Y-67300500D01*
X157675500Y-67300500D01*
X157742539Y-67320185D01*
X157788294Y-67372989D01*
X157799500Y-67424500D01*
X157799500Y-68354269D01*
X157802353Y-68384699D01*
X157802353Y-68384701D01*
X157847206Y-68512880D01*
X157847207Y-68512882D01*
X157927850Y-68622150D01*
X158037118Y-68702793D01*
X158079845Y-68717744D01*
X158165299Y-68747646D01*
X158195730Y-68750500D01*
X158195734Y-68750500D01*
X159604270Y-68750500D01*
X159634699Y-68747646D01*
X159634701Y-68747646D01*
X159706802Y-68722416D01*
X159762882Y-68702793D01*
X159872150Y-68622150D01*
X159952793Y-68512882D01*
X159975366Y-68448371D01*
X159997646Y-68384701D01*
X159997646Y-68384699D01*
X160000500Y-68354269D01*
X160000500Y-65245730D01*
X159997646Y-65215300D01*
X159997646Y-65215298D01*
X159952793Y-65087119D01*
X159952792Y-65087117D01*
X159872150Y-64977850D01*
X159762882Y-64897207D01*
X159762880Y-64897206D01*
X159634700Y-64852353D01*
X159604270Y-64849500D01*
X159604266Y-64849500D01*
X158195734Y-64849500D01*
X158195730Y-64849500D01*
X158165300Y-64852353D01*
X158165298Y-64852353D01*
X158037119Y-64897206D01*
X158037117Y-64897207D01*
X157927850Y-64977850D01*
X157847207Y-65087117D01*
X157847206Y-65087119D01*
X157802353Y-65215298D01*
X157802353Y-65215300D01*
X157799500Y-65245730D01*
X157799500Y-66175500D01*
X157779815Y-66242539D01*
X157727011Y-66288294D01*
X157675500Y-66299500D01*
X156624500Y-66299500D01*
X156557461Y-66279815D01*
X156511706Y-66227011D01*
X156500500Y-66175500D01*
X156500500Y-65245730D01*
X156497646Y-65215300D01*
X156497646Y-65215298D01*
X156452793Y-65087119D01*
X156452792Y-65087117D01*
X156372150Y-64977850D01*
X156262882Y-64897207D01*
X156262880Y-64897206D01*
X156134700Y-64852353D01*
X156104270Y-64849500D01*
X156104266Y-64849500D01*
X154695734Y-64849500D01*
X154695730Y-64849500D01*
X154665300Y-64852353D01*
X154665298Y-64852353D01*
X154537119Y-64897206D01*
X154537117Y-64897207D01*
X154427850Y-64977850D01*
X154347207Y-65087117D01*
X154347206Y-65087119D01*
X154302353Y-65215298D01*
X154302353Y-65215300D01*
X154299500Y-65245730D01*
X143259323Y-65245730D01*
X142840189Y-64755036D01*
X142811615Y-64691276D01*
X142822049Y-64622190D01*
X142868177Y-64569712D01*
X142934475Y-64550500D01*
X156715890Y-64550500D01*
X156715892Y-64550500D01*
X156843186Y-64516392D01*
X156957314Y-64450500D01*
X157770587Y-63637225D01*
X157831908Y-63603742D01*
X157901599Y-63608726D01*
X157931894Y-63625135D01*
X158037118Y-63702793D01*
X158079845Y-63717744D01*
X158165299Y-63747646D01*
X158195730Y-63750500D01*
X158195734Y-63750500D01*
X159604270Y-63750500D01*
X159634699Y-63747646D01*
X159634701Y-63747646D01*
X159698790Y-63725219D01*
X159762882Y-63702793D01*
X159872150Y-63622150D01*
X159952793Y-63512882D01*
X159975219Y-63448790D01*
X159997646Y-63384701D01*
X159997646Y-63384699D01*
X160000500Y-63354269D01*
X160000500Y-60245730D01*
X159997646Y-60215300D01*
X159997646Y-60215298D01*
X159952793Y-60087119D01*
X159952792Y-60087117D01*
X159872150Y-59977850D01*
X159762882Y-59897207D01*
X159762880Y-59897206D01*
X159634700Y-59852353D01*
X159604270Y-59849500D01*
X159604266Y-59849500D01*
X158195734Y-59849500D01*
X158195730Y-59849500D01*
X158165300Y-59852353D01*
X158165298Y-59852353D01*
X158037119Y-59897206D01*
X158037117Y-59897207D01*
X157927850Y-59977850D01*
X157847207Y-60087117D01*
X157847206Y-60087119D01*
X157802353Y-60215298D01*
X157802353Y-60215300D01*
X157799500Y-60245730D01*
X157799500Y-62141324D01*
X157779815Y-62208363D01*
X157763181Y-62229005D01*
X156712181Y-63280005D01*
X156650858Y-63313490D01*
X156581166Y-63308506D01*
X156525233Y-63266634D01*
X156500816Y-63201170D01*
X156500500Y-63192324D01*
X156500500Y-60245730D01*
X156497646Y-60215300D01*
X156497646Y-60215298D01*
X156452793Y-60087119D01*
X156452792Y-60087117D01*
X156372150Y-59977850D01*
X156262882Y-59897207D01*
X156262880Y-59897206D01*
X156134700Y-59852353D01*
X156104270Y-59849500D01*
X156104266Y-59849500D01*
X154695734Y-59849500D01*
X154695730Y-59849500D01*
X154665300Y-59852353D01*
X154665298Y-59852353D01*
X154537119Y-59897206D01*
X154537117Y-59897207D01*
X154427850Y-59977850D01*
X154347207Y-60087117D01*
X154347206Y-60087119D01*
X154302353Y-60215298D01*
X154302353Y-60215300D01*
X154299500Y-60245730D01*
X154299500Y-60575500D01*
X154279815Y-60642539D01*
X154227011Y-60688294D01*
X154175500Y-60699500D01*
X144554017Y-60699500D01*
X144486978Y-60679815D01*
X144461867Y-60658472D01*
X144377235Y-60564478D01*
X144377232Y-60564476D01*
X144377231Y-60564475D01*
X144377230Y-60564474D01*
X144232593Y-60459388D01*
X144069267Y-60386671D01*
X144069265Y-60386670D01*
X143941594Y-60359533D01*
X143894391Y-60349500D01*
X143882815Y-60349500D01*
X143815776Y-60329815D01*
X143770021Y-60277011D01*
X143760077Y-60207853D01*
X143764631Y-60187969D01*
X143796658Y-60087119D01*
X144885876Y-56657238D01*
X144924927Y-56599304D01*
X144989103Y-56571677D01*
X145051507Y-56580210D01*
X145113900Y-56606054D01*
X145348211Y-56668838D01*
X145528586Y-56692584D01*
X145588711Y-56700500D01*
X145588712Y-56700500D01*
X145831289Y-56700500D01*
X145879388Y-56694167D01*
X146071789Y-56668838D01*
X146306100Y-56606054D01*
X146530212Y-56513224D01*
X146740289Y-56391936D01*
X146932738Y-56244265D01*
X147104265Y-56072738D01*
X147251936Y-55880289D01*
X147373224Y-55670212D01*
X147466054Y-55446100D01*
X147528838Y-55211789D01*
X147560500Y-54971288D01*
X147560500Y-54728712D01*
X147556720Y-54699998D01*
X154128853Y-54699998D01*
X154128853Y-54700001D01*
X154147404Y-54912044D01*
X154147406Y-54912055D01*
X154202494Y-55117649D01*
X154202496Y-55117653D01*
X154202497Y-55117657D01*
X154246390Y-55211785D01*
X154292456Y-55310574D01*
X154292458Y-55310578D01*
X154414543Y-55484933D01*
X154414548Y-55484939D01*
X154565060Y-55635451D01*
X154565066Y-55635456D01*
X154739421Y-55757541D01*
X154739423Y-55757542D01*
X154739426Y-55757544D01*
X154932343Y-55847503D01*
X155137950Y-55902595D01*
X155289414Y-55915846D01*
X155349998Y-55921147D01*
X155350000Y-55921147D01*
X155350002Y-55921147D01*
X155403012Y-55916509D01*
X155562050Y-55902595D01*
X155767657Y-55847503D01*
X155960574Y-55757544D01*
X156134938Y-55635453D01*
X156285453Y-55484938D01*
X156407544Y-55310574D01*
X156497503Y-55117657D01*
X156552595Y-54912050D01*
X156571147Y-54700000D01*
X156552595Y-54487950D01*
X156497503Y-54282343D01*
X156407544Y-54089427D01*
X156365782Y-54029785D01*
X156285454Y-53915063D01*
X156285450Y-53915059D01*
X156134938Y-53764547D01*
X156134934Y-53764544D01*
X156134933Y-53764543D01*
X155960578Y-53642458D01*
X155960574Y-53642456D01*
X155960572Y-53642455D01*
X155767657Y-53552497D01*
X155767653Y-53552496D01*
X155767649Y-53552494D01*
X155562055Y-53497406D01*
X155562051Y-53497405D01*
X155562050Y-53497405D01*
X155562049Y-53497404D01*
X155562044Y-53497404D01*
X155350002Y-53478853D01*
X155349998Y-53478853D01*
X155137955Y-53497404D01*
X155137944Y-53497406D01*
X154932350Y-53552494D01*
X154932341Y-53552498D01*
X154739427Y-53642455D01*
X154739425Y-53642456D01*
X154565059Y-53764548D01*
X154414548Y-53915059D01*
X154292456Y-54089425D01*
X154292455Y-54089427D01*
X154202498Y-54282341D01*
X154202494Y-54282350D01*
X154147406Y-54487944D01*
X154147404Y-54487955D01*
X154128853Y-54699998D01*
X147556720Y-54699998D01*
X147528838Y-54488211D01*
X147466054Y-54253900D01*
X147373224Y-54029788D01*
X147251936Y-53819711D01*
X147104265Y-53627262D01*
X147104260Y-53627256D01*
X146932743Y-53455739D01*
X146932736Y-53455733D01*
X146740293Y-53308067D01*
X146740292Y-53308066D01*
X146740289Y-53308064D01*
X146530212Y-53186776D01*
X146530205Y-53186773D01*
X146306104Y-53093947D01*
X146165474Y-53056265D01*
X146105814Y-53019899D01*
X146075285Y-52957052D01*
X146079384Y-52898959D01*
X146813598Y-50586967D01*
X146852649Y-50529032D01*
X146916825Y-50501405D01*
X146931781Y-50500500D01*
X164875500Y-50500500D01*
X164942539Y-50520185D01*
G37*
%TD.AperFunction*%
%TD*%
%TA.AperFunction,Conductor*%
%TO.N,Net-(D3-A)*%
G36*
X148226247Y-71755221D02*
G01*
X148228379Y-71755645D01*
X148312562Y-71772389D01*
X148316706Y-71774106D01*
X148410229Y-71836597D01*
X148413402Y-71839770D01*
X148475893Y-71933293D01*
X148477610Y-71937438D01*
X148494779Y-72023751D01*
X148495000Y-72025995D01*
X148495000Y-72549637D01*
X148494987Y-72550175D01*
X148494724Y-72555778D01*
X148494500Y-72565403D01*
X148494500Y-74412697D01*
X148494501Y-74412713D01*
X148499905Y-74454586D01*
X148500000Y-74456058D01*
X148500000Y-74580994D01*
X148496632Y-74589126D01*
X148490444Y-74592329D01*
X148388729Y-74609771D01*
X148340113Y-74618108D01*
X147923925Y-74726474D01*
X147887872Y-74735862D01*
X147447254Y-74891542D01*
X147447253Y-74891542D01*
X147021428Y-75084028D01*
X147021420Y-75084032D01*
X146613460Y-75311931D01*
X146613446Y-75311940D01*
X146226261Y-75573630D01*
X145862688Y-75867197D01*
X145862677Y-75867206D01*
X145525308Y-76190548D01*
X145216544Y-76541370D01*
X144938675Y-76917076D01*
X144860199Y-77044530D01*
X144853067Y-77049688D01*
X144850406Y-77050000D01*
X141500000Y-77050000D01*
X137801133Y-77050000D01*
X137798889Y-77049779D01*
X137687438Y-77027610D01*
X137683293Y-77025893D01*
X137589770Y-76963402D01*
X137586597Y-76960229D01*
X137524106Y-76866706D01*
X137522389Y-76862560D01*
X137500221Y-76751110D01*
X137500000Y-76748867D01*
X137500000Y-75745078D01*
X137500210Y-75742891D01*
X137508671Y-75699209D01*
X137521273Y-75634145D01*
X137522903Y-75630094D01*
X137582441Y-75538015D01*
X137585462Y-75534870D01*
X137675993Y-75471031D01*
X137677889Y-75469949D01*
X142440735Y-73326669D01*
X142441856Y-73326234D01*
X142500277Y-73307059D01*
X142502638Y-73306552D01*
X142563787Y-73300064D01*
X142565000Y-73300000D01*
X145872844Y-73300000D01*
X145872845Y-73300000D01*
X146000000Y-73300000D01*
X146750000Y-72525000D01*
X147410772Y-71842202D01*
X147412520Y-71840724D01*
X147460920Y-71807517D01*
X147467426Y-71805500D01*
X147508075Y-71805500D01*
X147533103Y-71803388D01*
X147542492Y-71802596D01*
X147542496Y-71802595D01*
X147542499Y-71802595D01*
X147564084Y-71798927D01*
X147583447Y-71795637D01*
X147616885Y-71787012D01*
X147616887Y-71787010D01*
X147616895Y-71787009D01*
X147706528Y-71755645D01*
X147710326Y-71755000D01*
X148224004Y-71755000D01*
X148226247Y-71755221D01*
G37*
%TD.AperFunction*%
%TD*%
%TA.AperFunction,Conductor*%
%TO.N,+3.3V*%
G36*
X146523001Y-50520185D02*
G01*
X146568756Y-50572989D01*
X146578700Y-50642147D01*
X146574146Y-50662031D01*
X145883524Y-52836757D01*
X145874394Y-52884497D01*
X145873918Y-52888146D01*
X145873001Y-52888026D01*
X145850055Y-52949720D01*
X145794159Y-52991642D01*
X145750720Y-52999500D01*
X145588711Y-52999500D01*
X145348214Y-53031161D01*
X145113895Y-53093947D01*
X144889794Y-53186773D01*
X144889785Y-53186777D01*
X144679706Y-53308067D01*
X144487263Y-53455733D01*
X144487256Y-53455739D01*
X144315739Y-53627256D01*
X144315733Y-53627263D01*
X144168067Y-53819706D01*
X144046777Y-54029785D01*
X144046773Y-54029794D01*
X143953947Y-54253895D01*
X143891161Y-54488214D01*
X143859500Y-54728711D01*
X143859500Y-54971288D01*
X143891161Y-55211785D01*
X143953947Y-55446104D01*
X144046773Y-55670205D01*
X144046776Y-55670212D01*
X144168064Y-55880289D01*
X144168066Y-55880292D01*
X144168067Y-55880293D01*
X144315733Y-56072736D01*
X144315739Y-56072743D01*
X144487256Y-56244260D01*
X144487263Y-56244266D01*
X144678753Y-56391201D01*
X144719956Y-56447629D01*
X144724111Y-56517375D01*
X144714908Y-56543543D01*
X144690015Y-56595037D01*
X143600797Y-60024918D01*
X143568768Y-60125775D01*
X143564318Y-60142088D01*
X143559763Y-60161974D01*
X143556668Y-60237098D01*
X143556669Y-60237102D01*
X143562579Y-60278209D01*
X143552635Y-60347368D01*
X143506879Y-60400171D01*
X143490278Y-60409134D01*
X143377406Y-60459388D01*
X143232768Y-60564475D01*
X143113140Y-60697336D01*
X143023750Y-60852164D01*
X143023747Y-60852170D01*
X142968504Y-61022192D01*
X142968503Y-61022194D01*
X142949815Y-61200000D01*
X142968503Y-61377805D01*
X142968504Y-61377807D01*
X143023747Y-61547829D01*
X143023749Y-61547832D01*
X143023750Y-61547835D01*
X143073935Y-61634759D01*
X143092355Y-61666663D01*
X143108827Y-61734563D01*
X143085974Y-61800590D01*
X143069791Y-61819110D01*
X143056426Y-61831643D01*
X143017376Y-61889577D01*
X142991918Y-61942238D01*
X142784490Y-62595416D01*
X142741499Y-62730794D01*
X142720038Y-62798372D01*
X142719612Y-62799851D01*
X142682126Y-62858814D01*
X142618713Y-62888150D01*
X142600465Y-62889500D01*
X142445609Y-62889500D01*
X142414954Y-62896015D01*
X142270733Y-62926670D01*
X142270728Y-62926672D01*
X142107408Y-62999387D01*
X141962768Y-63104475D01*
X141843139Y-63237336D01*
X141810143Y-63294488D01*
X141759576Y-63342704D01*
X141690969Y-63355926D01*
X141626104Y-63329958D01*
X141608470Y-63313024D01*
X141124886Y-62746877D01*
X141124883Y-62746874D01*
X141124871Y-62746861D01*
X141124863Y-62746852D01*
X141109570Y-62730790D01*
X141090126Y-62712460D01*
X141090123Y-62712457D01*
X141090116Y-62712451D01*
X141073200Y-62698149D01*
X141073184Y-62698135D01*
X141037242Y-62670930D01*
X141037234Y-62670925D01*
X140999262Y-62648167D01*
X140999245Y-62648158D01*
X140950993Y-62625915D01*
X140950990Y-62625914D01*
X140950988Y-62625913D01*
X140937408Y-62621353D01*
X140908998Y-62611813D01*
X140908983Y-62611809D01*
X140864980Y-62602155D01*
X140843098Y-62598579D01*
X140816499Y-62595695D01*
X140794374Y-62594500D01*
X140794364Y-62594500D01*
X139239126Y-62594500D01*
X139239111Y-62594500D01*
X139219743Y-62595415D01*
X139196462Y-62597621D01*
X139196454Y-62597622D01*
X139177246Y-62600363D01*
X139177230Y-62600366D01*
X139177221Y-62600367D01*
X139177219Y-62600368D01*
X139172768Y-62601219D01*
X139138232Y-62607826D01*
X139102975Y-62618100D01*
X139100992Y-62618678D01*
X139100987Y-62618680D01*
X139057692Y-62635875D01*
X139057688Y-62635876D01*
X139023172Y-62653521D01*
X139023162Y-62653526D01*
X139023158Y-62653529D01*
X139005657Y-62664674D01*
X138999767Y-62668425D01*
X138999756Y-62668433D01*
X138969169Y-62692250D01*
X138935260Y-62724229D01*
X138909692Y-62753371D01*
X138909680Y-62753385D01*
X138886444Y-62785548D01*
X138886443Y-62785549D01*
X138875829Y-62801806D01*
X138875827Y-62801810D01*
X138863991Y-62821957D01*
X138863971Y-62821994D01*
X138854953Y-62839150D01*
X137535391Y-65666783D01*
X137530936Y-65677052D01*
X137525889Y-65689616D01*
X137522001Y-65700114D01*
X137514535Y-65722095D01*
X137508493Y-65743684D01*
X137508492Y-65743688D01*
X137502646Y-65770045D01*
X137498989Y-65792178D01*
X137498985Y-65792207D01*
X137496460Y-65815257D01*
X137496107Y-65819558D01*
X137470997Y-65884760D01*
X137414623Y-65926036D01*
X137344882Y-65930281D01*
X137316230Y-65919886D01*
X137258123Y-65890279D01*
X137158493Y-65874500D01*
X137158488Y-65874500D01*
X136641512Y-65874500D01*
X136641507Y-65874500D01*
X136541878Y-65890279D01*
X136421778Y-65951473D01*
X136421774Y-65951476D01*
X136326472Y-66046778D01*
X136320904Y-66054442D01*
X136265572Y-66097105D01*
X136195958Y-66103081D01*
X136168868Y-66092085D01*
X136168118Y-66093730D01*
X136160050Y-66090045D01*
X136021963Y-66049500D01*
X136021961Y-66049500D01*
X135878039Y-66049500D01*
X135878036Y-66049500D01*
X135739949Y-66090045D01*
X135618873Y-66167856D01*
X135524623Y-66276626D01*
X135524622Y-66276628D01*
X135464834Y-66407543D01*
X135444353Y-66550000D01*
X135464834Y-66692456D01*
X135524622Y-66823371D01*
X135524623Y-66823373D01*
X135618872Y-66932143D01*
X135739947Y-67009953D01*
X135739950Y-67009954D01*
X135739949Y-67009954D01*
X135847107Y-67041417D01*
X135861228Y-67045564D01*
X135878036Y-67050499D01*
X135878038Y-67050500D01*
X135878039Y-67050500D01*
X136021962Y-67050500D01*
X136021962Y-67050499D01*
X136129121Y-67019035D01*
X136160050Y-67009954D01*
X136160050Y-67009953D01*
X136160053Y-67009953D01*
X136160054Y-67009951D01*
X136168118Y-67006270D01*
X136169563Y-67009434D01*
X136220560Y-66994447D01*
X136287604Y-67014115D01*
X136320910Y-67045564D01*
X136326474Y-67053223D01*
X136421774Y-67148523D01*
X136421778Y-67148526D01*
X136421780Y-67148528D01*
X136541874Y-67209719D01*
X136541876Y-67209719D01*
X136541878Y-67209720D01*
X136641507Y-67225500D01*
X136641512Y-67225500D01*
X137158493Y-67225500D01*
X137258122Y-67209720D01*
X137258123Y-67209719D01*
X137258126Y-67209719D01*
X137319292Y-67178553D01*
X137387957Y-67165657D01*
X137452698Y-67191932D01*
X137492955Y-67249038D01*
X137498654Y-67273876D01*
X137498875Y-67275676D01*
X137504475Y-67309676D01*
X137512593Y-67342170D01*
X137525520Y-67380355D01*
X137538807Y-67411088D01*
X137555007Y-67441485D01*
X137563485Y-67455942D01*
X137574409Y-67472938D01*
X137574415Y-67472947D01*
X137574416Y-67472948D01*
X137584048Y-67486671D01*
X137777597Y-67739774D01*
X137816213Y-67777800D01*
X137818536Y-67780088D01*
X137866053Y-67815279D01*
X137873697Y-67820940D01*
X137893857Y-67834115D01*
X137942526Y-67848946D01*
X137961648Y-67854774D01*
X138020037Y-67893146D01*
X138048412Y-67956995D01*
X138049500Y-67973388D01*
X138049500Y-68025500D01*
X138029815Y-68092539D01*
X137977011Y-68138294D01*
X137925500Y-68149500D01*
X137265068Y-68149500D01*
X137198029Y-68129815D01*
X137154583Y-68081795D01*
X137098528Y-67971780D01*
X137098524Y-67971776D01*
X137098523Y-67971774D01*
X137003225Y-67876476D01*
X137003221Y-67876473D01*
X137003220Y-67876472D01*
X136883126Y-67815281D01*
X136883124Y-67815280D01*
X136883121Y-67815279D01*
X136783493Y-67799500D01*
X136783488Y-67799500D01*
X136216512Y-67799500D01*
X136216507Y-67799500D01*
X136116878Y-67815279D01*
X135996778Y-67876473D01*
X135996774Y-67876476D01*
X135901476Y-67971774D01*
X135901473Y-67971778D01*
X135840279Y-68091878D01*
X135824500Y-68191506D01*
X135824500Y-68708493D01*
X135840279Y-68808121D01*
X135840280Y-68808124D01*
X135840281Y-68808126D01*
X135901472Y-68928220D01*
X135901473Y-68928221D01*
X135901476Y-68928225D01*
X135996774Y-69023523D01*
X135996778Y-69023526D01*
X135996780Y-69023528D01*
X136116874Y-69084719D01*
X136116876Y-69084719D01*
X136116878Y-69084720D01*
X136216507Y-69100500D01*
X136639810Y-69100500D01*
X136706849Y-69120185D01*
X136752604Y-69172989D01*
X136762548Y-69242147D01*
X136733523Y-69305703D01*
X136727535Y-69312137D01*
X136726536Y-69313137D01*
X136665230Y-69346653D01*
X136638811Y-69349500D01*
X136216507Y-69349500D01*
X136116878Y-69365279D01*
X135996778Y-69426473D01*
X135996774Y-69426476D01*
X135901476Y-69521774D01*
X135901473Y-69521778D01*
X135901472Y-69521780D01*
X135864939Y-69593481D01*
X135840279Y-69641878D01*
X135824500Y-69741506D01*
X135824500Y-70258493D01*
X135840279Y-70358121D01*
X135840280Y-70358124D01*
X135840281Y-70358126D01*
X135901472Y-70478220D01*
X135901473Y-70478221D01*
X135901476Y-70478225D01*
X135996774Y-70573523D01*
X135996778Y-70573526D01*
X135996780Y-70573528D01*
X136116874Y-70634719D01*
X136116876Y-70634719D01*
X136116878Y-70634720D01*
X136216507Y-70650500D01*
X136216512Y-70650500D01*
X136783493Y-70650500D01*
X136883121Y-70634720D01*
X136883121Y-70634719D01*
X136883126Y-70634719D01*
X137003220Y-70573528D01*
X137098528Y-70478220D01*
X137159719Y-70358126D01*
X137160523Y-70353050D01*
X137175500Y-70258493D01*
X137175500Y-69949500D01*
X137195185Y-69882461D01*
X137247989Y-69836706D01*
X137299500Y-69825500D01*
X137957631Y-69825500D01*
X138024670Y-69845185D01*
X138070425Y-69897989D01*
X138080369Y-69967147D01*
X138069032Y-70003960D01*
X138059426Y-70023608D01*
X138049500Y-70091739D01*
X138049500Y-70195211D01*
X138029815Y-70262250D01*
X137977011Y-70308005D01*
X137957596Y-70314985D01*
X137885959Y-70334181D01*
X137885954Y-70334183D01*
X137811737Y-70377032D01*
X137811732Y-70377036D01*
X137778123Y-70410646D01*
X137751131Y-70437638D01*
X137751129Y-70437640D01*
X137656411Y-70532359D01*
X137565263Y-70623507D01*
X137503940Y-70656992D01*
X137477582Y-70659826D01*
X137416806Y-70659826D01*
X137278719Y-70700371D01*
X137157643Y-70778182D01*
X137063393Y-70886952D01*
X137063392Y-70886954D01*
X137003604Y-71017869D01*
X136983123Y-71160326D01*
X137003604Y-71302782D01*
X137051622Y-71407925D01*
X137063393Y-71433699D01*
X137157642Y-71542469D01*
X137278717Y-71620279D01*
X137309286Y-71629254D01*
X137368064Y-71667028D01*
X137397090Y-71730583D01*
X137387147Y-71799742D01*
X137379833Y-71813421D01*
X137346520Y-71867322D01*
X137346516Y-71867330D01*
X137329656Y-71901253D01*
X137328131Y-71905197D01*
X137317795Y-71941589D01*
X137298183Y-72046662D01*
X137295570Y-72065429D01*
X137295565Y-72065470D01*
X137295372Y-72067555D01*
X137295371Y-72067565D01*
X137294819Y-72079540D01*
X137294500Y-72086475D01*
X137294500Y-73148867D01*
X137295125Y-73161593D01*
X137295490Y-73169024D01*
X137295710Y-73171250D01*
X137295713Y-73171281D01*
X137298666Y-73191180D01*
X137298669Y-73191199D01*
X137320837Y-73302651D01*
X137320838Y-73302656D01*
X137320839Y-73302658D01*
X137320840Y-73302664D01*
X137332537Y-73341214D01*
X137332546Y-73341240D01*
X137334252Y-73345357D01*
X137346748Y-73368734D01*
X137353240Y-73380877D01*
X137415731Y-73474400D01*
X137441287Y-73505539D01*
X137444460Y-73508712D01*
X137475599Y-73534268D01*
X137475611Y-73534276D01*
X137569113Y-73596754D01*
X137569120Y-73596758D01*
X137569122Y-73596759D01*
X137604648Y-73615749D01*
X137608793Y-73617466D01*
X137647347Y-73629161D01*
X137647356Y-73629162D01*
X137647367Y-73629166D01*
X137725452Y-73644697D01*
X137758798Y-73651330D01*
X137778748Y-73654290D01*
X137780992Y-73654511D01*
X137801133Y-73655500D01*
X137801144Y-73655500D01*
X140631499Y-73655500D01*
X140698538Y-73675185D01*
X140744293Y-73727989D01*
X140754237Y-73797147D01*
X140725212Y-73860703D01*
X140682384Y-73892578D01*
X137593560Y-75282548D01*
X137576046Y-75291461D01*
X137576027Y-75291470D01*
X137574150Y-75292542D01*
X137574138Y-75292549D01*
X137562398Y-75300013D01*
X137557541Y-75303102D01*
X137467043Y-75366918D01*
X137467021Y-75366936D01*
X137437267Y-75392503D01*
X137434236Y-75395657D01*
X137409875Y-75426430D01*
X137409871Y-75426436D01*
X137350333Y-75518514D01*
X137332256Y-75553386D01*
X137330624Y-75557442D01*
X137319522Y-75595069D01*
X137306920Y-75660133D01*
X137306919Y-75660132D01*
X137298460Y-75703809D01*
X137298459Y-75703819D01*
X137295652Y-75723239D01*
X137295647Y-75723282D01*
X137295442Y-75725419D01*
X137295440Y-75725439D01*
X137294500Y-75745058D01*
X137294500Y-75745078D01*
X137294500Y-76748867D01*
X137295125Y-76761593D01*
X137295490Y-76769024D01*
X137295711Y-76771263D01*
X137295712Y-76771268D01*
X137298667Y-76791187D01*
X137298668Y-76791194D01*
X137320838Y-76902656D01*
X137332522Y-76941179D01*
X137332524Y-76941184D01*
X137334240Y-76945328D01*
X137334249Y-76945346D01*
X137353238Y-76980874D01*
X137415725Y-77074392D01*
X137415728Y-77074396D01*
X137415731Y-77074400D01*
X137441287Y-77105539D01*
X137444460Y-77108712D01*
X137475599Y-77134268D01*
X137475611Y-77134276D01*
X137569113Y-77196754D01*
X137569120Y-77196758D01*
X137569122Y-77196759D01*
X137604648Y-77215749D01*
X137608793Y-77217466D01*
X137647347Y-77229161D01*
X137647356Y-77229162D01*
X137647367Y-77229166D01*
X137725452Y-77244697D01*
X137758798Y-77251330D01*
X137778748Y-77254290D01*
X137780992Y-77254511D01*
X137801133Y-77255500D01*
X144522273Y-77255500D01*
X144589312Y-77275185D01*
X144635067Y-77327989D01*
X144645011Y-77397147D01*
X144632996Y-77435325D01*
X144483266Y-77732293D01*
X144483262Y-77732304D01*
X144309027Y-78165904D01*
X144309025Y-78165909D01*
X144172186Y-78612736D01*
X144172184Y-78612744D01*
X144073730Y-79069573D01*
X144014370Y-79533117D01*
X143994539Y-79999993D01*
X143994539Y-80000006D01*
X144014370Y-80466882D01*
X144031093Y-80597469D01*
X144060457Y-80826781D01*
X144073730Y-80930426D01*
X144172184Y-81387255D01*
X144172186Y-81387263D01*
X144230023Y-81576120D01*
X144306740Y-81826628D01*
X144309025Y-81834087D01*
X144309027Y-81834095D01*
X144483262Y-82267695D01*
X144483266Y-82267706D01*
X144693645Y-82684967D01*
X144693655Y-82684985D01*
X144938672Y-83082919D01*
X144938675Y-83082923D01*
X145216557Y-83458645D01*
X145216563Y-83458653D01*
X145525297Y-83809440D01*
X145525310Y-83809453D01*
X145862677Y-84132794D01*
X145862681Y-84132797D01*
X146226270Y-84426375D01*
X146613447Y-84688060D01*
X146794768Y-84789352D01*
X147021411Y-84915963D01*
X147021433Y-84915974D01*
X147447247Y-85108455D01*
X147447252Y-85108457D01*
X147650332Y-85180209D01*
X147887876Y-85264139D01*
X148340113Y-85381892D01*
X148800708Y-85460869D01*
X148944850Y-85473137D01*
X149266323Y-85500499D01*
X149266340Y-85500499D01*
X149266342Y-85500500D01*
X149266343Y-85500500D01*
X149733657Y-85500500D01*
X149733658Y-85500500D01*
X149733659Y-85500499D01*
X149733676Y-85500499D01*
X150010812Y-85476910D01*
X150199292Y-85460869D01*
X150659887Y-85381892D01*
X151112124Y-85264139D01*
X151552747Y-85108457D01*
X151552752Y-85108455D01*
X151978566Y-84915974D01*
X151978568Y-84915972D01*
X151978579Y-84915968D01*
X152386553Y-84688060D01*
X152773730Y-84426375D01*
X153137319Y-84132797D01*
X153336103Y-83942276D01*
X153398121Y-83910102D01*
X153467691Y-83916564D01*
X153522724Y-83959613D01*
X153529875Y-83970827D01*
X155209691Y-86945500D01*
X155904251Y-88175450D01*
X158078473Y-92025632D01*
X158094500Y-92086605D01*
X158094500Y-92173500D01*
X158074815Y-92240539D01*
X158022011Y-92286294D01*
X157970500Y-92297500D01*
X157545638Y-92297500D01*
X157431960Y-92312467D01*
X157431959Y-92312467D01*
X157290503Y-92371060D01*
X157169031Y-92464269D01*
X157075822Y-92585741D01*
X157017229Y-92727197D01*
X157017229Y-92727198D01*
X157002262Y-92840876D01*
X157002262Y-93679123D01*
X157017229Y-93792801D01*
X157017229Y-93792802D01*
X157075822Y-93934258D01*
X157077793Y-93937672D01*
X157078579Y-93940914D01*
X157078933Y-93941768D01*
X157078799Y-93941823D01*
X157094262Y-94005573D01*
X157071407Y-94071599D01*
X157058084Y-94087349D01*
X156205765Y-94939669D01*
X156205761Y-94939675D01*
X156162909Y-95013896D01*
X156162908Y-95013896D01*
X156152519Y-95052675D01*
X156140728Y-95096679D01*
X156140728Y-95865112D01*
X156121043Y-95932151D01*
X156110441Y-95946314D01*
X156040853Y-96026622D01*
X156040850Y-96026628D01*
X155981062Y-96157543D01*
X155960581Y-96300000D01*
X155981062Y-96442456D01*
X156007342Y-96500000D01*
X156040851Y-96573373D01*
X156135100Y-96682143D01*
X156256175Y-96759953D01*
X156256178Y-96759954D01*
X156256177Y-96759954D01*
X156394264Y-96800499D01*
X156394266Y-96800500D01*
X156394267Y-96800500D01*
X156538190Y-96800500D01*
X156538190Y-96800499D01*
X156562921Y-96793237D01*
X156632791Y-96793236D01*
X156691569Y-96831010D01*
X156720596Y-96894565D01*
X156710653Y-96963723D01*
X156685540Y-96999895D01*
X156617296Y-97068139D01*
X156617295Y-97068141D01*
X156574443Y-97142361D01*
X156574444Y-97142362D01*
X156552262Y-97225147D01*
X156552262Y-101510581D01*
X156552262Y-101596287D01*
X156553668Y-101601534D01*
X156574444Y-101679074D01*
X156595870Y-101716184D01*
X156617297Y-101753296D01*
X157135940Y-102271939D01*
X157135941Y-102271940D01*
X157196544Y-102332543D01*
X157237075Y-102355943D01*
X157285291Y-102406510D01*
X157298515Y-102475117D01*
X157272547Y-102539982D01*
X157250563Y-102561706D01*
X157169031Y-102624268D01*
X157075822Y-102745741D01*
X157017229Y-102887197D01*
X157017229Y-102887198D01*
X157002262Y-103000876D01*
X157002262Y-103839123D01*
X157017229Y-103952801D01*
X157017229Y-103952802D01*
X157075822Y-104094258D01*
X157075823Y-104094259D01*
X157169031Y-104215731D01*
X157290503Y-104308939D01*
X157431960Y-104367533D01*
X157545646Y-104382500D01*
X157970500Y-104382500D01*
X158037539Y-104402185D01*
X158083294Y-104454989D01*
X158094500Y-104506500D01*
X158094500Y-104873500D01*
X158074815Y-104940539D01*
X158022011Y-104986294D01*
X157970500Y-104997500D01*
X157545638Y-104997500D01*
X157431960Y-105012467D01*
X157431959Y-105012467D01*
X157290503Y-105071060D01*
X157169031Y-105164269D01*
X157075822Y-105285741D01*
X157017229Y-105427197D01*
X157017229Y-105427198D01*
X157002262Y-105540876D01*
X157002262Y-106379123D01*
X157017229Y-106492801D01*
X157017229Y-106492802D01*
X157075822Y-106634258D01*
X157075823Y-106634259D01*
X157169031Y-106755731D01*
X157290503Y-106848939D01*
X157431960Y-106907533D01*
X157545646Y-106922500D01*
X157970500Y-106922500D01*
X158037539Y-106942185D01*
X158083294Y-106994989D01*
X158094500Y-107046500D01*
X158094500Y-107413500D01*
X158074815Y-107480539D01*
X158022011Y-107526294D01*
X157970500Y-107537500D01*
X157545638Y-107537500D01*
X157431960Y-107552467D01*
X157431959Y-107552467D01*
X157290503Y-107611060D01*
X157169031Y-107704269D01*
X157075822Y-107825741D01*
X157017229Y-107967197D01*
X157017229Y-107967198D01*
X157002262Y-108080876D01*
X157002262Y-108538245D01*
X156982577Y-108605284D01*
X156929773Y-108651039D01*
X156860615Y-108660983D01*
X156797059Y-108631958D01*
X156790581Y-108625926D01*
X156786819Y-108622164D01*
X156753334Y-108560841D01*
X156750500Y-108534483D01*
X156750500Y-103951107D01*
X156750499Y-103951103D01*
X156748358Y-103943111D01*
X156728318Y-103868319D01*
X156685465Y-103794096D01*
X141066819Y-88175450D01*
X141033334Y-88114127D01*
X141030500Y-88087769D01*
X141030500Y-87875829D01*
X141050185Y-87808790D01*
X141085606Y-87772729D01*
X141137833Y-87737833D01*
X141191430Y-87657619D01*
X141205500Y-87586885D01*
X141205499Y-85653116D01*
X141191430Y-85582381D01*
X141137833Y-85502167D01*
X141137832Y-85502166D01*
X141057621Y-85448571D01*
X141057614Y-85448568D01*
X140986888Y-85434500D01*
X140423118Y-85434500D01*
X140352379Y-85448570D01*
X140272166Y-85502167D01*
X140218571Y-85582378D01*
X140218568Y-85582385D01*
X140204500Y-85653110D01*
X140204500Y-87586881D01*
X140214799Y-87638657D01*
X140208570Y-87708249D01*
X140165706Y-87763426D01*
X140099816Y-87786669D01*
X140031820Y-87770600D01*
X140005500Y-87750528D01*
X139966830Y-87711858D01*
X139933345Y-87650535D01*
X139932895Y-87599981D01*
X139935499Y-87586889D01*
X139935500Y-87586885D01*
X139935499Y-85653116D01*
X139921430Y-85582381D01*
X139867833Y-85502167D01*
X139867832Y-85502166D01*
X139787621Y-85448571D01*
X139787614Y-85448568D01*
X139716888Y-85434500D01*
X139153118Y-85434500D01*
X139082379Y-85448570D01*
X139002166Y-85502167D01*
X138948571Y-85582378D01*
X138948568Y-85582385D01*
X138934500Y-85653110D01*
X138934500Y-86170500D01*
X138914815Y-86237539D01*
X138862011Y-86283294D01*
X138810500Y-86294500D01*
X138789499Y-86294500D01*
X138722460Y-86274815D01*
X138676705Y-86222011D01*
X138665499Y-86170500D01*
X138665499Y-85653118D01*
X138665499Y-85653116D01*
X138651430Y-85582381D01*
X138597833Y-85502167D01*
X138597832Y-85502166D01*
X138517621Y-85448571D01*
X138517614Y-85448568D01*
X138446888Y-85434500D01*
X137883118Y-85434500D01*
X137812379Y-85448570D01*
X137732166Y-85502167D01*
X137678571Y-85582378D01*
X137678568Y-85582385D01*
X137664500Y-85653110D01*
X137664500Y-87080991D01*
X137644815Y-87148030D01*
X137592011Y-87193785D01*
X137522853Y-87203729D01*
X137459297Y-87174704D01*
X137452819Y-87168672D01*
X137431818Y-87147671D01*
X137398333Y-87086348D01*
X137395499Y-87059990D01*
X137395499Y-85653118D01*
X137395499Y-85653116D01*
X137381430Y-85582381D01*
X137327833Y-85502167D01*
X137327832Y-85502166D01*
X137247621Y-85448571D01*
X137247614Y-85448568D01*
X137176888Y-85434500D01*
X136613118Y-85434500D01*
X136542379Y-85448570D01*
X136462166Y-85502167D01*
X136408571Y-85582378D01*
X136408568Y-85582385D01*
X136394500Y-85653110D01*
X136394500Y-87586881D01*
X136408570Y-87657620D01*
X136444811Y-87711858D01*
X136462167Y-87737833D01*
X136542381Y-87791430D01*
X136542384Y-87791430D01*
X136542385Y-87791431D01*
X136569493Y-87796823D01*
X136613115Y-87805500D01*
X137176884Y-87805499D01*
X137182976Y-87805499D01*
X137182976Y-87806997D01*
X137244330Y-87818622D01*
X137275541Y-87841336D01*
X137523716Y-88089511D01*
X137579665Y-88145460D01*
X137579667Y-88145461D01*
X137579671Y-88145464D01*
X137631609Y-88175450D01*
X137648187Y-88185021D01*
X137724614Y-88205500D01*
X137803738Y-88205500D01*
X138993482Y-88205500D01*
X139060521Y-88225185D01*
X139081163Y-88241819D01*
X155263181Y-104423837D01*
X155296666Y-104485160D01*
X155299500Y-104511518D01*
X155299500Y-115953800D01*
X155319979Y-116030227D01*
X155319980Y-116030228D01*
X155333767Y-116054109D01*
X155359537Y-116098745D01*
X155359541Y-116098750D01*
X157073045Y-117812254D01*
X157106530Y-117873577D01*
X157101546Y-117943269D01*
X157083744Y-117975416D01*
X157075823Y-117985739D01*
X157017229Y-118127197D01*
X157017229Y-118127198D01*
X157002262Y-118240876D01*
X157002262Y-119079123D01*
X157017229Y-119192801D01*
X157017229Y-119192802D01*
X157075822Y-119334258D01*
X157125432Y-119398912D01*
X157169031Y-119455731D01*
X157190397Y-119472125D01*
X157231598Y-119528552D01*
X157235753Y-119598298D01*
X157201540Y-119659219D01*
X157139823Y-119691971D01*
X157114909Y-119694500D01*
X141796615Y-119694500D01*
X141729576Y-119674815D01*
X141683821Y-119622011D01*
X141673877Y-119552853D01*
X141702902Y-119489297D01*
X141721123Y-119472128D01*
X141742493Y-119455731D01*
X141835701Y-119334259D01*
X141894295Y-119192802D01*
X141909262Y-119079116D01*
X141909262Y-118240884D01*
X141894295Y-118127198D01*
X141835701Y-117985741D01*
X141742493Y-117864269D01*
X141621021Y-117771061D01*
X141621020Y-117771060D01*
X141538157Y-117736737D01*
X141479564Y-117712467D01*
X141465353Y-117710596D01*
X141365885Y-117697500D01*
X141365878Y-117697500D01*
X140362438Y-117697500D01*
X140295399Y-117677815D01*
X140274757Y-117661181D01*
X139907757Y-117294181D01*
X139874272Y-117232858D01*
X139879256Y-117163166D01*
X139921128Y-117107233D01*
X139986592Y-117082816D01*
X139995438Y-117082500D01*
X141365871Y-117082500D01*
X141365878Y-117082500D01*
X141479564Y-117067533D01*
X141621021Y-117008939D01*
X141742493Y-116915731D01*
X141835701Y-116794259D01*
X141894295Y-116652802D01*
X141909262Y-116539116D01*
X141909262Y-115700884D01*
X141894295Y-115587198D01*
X141835701Y-115445741D01*
X141742493Y-115324269D01*
X141621021Y-115231061D01*
X141621020Y-115231060D01*
X141538157Y-115196737D01*
X141479564Y-115172467D01*
X141465353Y-115170596D01*
X141365885Y-115157500D01*
X141365878Y-115157500D01*
X139765646Y-115157500D01*
X139765638Y-115157500D01*
X139651960Y-115172467D01*
X139651959Y-115172467D01*
X139510503Y-115231060D01*
X139389031Y-115324269D01*
X139295822Y-115445741D01*
X139237229Y-115587197D01*
X139237229Y-115587198D01*
X139222262Y-115700876D01*
X139222262Y-116309324D01*
X139202577Y-116376363D01*
X139149773Y-116422118D01*
X139080615Y-116432062D01*
X139017059Y-116403037D01*
X139010581Y-116397005D01*
X138602125Y-115988549D01*
X138568640Y-115927226D01*
X138565806Y-115900868D01*
X138565806Y-115731888D01*
X138585491Y-115664849D01*
X138611141Y-115636035D01*
X138749189Y-115522741D01*
X138869467Y-115376183D01*
X138869471Y-115376176D01*
X138897216Y-115324269D01*
X138958843Y-115208973D01*
X139013879Y-115027541D01*
X139032463Y-114838858D01*
X139032016Y-114834322D01*
X139664990Y-114834322D01*
X139664990Y-114834323D01*
X139684122Y-114839081D01*
X139727157Y-114841999D01*
X141404367Y-114841999D01*
X141404371Y-114841998D01*
X141447389Y-114839083D01*
X141447399Y-114839081D01*
X141466531Y-114834322D01*
X140565762Y-113933553D01*
X139664990Y-114834322D01*
X139032016Y-114834322D01*
X139022080Y-114733445D01*
X139035098Y-114664803D01*
X139083163Y-114614092D01*
X139151014Y-114597417D01*
X139162825Y-114601465D01*
X139192342Y-114599865D01*
X140212209Y-113579999D01*
X140919315Y-113579999D01*
X140919315Y-113580000D01*
X141939179Y-114599864D01*
X141954397Y-114587631D01*
X142074454Y-114438275D01*
X142159596Y-114266602D01*
X142205843Y-114080640D01*
X142208761Y-114037604D01*
X142208761Y-113122394D01*
X142208760Y-113122390D01*
X142205844Y-113079367D01*
X142205844Y-113079365D01*
X142159596Y-112893397D01*
X142074454Y-112721724D01*
X141954399Y-112572369D01*
X141954391Y-112572362D01*
X141939180Y-112560133D01*
X140919315Y-113579999D01*
X140212209Y-113579999D01*
X140565762Y-113226447D01*
X141466532Y-112325676D01*
X141466531Y-112325675D01*
X141447405Y-112320919D01*
X141447400Y-112320918D01*
X141404366Y-112318000D01*
X139727156Y-112318000D01*
X139727152Y-112318001D01*
X139684129Y-112320917D01*
X139684127Y-112320917D01*
X139498157Y-112367166D01*
X139495240Y-112368238D01*
X139493340Y-112368364D01*
X139491637Y-112368788D01*
X139491561Y-112368482D01*
X139425524Y-112372874D01*
X139364369Y-112339083D01*
X139331191Y-112277594D01*
X139328959Y-112262648D01*
X139312881Y-112078882D01*
X139312879Y-112078871D01*
X139305703Y-112052088D01*
X139307366Y-111982238D01*
X139346529Y-111924376D01*
X139410758Y-111896872D01*
X139479660Y-111908459D01*
X139500961Y-111921617D01*
X139508412Y-111927334D01*
X139510504Y-111928940D01*
X139562757Y-111950583D01*
X139651960Y-111987533D01*
X139765646Y-112002500D01*
X139765653Y-112002500D01*
X141365871Y-112002500D01*
X141365878Y-112002500D01*
X141479564Y-111987533D01*
X141621021Y-111928939D01*
X141742493Y-111835731D01*
X141835701Y-111714259D01*
X141894295Y-111572802D01*
X141909262Y-111459116D01*
X141909262Y-110620884D01*
X141894295Y-110507198D01*
X141835701Y-110365741D01*
X141742493Y-110244269D01*
X141621021Y-110151061D01*
X141621020Y-110151060D01*
X141538157Y-110116737D01*
X141479564Y-110092467D01*
X141465353Y-110090596D01*
X141365885Y-110077500D01*
X141365878Y-110077500D01*
X139765646Y-110077500D01*
X139765638Y-110077500D01*
X139651960Y-110092467D01*
X139651959Y-110092467D01*
X139510503Y-110151060D01*
X139389031Y-110244269D01*
X139295822Y-110365741D01*
X139237229Y-110507197D01*
X139237229Y-110507198D01*
X139222262Y-110620876D01*
X139222262Y-111459109D01*
X139222528Y-111463168D01*
X139221429Y-111463240D01*
X139211405Y-111527493D01*
X139165022Y-111579746D01*
X139127413Y-111590301D01*
X138502953Y-112214762D01*
X138479514Y-112127287D01*
X138420995Y-112025928D01*
X138338236Y-111943169D01*
X138236877Y-111884650D01*
X138149401Y-111861210D01*
X138763494Y-111247117D01*
X138763493Y-111247116D01*
X138698717Y-111201759D01*
X138698711Y-111201756D01*
X138498590Y-111108438D01*
X138498576Y-111108433D01*
X138285292Y-111051284D01*
X138285282Y-111051282D01*
X138065307Y-111032037D01*
X138065305Y-111032037D01*
X137845329Y-111051282D01*
X137845319Y-111051284D01*
X137632035Y-111108433D01*
X137632026Y-111108437D01*
X137431896Y-111201759D01*
X137367117Y-111247116D01*
X137981211Y-111861210D01*
X137893735Y-111884650D01*
X137792376Y-111943169D01*
X137709617Y-112025928D01*
X137651098Y-112127287D01*
X137627658Y-112214763D01*
X137013564Y-111600669D01*
X136968207Y-111665448D01*
X136874885Y-111865578D01*
X136874881Y-111865587D01*
X136817732Y-112078871D01*
X136817730Y-112078881D01*
X136798485Y-112298857D01*
X136798485Y-112298858D01*
X136817730Y-112518834D01*
X136817732Y-112518844D01*
X136874881Y-112732128D01*
X136874886Y-112732142D01*
X136968204Y-112932263D01*
X136968207Y-112932269D01*
X137013564Y-112997045D01*
X137013565Y-112997046D01*
X137627658Y-112382952D01*
X137651098Y-112470429D01*
X137709617Y-112571788D01*
X137792376Y-112654547D01*
X137893735Y-112713066D01*
X137981211Y-112736505D01*
X137367116Y-113350598D01*
X137431896Y-113395957D01*
X137431898Y-113395958D01*
X137632021Y-113489277D01*
X137632035Y-113489282D01*
X137845319Y-113546431D01*
X137845329Y-113546433D01*
X138065305Y-113565679D01*
X138065307Y-113565679D01*
X138285282Y-113546433D01*
X138285292Y-113546431D01*
X138498576Y-113489282D01*
X138498590Y-113489277D01*
X138698713Y-113395958D01*
X138698717Y-113395956D01*
X138727637Y-113375706D01*
X138793842Y-113353378D01*
X138861610Y-113370387D01*
X138909424Y-113421334D01*
X138922762Y-113477280D01*
X138922762Y-114035246D01*
X138903077Y-114102285D01*
X138850273Y-114148040D01*
X138781115Y-114157984D01*
X138720097Y-114131099D01*
X138602631Y-114034696D01*
X138602624Y-114034692D01*
X138435428Y-113945324D01*
X138435425Y-113945323D01*
X138435424Y-113945322D01*
X138435421Y-113945321D01*
X138253989Y-113890285D01*
X138253987Y-113890284D01*
X138253989Y-113890284D01*
X138065306Y-113871701D01*
X137876624Y-113890284D01*
X137769500Y-113922779D01*
X137695191Y-113945321D01*
X137695188Y-113945322D01*
X137695186Y-113945323D01*
X137695183Y-113945324D01*
X137527987Y-114034692D01*
X137527980Y-114034696D01*
X137381422Y-114154974D01*
X137261144Y-114301532D01*
X137261140Y-114301539D01*
X137171772Y-114468735D01*
X137171771Y-114468738D01*
X137116732Y-114650176D01*
X137098149Y-114838858D01*
X137116732Y-115027539D01*
X137131792Y-115077184D01*
X137171769Y-115208973D01*
X137171770Y-115208976D01*
X137171771Y-115208977D01*
X137171772Y-115208980D01*
X137261140Y-115376176D01*
X137261144Y-115376183D01*
X137381422Y-115522741D01*
X137519471Y-115636035D01*
X137558805Y-115693781D01*
X137564806Y-115731888D01*
X137564806Y-116225435D01*
X137598914Y-116352731D01*
X137624476Y-116397005D01*
X137664806Y-116466858D01*
X137664808Y-116466860D01*
X139205185Y-118007237D01*
X139238670Y-118068560D01*
X139237470Y-118119033D01*
X139238290Y-118119141D01*
X139237286Y-118126760D01*
X139237281Y-118127005D01*
X139237229Y-118127198D01*
X139222262Y-118240876D01*
X139222262Y-119079123D01*
X139237229Y-119192801D01*
X139237229Y-119192802D01*
X139295822Y-119334258D01*
X139345432Y-119398912D01*
X139389031Y-119455731D01*
X139410397Y-119472125D01*
X139451598Y-119528552D01*
X139455753Y-119598298D01*
X139421540Y-119659219D01*
X139359823Y-119691971D01*
X139334909Y-119694500D01*
X134124500Y-119694500D01*
X134057461Y-119674815D01*
X134011706Y-119622011D01*
X134000500Y-119570500D01*
X134000500Y-109758858D01*
X137098149Y-109758858D01*
X137116732Y-109947539D01*
X137135078Y-110008018D01*
X137171769Y-110128973D01*
X137171770Y-110128976D01*
X137171771Y-110128977D01*
X137171772Y-110128980D01*
X137261140Y-110296176D01*
X137261144Y-110296183D01*
X137381422Y-110442741D01*
X137527980Y-110563019D01*
X137527987Y-110563023D01*
X137695183Y-110652391D01*
X137695184Y-110652391D01*
X137695191Y-110652395D01*
X137876623Y-110707431D01*
X137876622Y-110707431D01*
X137893539Y-110709097D01*
X138065306Y-110726015D01*
X138253989Y-110707431D01*
X138435421Y-110652395D01*
X138602630Y-110563020D01*
X138749189Y-110442741D01*
X138869468Y-110296182D01*
X138958843Y-110128973D01*
X139013879Y-109947541D01*
X139032463Y-109758858D01*
X139013879Y-109570175D01*
X138958843Y-109388743D01*
X138958839Y-109388735D01*
X138869471Y-109221539D01*
X138869467Y-109221532D01*
X138749189Y-109074974D01*
X138602631Y-108954696D01*
X138602624Y-108954692D01*
X138435428Y-108865324D01*
X138435425Y-108865323D01*
X138435424Y-108865322D01*
X138435421Y-108865321D01*
X138253989Y-108810285D01*
X138253987Y-108810284D01*
X138253989Y-108810284D01*
X138065306Y-108791701D01*
X137876624Y-108810284D01*
X137786553Y-108837607D01*
X137695191Y-108865321D01*
X137695188Y-108865322D01*
X137695186Y-108865323D01*
X137695183Y-108865324D01*
X137527987Y-108954692D01*
X137527980Y-108954696D01*
X137381422Y-109074974D01*
X137261144Y-109221532D01*
X137261140Y-109221539D01*
X137171772Y-109388735D01*
X137171771Y-109388738D01*
X137171770Y-109388740D01*
X137171769Y-109388743D01*
X137153936Y-109447532D01*
X137116732Y-109570176D01*
X137098149Y-109758858D01*
X134000500Y-109758858D01*
X134000500Y-107218858D01*
X137098149Y-107218858D01*
X137116732Y-107407539D01*
X137131792Y-107457184D01*
X137171769Y-107588973D01*
X137171770Y-107588976D01*
X137171771Y-107588977D01*
X137171772Y-107588980D01*
X137261140Y-107756176D01*
X137261144Y-107756183D01*
X137381422Y-107902741D01*
X137527980Y-108023019D01*
X137527987Y-108023023D01*
X137695183Y-108112391D01*
X137695184Y-108112391D01*
X137695191Y-108112395D01*
X137876623Y-108167431D01*
X137876622Y-108167431D01*
X137893539Y-108169097D01*
X138065306Y-108186015D01*
X138253989Y-108167431D01*
X138435421Y-108112395D01*
X138494389Y-108080876D01*
X139222262Y-108080876D01*
X139222262Y-108919123D01*
X139237229Y-109032801D01*
X139237229Y-109032802D01*
X139295822Y-109174258D01*
X139295823Y-109174259D01*
X139389031Y-109295731D01*
X139510503Y-109388939D01*
X139651960Y-109447533D01*
X139765646Y-109462500D01*
X139765653Y-109462500D01*
X141365871Y-109462500D01*
X141365878Y-109462500D01*
X141479564Y-109447533D01*
X141621021Y-109388939D01*
X141742493Y-109295731D01*
X141835701Y-109174259D01*
X141894295Y-109032802D01*
X141909262Y-108919116D01*
X141909262Y-108080884D01*
X141894295Y-107967198D01*
X141835701Y-107825741D01*
X141742493Y-107704269D01*
X141621021Y-107611061D01*
X141621020Y-107611060D01*
X141538157Y-107576737D01*
X141479564Y-107552467D01*
X141465353Y-107550596D01*
X141365885Y-107537500D01*
X141365878Y-107537500D01*
X139765646Y-107537500D01*
X139765638Y-107537500D01*
X139651960Y-107552467D01*
X139651959Y-107552467D01*
X139510503Y-107611060D01*
X139389031Y-107704269D01*
X139295822Y-107825741D01*
X139237229Y-107967197D01*
X139237229Y-107967198D01*
X139222262Y-108080876D01*
X138494389Y-108080876D01*
X138602630Y-108023020D01*
X138749189Y-107902741D01*
X138869468Y-107756182D01*
X138958843Y-107588973D01*
X139013879Y-107407541D01*
X139032463Y-107218858D01*
X139013879Y-107030175D01*
X138958843Y-106848743D01*
X138869468Y-106681534D01*
X138869467Y-106681532D01*
X138749189Y-106534974D01*
X138602631Y-106414696D01*
X138602624Y-106414692D01*
X138435428Y-106325324D01*
X138435425Y-106325323D01*
X138435424Y-106325322D01*
X138435421Y-106325321D01*
X138253989Y-106270285D01*
X138253987Y-106270284D01*
X138253989Y-106270284D01*
X138065306Y-106251701D01*
X137876624Y-106270284D01*
X137769500Y-106302779D01*
X137695191Y-106325321D01*
X137695188Y-106325322D01*
X137695186Y-106325323D01*
X137695183Y-106325324D01*
X137527987Y-106414692D01*
X137527980Y-106414696D01*
X137381422Y-106534974D01*
X137261144Y-106681532D01*
X137261140Y-106681539D01*
X137171772Y-106848735D01*
X137171771Y-106848738D01*
X137116732Y-107030176D01*
X137098149Y-107218858D01*
X134000500Y-107218858D01*
X134000500Y-99598858D01*
X137098149Y-99598858D01*
X137116732Y-99787539D01*
X137129139Y-99828438D01*
X137171769Y-99968973D01*
X137171770Y-99968976D01*
X137171771Y-99968977D01*
X137171772Y-99968980D01*
X137261140Y-100136176D01*
X137261144Y-100136183D01*
X137381422Y-100282741D01*
X137527980Y-100403019D01*
X137527987Y-100403023D01*
X137695183Y-100492391D01*
X137695184Y-100492391D01*
X137695191Y-100492395D01*
X137876623Y-100547431D01*
X137876622Y-100547431D01*
X137893539Y-100549097D01*
X138065306Y-100566015D01*
X138253989Y-100547431D01*
X138435421Y-100492395D01*
X138602630Y-100403020D01*
X138749189Y-100282741D01*
X138869468Y-100136182D01*
X138958843Y-99968973D01*
X139013879Y-99787541D01*
X139032463Y-99598858D01*
X139013879Y-99410175D01*
X138958843Y-99228743D01*
X138909127Y-99135730D01*
X138869471Y-99061539D01*
X138869467Y-99061532D01*
X138749189Y-98914974D01*
X138602631Y-98794696D01*
X138602624Y-98794692D01*
X138435428Y-98705324D01*
X138435425Y-98705323D01*
X138435424Y-98705322D01*
X138435421Y-98705321D01*
X138253989Y-98650285D01*
X138253987Y-98650284D01*
X138253989Y-98650284D01*
X138065306Y-98631701D01*
X137876624Y-98650284D01*
X137769500Y-98682779D01*
X137695191Y-98705321D01*
X137695188Y-98705322D01*
X137695186Y-98705323D01*
X137695183Y-98705324D01*
X137527987Y-98794692D01*
X137527980Y-98794696D01*
X137381422Y-98914974D01*
X137261144Y-99061532D01*
X137261140Y-99061539D01*
X137171772Y-99228735D01*
X137171771Y-99228738D01*
X137171770Y-99228740D01*
X137171769Y-99228743D01*
X137153936Y-99287532D01*
X137116732Y-99410176D01*
X137098149Y-99598858D01*
X134000500Y-99598858D01*
X134000500Y-96200905D01*
X137026606Y-96200905D01*
X137026606Y-97916810D01*
X137038237Y-97975287D01*
X137038238Y-97975288D01*
X137082553Y-98041610D01*
X137148875Y-98085925D01*
X137148876Y-98085926D01*
X137207353Y-98097557D01*
X137207356Y-98097558D01*
X137207358Y-98097558D01*
X138923256Y-98097558D01*
X138923257Y-98097557D01*
X138938074Y-98094610D01*
X138981735Y-98085926D01*
X138981737Y-98085925D01*
X139029370Y-98054097D01*
X139096047Y-98033218D01*
X139163427Y-98051702D01*
X139210118Y-98103680D01*
X139222262Y-98157198D01*
X139222262Y-98759123D01*
X139237229Y-98872801D01*
X139237229Y-98872802D01*
X139295822Y-99014258D01*
X139313172Y-99036869D01*
X139389031Y-99135731D01*
X139510503Y-99228939D01*
X139651960Y-99287533D01*
X139765646Y-99302500D01*
X139867142Y-99302500D01*
X139934181Y-99322185D01*
X139979936Y-99374989D01*
X139989880Y-99444147D01*
X139983190Y-99466927D01*
X139983561Y-99467036D01*
X139981062Y-99475542D01*
X139960581Y-99618000D01*
X139982325Y-99769235D01*
X139980507Y-99769496D01*
X139980506Y-99828438D01*
X139942730Y-99887215D01*
X139879173Y-99916238D01*
X139861530Y-99917500D01*
X139765638Y-99917500D01*
X139651960Y-99932467D01*
X139651959Y-99932467D01*
X139510503Y-99991060D01*
X139389031Y-100084269D01*
X139295822Y-100205741D01*
X139237229Y-100347197D01*
X139237229Y-100347198D01*
X139222262Y-100460876D01*
X139222262Y-101299123D01*
X139237229Y-101412801D01*
X139237229Y-101412802D01*
X139295822Y-101554258D01*
X139378791Y-101662387D01*
X139389031Y-101675731D01*
X139393388Y-101679074D01*
X139457489Y-101728260D01*
X139498691Y-101784688D01*
X139502846Y-101854434D01*
X139469683Y-101914317D01*
X139236918Y-102147082D01*
X139175595Y-102180567D01*
X139105903Y-102175583D01*
X139049970Y-102133711D01*
X139025834Y-102071555D01*
X139013879Y-101950176D01*
X139013879Y-101950175D01*
X138958843Y-101768743D01*
X138958839Y-101768735D01*
X138869471Y-101601539D01*
X138869467Y-101601532D01*
X138749189Y-101454974D01*
X138602631Y-101334696D01*
X138602624Y-101334692D01*
X138435428Y-101245324D01*
X138435425Y-101245323D01*
X138435424Y-101245322D01*
X138435421Y-101245321D01*
X138253989Y-101190285D01*
X138253987Y-101190284D01*
X138253989Y-101190284D01*
X138065306Y-101171701D01*
X137876624Y-101190284D01*
X137769500Y-101222779D01*
X137695191Y-101245321D01*
X137695188Y-101245322D01*
X137695186Y-101245323D01*
X137695183Y-101245324D01*
X137527987Y-101334692D01*
X137527980Y-101334696D01*
X137381422Y-101454974D01*
X137261144Y-101601532D01*
X137261140Y-101601539D01*
X137171772Y-101768735D01*
X137171771Y-101768738D01*
X137171770Y-101768740D01*
X137171769Y-101768743D01*
X137162420Y-101799564D01*
X137116732Y-101950176D01*
X137098149Y-102138858D01*
X137116732Y-102327539D01*
X137131249Y-102375396D01*
X137171769Y-102508973D01*
X137171770Y-102508976D01*
X137171771Y-102508977D01*
X137171772Y-102508980D01*
X137261140Y-102676176D01*
X137261144Y-102676183D01*
X137381422Y-102822741D01*
X137527980Y-102943019D01*
X137527987Y-102943023D01*
X137695183Y-103032391D01*
X137695184Y-103032391D01*
X137695191Y-103032395D01*
X137876623Y-103087431D01*
X137876622Y-103087431D01*
X137934109Y-103093093D01*
X137998003Y-103099386D01*
X138062790Y-103125547D01*
X138103149Y-103182581D01*
X138106266Y-103252381D01*
X138073530Y-103310470D01*
X137804843Y-103579157D01*
X137804839Y-103579163D01*
X137761987Y-103653383D01*
X137761987Y-103653384D01*
X137761988Y-103653385D01*
X137745805Y-103713779D01*
X137709439Y-103773440D01*
X137684483Y-103791043D01*
X137527987Y-103874691D01*
X137527980Y-103874696D01*
X137381422Y-103994974D01*
X137261144Y-104141532D01*
X137261140Y-104141539D01*
X137171772Y-104308735D01*
X137171771Y-104308738D01*
X137116732Y-104490176D01*
X137098149Y-104678858D01*
X137116732Y-104867539D01*
X137131792Y-104917184D01*
X137171769Y-105048973D01*
X137171770Y-105048976D01*
X137171771Y-105048977D01*
X137171772Y-105048980D01*
X137261140Y-105216176D01*
X137261144Y-105216183D01*
X137381422Y-105362741D01*
X137527980Y-105483019D01*
X137527987Y-105483023D01*
X137695183Y-105572391D01*
X137695184Y-105572391D01*
X137695191Y-105572395D01*
X137876623Y-105627431D01*
X137876622Y-105627431D01*
X137893539Y-105629097D01*
X138065306Y-105646015D01*
X138253989Y-105627431D01*
X138435421Y-105572395D01*
X138494389Y-105540876D01*
X139222262Y-105540876D01*
X139222262Y-106379123D01*
X139237229Y-106492801D01*
X139237229Y-106492802D01*
X139295822Y-106634258D01*
X139295823Y-106634259D01*
X139389031Y-106755731D01*
X139510503Y-106848939D01*
X139651960Y-106907533D01*
X139765646Y-106922500D01*
X139765653Y-106922500D01*
X141365871Y-106922500D01*
X141365878Y-106922500D01*
X141479564Y-106907533D01*
X141621021Y-106848939D01*
X141742493Y-106755731D01*
X141835701Y-106634259D01*
X141894295Y-106492802D01*
X141909262Y-106379116D01*
X141909262Y-105540884D01*
X141894295Y-105427198D01*
X141835701Y-105285741D01*
X141742493Y-105164269D01*
X141621021Y-105071061D01*
X141621020Y-105071060D01*
X141538157Y-105036737D01*
X141479564Y-105012467D01*
X141465353Y-105010596D01*
X141365885Y-104997500D01*
X141365878Y-104997500D01*
X139765646Y-104997500D01*
X139765638Y-104997500D01*
X139651960Y-105012467D01*
X139651959Y-105012467D01*
X139510503Y-105071060D01*
X139389031Y-105164269D01*
X139295822Y-105285741D01*
X139237229Y-105427197D01*
X139237229Y-105427198D01*
X139222262Y-105540876D01*
X138494389Y-105540876D01*
X138602630Y-105483020D01*
X138749189Y-105362741D01*
X138869468Y-105216182D01*
X138958843Y-105048973D01*
X139013879Y-104867541D01*
X139032463Y-104678858D01*
X139013879Y-104490175D01*
X138958843Y-104308743D01*
X138869468Y-104141534D01*
X138869467Y-104141532D01*
X138749189Y-103994974D01*
X138613548Y-103883655D01*
X138574214Y-103825909D01*
X138572343Y-103756064D01*
X138604530Y-103700123D01*
X139010581Y-103294073D01*
X139071904Y-103260588D01*
X139141596Y-103265572D01*
X139197529Y-103307444D01*
X139221946Y-103372908D01*
X139222262Y-103381754D01*
X139222262Y-103839123D01*
X139237229Y-103952801D01*
X139237229Y-103952802D01*
X139295822Y-104094258D01*
X139295823Y-104094259D01*
X139389031Y-104215731D01*
X139510503Y-104308939D01*
X139651960Y-104367533D01*
X139765646Y-104382500D01*
X139765653Y-104382500D01*
X141365871Y-104382500D01*
X141365878Y-104382500D01*
X141479564Y-104367533D01*
X141621021Y-104308939D01*
X141742493Y-104215731D01*
X141835701Y-104094259D01*
X141894295Y-103952802D01*
X141909262Y-103839116D01*
X141909262Y-103000884D01*
X141894295Y-102887198D01*
X141835701Y-102745741D01*
X141835700Y-102745740D01*
X141833736Y-102742338D01*
X141832949Y-102739098D01*
X141832591Y-102738232D01*
X141832726Y-102738176D01*
X141817259Y-102674438D01*
X141840107Y-102608410D01*
X141853438Y-102592650D01*
X142626691Y-101819398D01*
X142626694Y-101819395D01*
X142632318Y-101809654D01*
X142638143Y-101799564D01*
X142669546Y-101745172D01*
X142691728Y-101662387D01*
X142691728Y-97956179D01*
X142673771Y-97889162D01*
X142673770Y-97889154D01*
X142669546Y-97873394D01*
X142669546Y-97873393D01*
X142648119Y-97836282D01*
X142626693Y-97799170D01*
X142566090Y-97738567D01*
X142566089Y-97738566D01*
X142561759Y-97734236D01*
X142561748Y-97734226D01*
X141661840Y-96834317D01*
X141628355Y-96772994D01*
X141633339Y-96703302D01*
X141674035Y-96648260D01*
X141681599Y-96642456D01*
X141742493Y-96595731D01*
X141758541Y-96574815D01*
X141814963Y-96533615D01*
X141884709Y-96529458D01*
X141945630Y-96563668D01*
X141978385Y-96625384D01*
X141979652Y-96632651D01*
X141981061Y-96642453D01*
X141981062Y-96642455D01*
X142022577Y-96733358D01*
X142040851Y-96773373D01*
X142135100Y-96882143D01*
X142256175Y-96959953D01*
X142256178Y-96959954D01*
X142256177Y-96959954D01*
X142394264Y-97000499D01*
X142394266Y-97000500D01*
X142394267Y-97000500D01*
X142538190Y-97000500D01*
X142538190Y-97000499D01*
X142645349Y-96969035D01*
X142676278Y-96959954D01*
X142676278Y-96959953D01*
X142676281Y-96959953D01*
X142797356Y-96882143D01*
X142891605Y-96773373D01*
X142951393Y-96642457D01*
X142971875Y-96500000D01*
X142951393Y-96357543D01*
X142891605Y-96226627D01*
X142797356Y-96117857D01*
X142676281Y-96040047D01*
X142676279Y-96040046D01*
X142676277Y-96040045D01*
X142676278Y-96040045D01*
X142538191Y-95999500D01*
X142538189Y-95999500D01*
X142477417Y-95999500D01*
X142410378Y-95979815D01*
X142389736Y-95963181D01*
X141966092Y-95539537D01*
X141966090Y-95539535D01*
X141966087Y-95539533D01*
X141959641Y-95534587D01*
X141961448Y-95532230D01*
X141923044Y-95491950D01*
X141909262Y-95435134D01*
X141909262Y-95380890D01*
X141909261Y-95380876D01*
X141908504Y-95375132D01*
X141894295Y-95267198D01*
X141835701Y-95125741D01*
X141742493Y-95004269D01*
X141621021Y-94911061D01*
X141621020Y-94911060D01*
X141538157Y-94876737D01*
X141479564Y-94852467D01*
X141464213Y-94850446D01*
X141365885Y-94837500D01*
X141365878Y-94837500D01*
X140378387Y-94837500D01*
X140311348Y-94817815D01*
X140265593Y-94765011D01*
X140255649Y-94695853D01*
X140258572Y-94682412D01*
X140258852Y-94680459D01*
X140258854Y-94680457D01*
X140279336Y-94538000D01*
X140258854Y-94395543D01*
X140258854Y-94395542D01*
X140256356Y-94387036D01*
X140258321Y-94386458D01*
X140250036Y-94328862D01*
X140279056Y-94265304D01*
X140337832Y-94227525D01*
X140372775Y-94222500D01*
X141365871Y-94222500D01*
X141365878Y-94222500D01*
X141479564Y-94207533D01*
X141621021Y-94148939D01*
X141742493Y-94055731D01*
X141835701Y-93934259D01*
X141894295Y-93792802D01*
X141909262Y-93679116D01*
X141909262Y-92840884D01*
X141894295Y-92727198D01*
X141835701Y-92585741D01*
X141742493Y-92464269D01*
X141621021Y-92371061D01*
X141621020Y-92371060D01*
X141538157Y-92336737D01*
X141479564Y-92312467D01*
X141465353Y-92310596D01*
X141365885Y-92297500D01*
X141365878Y-92297500D01*
X139765646Y-92297500D01*
X139765638Y-92297500D01*
X139651960Y-92312467D01*
X139651959Y-92312467D01*
X139510503Y-92371060D01*
X139389031Y-92464269D01*
X139295822Y-92585741D01*
X139237229Y-92727197D01*
X139237229Y-92727198D01*
X139222262Y-92840876D01*
X139222262Y-93679123D01*
X139237229Y-93792801D01*
X139237229Y-93792802D01*
X139295822Y-93934258D01*
X139301585Y-93941768D01*
X139389030Y-94055730D01*
X139393343Y-94061350D01*
X139418537Y-94126519D01*
X139404499Y-94194964D01*
X139388681Y-94218038D01*
X139348312Y-94264627D01*
X139348311Y-94264628D01*
X139288523Y-94395543D01*
X139268042Y-94538000D01*
X139288523Y-94680456D01*
X139295555Y-94695853D01*
X139348312Y-94811373D01*
X139371181Y-94837766D01*
X139382169Y-94850446D01*
X139411194Y-94914002D01*
X139401250Y-94983161D01*
X139386832Y-95007135D01*
X139295822Y-95125741D01*
X139237229Y-95267197D01*
X139237229Y-95267198D01*
X139222262Y-95380876D01*
X139222262Y-95960517D01*
X139202577Y-96027556D01*
X139149773Y-96073311D01*
X139080615Y-96083255D01*
X139029371Y-96063619D01*
X138981736Y-96031790D01*
X138981735Y-96031789D01*
X138923258Y-96020158D01*
X138923254Y-96020158D01*
X137207358Y-96020158D01*
X137207353Y-96020158D01*
X137148876Y-96031789D01*
X137148875Y-96031790D01*
X137082553Y-96076105D01*
X137038238Y-96142427D01*
X137038237Y-96142428D01*
X137026606Y-96200905D01*
X134000500Y-96200905D01*
X134000500Y-82655434D01*
X136095000Y-82655434D01*
X136105459Y-82742530D01*
X136105459Y-82742531D01*
X136160119Y-82881139D01*
X136250144Y-82999855D01*
X136368860Y-83089880D01*
X136507468Y-83144540D01*
X136594566Y-83155000D01*
X136645000Y-83155000D01*
X136645000Y-81920000D01*
X136095000Y-81920000D01*
X136095000Y-82655434D01*
X134000500Y-82655434D01*
X134000500Y-80684565D01*
X136095000Y-80684565D01*
X136095000Y-81420000D01*
X136645000Y-81420000D01*
X136645000Y-80185000D01*
X136594566Y-80185000D01*
X136507469Y-80195459D01*
X136507468Y-80195459D01*
X136368860Y-80250119D01*
X136250144Y-80340144D01*
X136160119Y-80458860D01*
X136105459Y-80597468D01*
X136105459Y-80597469D01*
X136095000Y-80684565D01*
X134000500Y-80684565D01*
X134000500Y-79400000D01*
X136594353Y-79400000D01*
X136614834Y-79542456D01*
X136634190Y-79584839D01*
X136674623Y-79673373D01*
X136768872Y-79782143D01*
X136889947Y-79859953D01*
X136889950Y-79859954D01*
X136889949Y-79859954D01*
X137028036Y-79900499D01*
X137028038Y-79900500D01*
X137028039Y-79900500D01*
X137171962Y-79900500D01*
X137171962Y-79900499D01*
X137310050Y-79859954D01*
X137310051Y-79859954D01*
X137352719Y-79832533D01*
X137419758Y-79812848D01*
X137486798Y-79832532D01*
X137530243Y-79880552D01*
X137546949Y-79913341D01*
X137546954Y-79913347D01*
X137636652Y-80003045D01*
X137636654Y-80003046D01*
X137636658Y-80003050D01*
X137749696Y-80060646D01*
X137749702Y-80060646D01*
X137753819Y-80061985D01*
X137758185Y-80064970D01*
X137758392Y-80065076D01*
X137758378Y-80065102D01*
X137811494Y-80101423D01*
X137838692Y-80165782D01*
X137839500Y-80179916D01*
X137839500Y-80366549D01*
X137819815Y-80433588D01*
X137767011Y-80479343D01*
X137697853Y-80489287D01*
X137634297Y-80460262D01*
X137616696Y-80441474D01*
X137539855Y-80340144D01*
X137421139Y-80250119D01*
X137282531Y-80195459D01*
X137195434Y-80185000D01*
X137145000Y-80185000D01*
X137145000Y-83155000D01*
X137195434Y-83155000D01*
X137282530Y-83144540D01*
X137282531Y-83144540D01*
X137421139Y-83089880D01*
X137539855Y-82999855D01*
X137629879Y-82881140D01*
X137630311Y-82880373D01*
X137630890Y-82879807D01*
X137635007Y-82874379D01*
X137635821Y-82874996D01*
X137680320Y-82831578D01*
X137748770Y-82817567D01*
X137807294Y-82838031D01*
X137812381Y-82841430D01*
X137812383Y-82841430D01*
X137812385Y-82841431D01*
X137847748Y-82848465D01*
X137883115Y-82855500D01*
X138446884Y-82855499D01*
X138517619Y-82841430D01*
X138597833Y-82787833D01*
X138651430Y-82707619D01*
X138665500Y-82636885D01*
X138665499Y-80703116D01*
X138665498Y-80703110D01*
X138934500Y-80703110D01*
X138934500Y-82636881D01*
X138948570Y-82707620D01*
X138971897Y-82742531D01*
X139002167Y-82787833D01*
X139082381Y-82841430D01*
X139082384Y-82841430D01*
X139082385Y-82841431D01*
X139117748Y-82848465D01*
X139153115Y-82855500D01*
X139716884Y-82855499D01*
X139787619Y-82841430D01*
X139867833Y-82787833D01*
X139921430Y-82707619D01*
X139935500Y-82636885D01*
X139935499Y-81681188D01*
X139955183Y-81614150D01*
X139971812Y-81593513D01*
X139985465Y-81579862D01*
X139985466Y-81579858D01*
X139991213Y-81574113D01*
X139993220Y-81576120D01*
X140038514Y-81543024D01*
X140108259Y-81538847D01*
X140169190Y-81573039D01*
X140201963Y-81634746D01*
X140204500Y-81659700D01*
X140204500Y-82636881D01*
X140218570Y-82707620D01*
X140241897Y-82742531D01*
X140272167Y-82787833D01*
X140352381Y-82841430D01*
X140352384Y-82841430D01*
X140352385Y-82841431D01*
X140387748Y-82848465D01*
X140423115Y-82855500D01*
X140986884Y-82855499D01*
X141057619Y-82841430D01*
X141137833Y-82787833D01*
X141191430Y-82707619D01*
X141205500Y-82636885D01*
X141205500Y-82119500D01*
X141225185Y-82052461D01*
X141277989Y-82006706D01*
X141329500Y-81995500D01*
X141371881Y-81995500D01*
X141438920Y-82015185D01*
X141484675Y-82067989D01*
X141494619Y-82101853D01*
X141514834Y-82242456D01*
X141526366Y-82267706D01*
X141574623Y-82373373D01*
X141668872Y-82482143D01*
X141789947Y-82559953D01*
X141789950Y-82559954D01*
X141789949Y-82559954D01*
X141928036Y-82600499D01*
X141928038Y-82600500D01*
X141928039Y-82600500D01*
X142071962Y-82600500D01*
X142071962Y-82600499D01*
X142210053Y-82559953D01*
X142331128Y-82482143D01*
X142425377Y-82373373D01*
X142485165Y-82242457D01*
X142505647Y-82100000D01*
X142485165Y-81957543D01*
X142425377Y-81826627D01*
X142331128Y-81717857D01*
X142210053Y-81640047D01*
X142210051Y-81640046D01*
X142210049Y-81640045D01*
X142210050Y-81640045D01*
X142071963Y-81599500D01*
X142071961Y-81599500D01*
X142011189Y-81599500D01*
X141944150Y-81579815D01*
X141923508Y-81563181D01*
X141769864Y-81409537D01*
X141769862Y-81409535D01*
X141731272Y-81387255D01*
X141695640Y-81366682D01*
X141654246Y-81355591D01*
X141612853Y-81344500D01*
X141612852Y-81344500D01*
X141329499Y-81344500D01*
X141262460Y-81324815D01*
X141216705Y-81272011D01*
X141205499Y-81220500D01*
X141205499Y-80703118D01*
X141205499Y-80703116D01*
X141191430Y-80632381D01*
X141137833Y-80552167D01*
X141085609Y-80517272D01*
X141057621Y-80498571D01*
X141057614Y-80498568D01*
X140986888Y-80484500D01*
X140423118Y-80484500D01*
X140352379Y-80498570D01*
X140272166Y-80552167D01*
X140263531Y-80560803D01*
X140260802Y-80558074D01*
X140223979Y-80588843D01*
X140154653Y-80597543D01*
X140091629Y-80567383D01*
X140054915Y-80507936D01*
X140050500Y-80475142D01*
X140050500Y-80136533D01*
X140070185Y-80069494D01*
X140118203Y-80026049D01*
X140163342Y-80003050D01*
X140253050Y-79913342D01*
X140294425Y-79832138D01*
X140342397Y-79781345D01*
X140410218Y-79764549D01*
X140471946Y-79784118D01*
X140589947Y-79859953D01*
X140589950Y-79859954D01*
X140589949Y-79859954D01*
X140728036Y-79900499D01*
X140728038Y-79900500D01*
X140728039Y-79900500D01*
X140871962Y-79900500D01*
X140871962Y-79900499D01*
X141010053Y-79859953D01*
X141131128Y-79782143D01*
X141225377Y-79673373D01*
X141285165Y-79542457D01*
X141305647Y-79400000D01*
X141285165Y-79257543D01*
X141225377Y-79126627D01*
X141131128Y-79017857D01*
X141010053Y-78940047D01*
X141010051Y-78940046D01*
X141010049Y-78940045D01*
X141010050Y-78940045D01*
X140871963Y-78899500D01*
X140871961Y-78899500D01*
X140728039Y-78899500D01*
X140728036Y-78899500D01*
X140589949Y-78940045D01*
X140471947Y-79015880D01*
X140404907Y-79035564D01*
X140337868Y-79015879D01*
X140294425Y-78967861D01*
X140253050Y-78886658D01*
X140253048Y-78886656D01*
X140253045Y-78886652D01*
X140163347Y-78796954D01*
X140163344Y-78796952D01*
X140163342Y-78796950D01*
X140086517Y-78757805D01*
X140050301Y-78739352D01*
X139956524Y-78724500D01*
X139493482Y-78724500D01*
X139412519Y-78737323D01*
X139399696Y-78739354D01*
X139286658Y-78796950D01*
X139286657Y-78796951D01*
X139286652Y-78796954D01*
X139196954Y-78886652D01*
X139196951Y-78886657D01*
X139139352Y-78999698D01*
X139124500Y-79093475D01*
X139124500Y-79706517D01*
X139133691Y-79764549D01*
X139139354Y-79800304D01*
X139196950Y-79913342D01*
X139196952Y-79913344D01*
X139196954Y-79913347D01*
X139286652Y-80003045D01*
X139286654Y-80003046D01*
X139286658Y-80003050D01*
X139331796Y-80026049D01*
X139382591Y-80074023D01*
X139399500Y-80136533D01*
X139399500Y-80360500D01*
X139379815Y-80427539D01*
X139327011Y-80473294D01*
X139275501Y-80484500D01*
X139153118Y-80484500D01*
X139082379Y-80498570D01*
X139002166Y-80552167D01*
X138948571Y-80632378D01*
X138948568Y-80632385D01*
X138934500Y-80703110D01*
X138665498Y-80703110D01*
X138651430Y-80632381D01*
X138597833Y-80552167D01*
X138545609Y-80517272D01*
X138500804Y-80463660D01*
X138490500Y-80414170D01*
X138490500Y-80077254D01*
X138510185Y-80010215D01*
X138526814Y-79989577D01*
X138603050Y-79913342D01*
X138660646Y-79800304D01*
X138660646Y-79800302D01*
X138660647Y-79800301D01*
X138675499Y-79706524D01*
X138675500Y-79706519D01*
X138675499Y-79093482D01*
X138660646Y-78999696D01*
X138603050Y-78886658D01*
X138603046Y-78886654D01*
X138603045Y-78886652D01*
X138513347Y-78796954D01*
X138513344Y-78796952D01*
X138513342Y-78796950D01*
X138436517Y-78757805D01*
X138400301Y-78739352D01*
X138306524Y-78724500D01*
X137843482Y-78724500D01*
X137762519Y-78737323D01*
X137749696Y-78739354D01*
X137636658Y-78796950D01*
X137636657Y-78796951D01*
X137636652Y-78796954D01*
X137546954Y-78886652D01*
X137546948Y-78886660D01*
X137530241Y-78919449D01*
X137482266Y-78970243D01*
X137414444Y-78987037D01*
X137352719Y-78967466D01*
X137310055Y-78940047D01*
X137310050Y-78940045D01*
X137171963Y-78899500D01*
X137171961Y-78899500D01*
X137028039Y-78899500D01*
X137028036Y-78899500D01*
X136889949Y-78940045D01*
X136768873Y-79017856D01*
X136674623Y-79126626D01*
X136674622Y-79126628D01*
X136614834Y-79257543D01*
X136594353Y-79400000D01*
X134000500Y-79400000D01*
X134000500Y-61200000D01*
X140409815Y-61200000D01*
X140428503Y-61377805D01*
X140428504Y-61377807D01*
X140483747Y-61547829D01*
X140483750Y-61547835D01*
X140573141Y-61702665D01*
X140601862Y-61734563D01*
X140692764Y-61835521D01*
X140692767Y-61835523D01*
X140692770Y-61835526D01*
X140837407Y-61940612D01*
X141000733Y-62013329D01*
X141175609Y-62050500D01*
X141175610Y-62050500D01*
X141354389Y-62050500D01*
X141354391Y-62050500D01*
X141529267Y-62013329D01*
X141692593Y-61940612D01*
X141837230Y-61835526D01*
X141840727Y-61831643D01*
X141868687Y-61800590D01*
X141956859Y-61702665D01*
X142046250Y-61547835D01*
X142101497Y-61377803D01*
X142120185Y-61200000D01*
X142101497Y-61022197D01*
X142046250Y-60852165D01*
X141956859Y-60697335D01*
X141910003Y-60645296D01*
X141837235Y-60564478D01*
X141837232Y-60564476D01*
X141837231Y-60564475D01*
X141837230Y-60564474D01*
X141692593Y-60459388D01*
X141529267Y-60386671D01*
X141529265Y-60386670D01*
X141401594Y-60359533D01*
X141354391Y-60349500D01*
X141175609Y-60349500D01*
X141144954Y-60356015D01*
X141000733Y-60386670D01*
X141000728Y-60386672D01*
X140837408Y-60459387D01*
X140692768Y-60564475D01*
X140573140Y-60697336D01*
X140483750Y-60852164D01*
X140483747Y-60852170D01*
X140428504Y-61022192D01*
X140428503Y-61022194D01*
X140409815Y-61200000D01*
X134000500Y-61200000D01*
X134000500Y-54728711D01*
X136239500Y-54728711D01*
X136239500Y-54971288D01*
X136271161Y-55211785D01*
X136333947Y-55446104D01*
X136426773Y-55670205D01*
X136426776Y-55670212D01*
X136548064Y-55880289D01*
X136548066Y-55880292D01*
X136548067Y-55880293D01*
X136695733Y-56072736D01*
X136695739Y-56072743D01*
X136867256Y-56244260D01*
X136867262Y-56244265D01*
X137059711Y-56391936D01*
X137269788Y-56513224D01*
X137493900Y-56606054D01*
X137728211Y-56668838D01*
X137908586Y-56692584D01*
X137968711Y-56700500D01*
X137968712Y-56700500D01*
X138211289Y-56700500D01*
X138259388Y-56694167D01*
X138451789Y-56668838D01*
X138686100Y-56606054D01*
X138910212Y-56513224D01*
X139120289Y-56391936D01*
X139312738Y-56244265D01*
X139484265Y-56072738D01*
X139631936Y-55880289D01*
X139753224Y-55670212D01*
X139846054Y-55446100D01*
X139908838Y-55211789D01*
X139940500Y-54971288D01*
X139940500Y-54728712D01*
X139908838Y-54488211D01*
X139846054Y-54253900D01*
X139753224Y-54029788D01*
X139631936Y-53819711D01*
X139484265Y-53627262D01*
X139484260Y-53627256D01*
X139312743Y-53455739D01*
X139312736Y-53455733D01*
X139120293Y-53308067D01*
X139120292Y-53308066D01*
X139120289Y-53308064D01*
X138910212Y-53186776D01*
X138910205Y-53186773D01*
X138686104Y-53093947D01*
X138451785Y-53031161D01*
X138211289Y-52999500D01*
X138211288Y-52999500D01*
X137968712Y-52999500D01*
X137968711Y-52999500D01*
X137728214Y-53031161D01*
X137493895Y-53093947D01*
X137269794Y-53186773D01*
X137269785Y-53186777D01*
X137059706Y-53308067D01*
X136867263Y-53455733D01*
X136867256Y-53455739D01*
X136695739Y-53627256D01*
X136695733Y-53627263D01*
X136548067Y-53819706D01*
X136426777Y-54029785D01*
X136426773Y-54029794D01*
X136333947Y-54253895D01*
X136271161Y-54488214D01*
X136239500Y-54728711D01*
X134000500Y-54728711D01*
X134000500Y-50624500D01*
X134020185Y-50557461D01*
X134072989Y-50511706D01*
X134124500Y-50500500D01*
X146455962Y-50500500D01*
X146523001Y-50520185D01*
G37*
%TD.AperFunction*%
%TD*%
%TA.AperFunction,Conductor*%
%TO.N,Net-(U3-SW)*%
G36*
X139797160Y-70003368D02*
G01*
X139946132Y-70152340D01*
X139949500Y-70160472D01*
X139949500Y-71183260D01*
X139959427Y-71251393D01*
X140010802Y-71356483D01*
X140093517Y-71439198D01*
X140198607Y-71490573D01*
X140266740Y-71500500D01*
X140633260Y-71500500D01*
X140682144Y-71493377D01*
X140688942Y-71494471D01*
X141333215Y-71816607D01*
X141335007Y-71817720D01*
X141420214Y-71882249D01*
X141423053Y-71885370D01*
X141478672Y-71975365D01*
X141480194Y-71979301D01*
X141499805Y-72084365D01*
X141500000Y-72086475D01*
X141500000Y-73148867D01*
X141499779Y-73151111D01*
X141477610Y-73262561D01*
X141475893Y-73266706D01*
X141413402Y-73360229D01*
X141410229Y-73363402D01*
X141316706Y-73425893D01*
X141312561Y-73427610D01*
X141201111Y-73449779D01*
X141198867Y-73450000D01*
X137801133Y-73450000D01*
X137798889Y-73449779D01*
X137687438Y-73427610D01*
X137683293Y-73425893D01*
X137589770Y-73363402D01*
X137586597Y-73360229D01*
X137524106Y-73266706D01*
X137522389Y-73262562D01*
X137500221Y-73151110D01*
X137500000Y-73148867D01*
X137500000Y-72086475D01*
X137500195Y-72084365D01*
X137519805Y-71979301D01*
X137521326Y-71975367D01*
X137576949Y-71885366D01*
X137579782Y-71882251D01*
X137664996Y-71817717D01*
X137666779Y-71816610D01*
X138311058Y-71494470D01*
X138317854Y-71493377D01*
X138366740Y-71500500D01*
X138733260Y-71500500D01*
X138801393Y-71490573D01*
X138906483Y-71439198D01*
X138989198Y-71356483D01*
X139040573Y-71251393D01*
X139050500Y-71183260D01*
X139050500Y-70091740D01*
X139040573Y-70023607D01*
X139037122Y-70016549D01*
X139036578Y-70007766D01*
X139042404Y-70001168D01*
X139047455Y-70000000D01*
X139789028Y-70000000D01*
X139797160Y-70003368D01*
G37*
%TD.AperFunction*%
%TD*%
%TA.AperFunction,Conductor*%
%TO.N,+12V*%
G36*
X140820937Y-62802881D02*
G01*
X140864958Y-62812539D01*
X140913221Y-62834787D01*
X140949162Y-62861991D01*
X140968606Y-62880321D01*
X141651563Y-63679879D01*
X141680137Y-63743639D01*
X141680598Y-63747453D01*
X141698503Y-63917804D01*
X141698504Y-63917807D01*
X141753747Y-64087829D01*
X141753750Y-64087835D01*
X141843141Y-64242665D01*
X141884812Y-64288946D01*
X141962764Y-64375521D01*
X141962767Y-64375523D01*
X141962770Y-64375526D01*
X142107407Y-64480612D01*
X142270733Y-64553329D01*
X142384622Y-64577536D01*
X142446099Y-64610727D01*
X142453102Y-64618266D01*
X144677255Y-67222152D01*
X144944936Y-67535535D01*
X144957626Y-67553364D01*
X144976437Y-67585455D01*
X144991529Y-67626361D01*
X144998068Y-67662974D01*
X145000000Y-67684775D01*
X145000000Y-68550500D01*
X144980315Y-68617539D01*
X144927511Y-68663294D01*
X144876000Y-68674500D01*
X141238333Y-68674500D01*
X141171294Y-68654815D01*
X141150652Y-68638181D01*
X140986819Y-68474348D01*
X140953334Y-68413025D01*
X140950500Y-68386667D01*
X140950500Y-67816739D01*
X140940573Y-67748608D01*
X140940573Y-67748607D01*
X140889198Y-67643517D01*
X140889196Y-67643515D01*
X140889196Y-67643514D01*
X140806485Y-67560803D01*
X140701391Y-67509426D01*
X140633261Y-67499500D01*
X140633260Y-67499500D01*
X140266740Y-67499500D01*
X140266739Y-67499500D01*
X140198608Y-67509426D01*
X140093514Y-67560803D01*
X140010803Y-67643514D01*
X139959426Y-67748608D01*
X139949500Y-67816739D01*
X139949500Y-68876000D01*
X139929815Y-68943039D01*
X139877011Y-68988794D01*
X139825500Y-69000000D01*
X139174500Y-69000000D01*
X139107461Y-68980315D01*
X139061706Y-68927511D01*
X139050500Y-68876000D01*
X139050500Y-67816739D01*
X139040573Y-67748608D01*
X139040573Y-67748607D01*
X138989198Y-67643517D01*
X138989196Y-67643515D01*
X138989196Y-67643514D01*
X138906485Y-67560803D01*
X138801391Y-67509426D01*
X138733261Y-67499500D01*
X138733260Y-67499500D01*
X138366740Y-67499500D01*
X138366739Y-67499500D01*
X138298608Y-67509426D01*
X138193516Y-67560802D01*
X138127018Y-67627300D01*
X138065694Y-67660784D01*
X137996003Y-67655799D01*
X137940838Y-67614943D01*
X137747289Y-67361840D01*
X137736359Y-67344834D01*
X137720164Y-67314445D01*
X137707243Y-67276279D01*
X137701646Y-67242291D01*
X137700000Y-67222152D01*
X137700000Y-65851143D01*
X137700738Y-65837637D01*
X137703266Y-65814565D01*
X137709117Y-65788188D01*
X137716583Y-65766209D01*
X137721621Y-65753667D01*
X139041169Y-62926064D01*
X139053016Y-62905898D01*
X139076261Y-62873725D01*
X139110158Y-62841757D01*
X139133544Y-62826864D01*
X139176846Y-62809666D01*
X139215834Y-62802207D01*
X139239126Y-62800000D01*
X140794364Y-62800000D01*
X140820937Y-62802881D01*
G37*
%TD.AperFunction*%
%TD*%
%TA.AperFunction,Conductor*%
%TO.N,GND*%
G36*
X144700480Y-69306225D02*
G01*
X144811791Y-69328336D01*
X144815930Y-69330049D01*
X144909376Y-69392379D01*
X144912548Y-69395544D01*
X144975079Y-69488857D01*
X144976801Y-69492994D01*
X144999149Y-69604255D01*
X144999374Y-69606495D01*
X145005344Y-72394681D01*
X145005127Y-72396928D01*
X144983138Y-72508568D01*
X144981425Y-72512722D01*
X144918978Y-72606452D01*
X144915805Y-72609633D01*
X144822203Y-72672284D01*
X144818053Y-72674005D01*
X144706462Y-72696234D01*
X144704215Y-72696456D01*
X142806482Y-72696456D01*
X142804241Y-72696236D01*
X142692931Y-72674125D01*
X142688791Y-72672412D01*
X142595345Y-72610082D01*
X142592173Y-72606917D01*
X142529642Y-72513604D01*
X142527920Y-72509467D01*
X142505571Y-72398200D01*
X142505347Y-72395971D01*
X142499377Y-69607775D01*
X142499593Y-69605539D01*
X142521583Y-69493891D01*
X142523295Y-69489741D01*
X142585745Y-69396006D01*
X142588914Y-69392829D01*
X142682520Y-69330175D01*
X142686666Y-69328456D01*
X142798260Y-69306228D01*
X142800507Y-69306006D01*
X144698240Y-69306006D01*
X144700480Y-69306225D01*
G37*
%TD.AperFunction*%
%TD*%
M02*
