%TF.GenerationSoftware,KiCad,Pcbnew,8.0.6*%
%TF.CreationDate,2024-10-28T22:07:04-04:00*%
%TF.ProjectId,VexQwiic,56657851-7769-4696-932e-6b696361645f,rev?*%
%TF.SameCoordinates,Original*%
%TF.FileFunction,Legend,Top*%
%TF.FilePolarity,Positive*%
%FSLAX46Y46*%
G04 Gerber Fmt 4.6, Leading zero omitted, Abs format (unit mm)*
G04 Created by KiCad (PCBNEW 8.0.6) date 2024-10-28 22:07:04*
%MOMM*%
%LPD*%
G01*
G04 APERTURE LIST*
G04 Aperture macros list*
%AMRoundRect*
0 Rectangle with rounded corners*
0 $1 Rounding radius*
0 $2 $3 $4 $5 $6 $7 $8 $9 X,Y pos of 4 corners*
0 Add a 4 corners polygon primitive as box body*
4,1,4,$2,$3,$4,$5,$6,$7,$8,$9,$2,$3,0*
0 Add four circle primitives for the rounded corners*
1,1,$1+$1,$2,$3*
1,1,$1+$1,$4,$5*
1,1,$1+$1,$6,$7*
1,1,$1+$1,$8,$9*
0 Add four rect primitives between the rounded corners*
20,1,$1+$1,$2,$3,$4,$5,0*
20,1,$1+$1,$4,$5,$6,$7,0*
20,1,$1+$1,$6,$7,$8,$9,0*
20,1,$1+$1,$8,$9,$2,$3,0*%
G04 Aperture macros list end*
%ADD10C,0.200000*%
%ADD11C,0.120000*%
%ADD12C,0.150000*%
%ADD13C,0.190500*%
%ADD14C,0.050000*%
%ADD15C,0.100000*%
%ADD16C,0.127000*%
%ADD17C,0.304800*%
%ADD18C,0.508000*%
%ADD19C,0.000000*%
%ADD20C,0.203200*%
%ADD21C,3.200000*%
%ADD22C,1.300000*%
%ADD23RoundRect,0.225000X0.250000X-0.225000X0.250000X0.225000X-0.250000X0.225000X-0.250000X-0.225000X0*%
%ADD24RoundRect,0.150000X0.150000X-0.512500X0.150000X0.512500X-0.150000X0.512500X-0.150000X-0.512500X0*%
%ADD25R,1.676400X1.676400*%
%ADD26C,1.524000*%
%ADD27R,1.524000X1.524000*%
%ADD28RoundRect,0.200000X0.275000X-0.200000X0.275000X0.200000X-0.275000X0.200000X-0.275000X-0.200000X0*%
%ADD29RoundRect,0.250000X-0.650000X1.500000X-0.650000X-1.500000X0.650000X-1.500000X0.650000X1.500000X0*%
%ADD30RoundRect,0.200000X-0.200000X-0.275000X0.200000X-0.275000X0.200000X0.275000X-0.200000X0.275000X0*%
%ADD31RoundRect,0.225000X-0.250000X0.225000X-0.250000X-0.225000X0.250000X-0.225000X0.250000X0.225000X0*%
%ADD32RoundRect,0.225000X0.225000X0.250000X-0.225000X0.250000X-0.225000X-0.250000X0.225000X-0.250000X0*%
%ADD33RoundRect,0.250000X-0.250000X0.250000X-0.250000X-0.250000X0.250000X-0.250000X0.250000X0.250000X0*%
%ADD34RoundRect,0.375000X-1.625000X0.375000X-1.625000X-0.375000X1.625000X-0.375000X1.625000X0.375000X0*%
%ADD35RoundRect,0.381000X0.762000X0.381000X-0.762000X0.381000X-0.762000X-0.381000X0.762000X-0.381000X0*%
%ADD36RoundRect,0.042000X0.258000X-0.943000X0.258000X0.943000X-0.258000X0.943000X-0.258000X-0.943000X0*%
%ADD37RoundRect,0.101600X1.016000X1.016000X-1.016000X1.016000X-1.016000X-1.016000X1.016000X-1.016000X0*%
%ADD38C,2.235200*%
G04 APERTURE END LIST*
D10*
X162209523Y-52647331D02*
X161733333Y-52647331D01*
X161733333Y-52647331D02*
X161685714Y-53123521D01*
X161685714Y-53123521D02*
X161733333Y-53075902D01*
X161733333Y-53075902D02*
X161828571Y-53028283D01*
X161828571Y-53028283D02*
X162066666Y-53028283D01*
X162066666Y-53028283D02*
X162161904Y-53075902D01*
X162161904Y-53075902D02*
X162209523Y-53123521D01*
X162209523Y-53123521D02*
X162257142Y-53218759D01*
X162257142Y-53218759D02*
X162257142Y-53456854D01*
X162257142Y-53456854D02*
X162209523Y-53552092D01*
X162209523Y-53552092D02*
X162161904Y-53599712D01*
X162161904Y-53599712D02*
X162066666Y-53647331D01*
X162066666Y-53647331D02*
X161828571Y-53647331D01*
X161828571Y-53647331D02*
X161733333Y-53599712D01*
X161733333Y-53599712D02*
X161685714Y-53552092D01*
X162542857Y-52647331D02*
X162876190Y-53647331D01*
X162876190Y-53647331D02*
X163209523Y-52647331D01*
X161638095Y-54257275D02*
X162257142Y-54257275D01*
X162257142Y-54257275D02*
X161923809Y-54638227D01*
X161923809Y-54638227D02*
X162066666Y-54638227D01*
X162066666Y-54638227D02*
X162161904Y-54685846D01*
X162161904Y-54685846D02*
X162209523Y-54733465D01*
X162209523Y-54733465D02*
X162257142Y-54828703D01*
X162257142Y-54828703D02*
X162257142Y-55066798D01*
X162257142Y-55066798D02*
X162209523Y-55162036D01*
X162209523Y-55162036D02*
X162161904Y-55209656D01*
X162161904Y-55209656D02*
X162066666Y-55257275D01*
X162066666Y-55257275D02*
X161780952Y-55257275D01*
X161780952Y-55257275D02*
X161685714Y-55209656D01*
X161685714Y-55209656D02*
X161638095Y-55162036D01*
X162638095Y-54971560D02*
X163114285Y-54971560D01*
X162542857Y-55257275D02*
X162876190Y-54257275D01*
X162876190Y-54257275D02*
X163209523Y-55257275D01*
X161209524Y-56867219D02*
X161209524Y-55867219D01*
X161209524Y-55867219D02*
X161542857Y-56581504D01*
X161542857Y-56581504D02*
X161876190Y-55867219D01*
X161876190Y-55867219D02*
X161876190Y-56867219D01*
X162780952Y-56867219D02*
X162780952Y-56343409D01*
X162780952Y-56343409D02*
X162733333Y-56248171D01*
X162733333Y-56248171D02*
X162638095Y-56200552D01*
X162638095Y-56200552D02*
X162447619Y-56200552D01*
X162447619Y-56200552D02*
X162352381Y-56248171D01*
X162780952Y-56819600D02*
X162685714Y-56867219D01*
X162685714Y-56867219D02*
X162447619Y-56867219D01*
X162447619Y-56867219D02*
X162352381Y-56819600D01*
X162352381Y-56819600D02*
X162304762Y-56724361D01*
X162304762Y-56724361D02*
X162304762Y-56629123D01*
X162304762Y-56629123D02*
X162352381Y-56533885D01*
X162352381Y-56533885D02*
X162447619Y-56486266D01*
X162447619Y-56486266D02*
X162685714Y-56486266D01*
X162685714Y-56486266D02*
X162780952Y-56438647D01*
X163161905Y-56867219D02*
X163685714Y-56200552D01*
X163161905Y-56200552D02*
X163685714Y-56867219D01*
X157839850Y-78837387D02*
X158173183Y-79837387D01*
X158173183Y-79837387D02*
X158506516Y-78837387D01*
X159316040Y-78837387D02*
X158839850Y-78837387D01*
X158839850Y-78837387D02*
X158792231Y-79313577D01*
X158792231Y-79313577D02*
X158839850Y-79265958D01*
X158839850Y-79265958D02*
X158935088Y-79218339D01*
X158935088Y-79218339D02*
X159173183Y-79218339D01*
X159173183Y-79218339D02*
X159268421Y-79265958D01*
X159268421Y-79265958D02*
X159316040Y-79313577D01*
X159316040Y-79313577D02*
X159363659Y-79408815D01*
X159363659Y-79408815D02*
X159363659Y-79646910D01*
X159363659Y-79646910D02*
X159316040Y-79742148D01*
X159316040Y-79742148D02*
X159268421Y-79789768D01*
X159268421Y-79789768D02*
X159173183Y-79837387D01*
X159173183Y-79837387D02*
X158935088Y-79837387D01*
X158935088Y-79837387D02*
X158839850Y-79789768D01*
X158839850Y-79789768D02*
X158792231Y-79742148D01*
X160554136Y-79837387D02*
X160554136Y-78837387D01*
X161363659Y-79313577D02*
X161030326Y-79313577D01*
X161030326Y-79837387D02*
X161030326Y-78837387D01*
X161030326Y-78837387D02*
X161506516Y-78837387D01*
X162316040Y-79837387D02*
X162316040Y-79313577D01*
X162316040Y-79313577D02*
X162268421Y-79218339D01*
X162268421Y-79218339D02*
X162173183Y-79170720D01*
X162173183Y-79170720D02*
X161982707Y-79170720D01*
X161982707Y-79170720D02*
X161887469Y-79218339D01*
X162316040Y-79789768D02*
X162220802Y-79837387D01*
X162220802Y-79837387D02*
X161982707Y-79837387D01*
X161982707Y-79837387D02*
X161887469Y-79789768D01*
X161887469Y-79789768D02*
X161839850Y-79694529D01*
X161839850Y-79694529D02*
X161839850Y-79599291D01*
X161839850Y-79599291D02*
X161887469Y-79504053D01*
X161887469Y-79504053D02*
X161982707Y-79456434D01*
X161982707Y-79456434D02*
X162220802Y-79456434D01*
X162220802Y-79456434D02*
X162316040Y-79408815D01*
X163220802Y-79789768D02*
X163125564Y-79837387D01*
X163125564Y-79837387D02*
X162935088Y-79837387D01*
X162935088Y-79837387D02*
X162839850Y-79789768D01*
X162839850Y-79789768D02*
X162792231Y-79742148D01*
X162792231Y-79742148D02*
X162744612Y-79646910D01*
X162744612Y-79646910D02*
X162744612Y-79361196D01*
X162744612Y-79361196D02*
X162792231Y-79265958D01*
X162792231Y-79265958D02*
X162839850Y-79218339D01*
X162839850Y-79218339D02*
X162935088Y-79170720D01*
X162935088Y-79170720D02*
X163125564Y-79170720D01*
X163125564Y-79170720D02*
X163220802Y-79218339D01*
X164030326Y-79789768D02*
X163935088Y-79837387D01*
X163935088Y-79837387D02*
X163744612Y-79837387D01*
X163744612Y-79837387D02*
X163649374Y-79789768D01*
X163649374Y-79789768D02*
X163601755Y-79694529D01*
X163601755Y-79694529D02*
X163601755Y-79313577D01*
X163601755Y-79313577D02*
X163649374Y-79218339D01*
X163649374Y-79218339D02*
X163744612Y-79170720D01*
X163744612Y-79170720D02*
X163935088Y-79170720D01*
X163935088Y-79170720D02*
X164030326Y-79218339D01*
X164030326Y-79218339D02*
X164077945Y-79313577D01*
X164077945Y-79313577D02*
X164077945Y-79408815D01*
X164077945Y-79408815D02*
X163601755Y-79504053D01*
X157696992Y-80923521D02*
X158030325Y-80923521D01*
X158173182Y-81447331D02*
X157696992Y-81447331D01*
X157696992Y-81447331D02*
X157696992Y-80447331D01*
X157696992Y-80447331D02*
X158173182Y-80447331D01*
X158506516Y-81447331D02*
X159030325Y-80780664D01*
X158506516Y-80780664D02*
X159030325Y-81447331D01*
X159411278Y-80780664D02*
X159411278Y-81780664D01*
X159411278Y-80828283D02*
X159506516Y-80780664D01*
X159506516Y-80780664D02*
X159696992Y-80780664D01*
X159696992Y-80780664D02*
X159792230Y-80828283D01*
X159792230Y-80828283D02*
X159839849Y-80875902D01*
X159839849Y-80875902D02*
X159887468Y-80971140D01*
X159887468Y-80971140D02*
X159887468Y-81256854D01*
X159887468Y-81256854D02*
X159839849Y-81352092D01*
X159839849Y-81352092D02*
X159792230Y-81399712D01*
X159792230Y-81399712D02*
X159696992Y-81447331D01*
X159696992Y-81447331D02*
X159506516Y-81447331D01*
X159506516Y-81447331D02*
X159411278Y-81399712D01*
X160744611Y-81447331D02*
X160744611Y-80923521D01*
X160744611Y-80923521D02*
X160696992Y-80828283D01*
X160696992Y-80828283D02*
X160601754Y-80780664D01*
X160601754Y-80780664D02*
X160411278Y-80780664D01*
X160411278Y-80780664D02*
X160316040Y-80828283D01*
X160744611Y-81399712D02*
X160649373Y-81447331D01*
X160649373Y-81447331D02*
X160411278Y-81447331D01*
X160411278Y-81447331D02*
X160316040Y-81399712D01*
X160316040Y-81399712D02*
X160268421Y-81304473D01*
X160268421Y-81304473D02*
X160268421Y-81209235D01*
X160268421Y-81209235D02*
X160316040Y-81113997D01*
X160316040Y-81113997D02*
X160411278Y-81066378D01*
X160411278Y-81066378D02*
X160649373Y-81066378D01*
X160649373Y-81066378D02*
X160744611Y-81018759D01*
X161220802Y-80780664D02*
X161220802Y-81447331D01*
X161220802Y-80875902D02*
X161268421Y-80828283D01*
X161268421Y-80828283D02*
X161363659Y-80780664D01*
X161363659Y-80780664D02*
X161506516Y-80780664D01*
X161506516Y-80780664D02*
X161601754Y-80828283D01*
X161601754Y-80828283D02*
X161649373Y-80923521D01*
X161649373Y-80923521D02*
X161649373Y-81447331D01*
X162554135Y-81447331D02*
X162554135Y-80447331D01*
X162554135Y-81399712D02*
X162458897Y-81447331D01*
X162458897Y-81447331D02*
X162268421Y-81447331D01*
X162268421Y-81447331D02*
X162173183Y-81399712D01*
X162173183Y-81399712D02*
X162125564Y-81352092D01*
X162125564Y-81352092D02*
X162077945Y-81256854D01*
X162077945Y-81256854D02*
X162077945Y-80971140D01*
X162077945Y-80971140D02*
X162125564Y-80875902D01*
X162125564Y-80875902D02*
X162173183Y-80828283D01*
X162173183Y-80828283D02*
X162268421Y-80780664D01*
X162268421Y-80780664D02*
X162458897Y-80780664D01*
X162458897Y-80780664D02*
X162554135Y-80828283D01*
X163411278Y-81399712D02*
X163316040Y-81447331D01*
X163316040Y-81447331D02*
X163125564Y-81447331D01*
X163125564Y-81447331D02*
X163030326Y-81399712D01*
X163030326Y-81399712D02*
X162982707Y-81304473D01*
X162982707Y-81304473D02*
X162982707Y-80923521D01*
X162982707Y-80923521D02*
X163030326Y-80828283D01*
X163030326Y-80828283D02*
X163125564Y-80780664D01*
X163125564Y-80780664D02*
X163316040Y-80780664D01*
X163316040Y-80780664D02*
X163411278Y-80828283D01*
X163411278Y-80828283D02*
X163458897Y-80923521D01*
X163458897Y-80923521D02*
X163458897Y-81018759D01*
X163458897Y-81018759D02*
X162982707Y-81113997D01*
X163887469Y-81447331D02*
X163887469Y-80780664D01*
X163887469Y-80971140D02*
X163935088Y-80875902D01*
X163935088Y-80875902D02*
X163982707Y-80828283D01*
X163982707Y-80828283D02*
X164077945Y-80780664D01*
X164077945Y-80780664D02*
X164173183Y-80780664D01*
X161125565Y-82057275D02*
X161458898Y-83057275D01*
X161458898Y-83057275D02*
X161792231Y-82057275D01*
X162649374Y-83057275D02*
X162077946Y-83057275D01*
X162363660Y-83057275D02*
X162363660Y-82057275D01*
X162363660Y-82057275D02*
X162268422Y-82200132D01*
X162268422Y-82200132D02*
X162173184Y-82295370D01*
X162173184Y-82295370D02*
X162077946Y-82342989D01*
X163077946Y-82962036D02*
X163125565Y-83009656D01*
X163125565Y-83009656D02*
X163077946Y-83057275D01*
X163077946Y-83057275D02*
X163030327Y-83009656D01*
X163030327Y-83009656D02*
X163077946Y-82962036D01*
X163077946Y-82962036D02*
X163077946Y-83057275D01*
X163744612Y-82057275D02*
X163839850Y-82057275D01*
X163839850Y-82057275D02*
X163935088Y-82104894D01*
X163935088Y-82104894D02*
X163982707Y-82152513D01*
X163982707Y-82152513D02*
X164030326Y-82247751D01*
X164030326Y-82247751D02*
X164077945Y-82438227D01*
X164077945Y-82438227D02*
X164077945Y-82676322D01*
X164077945Y-82676322D02*
X164030326Y-82866798D01*
X164030326Y-82866798D02*
X163982707Y-82962036D01*
X163982707Y-82962036D02*
X163935088Y-83009656D01*
X163935088Y-83009656D02*
X163839850Y-83057275D01*
X163839850Y-83057275D02*
X163744612Y-83057275D01*
X163744612Y-83057275D02*
X163649374Y-83009656D01*
X163649374Y-83009656D02*
X163601755Y-82962036D01*
X163601755Y-82962036D02*
X163554136Y-82866798D01*
X163554136Y-82866798D02*
X163506517Y-82676322D01*
X163506517Y-82676322D02*
X163506517Y-82438227D01*
X163506517Y-82438227D02*
X163554136Y-82247751D01*
X163554136Y-82247751D02*
X163601755Y-82152513D01*
X163601755Y-82152513D02*
X163649374Y-82104894D01*
X163649374Y-82104894D02*
X163744612Y-82057275D01*
X155316040Y-84667219D02*
X154744612Y-84667219D01*
X155030326Y-84667219D02*
X155030326Y-83667219D01*
X155030326Y-83667219D02*
X154935088Y-83810076D01*
X154935088Y-83810076D02*
X154839850Y-83905314D01*
X154839850Y-83905314D02*
X154744612Y-83952933D01*
X155935088Y-83667219D02*
X156030326Y-83667219D01*
X156030326Y-83667219D02*
X156125564Y-83714838D01*
X156125564Y-83714838D02*
X156173183Y-83762457D01*
X156173183Y-83762457D02*
X156220802Y-83857695D01*
X156220802Y-83857695D02*
X156268421Y-84048171D01*
X156268421Y-84048171D02*
X156268421Y-84286266D01*
X156268421Y-84286266D02*
X156220802Y-84476742D01*
X156220802Y-84476742D02*
X156173183Y-84571980D01*
X156173183Y-84571980D02*
X156125564Y-84619600D01*
X156125564Y-84619600D02*
X156030326Y-84667219D01*
X156030326Y-84667219D02*
X155935088Y-84667219D01*
X155935088Y-84667219D02*
X155839850Y-84619600D01*
X155839850Y-84619600D02*
X155792231Y-84571980D01*
X155792231Y-84571980D02*
X155744612Y-84476742D01*
X155744612Y-84476742D02*
X155696993Y-84286266D01*
X155696993Y-84286266D02*
X155696993Y-84048171D01*
X155696993Y-84048171D02*
X155744612Y-83857695D01*
X155744612Y-83857695D02*
X155792231Y-83762457D01*
X155792231Y-83762457D02*
X155839850Y-83714838D01*
X155839850Y-83714838D02*
X155935088Y-83667219D01*
X157411278Y-83619600D02*
X156554136Y-84905314D01*
X157696993Y-83762457D02*
X157744612Y-83714838D01*
X157744612Y-83714838D02*
X157839850Y-83667219D01*
X157839850Y-83667219D02*
X158077945Y-83667219D01*
X158077945Y-83667219D02*
X158173183Y-83714838D01*
X158173183Y-83714838D02*
X158220802Y-83762457D01*
X158220802Y-83762457D02*
X158268421Y-83857695D01*
X158268421Y-83857695D02*
X158268421Y-83952933D01*
X158268421Y-83952933D02*
X158220802Y-84095790D01*
X158220802Y-84095790D02*
X157649374Y-84667219D01*
X157649374Y-84667219D02*
X158268421Y-84667219D01*
X158839850Y-84095790D02*
X158744612Y-84048171D01*
X158744612Y-84048171D02*
X158696993Y-84000552D01*
X158696993Y-84000552D02*
X158649374Y-83905314D01*
X158649374Y-83905314D02*
X158649374Y-83857695D01*
X158649374Y-83857695D02*
X158696993Y-83762457D01*
X158696993Y-83762457D02*
X158744612Y-83714838D01*
X158744612Y-83714838D02*
X158839850Y-83667219D01*
X158839850Y-83667219D02*
X159030326Y-83667219D01*
X159030326Y-83667219D02*
X159125564Y-83714838D01*
X159125564Y-83714838D02*
X159173183Y-83762457D01*
X159173183Y-83762457D02*
X159220802Y-83857695D01*
X159220802Y-83857695D02*
X159220802Y-83905314D01*
X159220802Y-83905314D02*
X159173183Y-84000552D01*
X159173183Y-84000552D02*
X159125564Y-84048171D01*
X159125564Y-84048171D02*
X159030326Y-84095790D01*
X159030326Y-84095790D02*
X158839850Y-84095790D01*
X158839850Y-84095790D02*
X158744612Y-84143409D01*
X158744612Y-84143409D02*
X158696993Y-84191028D01*
X158696993Y-84191028D02*
X158649374Y-84286266D01*
X158649374Y-84286266D02*
X158649374Y-84476742D01*
X158649374Y-84476742D02*
X158696993Y-84571980D01*
X158696993Y-84571980D02*
X158744612Y-84619600D01*
X158744612Y-84619600D02*
X158839850Y-84667219D01*
X158839850Y-84667219D02*
X159030326Y-84667219D01*
X159030326Y-84667219D02*
X159125564Y-84619600D01*
X159125564Y-84619600D02*
X159173183Y-84571980D01*
X159173183Y-84571980D02*
X159220802Y-84476742D01*
X159220802Y-84476742D02*
X159220802Y-84286266D01*
X159220802Y-84286266D02*
X159173183Y-84191028D01*
X159173183Y-84191028D02*
X159125564Y-84143409D01*
X159125564Y-84143409D02*
X159030326Y-84095790D01*
X160363659Y-83619600D02*
X159506517Y-84905314D01*
X160649374Y-83762457D02*
X160696993Y-83714838D01*
X160696993Y-83714838D02*
X160792231Y-83667219D01*
X160792231Y-83667219D02*
X161030326Y-83667219D01*
X161030326Y-83667219D02*
X161125564Y-83714838D01*
X161125564Y-83714838D02*
X161173183Y-83762457D01*
X161173183Y-83762457D02*
X161220802Y-83857695D01*
X161220802Y-83857695D02*
X161220802Y-83952933D01*
X161220802Y-83952933D02*
X161173183Y-84095790D01*
X161173183Y-84095790D02*
X160601755Y-84667219D01*
X160601755Y-84667219D02*
X161220802Y-84667219D01*
X161839850Y-83667219D02*
X161935088Y-83667219D01*
X161935088Y-83667219D02*
X162030326Y-83714838D01*
X162030326Y-83714838D02*
X162077945Y-83762457D01*
X162077945Y-83762457D02*
X162125564Y-83857695D01*
X162125564Y-83857695D02*
X162173183Y-84048171D01*
X162173183Y-84048171D02*
X162173183Y-84286266D01*
X162173183Y-84286266D02*
X162125564Y-84476742D01*
X162125564Y-84476742D02*
X162077945Y-84571980D01*
X162077945Y-84571980D02*
X162030326Y-84619600D01*
X162030326Y-84619600D02*
X161935088Y-84667219D01*
X161935088Y-84667219D02*
X161839850Y-84667219D01*
X161839850Y-84667219D02*
X161744612Y-84619600D01*
X161744612Y-84619600D02*
X161696993Y-84571980D01*
X161696993Y-84571980D02*
X161649374Y-84476742D01*
X161649374Y-84476742D02*
X161601755Y-84286266D01*
X161601755Y-84286266D02*
X161601755Y-84048171D01*
X161601755Y-84048171D02*
X161649374Y-83857695D01*
X161649374Y-83857695D02*
X161696993Y-83762457D01*
X161696993Y-83762457D02*
X161744612Y-83714838D01*
X161744612Y-83714838D02*
X161839850Y-83667219D01*
X162554136Y-83762457D02*
X162601755Y-83714838D01*
X162601755Y-83714838D02*
X162696993Y-83667219D01*
X162696993Y-83667219D02*
X162935088Y-83667219D01*
X162935088Y-83667219D02*
X163030326Y-83714838D01*
X163030326Y-83714838D02*
X163077945Y-83762457D01*
X163077945Y-83762457D02*
X163125564Y-83857695D01*
X163125564Y-83857695D02*
X163125564Y-83952933D01*
X163125564Y-83952933D02*
X163077945Y-84095790D01*
X163077945Y-84095790D02*
X162506517Y-84667219D01*
X162506517Y-84667219D02*
X163125564Y-84667219D01*
X163982707Y-84000552D02*
X163982707Y-84667219D01*
X163744612Y-83619600D02*
X163506517Y-84333885D01*
X163506517Y-84333885D02*
X164125564Y-84333885D01*
X151093482Y-54214838D02*
X150998244Y-54167219D01*
X150998244Y-54167219D02*
X150855387Y-54167219D01*
X150855387Y-54167219D02*
X150712530Y-54214838D01*
X150712530Y-54214838D02*
X150617292Y-54310076D01*
X150617292Y-54310076D02*
X150569673Y-54405314D01*
X150569673Y-54405314D02*
X150522054Y-54595790D01*
X150522054Y-54595790D02*
X150522054Y-54738647D01*
X150522054Y-54738647D02*
X150569673Y-54929123D01*
X150569673Y-54929123D02*
X150617292Y-55024361D01*
X150617292Y-55024361D02*
X150712530Y-55119600D01*
X150712530Y-55119600D02*
X150855387Y-55167219D01*
X150855387Y-55167219D02*
X150950625Y-55167219D01*
X150950625Y-55167219D02*
X151093482Y-55119600D01*
X151093482Y-55119600D02*
X151141101Y-55071980D01*
X151141101Y-55071980D02*
X151141101Y-54738647D01*
X151141101Y-54738647D02*
X150950625Y-54738647D01*
X151569673Y-55167219D02*
X151569673Y-54167219D01*
X151569673Y-54167219D02*
X152141101Y-55167219D01*
X152141101Y-55167219D02*
X152141101Y-54167219D01*
X152617292Y-55167219D02*
X152617292Y-54167219D01*
X152617292Y-54167219D02*
X152855387Y-54167219D01*
X152855387Y-54167219D02*
X152998244Y-54214838D01*
X152998244Y-54214838D02*
X153093482Y-54310076D01*
X153093482Y-54310076D02*
X153141101Y-54405314D01*
X153141101Y-54405314D02*
X153188720Y-54595790D01*
X153188720Y-54595790D02*
X153188720Y-54738647D01*
X153188720Y-54738647D02*
X153141101Y-54929123D01*
X153141101Y-54929123D02*
X153093482Y-55024361D01*
X153093482Y-55024361D02*
X152998244Y-55119600D01*
X152998244Y-55119600D02*
X152855387Y-55167219D01*
X152855387Y-55167219D02*
X152617292Y-55167219D01*
D11*
X141461905Y-52363855D02*
X141195238Y-51982902D01*
X141004762Y-52363855D02*
X141004762Y-51563855D01*
X141004762Y-51563855D02*
X141309524Y-51563855D01*
X141309524Y-51563855D02*
X141385714Y-51601950D01*
X141385714Y-51601950D02*
X141423809Y-51640045D01*
X141423809Y-51640045D02*
X141461905Y-51716236D01*
X141461905Y-51716236D02*
X141461905Y-51830521D01*
X141461905Y-51830521D02*
X141423809Y-51906712D01*
X141423809Y-51906712D02*
X141385714Y-51944807D01*
X141385714Y-51944807D02*
X141309524Y-51982902D01*
X141309524Y-51982902D02*
X141004762Y-51982902D01*
X142033333Y-51563855D02*
X142033333Y-52135283D01*
X142033333Y-52135283D02*
X141995238Y-52249569D01*
X141995238Y-52249569D02*
X141919047Y-52325760D01*
X141919047Y-52325760D02*
X141804762Y-52363855D01*
X141804762Y-52363855D02*
X141728571Y-52363855D01*
X142452381Y-52363855D02*
X142604762Y-52363855D01*
X142604762Y-52363855D02*
X142680952Y-52325760D01*
X142680952Y-52325760D02*
X142719048Y-52287664D01*
X142719048Y-52287664D02*
X142795238Y-52173379D01*
X142795238Y-52173379D02*
X142833333Y-52020998D01*
X142833333Y-52020998D02*
X142833333Y-51716236D01*
X142833333Y-51716236D02*
X142795238Y-51640045D01*
X142795238Y-51640045D02*
X142757143Y-51601950D01*
X142757143Y-51601950D02*
X142680952Y-51563855D01*
X142680952Y-51563855D02*
X142528571Y-51563855D01*
X142528571Y-51563855D02*
X142452381Y-51601950D01*
X142452381Y-51601950D02*
X142414286Y-51640045D01*
X142414286Y-51640045D02*
X142376190Y-51716236D01*
X142376190Y-51716236D02*
X142376190Y-51906712D01*
X142376190Y-51906712D02*
X142414286Y-51982902D01*
X142414286Y-51982902D02*
X142452381Y-52020998D01*
X142452381Y-52020998D02*
X142528571Y-52059093D01*
X142528571Y-52059093D02*
X142680952Y-52059093D01*
X142680952Y-52059093D02*
X142757143Y-52020998D01*
X142757143Y-52020998D02*
X142795238Y-51982902D01*
X142795238Y-51982902D02*
X142833333Y-51906712D01*
D12*
X144333333Y-75659580D02*
X144285714Y-75707200D01*
X144285714Y-75707200D02*
X144142857Y-75754819D01*
X144142857Y-75754819D02*
X144047619Y-75754819D01*
X144047619Y-75754819D02*
X143904762Y-75707200D01*
X143904762Y-75707200D02*
X143809524Y-75611961D01*
X143809524Y-75611961D02*
X143761905Y-75516723D01*
X143761905Y-75516723D02*
X143714286Y-75326247D01*
X143714286Y-75326247D02*
X143714286Y-75183390D01*
X143714286Y-75183390D02*
X143761905Y-74992914D01*
X143761905Y-74992914D02*
X143809524Y-74897676D01*
X143809524Y-74897676D02*
X143904762Y-74802438D01*
X143904762Y-74802438D02*
X144047619Y-74754819D01*
X144047619Y-74754819D02*
X144142857Y-74754819D01*
X144142857Y-74754819D02*
X144285714Y-74802438D01*
X144285714Y-74802438D02*
X144333333Y-74850057D01*
X145190476Y-75088152D02*
X145190476Y-75754819D01*
X144952381Y-74707200D02*
X144714286Y-75421485D01*
X144714286Y-75421485D02*
X145333333Y-75421485D01*
X139538095Y-66054819D02*
X139538095Y-66864342D01*
X139538095Y-66864342D02*
X139585714Y-66959580D01*
X139585714Y-66959580D02*
X139633333Y-67007200D01*
X139633333Y-67007200D02*
X139728571Y-67054819D01*
X139728571Y-67054819D02*
X139919047Y-67054819D01*
X139919047Y-67054819D02*
X140014285Y-67007200D01*
X140014285Y-67007200D02*
X140061904Y-66959580D01*
X140061904Y-66959580D02*
X140109523Y-66864342D01*
X140109523Y-66864342D02*
X140109523Y-66054819D01*
X140490476Y-66054819D02*
X141109523Y-66054819D01*
X141109523Y-66054819D02*
X140776190Y-66435771D01*
X140776190Y-66435771D02*
X140919047Y-66435771D01*
X140919047Y-66435771D02*
X141014285Y-66483390D01*
X141014285Y-66483390D02*
X141061904Y-66531009D01*
X141061904Y-66531009D02*
X141109523Y-66626247D01*
X141109523Y-66626247D02*
X141109523Y-66864342D01*
X141109523Y-66864342D02*
X141061904Y-66959580D01*
X141061904Y-66959580D02*
X141014285Y-67007200D01*
X141014285Y-67007200D02*
X140919047Y-67054819D01*
X140919047Y-67054819D02*
X140633333Y-67054819D01*
X140633333Y-67054819D02*
X140538095Y-67007200D01*
X140538095Y-67007200D02*
X140490476Y-66959580D01*
D13*
X162484735Y-99042972D02*
X162920164Y-99042972D01*
X162702449Y-100058972D02*
X162702449Y-99042972D01*
X163101592Y-99042972D02*
X163609592Y-100058972D01*
X163609592Y-99042972D02*
X163101592Y-100058972D01*
X134585591Y-105093429D02*
X134694449Y-105141809D01*
X134694449Y-105141809D02*
X134875877Y-105141809D01*
X134875877Y-105141809D02*
X134948449Y-105093429D01*
X134948449Y-105093429D02*
X134984734Y-105045048D01*
X134984734Y-105045048D02*
X135021020Y-104948286D01*
X135021020Y-104948286D02*
X135021020Y-104851524D01*
X135021020Y-104851524D02*
X134984734Y-104754762D01*
X134984734Y-104754762D02*
X134948449Y-104706381D01*
X134948449Y-104706381D02*
X134875877Y-104658000D01*
X134875877Y-104658000D02*
X134730734Y-104609619D01*
X134730734Y-104609619D02*
X134658163Y-104561238D01*
X134658163Y-104561238D02*
X134621877Y-104512857D01*
X134621877Y-104512857D02*
X134585591Y-104416095D01*
X134585591Y-104416095D02*
X134585591Y-104319333D01*
X134585591Y-104319333D02*
X134621877Y-104222571D01*
X134621877Y-104222571D02*
X134658163Y-104174190D01*
X134658163Y-104174190D02*
X134730734Y-104125809D01*
X134730734Y-104125809D02*
X134912163Y-104125809D01*
X134912163Y-104125809D02*
X135021020Y-104174190D01*
X135783020Y-105045048D02*
X135746734Y-105093429D01*
X135746734Y-105093429D02*
X135637877Y-105141809D01*
X135637877Y-105141809D02*
X135565305Y-105141809D01*
X135565305Y-105141809D02*
X135456448Y-105093429D01*
X135456448Y-105093429D02*
X135383877Y-104996667D01*
X135383877Y-104996667D02*
X135347591Y-104899905D01*
X135347591Y-104899905D02*
X135311305Y-104706381D01*
X135311305Y-104706381D02*
X135311305Y-104561238D01*
X135311305Y-104561238D02*
X135347591Y-104367714D01*
X135347591Y-104367714D02*
X135383877Y-104270952D01*
X135383877Y-104270952D02*
X135456448Y-104174190D01*
X135456448Y-104174190D02*
X135565305Y-104125809D01*
X135565305Y-104125809D02*
X135637877Y-104125809D01*
X135637877Y-104125809D02*
X135746734Y-104174190D01*
X135746734Y-104174190D02*
X135783020Y-104222571D01*
X136109591Y-105141809D02*
X136109591Y-104125809D01*
X136545020Y-105141809D02*
X136218448Y-104561238D01*
X136545020Y-104125809D02*
X136109591Y-104706381D01*
X162335591Y-114881925D02*
X162916163Y-114881925D01*
X162625877Y-115268972D02*
X162625877Y-114494877D01*
X163641877Y-114252972D02*
X163279020Y-114252972D01*
X163279020Y-114252972D02*
X163242734Y-114736782D01*
X163242734Y-114736782D02*
X163279020Y-114688401D01*
X163279020Y-114688401D02*
X163351592Y-114640020D01*
X163351592Y-114640020D02*
X163533020Y-114640020D01*
X163533020Y-114640020D02*
X163605592Y-114688401D01*
X163605592Y-114688401D02*
X163641877Y-114736782D01*
X163641877Y-114736782D02*
X163678163Y-114833544D01*
X163678163Y-114833544D02*
X163678163Y-115075449D01*
X163678163Y-115075449D02*
X163641877Y-115172211D01*
X163641877Y-115172211D02*
X163605592Y-115220592D01*
X163605592Y-115220592D02*
X163533020Y-115268972D01*
X163533020Y-115268972D02*
X163351592Y-115268972D01*
X163351592Y-115268972D02*
X163279020Y-115220592D01*
X163279020Y-115220592D02*
X163242734Y-115172211D01*
X163895877Y-114252972D02*
X164149877Y-115268972D01*
X164149877Y-115268972D02*
X164403877Y-114252972D01*
X162938306Y-105138972D02*
X162684306Y-104655163D01*
X162502877Y-105138972D02*
X162502877Y-104122972D01*
X162502877Y-104122972D02*
X162793163Y-104122972D01*
X162793163Y-104122972D02*
X162865734Y-104171353D01*
X162865734Y-104171353D02*
X162902020Y-104219734D01*
X162902020Y-104219734D02*
X162938306Y-104316496D01*
X162938306Y-104316496D02*
X162938306Y-104461639D01*
X162938306Y-104461639D02*
X162902020Y-104558401D01*
X162902020Y-104558401D02*
X162865734Y-104606782D01*
X162865734Y-104606782D02*
X162793163Y-104655163D01*
X162793163Y-104655163D02*
X162502877Y-104655163D01*
X163192306Y-104122972D02*
X163700306Y-105138972D01*
X163700306Y-104122972D02*
X163192306Y-105138972D01*
X162408163Y-110220592D02*
X162517021Y-110268972D01*
X162517021Y-110268972D02*
X162698449Y-110268972D01*
X162698449Y-110268972D02*
X162771021Y-110220592D01*
X162771021Y-110220592D02*
X162807306Y-110172211D01*
X162807306Y-110172211D02*
X162843592Y-110075449D01*
X162843592Y-110075449D02*
X162843592Y-109978687D01*
X162843592Y-109978687D02*
X162807306Y-109881925D01*
X162807306Y-109881925D02*
X162771021Y-109833544D01*
X162771021Y-109833544D02*
X162698449Y-109785163D01*
X162698449Y-109785163D02*
X162553306Y-109736782D01*
X162553306Y-109736782D02*
X162480735Y-109688401D01*
X162480735Y-109688401D02*
X162444449Y-109640020D01*
X162444449Y-109640020D02*
X162408163Y-109543258D01*
X162408163Y-109543258D02*
X162408163Y-109446496D01*
X162408163Y-109446496D02*
X162444449Y-109349734D01*
X162444449Y-109349734D02*
X162480735Y-109301353D01*
X162480735Y-109301353D02*
X162553306Y-109252972D01*
X162553306Y-109252972D02*
X162734735Y-109252972D01*
X162734735Y-109252972D02*
X162843592Y-109301353D01*
X163605592Y-110172211D02*
X163569306Y-110220592D01*
X163569306Y-110220592D02*
X163460449Y-110268972D01*
X163460449Y-110268972D02*
X163387877Y-110268972D01*
X163387877Y-110268972D02*
X163279020Y-110220592D01*
X163279020Y-110220592D02*
X163206449Y-110123830D01*
X163206449Y-110123830D02*
X163170163Y-110027068D01*
X163170163Y-110027068D02*
X163133877Y-109833544D01*
X163133877Y-109833544D02*
X163133877Y-109688401D01*
X163133877Y-109688401D02*
X163170163Y-109494877D01*
X163170163Y-109494877D02*
X163206449Y-109398115D01*
X163206449Y-109398115D02*
X163279020Y-109301353D01*
X163279020Y-109301353D02*
X163387877Y-109252972D01*
X163387877Y-109252972D02*
X163460449Y-109252972D01*
X163460449Y-109252972D02*
X163569306Y-109301353D01*
X163569306Y-109301353D02*
X163605592Y-109349734D01*
X164295020Y-110268972D02*
X163932163Y-110268972D01*
X163932163Y-110268972D02*
X163932163Y-109252972D01*
X133722734Y-112381925D02*
X134303306Y-112381925D01*
X134013020Y-112768972D02*
X134013020Y-111994877D01*
X134593592Y-111752972D02*
X135065306Y-111752972D01*
X135065306Y-111752972D02*
X134811306Y-112140020D01*
X134811306Y-112140020D02*
X134920163Y-112140020D01*
X134920163Y-112140020D02*
X134992735Y-112188401D01*
X134992735Y-112188401D02*
X135029020Y-112236782D01*
X135029020Y-112236782D02*
X135065306Y-112333544D01*
X135065306Y-112333544D02*
X135065306Y-112575449D01*
X135065306Y-112575449D02*
X135029020Y-112672211D01*
X135029020Y-112672211D02*
X134992735Y-112720592D01*
X134992735Y-112720592D02*
X134920163Y-112768972D01*
X134920163Y-112768972D02*
X134702449Y-112768972D01*
X134702449Y-112768972D02*
X134629877Y-112720592D01*
X134629877Y-112720592D02*
X134593592Y-112672211D01*
X135283020Y-111752972D02*
X135537020Y-112768972D01*
X135537020Y-112768972D02*
X135791020Y-111752972D01*
X135972449Y-111752972D02*
X136444163Y-111752972D01*
X136444163Y-111752972D02*
X136190163Y-112140020D01*
X136190163Y-112140020D02*
X136299020Y-112140020D01*
X136299020Y-112140020D02*
X136371592Y-112188401D01*
X136371592Y-112188401D02*
X136407877Y-112236782D01*
X136407877Y-112236782D02*
X136444163Y-112333544D01*
X136444163Y-112333544D02*
X136444163Y-112575449D01*
X136444163Y-112575449D02*
X136407877Y-112672211D01*
X136407877Y-112672211D02*
X136371592Y-112720592D01*
X136371592Y-112720592D02*
X136299020Y-112768972D01*
X136299020Y-112768972D02*
X136081306Y-112768972D01*
X136081306Y-112768972D02*
X136008734Y-112720592D01*
X136008734Y-112720592D02*
X135972449Y-112672211D01*
X134117877Y-107669394D02*
X134117877Y-106653394D01*
X134117877Y-106653394D02*
X134371877Y-107379109D01*
X134371877Y-107379109D02*
X134625877Y-106653394D01*
X134625877Y-106653394D02*
X134625877Y-107669394D01*
X134988734Y-107669394D02*
X134988734Y-106653394D01*
X135315305Y-107621014D02*
X135424163Y-107669394D01*
X135424163Y-107669394D02*
X135605591Y-107669394D01*
X135605591Y-107669394D02*
X135678163Y-107621014D01*
X135678163Y-107621014D02*
X135714448Y-107572633D01*
X135714448Y-107572633D02*
X135750734Y-107475871D01*
X135750734Y-107475871D02*
X135750734Y-107379109D01*
X135750734Y-107379109D02*
X135714448Y-107282347D01*
X135714448Y-107282347D02*
X135678163Y-107233966D01*
X135678163Y-107233966D02*
X135605591Y-107185585D01*
X135605591Y-107185585D02*
X135460448Y-107137204D01*
X135460448Y-107137204D02*
X135387877Y-107088823D01*
X135387877Y-107088823D02*
X135351591Y-107040442D01*
X135351591Y-107040442D02*
X135315305Y-106943680D01*
X135315305Y-106943680D02*
X135315305Y-106846918D01*
X135315305Y-106846918D02*
X135351591Y-106750156D01*
X135351591Y-106750156D02*
X135387877Y-106701775D01*
X135387877Y-106701775D02*
X135460448Y-106653394D01*
X135460448Y-106653394D02*
X135641877Y-106653394D01*
X135641877Y-106653394D02*
X135750734Y-106701775D01*
X136222448Y-106653394D02*
X136367591Y-106653394D01*
X136367591Y-106653394D02*
X136440162Y-106701775D01*
X136440162Y-106701775D02*
X136512734Y-106798537D01*
X136512734Y-106798537D02*
X136549019Y-106992061D01*
X136549019Y-106992061D02*
X136549019Y-107330728D01*
X136549019Y-107330728D02*
X136512734Y-107524252D01*
X136512734Y-107524252D02*
X136440162Y-107621014D01*
X136440162Y-107621014D02*
X136367591Y-107669394D01*
X136367591Y-107669394D02*
X136222448Y-107669394D01*
X136222448Y-107669394D02*
X136149877Y-107621014D01*
X136149877Y-107621014D02*
X136077305Y-107524252D01*
X136077305Y-107524252D02*
X136041019Y-107330728D01*
X136041019Y-107330728D02*
X136041019Y-106992061D01*
X136041019Y-106992061D02*
X136077305Y-106798537D01*
X136077305Y-106798537D02*
X136149877Y-106701775D01*
X136149877Y-106701775D02*
X136222448Y-106653394D01*
X162984734Y-96678353D02*
X162912163Y-96629972D01*
X162912163Y-96629972D02*
X162803305Y-96629972D01*
X162803305Y-96629972D02*
X162694448Y-96678353D01*
X162694448Y-96678353D02*
X162621877Y-96775115D01*
X162621877Y-96775115D02*
X162585591Y-96871877D01*
X162585591Y-96871877D02*
X162549305Y-97065401D01*
X162549305Y-97065401D02*
X162549305Y-97210544D01*
X162549305Y-97210544D02*
X162585591Y-97404068D01*
X162585591Y-97404068D02*
X162621877Y-97500830D01*
X162621877Y-97500830D02*
X162694448Y-97597592D01*
X162694448Y-97597592D02*
X162803305Y-97645972D01*
X162803305Y-97645972D02*
X162875877Y-97645972D01*
X162875877Y-97645972D02*
X162984734Y-97597592D01*
X162984734Y-97597592D02*
X163021020Y-97549211D01*
X163021020Y-97549211D02*
X163021020Y-97210544D01*
X163021020Y-97210544D02*
X162875877Y-97210544D01*
X163347591Y-97645972D02*
X163347591Y-96629972D01*
X163347591Y-96629972D02*
X163783020Y-97645972D01*
X163783020Y-97645972D02*
X163783020Y-96629972D01*
X164145877Y-97645972D02*
X164145877Y-96629972D01*
X164145877Y-96629972D02*
X164327306Y-96629972D01*
X164327306Y-96629972D02*
X164436163Y-96678353D01*
X164436163Y-96678353D02*
X164508734Y-96775115D01*
X164508734Y-96775115D02*
X164545020Y-96871877D01*
X164545020Y-96871877D02*
X164581306Y-97065401D01*
X164581306Y-97065401D02*
X164581306Y-97210544D01*
X164581306Y-97210544D02*
X164545020Y-97404068D01*
X164545020Y-97404068D02*
X164508734Y-97500830D01*
X164508734Y-97500830D02*
X164436163Y-97597592D01*
X164436163Y-97597592D02*
X164327306Y-97645972D01*
X164327306Y-97645972D02*
X164145877Y-97645972D01*
X135178676Y-97200417D02*
X135541534Y-97200417D01*
X135106105Y-97490702D02*
X135360105Y-96474702D01*
X135360105Y-96474702D02*
X135614105Y-97490702D01*
X135868105Y-97490702D02*
X135868105Y-96474702D01*
X135868105Y-96474702D02*
X136303534Y-97490702D01*
X136303534Y-97490702D02*
X136303534Y-96474702D01*
X162494877Y-102598972D02*
X162494877Y-101582972D01*
X162494877Y-101582972D02*
X162785163Y-101582972D01*
X162785163Y-101582972D02*
X162857734Y-101631353D01*
X162857734Y-101631353D02*
X162894020Y-101679734D01*
X162894020Y-101679734D02*
X162930306Y-101776496D01*
X162930306Y-101776496D02*
X162930306Y-101921639D01*
X162930306Y-101921639D02*
X162894020Y-102018401D01*
X162894020Y-102018401D02*
X162857734Y-102066782D01*
X162857734Y-102066782D02*
X162785163Y-102115163D01*
X162785163Y-102115163D02*
X162494877Y-102115163D01*
X163184306Y-101582972D02*
X163365734Y-102598972D01*
X163365734Y-102598972D02*
X163510877Y-101873258D01*
X163510877Y-101873258D02*
X163656020Y-102598972D01*
X163656020Y-102598972D02*
X163837449Y-101582972D01*
X164127734Y-102598972D02*
X164127734Y-101582972D01*
X164127734Y-101582972D02*
X164381734Y-102308687D01*
X164381734Y-102308687D02*
X164635734Y-101582972D01*
X164635734Y-101582972D02*
X164635734Y-102598972D01*
X134117877Y-110268972D02*
X134117877Y-109252972D01*
X134117877Y-109252972D02*
X134371877Y-109978687D01*
X134371877Y-109978687D02*
X134625877Y-109252972D01*
X134625877Y-109252972D02*
X134625877Y-110268972D01*
X135133877Y-109252972D02*
X135279020Y-109252972D01*
X135279020Y-109252972D02*
X135351591Y-109301353D01*
X135351591Y-109301353D02*
X135424163Y-109398115D01*
X135424163Y-109398115D02*
X135460448Y-109591639D01*
X135460448Y-109591639D02*
X135460448Y-109930306D01*
X135460448Y-109930306D02*
X135424163Y-110123830D01*
X135424163Y-110123830D02*
X135351591Y-110220592D01*
X135351591Y-110220592D02*
X135279020Y-110268972D01*
X135279020Y-110268972D02*
X135133877Y-110268972D01*
X135133877Y-110268972D02*
X135061306Y-110220592D01*
X135061306Y-110220592D02*
X134988734Y-110123830D01*
X134988734Y-110123830D02*
X134952448Y-109930306D01*
X134952448Y-109930306D02*
X134952448Y-109591639D01*
X134952448Y-109591639D02*
X134988734Y-109398115D01*
X134988734Y-109398115D02*
X135061306Y-109301353D01*
X135061306Y-109301353D02*
X135133877Y-109252972D01*
X135750734Y-110220592D02*
X135859592Y-110268972D01*
X135859592Y-110268972D02*
X136041020Y-110268972D01*
X136041020Y-110268972D02*
X136113592Y-110220592D01*
X136113592Y-110220592D02*
X136149877Y-110172211D01*
X136149877Y-110172211D02*
X136186163Y-110075449D01*
X136186163Y-110075449D02*
X136186163Y-109978687D01*
X136186163Y-109978687D02*
X136149877Y-109881925D01*
X136149877Y-109881925D02*
X136113592Y-109833544D01*
X136113592Y-109833544D02*
X136041020Y-109785163D01*
X136041020Y-109785163D02*
X135895877Y-109736782D01*
X135895877Y-109736782D02*
X135823306Y-109688401D01*
X135823306Y-109688401D02*
X135787020Y-109640020D01*
X135787020Y-109640020D02*
X135750734Y-109543258D01*
X135750734Y-109543258D02*
X135750734Y-109446496D01*
X135750734Y-109446496D02*
X135787020Y-109349734D01*
X135787020Y-109349734D02*
X135823306Y-109301353D01*
X135823306Y-109301353D02*
X135895877Y-109252972D01*
X135895877Y-109252972D02*
X136077306Y-109252972D01*
X136077306Y-109252972D02*
X136186163Y-109301353D01*
X136512734Y-110268972D02*
X136512734Y-109252972D01*
X135148021Y-100058972D02*
X134894021Y-99575163D01*
X134712592Y-100058972D02*
X134712592Y-99042972D01*
X134712592Y-99042972D02*
X135002878Y-99042972D01*
X135002878Y-99042972D02*
X135075449Y-99091353D01*
X135075449Y-99091353D02*
X135111735Y-99139734D01*
X135111735Y-99139734D02*
X135148021Y-99236496D01*
X135148021Y-99236496D02*
X135148021Y-99381639D01*
X135148021Y-99381639D02*
X135111735Y-99478401D01*
X135111735Y-99478401D02*
X135075449Y-99526782D01*
X135075449Y-99526782D02*
X135002878Y-99575163D01*
X135002878Y-99575163D02*
X134712592Y-99575163D01*
X135438306Y-100010592D02*
X135547164Y-100058972D01*
X135547164Y-100058972D02*
X135728592Y-100058972D01*
X135728592Y-100058972D02*
X135801164Y-100010592D01*
X135801164Y-100010592D02*
X135837449Y-99962211D01*
X135837449Y-99962211D02*
X135873735Y-99865449D01*
X135873735Y-99865449D02*
X135873735Y-99768687D01*
X135873735Y-99768687D02*
X135837449Y-99671925D01*
X135837449Y-99671925D02*
X135801164Y-99623544D01*
X135801164Y-99623544D02*
X135728592Y-99575163D01*
X135728592Y-99575163D02*
X135583449Y-99526782D01*
X135583449Y-99526782D02*
X135510878Y-99478401D01*
X135510878Y-99478401D02*
X135474592Y-99430020D01*
X135474592Y-99430020D02*
X135438306Y-99333258D01*
X135438306Y-99333258D02*
X135438306Y-99236496D01*
X135438306Y-99236496D02*
X135474592Y-99139734D01*
X135474592Y-99139734D02*
X135510878Y-99091353D01*
X135510878Y-99091353D02*
X135583449Y-99042972D01*
X135583449Y-99042972D02*
X135764878Y-99042972D01*
X135764878Y-99042972D02*
X135873735Y-99091353D01*
X136091449Y-99042972D02*
X136526878Y-99042972D01*
X136309163Y-100058972D02*
X136309163Y-99042972D01*
X162625877Y-107768972D02*
X162625877Y-106752972D01*
X162988734Y-107768972D02*
X162988734Y-106752972D01*
X162988734Y-106752972D02*
X163424163Y-107768972D01*
X163424163Y-107768972D02*
X163424163Y-106752972D01*
X163678163Y-106752972D02*
X164113592Y-106752972D01*
X163895877Y-107768972D02*
X163895877Y-106752972D01*
D14*
X157798573Y-90748877D02*
X157798573Y-90082210D01*
X157798573Y-90177448D02*
X157846192Y-90129829D01*
X157846192Y-90129829D02*
X157941430Y-90082210D01*
X157941430Y-90082210D02*
X158084287Y-90082210D01*
X158084287Y-90082210D02*
X158179525Y-90129829D01*
X158179525Y-90129829D02*
X158227144Y-90225067D01*
X158227144Y-90225067D02*
X158227144Y-90748877D01*
X158227144Y-90225067D02*
X158274763Y-90129829D01*
X158274763Y-90129829D02*
X158370001Y-90082210D01*
X158370001Y-90082210D02*
X158512858Y-90082210D01*
X158512858Y-90082210D02*
X158608097Y-90129829D01*
X158608097Y-90129829D02*
X158655716Y-90225067D01*
X158655716Y-90225067D02*
X158655716Y-90748877D01*
X159131906Y-90748877D02*
X159131906Y-90082210D01*
X159131906Y-89748877D02*
X159084287Y-89796496D01*
X159084287Y-89796496D02*
X159131906Y-89844115D01*
X159131906Y-89844115D02*
X159179525Y-89796496D01*
X159179525Y-89796496D02*
X159131906Y-89748877D01*
X159131906Y-89748877D02*
X159131906Y-89844115D01*
X159608096Y-90748877D02*
X159608096Y-89748877D01*
X159703334Y-90367924D02*
X159989048Y-90748877D01*
X159989048Y-90082210D02*
X159608096Y-90463162D01*
X160417620Y-90748877D02*
X160417620Y-90082210D01*
X160417620Y-90272686D02*
X160465239Y-90177448D01*
X160465239Y-90177448D02*
X160512858Y-90129829D01*
X160512858Y-90129829D02*
X160608096Y-90082210D01*
X160608096Y-90082210D02*
X160703334Y-90082210D01*
X161179525Y-90748877D02*
X161084287Y-90701258D01*
X161084287Y-90701258D02*
X161036668Y-90653638D01*
X161036668Y-90653638D02*
X160989049Y-90558400D01*
X160989049Y-90558400D02*
X160989049Y-90272686D01*
X160989049Y-90272686D02*
X161036668Y-90177448D01*
X161036668Y-90177448D02*
X161084287Y-90129829D01*
X161084287Y-90129829D02*
X161179525Y-90082210D01*
X161179525Y-90082210D02*
X161322382Y-90082210D01*
X161322382Y-90082210D02*
X161417620Y-90129829D01*
X161417620Y-90129829D02*
X161465239Y-90177448D01*
X161465239Y-90177448D02*
X161512858Y-90272686D01*
X161512858Y-90272686D02*
X161512858Y-90558400D01*
X161512858Y-90558400D02*
X161465239Y-90653638D01*
X161465239Y-90653638D02*
X161417620Y-90701258D01*
X161417620Y-90701258D02*
X161322382Y-90748877D01*
X161322382Y-90748877D02*
X161179525Y-90748877D01*
X162274763Y-90225067D02*
X162417620Y-90272686D01*
X162417620Y-90272686D02*
X162465239Y-90320305D01*
X162465239Y-90320305D02*
X162512858Y-90415543D01*
X162512858Y-90415543D02*
X162512858Y-90558400D01*
X162512858Y-90558400D02*
X162465239Y-90653638D01*
X162465239Y-90653638D02*
X162417620Y-90701258D01*
X162417620Y-90701258D02*
X162322382Y-90748877D01*
X162322382Y-90748877D02*
X161941430Y-90748877D01*
X161941430Y-90748877D02*
X161941430Y-89748877D01*
X161941430Y-89748877D02*
X162274763Y-89748877D01*
X162274763Y-89748877D02*
X162370001Y-89796496D01*
X162370001Y-89796496D02*
X162417620Y-89844115D01*
X162417620Y-89844115D02*
X162465239Y-89939353D01*
X162465239Y-89939353D02*
X162465239Y-90034591D01*
X162465239Y-90034591D02*
X162417620Y-90129829D01*
X162417620Y-90129829D02*
X162370001Y-90177448D01*
X162370001Y-90177448D02*
X162274763Y-90225067D01*
X162274763Y-90225067D02*
X161941430Y-90225067D01*
X162941430Y-89748877D02*
X162941430Y-90558400D01*
X162941430Y-90558400D02*
X162989049Y-90653638D01*
X162989049Y-90653638D02*
X163036668Y-90701258D01*
X163036668Y-90701258D02*
X163131906Y-90748877D01*
X163131906Y-90748877D02*
X163322382Y-90748877D01*
X163322382Y-90748877D02*
X163417620Y-90701258D01*
X163417620Y-90701258D02*
X163465239Y-90653638D01*
X163465239Y-90653638D02*
X163512858Y-90558400D01*
X163512858Y-90558400D02*
X163512858Y-89748877D01*
X163941430Y-90701258D02*
X164084287Y-90748877D01*
X164084287Y-90748877D02*
X164322382Y-90748877D01*
X164322382Y-90748877D02*
X164417620Y-90701258D01*
X164417620Y-90701258D02*
X164465239Y-90653638D01*
X164465239Y-90653638D02*
X164512858Y-90558400D01*
X164512858Y-90558400D02*
X164512858Y-90463162D01*
X164512858Y-90463162D02*
X164465239Y-90367924D01*
X164465239Y-90367924D02*
X164417620Y-90320305D01*
X164417620Y-90320305D02*
X164322382Y-90272686D01*
X164322382Y-90272686D02*
X164131906Y-90225067D01*
X164131906Y-90225067D02*
X164036668Y-90177448D01*
X164036668Y-90177448D02*
X163989049Y-90129829D01*
X163989049Y-90129829D02*
X163941430Y-90034591D01*
X163941430Y-90034591D02*
X163941430Y-89939353D01*
X163941430Y-89939353D02*
X163989049Y-89844115D01*
X163989049Y-89844115D02*
X164036668Y-89796496D01*
X164036668Y-89796496D02*
X164131906Y-89748877D01*
X164131906Y-89748877D02*
X164370001Y-89748877D01*
X164370001Y-89748877D02*
X164512858Y-89796496D01*
X161803335Y-89471258D02*
X164603335Y-89471258D01*
D13*
X134984734Y-114322315D02*
X134912163Y-114273934D01*
X134912163Y-114273934D02*
X134803305Y-114273934D01*
X134803305Y-114273934D02*
X134694448Y-114322315D01*
X134694448Y-114322315D02*
X134621877Y-114419077D01*
X134621877Y-114419077D02*
X134585591Y-114515839D01*
X134585591Y-114515839D02*
X134549305Y-114709363D01*
X134549305Y-114709363D02*
X134549305Y-114854506D01*
X134549305Y-114854506D02*
X134585591Y-115048030D01*
X134585591Y-115048030D02*
X134621877Y-115144792D01*
X134621877Y-115144792D02*
X134694448Y-115241554D01*
X134694448Y-115241554D02*
X134803305Y-115289934D01*
X134803305Y-115289934D02*
X134875877Y-115289934D01*
X134875877Y-115289934D02*
X134984734Y-115241554D01*
X134984734Y-115241554D02*
X135021020Y-115193173D01*
X135021020Y-115193173D02*
X135021020Y-114854506D01*
X135021020Y-114854506D02*
X134875877Y-114854506D01*
X135347591Y-115289934D02*
X135347591Y-114273934D01*
X135347591Y-114273934D02*
X135783020Y-115289934D01*
X135783020Y-115289934D02*
X135783020Y-114273934D01*
X136145877Y-115289934D02*
X136145877Y-114273934D01*
X136145877Y-114273934D02*
X136327306Y-114273934D01*
X136327306Y-114273934D02*
X136436163Y-114322315D01*
X136436163Y-114322315D02*
X136508734Y-114419077D01*
X136508734Y-114419077D02*
X136545020Y-114515839D01*
X136545020Y-114515839D02*
X136581306Y-114709363D01*
X136581306Y-114709363D02*
X136581306Y-114854506D01*
X136581306Y-114854506D02*
X136545020Y-115048030D01*
X136545020Y-115048030D02*
X136508734Y-115144792D01*
X136508734Y-115144792D02*
X136436163Y-115241554D01*
X136436163Y-115241554D02*
X136327306Y-115289934D01*
X136327306Y-115289934D02*
X136145877Y-115289934D01*
X135688306Y-102530481D02*
X135652020Y-102578862D01*
X135652020Y-102578862D02*
X135543163Y-102627242D01*
X135543163Y-102627242D02*
X135470591Y-102627242D01*
X135470591Y-102627242D02*
X135361734Y-102578862D01*
X135361734Y-102578862D02*
X135289163Y-102482100D01*
X135289163Y-102482100D02*
X135252877Y-102385338D01*
X135252877Y-102385338D02*
X135216591Y-102191814D01*
X135216591Y-102191814D02*
X135216591Y-102046671D01*
X135216591Y-102046671D02*
X135252877Y-101853147D01*
X135252877Y-101853147D02*
X135289163Y-101756385D01*
X135289163Y-101756385D02*
X135361734Y-101659623D01*
X135361734Y-101659623D02*
X135470591Y-101611242D01*
X135470591Y-101611242D02*
X135543163Y-101611242D01*
X135543163Y-101611242D02*
X135652020Y-101659623D01*
X135652020Y-101659623D02*
X135688306Y-101708004D01*
X135978591Y-102578862D02*
X136087449Y-102627242D01*
X136087449Y-102627242D02*
X136268877Y-102627242D01*
X136268877Y-102627242D02*
X136341449Y-102578862D01*
X136341449Y-102578862D02*
X136377734Y-102530481D01*
X136377734Y-102530481D02*
X136414020Y-102433719D01*
X136414020Y-102433719D02*
X136414020Y-102336957D01*
X136414020Y-102336957D02*
X136377734Y-102240195D01*
X136377734Y-102240195D02*
X136341449Y-102191814D01*
X136341449Y-102191814D02*
X136268877Y-102143433D01*
X136268877Y-102143433D02*
X136123734Y-102095052D01*
X136123734Y-102095052D02*
X136051163Y-102046671D01*
X136051163Y-102046671D02*
X136014877Y-101998290D01*
X136014877Y-101998290D02*
X135978591Y-101901528D01*
X135978591Y-101901528D02*
X135978591Y-101804766D01*
X135978591Y-101804766D02*
X136014877Y-101708004D01*
X136014877Y-101708004D02*
X136051163Y-101659623D01*
X136051163Y-101659623D02*
X136123734Y-101611242D01*
X136123734Y-101611242D02*
X136305163Y-101611242D01*
X136305163Y-101611242D02*
X136414020Y-101659623D01*
X162390020Y-112710592D02*
X162498878Y-112758972D01*
X162498878Y-112758972D02*
X162680306Y-112758972D01*
X162680306Y-112758972D02*
X162752878Y-112710592D01*
X162752878Y-112710592D02*
X162789163Y-112662211D01*
X162789163Y-112662211D02*
X162825449Y-112565449D01*
X162825449Y-112565449D02*
X162825449Y-112468687D01*
X162825449Y-112468687D02*
X162789163Y-112371925D01*
X162789163Y-112371925D02*
X162752878Y-112323544D01*
X162752878Y-112323544D02*
X162680306Y-112275163D01*
X162680306Y-112275163D02*
X162535163Y-112226782D01*
X162535163Y-112226782D02*
X162462592Y-112178401D01*
X162462592Y-112178401D02*
X162426306Y-112130020D01*
X162426306Y-112130020D02*
X162390020Y-112033258D01*
X162390020Y-112033258D02*
X162390020Y-111936496D01*
X162390020Y-111936496D02*
X162426306Y-111839734D01*
X162426306Y-111839734D02*
X162462592Y-111791353D01*
X162462592Y-111791353D02*
X162535163Y-111742972D01*
X162535163Y-111742972D02*
X162716592Y-111742972D01*
X162716592Y-111742972D02*
X162825449Y-111791353D01*
X163152020Y-112758972D02*
X163152020Y-111742972D01*
X163152020Y-111742972D02*
X163333449Y-111742972D01*
X163333449Y-111742972D02*
X163442306Y-111791353D01*
X163442306Y-111791353D02*
X163514877Y-111888115D01*
X163514877Y-111888115D02*
X163551163Y-111984877D01*
X163551163Y-111984877D02*
X163587449Y-112178401D01*
X163587449Y-112178401D02*
X163587449Y-112323544D01*
X163587449Y-112323544D02*
X163551163Y-112517068D01*
X163551163Y-112517068D02*
X163514877Y-112613830D01*
X163514877Y-112613830D02*
X163442306Y-112710592D01*
X163442306Y-112710592D02*
X163333449Y-112758972D01*
X163333449Y-112758972D02*
X163152020Y-112758972D01*
X163877734Y-112468687D02*
X164240592Y-112468687D01*
X163805163Y-112758972D02*
X164059163Y-111742972D01*
X164059163Y-111742972D02*
X164313163Y-112758972D01*
D12*
X134633333Y-69584580D02*
X134585714Y-69632200D01*
X134585714Y-69632200D02*
X134442857Y-69679819D01*
X134442857Y-69679819D02*
X134347619Y-69679819D01*
X134347619Y-69679819D02*
X134204762Y-69632200D01*
X134204762Y-69632200D02*
X134109524Y-69536961D01*
X134109524Y-69536961D02*
X134061905Y-69441723D01*
X134061905Y-69441723D02*
X134014286Y-69251247D01*
X134014286Y-69251247D02*
X134014286Y-69108390D01*
X134014286Y-69108390D02*
X134061905Y-68917914D01*
X134061905Y-68917914D02*
X134109524Y-68822676D01*
X134109524Y-68822676D02*
X134204762Y-68727438D01*
X134204762Y-68727438D02*
X134347619Y-68679819D01*
X134347619Y-68679819D02*
X134442857Y-68679819D01*
X134442857Y-68679819D02*
X134585714Y-68727438D01*
X134585714Y-68727438D02*
X134633333Y-68775057D01*
X134966667Y-68679819D02*
X135585714Y-68679819D01*
X135585714Y-68679819D02*
X135252381Y-69060771D01*
X135252381Y-69060771D02*
X135395238Y-69060771D01*
X135395238Y-69060771D02*
X135490476Y-69108390D01*
X135490476Y-69108390D02*
X135538095Y-69156009D01*
X135538095Y-69156009D02*
X135585714Y-69251247D01*
X135585714Y-69251247D02*
X135585714Y-69489342D01*
X135585714Y-69489342D02*
X135538095Y-69584580D01*
X135538095Y-69584580D02*
X135490476Y-69632200D01*
X135490476Y-69632200D02*
X135395238Y-69679819D01*
X135395238Y-69679819D02*
X135109524Y-69679819D01*
X135109524Y-69679819D02*
X135014286Y-69632200D01*
X135014286Y-69632200D02*
X134966667Y-69584580D01*
X146433333Y-67054819D02*
X146100000Y-66578628D01*
X145861905Y-67054819D02*
X145861905Y-66054819D01*
X145861905Y-66054819D02*
X146242857Y-66054819D01*
X146242857Y-66054819D02*
X146338095Y-66102438D01*
X146338095Y-66102438D02*
X146385714Y-66150057D01*
X146385714Y-66150057D02*
X146433333Y-66245295D01*
X146433333Y-66245295D02*
X146433333Y-66388152D01*
X146433333Y-66388152D02*
X146385714Y-66483390D01*
X146385714Y-66483390D02*
X146338095Y-66531009D01*
X146338095Y-66531009D02*
X146242857Y-66578628D01*
X146242857Y-66578628D02*
X145861905Y-66578628D01*
X146814286Y-66150057D02*
X146861905Y-66102438D01*
X146861905Y-66102438D02*
X146957143Y-66054819D01*
X146957143Y-66054819D02*
X147195238Y-66054819D01*
X147195238Y-66054819D02*
X147290476Y-66102438D01*
X147290476Y-66102438D02*
X147338095Y-66150057D01*
X147338095Y-66150057D02*
X147385714Y-66245295D01*
X147385714Y-66245295D02*
X147385714Y-66340533D01*
X147385714Y-66340533D02*
X147338095Y-66483390D01*
X147338095Y-66483390D02*
X146766667Y-67054819D01*
X146766667Y-67054819D02*
X147385714Y-67054819D01*
X158161905Y-70054819D02*
X158161905Y-69054819D01*
X158161905Y-69054819D02*
X158400000Y-69054819D01*
X158400000Y-69054819D02*
X158542857Y-69102438D01*
X158542857Y-69102438D02*
X158638095Y-69197676D01*
X158638095Y-69197676D02*
X158685714Y-69292914D01*
X158685714Y-69292914D02*
X158733333Y-69483390D01*
X158733333Y-69483390D02*
X158733333Y-69626247D01*
X158733333Y-69626247D02*
X158685714Y-69816723D01*
X158685714Y-69816723D02*
X158638095Y-69911961D01*
X158638095Y-69911961D02*
X158542857Y-70007200D01*
X158542857Y-70007200D02*
X158400000Y-70054819D01*
X158400000Y-70054819D02*
X158161905Y-70054819D01*
X159685714Y-70054819D02*
X159114286Y-70054819D01*
X159400000Y-70054819D02*
X159400000Y-69054819D01*
X159400000Y-69054819D02*
X159304762Y-69197676D01*
X159304762Y-69197676D02*
X159209524Y-69292914D01*
X159209524Y-69292914D02*
X159114286Y-69340533D01*
X154661905Y-70054819D02*
X154661905Y-69054819D01*
X154661905Y-69054819D02*
X154900000Y-69054819D01*
X154900000Y-69054819D02*
X155042857Y-69102438D01*
X155042857Y-69102438D02*
X155138095Y-69197676D01*
X155138095Y-69197676D02*
X155185714Y-69292914D01*
X155185714Y-69292914D02*
X155233333Y-69483390D01*
X155233333Y-69483390D02*
X155233333Y-69626247D01*
X155233333Y-69626247D02*
X155185714Y-69816723D01*
X155185714Y-69816723D02*
X155138095Y-69911961D01*
X155138095Y-69911961D02*
X155042857Y-70007200D01*
X155042857Y-70007200D02*
X154900000Y-70054819D01*
X154900000Y-70054819D02*
X154661905Y-70054819D01*
X155614286Y-69150057D02*
X155661905Y-69102438D01*
X155661905Y-69102438D02*
X155757143Y-69054819D01*
X155757143Y-69054819D02*
X155995238Y-69054819D01*
X155995238Y-69054819D02*
X156090476Y-69102438D01*
X156090476Y-69102438D02*
X156138095Y-69150057D01*
X156138095Y-69150057D02*
X156185714Y-69245295D01*
X156185714Y-69245295D02*
X156185714Y-69340533D01*
X156185714Y-69340533D02*
X156138095Y-69483390D01*
X156138095Y-69483390D02*
X155566667Y-70054819D01*
X155566667Y-70054819D02*
X156185714Y-70054819D01*
X147633333Y-74354819D02*
X147300000Y-73878628D01*
X147061905Y-74354819D02*
X147061905Y-73354819D01*
X147061905Y-73354819D02*
X147442857Y-73354819D01*
X147442857Y-73354819D02*
X147538095Y-73402438D01*
X147538095Y-73402438D02*
X147585714Y-73450057D01*
X147585714Y-73450057D02*
X147633333Y-73545295D01*
X147633333Y-73545295D02*
X147633333Y-73688152D01*
X147633333Y-73688152D02*
X147585714Y-73783390D01*
X147585714Y-73783390D02*
X147538095Y-73831009D01*
X147538095Y-73831009D02*
X147442857Y-73878628D01*
X147442857Y-73878628D02*
X147061905Y-73878628D01*
X148585714Y-74354819D02*
X148014286Y-74354819D01*
X148300000Y-74354819D02*
X148300000Y-73354819D01*
X148300000Y-73354819D02*
X148204762Y-73497676D01*
X148204762Y-73497676D02*
X148109524Y-73592914D01*
X148109524Y-73592914D02*
X148014286Y-73640533D01*
X138733333Y-78424819D02*
X138400000Y-77948628D01*
X138161905Y-78424819D02*
X138161905Y-77424819D01*
X138161905Y-77424819D02*
X138542857Y-77424819D01*
X138542857Y-77424819D02*
X138638095Y-77472438D01*
X138638095Y-77472438D02*
X138685714Y-77520057D01*
X138685714Y-77520057D02*
X138733333Y-77615295D01*
X138733333Y-77615295D02*
X138733333Y-77758152D01*
X138733333Y-77758152D02*
X138685714Y-77853390D01*
X138685714Y-77853390D02*
X138638095Y-77901009D01*
X138638095Y-77901009D02*
X138542857Y-77948628D01*
X138542857Y-77948628D02*
X138161905Y-77948628D01*
X139066667Y-77424819D02*
X139685714Y-77424819D01*
X139685714Y-77424819D02*
X139352381Y-77805771D01*
X139352381Y-77805771D02*
X139495238Y-77805771D01*
X139495238Y-77805771D02*
X139590476Y-77853390D01*
X139590476Y-77853390D02*
X139638095Y-77901009D01*
X139638095Y-77901009D02*
X139685714Y-77996247D01*
X139685714Y-77996247D02*
X139685714Y-78234342D01*
X139685714Y-78234342D02*
X139638095Y-78329580D01*
X139638095Y-78329580D02*
X139590476Y-78377200D01*
X139590476Y-78377200D02*
X139495238Y-78424819D01*
X139495238Y-78424819D02*
X139209524Y-78424819D01*
X139209524Y-78424819D02*
X139114286Y-78377200D01*
X139114286Y-78377200D02*
X139066667Y-78329580D01*
X144333333Y-66959580D02*
X144285714Y-67007200D01*
X144285714Y-67007200D02*
X144142857Y-67054819D01*
X144142857Y-67054819D02*
X144047619Y-67054819D01*
X144047619Y-67054819D02*
X143904762Y-67007200D01*
X143904762Y-67007200D02*
X143809524Y-66911961D01*
X143809524Y-66911961D02*
X143761905Y-66816723D01*
X143761905Y-66816723D02*
X143714286Y-66626247D01*
X143714286Y-66626247D02*
X143714286Y-66483390D01*
X143714286Y-66483390D02*
X143761905Y-66292914D01*
X143761905Y-66292914D02*
X143809524Y-66197676D01*
X143809524Y-66197676D02*
X143904762Y-66102438D01*
X143904762Y-66102438D02*
X144047619Y-66054819D01*
X144047619Y-66054819D02*
X144142857Y-66054819D01*
X144142857Y-66054819D02*
X144285714Y-66102438D01*
X144285714Y-66102438D02*
X144333333Y-66150057D01*
X144714286Y-66150057D02*
X144761905Y-66102438D01*
X144761905Y-66102438D02*
X144857143Y-66054819D01*
X144857143Y-66054819D02*
X145095238Y-66054819D01*
X145095238Y-66054819D02*
X145190476Y-66102438D01*
X145190476Y-66102438D02*
X145238095Y-66150057D01*
X145238095Y-66150057D02*
X145285714Y-66245295D01*
X145285714Y-66245295D02*
X145285714Y-66340533D01*
X145285714Y-66340533D02*
X145238095Y-66483390D01*
X145238095Y-66483390D02*
X144666667Y-67054819D01*
X144666667Y-67054819D02*
X145285714Y-67054819D01*
X142333333Y-66959580D02*
X142285714Y-67007200D01*
X142285714Y-67007200D02*
X142142857Y-67054819D01*
X142142857Y-67054819D02*
X142047619Y-67054819D01*
X142047619Y-67054819D02*
X141904762Y-67007200D01*
X141904762Y-67007200D02*
X141809524Y-66911961D01*
X141809524Y-66911961D02*
X141761905Y-66816723D01*
X141761905Y-66816723D02*
X141714286Y-66626247D01*
X141714286Y-66626247D02*
X141714286Y-66483390D01*
X141714286Y-66483390D02*
X141761905Y-66292914D01*
X141761905Y-66292914D02*
X141809524Y-66197676D01*
X141809524Y-66197676D02*
X141904762Y-66102438D01*
X141904762Y-66102438D02*
X142047619Y-66054819D01*
X142047619Y-66054819D02*
X142142857Y-66054819D01*
X142142857Y-66054819D02*
X142285714Y-66102438D01*
X142285714Y-66102438D02*
X142333333Y-66150057D01*
X143285714Y-67054819D02*
X142714286Y-67054819D01*
X143000000Y-67054819D02*
X143000000Y-66054819D01*
X143000000Y-66054819D02*
X142904762Y-66197676D01*
X142904762Y-66197676D02*
X142809524Y-66292914D01*
X142809524Y-66292914D02*
X142714286Y-66340533D01*
X134833333Y-66859580D02*
X134785714Y-66907200D01*
X134785714Y-66907200D02*
X134642857Y-66954819D01*
X134642857Y-66954819D02*
X134547619Y-66954819D01*
X134547619Y-66954819D02*
X134404762Y-66907200D01*
X134404762Y-66907200D02*
X134309524Y-66811961D01*
X134309524Y-66811961D02*
X134261905Y-66716723D01*
X134261905Y-66716723D02*
X134214286Y-66526247D01*
X134214286Y-66526247D02*
X134214286Y-66383390D01*
X134214286Y-66383390D02*
X134261905Y-66192914D01*
X134261905Y-66192914D02*
X134309524Y-66097676D01*
X134309524Y-66097676D02*
X134404762Y-66002438D01*
X134404762Y-66002438D02*
X134547619Y-65954819D01*
X134547619Y-65954819D02*
X134642857Y-65954819D01*
X134642857Y-65954819D02*
X134785714Y-66002438D01*
X134785714Y-66002438D02*
X134833333Y-66050057D01*
X135690476Y-65954819D02*
X135500000Y-65954819D01*
X135500000Y-65954819D02*
X135404762Y-66002438D01*
X135404762Y-66002438D02*
X135357143Y-66050057D01*
X135357143Y-66050057D02*
X135261905Y-66192914D01*
X135261905Y-66192914D02*
X135214286Y-66383390D01*
X135214286Y-66383390D02*
X135214286Y-66764342D01*
X135214286Y-66764342D02*
X135261905Y-66859580D01*
X135261905Y-66859580D02*
X135309524Y-66907200D01*
X135309524Y-66907200D02*
X135404762Y-66954819D01*
X135404762Y-66954819D02*
X135595238Y-66954819D01*
X135595238Y-66954819D02*
X135690476Y-66907200D01*
X135690476Y-66907200D02*
X135738095Y-66859580D01*
X135738095Y-66859580D02*
X135785714Y-66764342D01*
X135785714Y-66764342D02*
X135785714Y-66526247D01*
X135785714Y-66526247D02*
X135738095Y-66431009D01*
X135738095Y-66431009D02*
X135690476Y-66383390D01*
X135690476Y-66383390D02*
X135595238Y-66335771D01*
X135595238Y-66335771D02*
X135404762Y-66335771D01*
X135404762Y-66335771D02*
X135309524Y-66383390D01*
X135309524Y-66383390D02*
X135261905Y-66431009D01*
X135261905Y-66431009D02*
X135214286Y-66526247D01*
X149161905Y-71454819D02*
X149161905Y-70454819D01*
X149161905Y-70454819D02*
X149400000Y-70454819D01*
X149400000Y-70454819D02*
X149542857Y-70502438D01*
X149542857Y-70502438D02*
X149638095Y-70597676D01*
X149638095Y-70597676D02*
X149685714Y-70692914D01*
X149685714Y-70692914D02*
X149733333Y-70883390D01*
X149733333Y-70883390D02*
X149733333Y-71026247D01*
X149733333Y-71026247D02*
X149685714Y-71216723D01*
X149685714Y-71216723D02*
X149638095Y-71311961D01*
X149638095Y-71311961D02*
X149542857Y-71407200D01*
X149542857Y-71407200D02*
X149400000Y-71454819D01*
X149400000Y-71454819D02*
X149161905Y-71454819D01*
X150066667Y-70454819D02*
X150685714Y-70454819D01*
X150685714Y-70454819D02*
X150352381Y-70835771D01*
X150352381Y-70835771D02*
X150495238Y-70835771D01*
X150495238Y-70835771D02*
X150590476Y-70883390D01*
X150590476Y-70883390D02*
X150638095Y-70931009D01*
X150638095Y-70931009D02*
X150685714Y-71026247D01*
X150685714Y-71026247D02*
X150685714Y-71264342D01*
X150685714Y-71264342D02*
X150638095Y-71359580D01*
X150638095Y-71359580D02*
X150590476Y-71407200D01*
X150590476Y-71407200D02*
X150495238Y-71454819D01*
X150495238Y-71454819D02*
X150209524Y-71454819D01*
X150209524Y-71454819D02*
X150114286Y-71407200D01*
X150114286Y-71407200D02*
X150066667Y-71359580D01*
D15*
X136333333Y-74957419D02*
X135857143Y-74957419D01*
X135857143Y-74957419D02*
X135857143Y-73957419D01*
X137190476Y-74957419D02*
X136619048Y-74957419D01*
X136904762Y-74957419D02*
X136904762Y-73957419D01*
X136904762Y-73957419D02*
X136809524Y-74100276D01*
X136809524Y-74100276D02*
X136714286Y-74195514D01*
X136714286Y-74195514D02*
X136619048Y-74243133D01*
D12*
X142333333Y-75659580D02*
X142285714Y-75707200D01*
X142285714Y-75707200D02*
X142142857Y-75754819D01*
X142142857Y-75754819D02*
X142047619Y-75754819D01*
X142047619Y-75754819D02*
X141904762Y-75707200D01*
X141904762Y-75707200D02*
X141809524Y-75611961D01*
X141809524Y-75611961D02*
X141761905Y-75516723D01*
X141761905Y-75516723D02*
X141714286Y-75326247D01*
X141714286Y-75326247D02*
X141714286Y-75183390D01*
X141714286Y-75183390D02*
X141761905Y-74992914D01*
X141761905Y-74992914D02*
X141809524Y-74897676D01*
X141809524Y-74897676D02*
X141904762Y-74802438D01*
X141904762Y-74802438D02*
X142047619Y-74754819D01*
X142047619Y-74754819D02*
X142142857Y-74754819D01*
X142142857Y-74754819D02*
X142285714Y-74802438D01*
X142285714Y-74802438D02*
X142333333Y-74850057D01*
X143238095Y-74754819D02*
X142761905Y-74754819D01*
X142761905Y-74754819D02*
X142714286Y-75231009D01*
X142714286Y-75231009D02*
X142761905Y-75183390D01*
X142761905Y-75183390D02*
X142857143Y-75135771D01*
X142857143Y-75135771D02*
X143095238Y-75135771D01*
X143095238Y-75135771D02*
X143190476Y-75183390D01*
X143190476Y-75183390D02*
X143238095Y-75231009D01*
X143238095Y-75231009D02*
X143285714Y-75326247D01*
X143285714Y-75326247D02*
X143285714Y-75564342D01*
X143285714Y-75564342D02*
X143238095Y-75659580D01*
X143238095Y-75659580D02*
X143190476Y-75707200D01*
X143190476Y-75707200D02*
X143095238Y-75754819D01*
X143095238Y-75754819D02*
X142857143Y-75754819D01*
X142857143Y-75754819D02*
X142761905Y-75707200D01*
X142761905Y-75707200D02*
X142714286Y-75659580D01*
D15*
X158738095Y-123157419D02*
X158738095Y-123966942D01*
X158738095Y-123966942D02*
X158785714Y-124062180D01*
X158785714Y-124062180D02*
X158833333Y-124109800D01*
X158833333Y-124109800D02*
X158928571Y-124157419D01*
X158928571Y-124157419D02*
X159119047Y-124157419D01*
X159119047Y-124157419D02*
X159214285Y-124109800D01*
X159214285Y-124109800D02*
X159261904Y-124062180D01*
X159261904Y-124062180D02*
X159309523Y-123966942D01*
X159309523Y-123966942D02*
X159309523Y-123157419D01*
X160309523Y-124157419D02*
X159738095Y-124157419D01*
X160023809Y-124157419D02*
X160023809Y-123157419D01*
X160023809Y-123157419D02*
X159928571Y-123300276D01*
X159928571Y-123300276D02*
X159833333Y-123395514D01*
X159833333Y-123395514D02*
X159738095Y-123443133D01*
D12*
X141838095Y-83654819D02*
X141838095Y-84464342D01*
X141838095Y-84464342D02*
X141885714Y-84559580D01*
X141885714Y-84559580D02*
X141933333Y-84607200D01*
X141933333Y-84607200D02*
X142028571Y-84654819D01*
X142028571Y-84654819D02*
X142219047Y-84654819D01*
X142219047Y-84654819D02*
X142314285Y-84607200D01*
X142314285Y-84607200D02*
X142361904Y-84559580D01*
X142361904Y-84559580D02*
X142409523Y-84464342D01*
X142409523Y-84464342D02*
X142409523Y-83654819D01*
X143361904Y-83654819D02*
X142885714Y-83654819D01*
X142885714Y-83654819D02*
X142838095Y-84131009D01*
X142838095Y-84131009D02*
X142885714Y-84083390D01*
X142885714Y-84083390D02*
X142980952Y-84035771D01*
X142980952Y-84035771D02*
X143219047Y-84035771D01*
X143219047Y-84035771D02*
X143314285Y-84083390D01*
X143314285Y-84083390D02*
X143361904Y-84131009D01*
X143361904Y-84131009D02*
X143409523Y-84226247D01*
X143409523Y-84226247D02*
X143409523Y-84464342D01*
X143409523Y-84464342D02*
X143361904Y-84559580D01*
X143361904Y-84559580D02*
X143314285Y-84607200D01*
X143314285Y-84607200D02*
X143219047Y-84654819D01*
X143219047Y-84654819D02*
X142980952Y-84654819D01*
X142980952Y-84654819D02*
X142885714Y-84607200D01*
X142885714Y-84607200D02*
X142838095Y-84559580D01*
D11*
%TO.C,C4*%
X143990000Y-73140580D02*
X143990000Y-72859420D01*
X145010000Y-73140580D02*
X145010000Y-72859420D01*
%TO.C,U3*%
X137940000Y-69500000D02*
X137940000Y-68700000D01*
X137940000Y-69500000D02*
X137940000Y-70300000D01*
X141060000Y-69500000D02*
X141060000Y-68700000D01*
X141060000Y-69500000D02*
X141060000Y-70300000D01*
X137990000Y-70800000D02*
X137660000Y-71040000D01*
X137660000Y-70560000D01*
X137990000Y-70800000D01*
G36*
X137990000Y-70800000D02*
G01*
X137660000Y-71040000D01*
X137660000Y-70560000D01*
X137990000Y-70800000D01*
G37*
D16*
%TO.C,CON1*%
X136795306Y-95788858D02*
X136795306Y-98328858D01*
X136795306Y-98328858D02*
X136795306Y-116108858D01*
X136795306Y-98328858D02*
X139335306Y-98328858D01*
X136795306Y-116108858D02*
X139335306Y-116108858D01*
X139335306Y-95788858D02*
X136795306Y-95788858D01*
X139335306Y-98328858D02*
X139335306Y-95788858D01*
X139335306Y-116108858D02*
X139335306Y-98328858D01*
D17*
X159027906Y-87459858D02*
X159027906Y-88983858D01*
X159027906Y-87459858D02*
X160043906Y-87459858D01*
D16*
X159655306Y-95788858D02*
X159655306Y-98328858D01*
X159655306Y-95788858D02*
X162195306Y-95788858D01*
X159655306Y-98328858D02*
X159655306Y-116108858D01*
X159655306Y-98328858D02*
X162195306Y-98328858D01*
X159655306Y-116108858D02*
X162195306Y-116108858D01*
D17*
X160043906Y-87459858D02*
X160043906Y-85808858D01*
X160043906Y-87459858D02*
X161186906Y-87459858D01*
X161186906Y-87459858D02*
X161186906Y-88983858D01*
X161186906Y-87459858D02*
X162329906Y-87459858D01*
D16*
X162195306Y-95788858D02*
X162195306Y-116108858D01*
X162195306Y-116108858D02*
X159665306Y-118698858D01*
D17*
X162329906Y-87459858D02*
X162329906Y-85808858D01*
X162329906Y-87459858D02*
X163472906Y-87459858D01*
X163472906Y-87459858D02*
X163472906Y-88983858D01*
D18*
X159256506Y-88983858D02*
G75*
G02*
X158799306Y-88983858I-228600J0D01*
G01*
X158799306Y-88983858D02*
G75*
G02*
X159256506Y-88983858I228600J0D01*
G01*
X160272506Y-85808858D02*
G75*
G02*
X159815306Y-85808858I-228600J0D01*
G01*
X159815306Y-85808858D02*
G75*
G02*
X160272506Y-85808858I228600J0D01*
G01*
X161415506Y-88983858D02*
G75*
G02*
X160958306Y-88983858I-228600J0D01*
G01*
X160958306Y-88983858D02*
G75*
G02*
X161415506Y-88983858I228600J0D01*
G01*
X162558506Y-85808858D02*
G75*
G02*
X162101306Y-85808858I-228600J0D01*
G01*
X162101306Y-85808858D02*
G75*
G02*
X162558506Y-85808858I228600J0D01*
G01*
X163701506Y-88983858D02*
G75*
G02*
X163244306Y-88983858I-228600J0D01*
G01*
X163244306Y-88983858D02*
G75*
G02*
X163701506Y-88983858I228600J0D01*
G01*
D11*
%TO.C,C3*%
X135990000Y-69365580D02*
X135990000Y-69084420D01*
X137010000Y-69365580D02*
X137010000Y-69084420D01*
%TO.C,R2*%
X145477500Y-69237258D02*
X145477500Y-68762742D01*
X146522500Y-69237258D02*
X146522500Y-68762742D01*
%TO.C,D1*%
X157250000Y-59790000D02*
X157250000Y-66800000D01*
X160550000Y-59790000D02*
X157250000Y-59790000D01*
X160550000Y-59790000D02*
X160550000Y-66800000D01*
%TO.C,D2*%
X153750000Y-59790000D02*
X153750000Y-66800000D01*
X157050000Y-59790000D02*
X153750000Y-59790000D01*
X157050000Y-59790000D02*
X157050000Y-66800000D01*
%TO.C,R1*%
X145477500Y-73237258D02*
X145477500Y-72762742D01*
X146522500Y-73237258D02*
X146522500Y-72762742D01*
%TO.C,R3*%
X138662742Y-78877500D02*
X139137258Y-78877500D01*
X138662742Y-79922500D02*
X139137258Y-79922500D01*
D19*
%TO.C,G\u002A\u002A\u002A*%
G36*
X158940000Y-72665000D02*
G01*
X158940000Y-74420000D01*
X158585000Y-74420000D01*
X158230000Y-74420000D01*
X158230000Y-72665000D01*
X158230000Y-70910000D01*
X158585000Y-70910000D01*
X158940000Y-70910000D01*
X158940000Y-72665000D01*
G37*
G36*
X161570000Y-75172500D02*
G01*
X161570000Y-75540000D01*
X161522500Y-75540000D01*
X161475000Y-75540000D01*
X161475000Y-75172500D01*
X161475000Y-74805000D01*
X161522500Y-74805000D01*
X161570000Y-74805000D01*
X161570000Y-75172500D01*
G37*
G36*
X160775000Y-74847500D02*
G01*
X160775000Y-74890000D01*
X160652500Y-74890000D01*
X160530000Y-74890000D01*
X160530000Y-75215000D01*
X160530000Y-75540000D01*
X160482500Y-75540000D01*
X160435000Y-75540000D01*
X160435000Y-75215000D01*
X160435000Y-74890000D01*
X160312500Y-74890000D01*
X160190000Y-74890000D01*
X160190000Y-74847500D01*
X160190000Y-74805000D01*
X160482500Y-74805000D01*
X160775000Y-74805000D01*
X160775000Y-74847500D01*
G37*
G36*
X162255000Y-71207477D02*
G01*
X162255000Y-71504954D01*
X161726250Y-71506227D01*
X161197500Y-71507500D01*
X161196241Y-72963750D01*
X161194983Y-74420000D01*
X160839991Y-74420000D01*
X160485000Y-74420000D01*
X160485000Y-72962500D01*
X160485000Y-71505000D01*
X159957500Y-71505000D01*
X159430000Y-71505000D01*
X159430000Y-71207500D01*
X159430000Y-70910000D01*
X160842500Y-70910000D01*
X162255000Y-70910000D01*
X162255000Y-71207477D01*
G37*
G36*
X156577872Y-74792197D02*
G01*
X156629009Y-74801380D01*
X156674912Y-74817398D01*
X156717084Y-74840831D01*
X156757027Y-74872264D01*
X156772775Y-74887265D01*
X156807784Y-74926890D01*
X156835126Y-74968727D01*
X156855367Y-75014197D01*
X156869073Y-75064719D01*
X156876811Y-75121711D01*
X156878598Y-75152500D01*
X156877483Y-75220551D01*
X156868828Y-75282388D01*
X156852467Y-75338556D01*
X156828232Y-75389598D01*
X156795955Y-75436058D01*
X156788449Y-75444929D01*
X156750282Y-75481236D01*
X156705435Y-75511053D01*
X156655190Y-75533936D01*
X156600832Y-75549444D01*
X156543642Y-75557136D01*
X156484904Y-75556569D01*
X156469050Y-75554955D01*
X156413315Y-75544383D01*
X156363621Y-75526586D01*
X156318376Y-75500797D01*
X156275986Y-75466248D01*
X156267224Y-75457734D01*
X156231366Y-75416522D01*
X156203211Y-75371632D01*
X156181530Y-75320944D01*
X156174000Y-75297217D01*
X156169600Y-75280798D01*
X156166469Y-75265296D01*
X156164400Y-75248472D01*
X156163187Y-75228086D01*
X156162623Y-75201900D01*
X156162500Y-75172500D01*
X156162589Y-75154683D01*
X156260487Y-75154683D01*
X156260621Y-75194917D01*
X156263388Y-75232994D01*
X156267985Y-75261512D01*
X156283550Y-75311971D01*
X156306273Y-75356746D01*
X156335518Y-75395119D01*
X156370651Y-75426373D01*
X156411036Y-75449790D01*
X156445523Y-75462087D01*
X156471949Y-75466850D01*
X156504117Y-75469176D01*
X156538067Y-75469057D01*
X156569843Y-75466487D01*
X156592325Y-75462335D01*
X156637126Y-75445677D01*
X156676983Y-75420650D01*
X156711305Y-75387885D01*
X156739503Y-75348014D01*
X156760988Y-75301669D01*
X156770270Y-75271569D01*
X156777114Y-75233885D01*
X156780370Y-75190744D01*
X156780037Y-75146023D01*
X156776116Y-75103601D01*
X156770270Y-75073430D01*
X156752700Y-75022129D01*
X156728344Y-74977940D01*
X156697585Y-74941167D01*
X156660808Y-74912116D01*
X156618395Y-74891090D01*
X156570729Y-74878397D01*
X156520000Y-74874332D01*
X156467658Y-74878803D01*
X156420232Y-74891871D01*
X156378100Y-74913222D01*
X156341641Y-74942542D01*
X156311231Y-74979518D01*
X156287251Y-75023835D01*
X156270076Y-75075180D01*
X156268106Y-75083487D01*
X156262983Y-75116228D01*
X156260487Y-75154683D01*
X156162589Y-75154683D01*
X156162665Y-75139409D01*
X156163299Y-75114076D01*
X156164609Y-75094261D01*
X156166800Y-75077726D01*
X156170079Y-75062232D01*
X156174000Y-75047782D01*
X156193311Y-74994000D01*
X156218574Y-74946914D01*
X156251020Y-74904403D01*
X156267224Y-74887265D01*
X156306694Y-74852457D01*
X156347791Y-74825882D01*
X156392016Y-74806957D01*
X156440871Y-74795100D01*
X156495859Y-74789729D01*
X156520000Y-74789265D01*
X156577872Y-74792197D01*
G37*
G36*
X159262872Y-74792197D02*
G01*
X159314009Y-74801380D01*
X159359912Y-74817398D01*
X159402084Y-74840831D01*
X159442027Y-74872264D01*
X159457775Y-74887265D01*
X159492784Y-74926890D01*
X159520126Y-74968727D01*
X159540367Y-75014197D01*
X159554073Y-75064719D01*
X159561811Y-75121711D01*
X159563598Y-75152500D01*
X159562483Y-75220551D01*
X159553828Y-75282388D01*
X159537467Y-75338556D01*
X159513232Y-75389598D01*
X159480955Y-75436058D01*
X159473449Y-75444929D01*
X159435282Y-75481236D01*
X159390435Y-75511053D01*
X159340190Y-75533936D01*
X159285832Y-75549444D01*
X159228642Y-75557136D01*
X159169904Y-75556569D01*
X159154050Y-75554955D01*
X159098315Y-75544383D01*
X159048621Y-75526586D01*
X159003376Y-75500797D01*
X158960986Y-75466248D01*
X158952224Y-75457734D01*
X158916366Y-75416522D01*
X158888211Y-75371632D01*
X158866530Y-75320944D01*
X158859000Y-75297217D01*
X158854600Y-75280798D01*
X158851469Y-75265296D01*
X158849400Y-75248472D01*
X158848187Y-75228086D01*
X158847623Y-75201900D01*
X158847500Y-75172500D01*
X158847589Y-75154683D01*
X158945487Y-75154683D01*
X158945621Y-75194917D01*
X158948388Y-75232994D01*
X158952985Y-75261512D01*
X158968550Y-75311971D01*
X158991273Y-75356746D01*
X159020518Y-75395119D01*
X159055651Y-75426373D01*
X159096036Y-75449790D01*
X159130523Y-75462087D01*
X159156949Y-75466850D01*
X159189117Y-75469176D01*
X159223067Y-75469057D01*
X159254843Y-75466487D01*
X159277325Y-75462335D01*
X159320682Y-75446037D01*
X159360574Y-75421224D01*
X159395345Y-75389217D01*
X159423339Y-75351336D01*
X159428872Y-75341504D01*
X159447473Y-75297043D01*
X159459708Y-75247278D01*
X159465573Y-75194445D01*
X159465064Y-75140783D01*
X159458176Y-75088531D01*
X159444905Y-75039926D01*
X159429547Y-75004908D01*
X159401885Y-74962637D01*
X159368372Y-74928436D01*
X159329255Y-74902448D01*
X159284778Y-74884816D01*
X159235188Y-74875682D01*
X159205000Y-74874332D01*
X159152658Y-74878803D01*
X159105232Y-74891871D01*
X159063100Y-74913222D01*
X159026641Y-74942542D01*
X158996231Y-74979518D01*
X158972251Y-75023835D01*
X158955076Y-75075180D01*
X158953106Y-75083487D01*
X158947983Y-75116228D01*
X158945487Y-75154683D01*
X158847589Y-75154683D01*
X158847665Y-75139409D01*
X158848299Y-75114076D01*
X158849609Y-75094261D01*
X158851800Y-75077726D01*
X158855079Y-75062232D01*
X158859000Y-75047782D01*
X158878311Y-74994000D01*
X158903574Y-74946914D01*
X158936020Y-74904403D01*
X158952224Y-74887265D01*
X158991694Y-74852457D01*
X159032791Y-74825882D01*
X159077016Y-74806957D01*
X159125871Y-74795100D01*
X159180859Y-74789729D01*
X159205000Y-74789265D01*
X159262872Y-74792197D01*
G37*
G36*
X162649867Y-74789065D02*
G01*
X162688714Y-74791877D01*
X162723343Y-74797378D01*
X162733666Y-74799886D01*
X162782643Y-74817867D01*
X162826184Y-74843490D01*
X162863320Y-74876069D01*
X162890690Y-74911119D01*
X162900512Y-74928758D01*
X162910469Y-74950515D01*
X162919414Y-74973385D01*
X162926197Y-74994361D01*
X162929670Y-75010436D01*
X162929894Y-75013750D01*
X162929444Y-75019017D01*
X162926716Y-75022316D01*
X162919820Y-75024107D01*
X162906869Y-75024848D01*
X162885975Y-75024999D01*
X162883673Y-75025000D01*
X162837347Y-75025000D01*
X162828886Y-75001178D01*
X162810029Y-74961829D01*
X162784149Y-74929271D01*
X162751857Y-74903837D01*
X162713763Y-74885856D01*
X162670475Y-74875661D01*
X162622605Y-74873581D01*
X162597500Y-74875644D01*
X162553774Y-74885828D01*
X162513278Y-74904866D01*
X162476861Y-74931903D01*
X162445372Y-74966081D01*
X162419658Y-75006543D01*
X162400569Y-75052431D01*
X162392557Y-75082643D01*
X162387926Y-75114092D01*
X162385612Y-75151242D01*
X162385605Y-75190317D01*
X162387895Y-75227539D01*
X162392474Y-75259134D01*
X162392985Y-75261512D01*
X162408124Y-75311119D01*
X162430020Y-75355418D01*
X162457960Y-75393387D01*
X162491227Y-75424002D01*
X162518626Y-75441204D01*
X162553421Y-75456877D01*
X162586355Y-75465999D01*
X162621436Y-75469412D01*
X162650275Y-75468805D01*
X162676572Y-75466500D01*
X162697352Y-75462380D01*
X162717071Y-75455410D01*
X162726872Y-75451027D01*
X162761476Y-75430168D01*
X162791300Y-75402958D01*
X162813994Y-75371616D01*
X162816967Y-75366050D01*
X162823909Y-75351218D01*
X162829543Y-75335958D01*
X162834748Y-75317404D01*
X162840408Y-75292693D01*
X162842306Y-75283750D01*
X162845190Y-75270000D01*
X162893241Y-75270000D01*
X162941291Y-75270000D01*
X162937907Y-75299908D01*
X162928305Y-75347145D01*
X162910951Y-75393016D01*
X162886982Y-75435570D01*
X162857535Y-75472856D01*
X162823745Y-75502924D01*
X162816856Y-75507708D01*
X162788924Y-75524381D01*
X162761144Y-75536589D01*
X162731147Y-75544953D01*
X162696565Y-75550096D01*
X162655031Y-75552642D01*
X162645000Y-75552910D01*
X162617116Y-75553180D01*
X162591016Y-75552821D01*
X162569202Y-75551909D01*
X162554176Y-75550519D01*
X162551515Y-75550053D01*
X162506353Y-75536357D01*
X162461672Y-75515205D01*
X162420548Y-75488321D01*
X162386056Y-75457431D01*
X162385746Y-75457098D01*
X162349482Y-75411426D01*
X162321446Y-75361130D01*
X162301470Y-75305732D01*
X162289384Y-75244756D01*
X162285020Y-75177724D01*
X162285000Y-75172500D01*
X162288556Y-75106143D01*
X162299402Y-75046187D01*
X162317805Y-74991909D01*
X162344033Y-74942591D01*
X162378353Y-74897514D01*
X162392790Y-74882135D01*
X162432158Y-74848893D01*
X162478015Y-74821529D01*
X162527916Y-74801430D01*
X162542500Y-74797236D01*
X162573311Y-74791696D01*
X162610249Y-74788988D01*
X162649867Y-74789065D01*
G37*
G36*
X155152570Y-74805065D02*
G01*
X155197271Y-74805330D01*
X155234132Y-74805894D01*
X155264232Y-74806858D01*
X155288651Y-74808323D01*
X155308469Y-74810389D01*
X155324765Y-74813156D01*
X155338618Y-74816727D01*
X155351109Y-74821200D01*
X155363317Y-74826677D01*
X155370628Y-74830320D01*
X155397288Y-74848437D01*
X155422449Y-74873887D01*
X155443710Y-74904043D01*
X155451628Y-74918996D01*
X155458551Y-74934238D01*
X155463101Y-74946921D01*
X155465770Y-74959879D01*
X155467051Y-74975945D01*
X155467437Y-74997952D01*
X155467450Y-75010000D01*
X155467215Y-75035843D01*
X155466262Y-75054492D01*
X155464141Y-75068747D01*
X155460403Y-75081410D01*
X155454597Y-75095284D01*
X155453295Y-75098130D01*
X155432927Y-75132085D01*
X155405975Y-75158931D01*
X155375930Y-75177586D01*
X155349360Y-75190847D01*
X155375750Y-75206673D01*
X155395584Y-75221033D01*
X155411622Y-75238660D01*
X155424356Y-75260773D01*
X155434280Y-75288590D01*
X155441886Y-75323328D01*
X155447667Y-75366204D01*
X155449936Y-75390000D01*
X155453914Y-75431244D01*
X155458135Y-75463821D01*
X155462852Y-75489062D01*
X155468319Y-75508301D01*
X155474788Y-75522869D01*
X155475380Y-75523913D01*
X155484855Y-75540326D01*
X155428690Y-75538913D01*
X155372525Y-75537500D01*
X155366868Y-75520000D01*
X155364509Y-75508913D01*
X155361797Y-75490091D01*
X155359004Y-75465778D01*
X155356403Y-75438220D01*
X155355340Y-75425000D01*
X155351244Y-75380070D01*
X155346174Y-75343873D01*
X155339661Y-75315155D01*
X155331236Y-75292662D01*
X155320428Y-75275139D01*
X155306769Y-75261333D01*
X155289806Y-75250000D01*
X155282811Y-75246224D01*
X155276047Y-75243281D01*
X155268190Y-75241049D01*
X155257919Y-75239406D01*
X155243909Y-75238232D01*
X155224839Y-75237406D01*
X155199384Y-75236806D01*
X155166223Y-75236312D01*
X155136250Y-75235947D01*
X155005000Y-75234394D01*
X155005000Y-75387197D01*
X155005000Y-75540000D01*
X154955000Y-75540000D01*
X154905000Y-75540000D01*
X154905000Y-75172500D01*
X154905000Y-75156185D01*
X155005000Y-75156185D01*
X155133750Y-75153874D01*
X155173732Y-75153093D01*
X155205124Y-75152279D01*
X155229336Y-75151315D01*
X155247777Y-75150081D01*
X155261856Y-75148461D01*
X155272983Y-75146336D01*
X155282568Y-75143589D01*
X155290257Y-75140793D01*
X155321440Y-75123516D01*
X155346433Y-75098481D01*
X155358190Y-75080000D01*
X155363169Y-75067712D01*
X155366049Y-75052207D01*
X155367225Y-75030779D01*
X155367299Y-75017500D01*
X155365289Y-74984102D01*
X155359059Y-74957962D01*
X155347805Y-74936934D01*
X155330719Y-74918876D01*
X155329982Y-74918252D01*
X155319423Y-74910278D01*
X155307948Y-74903932D01*
X155294319Y-74899033D01*
X155277298Y-74895405D01*
X155255648Y-74892868D01*
X155228130Y-74891243D01*
X155193507Y-74890353D01*
X155150541Y-74890018D01*
X155134092Y-74890000D01*
X155005000Y-74890000D01*
X155005000Y-75023092D01*
X155005000Y-75156185D01*
X154905000Y-75156185D01*
X154905000Y-75023092D01*
X154905000Y-74805000D01*
X155098949Y-74805000D01*
X155152570Y-74805065D01*
G37*
G36*
X157828107Y-74805169D02*
G01*
X157874745Y-74805666D01*
X157914010Y-74806473D01*
X157945247Y-74807571D01*
X157967798Y-74808944D01*
X157981003Y-74810572D01*
X158024947Y-74824138D01*
X158062070Y-74844666D01*
X158091964Y-74871703D01*
X158114224Y-74904793D01*
X158128445Y-74943479D01*
X158134006Y-74982184D01*
X158132881Y-75024846D01*
X158124465Y-75060943D01*
X158108467Y-75091054D01*
X158084593Y-75115758D01*
X158057756Y-75133008D01*
X158040330Y-75142962D01*
X158031238Y-75150145D01*
X158030836Y-75154204D01*
X158035523Y-75155000D01*
X158046803Y-75157980D01*
X158063058Y-75165862D01*
X158081656Y-75177055D01*
X158099966Y-75189969D01*
X158115356Y-75203014D01*
X158115974Y-75203613D01*
X158135211Y-75224843D01*
X158148602Y-75246221D01*
X158157026Y-75270182D01*
X158161363Y-75299165D01*
X158162500Y-75332500D01*
X158162291Y-75357526D01*
X158161317Y-75375510D01*
X158159058Y-75389407D01*
X158154991Y-75402172D01*
X158148596Y-75416760D01*
X158147067Y-75420000D01*
X158125761Y-75454607D01*
X158097438Y-75485338D01*
X158064784Y-75509342D01*
X158060836Y-75511562D01*
X158047748Y-75518401D01*
X158035215Y-75524051D01*
X158022148Y-75528624D01*
X158007456Y-75532233D01*
X157990050Y-75534991D01*
X157968841Y-75537011D01*
X157942737Y-75538406D01*
X157910651Y-75539289D01*
X157871491Y-75539773D01*
X157824168Y-75539971D01*
X157786449Y-75540000D01*
X157595000Y-75540000D01*
X157595000Y-75455824D01*
X157695000Y-75455824D01*
X157833750Y-75454047D01*
X157875887Y-75453434D01*
X157909261Y-75452740D01*
X157935112Y-75451883D01*
X157954676Y-75450780D01*
X157969191Y-75449349D01*
X157979894Y-75447508D01*
X157988025Y-75445174D01*
X157992230Y-75443481D01*
X158022937Y-75425966D01*
X158044819Y-75404265D01*
X158058489Y-75377433D01*
X158064558Y-75344526D01*
X158065000Y-75331036D01*
X158061393Y-75295954D01*
X158050199Y-75266593D01*
X158030855Y-75242140D01*
X158002801Y-75221781D01*
X157982500Y-75211610D01*
X157975116Y-75208869D01*
X157965916Y-75206693D01*
X157953632Y-75204997D01*
X157936992Y-75203690D01*
X157914725Y-75202686D01*
X157885562Y-75201896D01*
X157848233Y-75201232D01*
X157828750Y-75200955D01*
X157695000Y-75199153D01*
X157695000Y-75327488D01*
X157695000Y-75455824D01*
X157595000Y-75455824D01*
X157595000Y-75327488D01*
X157595000Y-75172500D01*
X157595000Y-75120000D01*
X157695000Y-75120000D01*
X157796250Y-75119962D01*
X157829519Y-75119689D01*
X157861606Y-75118953D01*
X157890331Y-75117838D01*
X157913512Y-75116431D01*
X157928967Y-75114817D01*
X157929417Y-75114745D01*
X157961857Y-75107220D01*
X157987180Y-75095893D01*
X158004236Y-75083165D01*
X158022092Y-75060795D01*
X158033096Y-75033876D01*
X158037314Y-75004609D01*
X158034814Y-74975199D01*
X158025661Y-74947848D01*
X158009924Y-74924759D01*
X157999142Y-74915156D01*
X157988381Y-74907783D01*
X157977460Y-74901996D01*
X157965031Y-74897606D01*
X157949746Y-74894424D01*
X157930255Y-74892263D01*
X157905212Y-74890932D01*
X157873267Y-74890244D01*
X157833072Y-74890010D01*
X157819371Y-74890000D01*
X157695000Y-74890000D01*
X157695000Y-75005000D01*
X157695000Y-75120000D01*
X157595000Y-75120000D01*
X157595000Y-75005000D01*
X157595000Y-74805000D01*
X157774753Y-74805000D01*
X157828107Y-74805169D01*
G37*
G36*
X163940753Y-74793548D02*
G01*
X163992443Y-74804020D01*
X164037892Y-74821287D01*
X164076615Y-74845136D01*
X164108125Y-74875355D01*
X164122551Y-74895158D01*
X164131996Y-74913076D01*
X164142123Y-74937065D01*
X164151571Y-74963409D01*
X164158977Y-74988389D01*
X164162332Y-75003750D01*
X164165878Y-75025000D01*
X164117939Y-75025000D01*
X164095812Y-75024911D01*
X164081820Y-75024325D01*
X164074099Y-75022764D01*
X164070786Y-75019747D01*
X164070014Y-75014798D01*
X164070000Y-75012687D01*
X164066292Y-74990028D01*
X164056196Y-74964417D01*
X164041253Y-74938999D01*
X164023045Y-74916954D01*
X163999620Y-74896705D01*
X163974951Y-74882529D01*
X163946807Y-74873643D01*
X163912957Y-74869262D01*
X163885000Y-74868456D01*
X163844340Y-74870426D01*
X163811163Y-74876735D01*
X163783680Y-74887980D01*
X163760098Y-74904758D01*
X163751511Y-74912994D01*
X163736161Y-74932091D01*
X163727671Y-74952057D01*
X163725092Y-74975963D01*
X163726136Y-74995070D01*
X163730818Y-75016529D01*
X163740946Y-75035334D01*
X163757255Y-75051937D01*
X163780477Y-75066787D01*
X163811346Y-75080334D01*
X163850598Y-75093029D01*
X163898965Y-75105320D01*
X163910000Y-75107815D01*
X163961144Y-75119654D01*
X164003606Y-75130685D01*
X164038618Y-75141425D01*
X164067408Y-75152391D01*
X164091207Y-75164100D01*
X164111246Y-75177069D01*
X164128755Y-75191816D01*
X164141741Y-75205212D01*
X164164034Y-75237174D01*
X164179258Y-75274462D01*
X164187194Y-75315118D01*
X164187626Y-75357185D01*
X164180335Y-75398705D01*
X164167152Y-75433658D01*
X164144480Y-75468724D01*
X164113524Y-75498364D01*
X164074495Y-75522426D01*
X164027603Y-75540758D01*
X164011484Y-75545259D01*
X163983221Y-75550399D01*
X163948430Y-75553568D01*
X163910394Y-75554734D01*
X163872394Y-75553864D01*
X163837713Y-75550924D01*
X163815360Y-75547234D01*
X163764848Y-75531556D01*
X163719835Y-75508001D01*
X163680985Y-75477285D01*
X163648960Y-75440121D01*
X163624424Y-75397224D01*
X163608042Y-75349308D01*
X163602335Y-75317912D01*
X163598847Y-75290000D01*
X163646421Y-75290000D01*
X163693996Y-75290000D01*
X163702340Y-75327504D01*
X163716154Y-75368951D01*
X163737551Y-75404396D01*
X163765980Y-75433185D01*
X163800891Y-75454662D01*
X163813791Y-75460053D01*
X163854656Y-75471703D01*
X163896775Y-75477140D01*
X163938415Y-75476611D01*
X163977843Y-75470363D01*
X164013327Y-75458643D01*
X164043134Y-75441698D01*
X164061568Y-75424733D01*
X164078835Y-75397793D01*
X164088357Y-75367812D01*
X164090290Y-75336773D01*
X164084790Y-75306657D01*
X164072014Y-75279446D01*
X164052119Y-75257123D01*
X164048086Y-75253990D01*
X164035363Y-75245226D01*
X164022155Y-75237623D01*
X164007007Y-75230666D01*
X163988464Y-75223837D01*
X163965068Y-75216622D01*
X163935366Y-75208504D01*
X163897901Y-75198966D01*
X163881369Y-75194873D01*
X163830131Y-75181587D01*
X163787738Y-75169017D01*
X163753106Y-75156704D01*
X163725149Y-75144184D01*
X163702783Y-75130997D01*
X163684922Y-75116679D01*
X163676032Y-75107486D01*
X163657120Y-75083076D01*
X163644608Y-75058777D01*
X163636589Y-75030460D01*
X163634163Y-75016765D01*
X163631741Y-74972924D01*
X163638310Y-74932694D01*
X163653373Y-74896527D01*
X163676432Y-74864876D01*
X163706989Y-74838193D01*
X163744547Y-74816931D01*
X163788610Y-74801542D01*
X163838678Y-74792479D01*
X163883310Y-74790086D01*
X163940753Y-74793548D01*
G37*
G36*
X155983912Y-70910005D02*
G01*
X156077698Y-70910031D01*
X156162948Y-70910090D01*
X156240149Y-70910193D01*
X156309789Y-70910355D01*
X156372357Y-70910588D01*
X156428339Y-70910905D01*
X156478225Y-70911317D01*
X156522502Y-70911839D01*
X156561657Y-70912483D01*
X156596179Y-70913262D01*
X156626556Y-70914188D01*
X156653275Y-70915274D01*
X156676824Y-70916533D01*
X156697692Y-70917978D01*
X156716365Y-70919622D01*
X156733332Y-70921477D01*
X156749081Y-70923556D01*
X156764100Y-70925871D01*
X156778876Y-70928437D01*
X156793898Y-70931264D01*
X156809653Y-70934367D01*
X156826205Y-70937673D01*
X156913662Y-70958761D01*
X157001111Y-70986820D01*
X157086066Y-71020872D01*
X157166046Y-71059945D01*
X157225000Y-71094300D01*
X157275264Y-71129217D01*
X157326377Y-71170453D01*
X157376021Y-71215833D01*
X157421873Y-71263179D01*
X157461614Y-71310315D01*
X157476275Y-71330018D01*
X157513066Y-71387275D01*
X157547383Y-71451352D01*
X157577828Y-71519128D01*
X157603007Y-71587482D01*
X157621523Y-71653293D01*
X157622203Y-71656257D01*
X157631577Y-71706897D01*
X157638619Y-71764317D01*
X157643177Y-71825540D01*
X157645102Y-71887588D01*
X157644245Y-71947483D01*
X157640454Y-72002247D01*
X157639889Y-72007500D01*
X157624963Y-72102729D01*
X157602140Y-72192384D01*
X157571521Y-72276242D01*
X157533206Y-72354079D01*
X157487295Y-72425672D01*
X157433889Y-72490797D01*
X157412903Y-72512561D01*
X157353328Y-72565831D01*
X157287937Y-72612783D01*
X157215885Y-72653916D01*
X157136329Y-72689726D01*
X157075000Y-72712136D01*
X157045648Y-72722341D01*
X157025181Y-72730397D01*
X157012805Y-72736661D01*
X157007724Y-72741493D01*
X157007500Y-72742581D01*
X157011619Y-72748218D01*
X157024350Y-72755074D01*
X157046254Y-72763437D01*
X157050924Y-72765027D01*
X157123277Y-72792748D01*
X157188097Y-72825096D01*
X157247222Y-72863195D01*
X157302486Y-72908174D01*
X157335000Y-72939384D01*
X157368663Y-72975313D01*
X157396057Y-73009007D01*
X157419060Y-73043333D01*
X157439550Y-73081161D01*
X157459406Y-73125360D01*
X157463822Y-73136091D01*
X157476231Y-73168235D01*
X157487504Y-73201089D01*
X157497744Y-73235385D01*
X157507055Y-73271854D01*
X157515540Y-73311225D01*
X157523301Y-73354229D01*
X157530444Y-73401598D01*
X157537070Y-73454060D01*
X157543284Y-73512348D01*
X157549188Y-73577191D01*
X157554887Y-73649320D01*
X157560483Y-73729465D01*
X157566079Y-73818357D01*
X157570128Y-73887500D01*
X157575832Y-73975202D01*
X157582432Y-74053311D01*
X157590008Y-74122204D01*
X157598643Y-74182253D01*
X157608419Y-74233833D01*
X157619419Y-74277320D01*
X157631724Y-74313088D01*
X157645417Y-74341511D01*
X157660580Y-74362964D01*
X157677295Y-74377822D01*
X157677792Y-74378151D01*
X157687265Y-74388170D01*
X157690000Y-74403075D01*
X157690000Y-74420000D01*
X157348612Y-74420000D01*
X157280374Y-74420027D01*
X157221421Y-74420058D01*
X157171039Y-74420014D01*
X157128515Y-74419818D01*
X157093133Y-74419392D01*
X157064180Y-74418658D01*
X157040942Y-74417538D01*
X157022704Y-74415955D01*
X157008751Y-74413830D01*
X156998371Y-74411087D01*
X156990848Y-74407646D01*
X156985469Y-74403431D01*
X156981518Y-74398364D01*
X156978283Y-74392366D01*
X156975049Y-74385360D01*
X156971982Y-74378977D01*
X156963764Y-74360320D01*
X156956054Y-74337520D01*
X156948780Y-74310033D01*
X156941869Y-74277317D01*
X156935248Y-74238826D01*
X156928845Y-74194017D01*
X156922586Y-74142347D01*
X156916399Y-74083272D01*
X156910211Y-74016248D01*
X156903950Y-73940732D01*
X156897542Y-73856179D01*
X156892492Y-73785000D01*
X156889309Y-73740565D01*
X156885982Y-73696956D01*
X156882648Y-73655752D01*
X156879442Y-73618533D01*
X156876498Y-73586879D01*
X156873951Y-73562370D01*
X156872302Y-73549042D01*
X156856464Y-73465720D01*
X156833525Y-73388938D01*
X156803623Y-73318882D01*
X156766899Y-73255739D01*
X156723494Y-73199695D01*
X156673546Y-73150936D01*
X156617196Y-73109650D01*
X156554584Y-73076022D01*
X156501702Y-73055299D01*
X156476638Y-73047165D01*
X156452644Y-73040054D01*
X156428875Y-73033900D01*
X156404483Y-73028635D01*
X156378621Y-73024191D01*
X156350443Y-73020500D01*
X156319100Y-73017496D01*
X156283748Y-73015110D01*
X156243537Y-73013276D01*
X156197623Y-73011924D01*
X156145157Y-73010989D01*
X156085293Y-73010401D01*
X156017184Y-73010094D01*
X155939984Y-73010000D01*
X155934131Y-73010000D01*
X155615000Y-73010000D01*
X155615000Y-73715000D01*
X155615000Y-74420000D01*
X155260000Y-74420000D01*
X154905000Y-74420000D01*
X154905000Y-72665000D01*
X154905000Y-72460546D01*
X155614950Y-72460546D01*
X156056225Y-72458575D01*
X156134215Y-72458209D01*
X156202869Y-72457842D01*
X156262851Y-72457460D01*
X156314825Y-72457050D01*
X156359456Y-72456596D01*
X156397407Y-72456084D01*
X156429343Y-72455501D01*
X156455928Y-72454833D01*
X156477825Y-72454064D01*
X156495699Y-72453182D01*
X156510214Y-72452171D01*
X156522034Y-72451019D01*
X156531823Y-72449710D01*
X156540000Y-72448279D01*
X156611933Y-72431058D01*
X156675644Y-72409013D01*
X156731878Y-72381742D01*
X156781384Y-72348840D01*
X156824908Y-72309904D01*
X156851072Y-72280268D01*
X156889023Y-72225296D01*
X156918410Y-72165518D01*
X156939061Y-72101571D01*
X156950804Y-72034089D01*
X156953466Y-71963707D01*
X156950139Y-71915755D01*
X156937774Y-71844345D01*
X156917132Y-71778505D01*
X156888144Y-71718089D01*
X156850740Y-71662954D01*
X156804849Y-71612954D01*
X156802676Y-71610909D01*
X156756744Y-71574236D01*
X156703734Y-71543648D01*
X156643279Y-71518980D01*
X156575011Y-71500066D01*
X156542793Y-71493595D01*
X156531993Y-71491690D01*
X156521623Y-71490022D01*
X156510973Y-71488574D01*
X156499333Y-71487330D01*
X156485992Y-71486276D01*
X156470239Y-71485394D01*
X156451365Y-71484669D01*
X156428658Y-71484086D01*
X156401409Y-71483628D01*
X156368907Y-71483280D01*
X156330441Y-71483026D01*
X156285301Y-71482850D01*
X156232777Y-71482735D01*
X156172157Y-71482667D01*
X156102733Y-71482630D01*
X156050000Y-71482613D01*
X155617500Y-71482500D01*
X155616225Y-71971523D01*
X155614950Y-72460546D01*
X154905000Y-72460546D01*
X154905000Y-70910000D01*
X155768780Y-70910000D01*
X155881102Y-70909999D01*
X155983912Y-70910005D01*
G37*
G36*
X164188868Y-71058890D02*
G01*
X164189208Y-71105248D01*
X164189391Y-71142628D01*
X164189372Y-71172051D01*
X164189107Y-71194538D01*
X164188551Y-71211111D01*
X164187660Y-71222790D01*
X164186389Y-71230596D01*
X164184693Y-71235552D01*
X164182528Y-71238677D01*
X164180958Y-71240121D01*
X164175258Y-71244110D01*
X164161902Y-71253082D01*
X164141612Y-71266560D01*
X164115113Y-71284068D01*
X164083126Y-71305131D01*
X164046374Y-71329274D01*
X164005581Y-71356019D01*
X163961469Y-71384892D01*
X163914762Y-71415417D01*
X163896067Y-71427621D01*
X163848839Y-71458486D01*
X163804161Y-71487764D01*
X163762724Y-71514998D01*
X163725222Y-71539728D01*
X163692348Y-71561495D01*
X163664793Y-71579840D01*
X163643251Y-71594303D01*
X163628416Y-71604425D01*
X163620978Y-71609747D01*
X163620228Y-71610441D01*
X163624264Y-71613603D01*
X163635999Y-71621773D01*
X163654753Y-71634500D01*
X163679847Y-71651332D01*
X163710603Y-71671818D01*
X163746340Y-71695506D01*
X163786380Y-71721944D01*
X163830044Y-71750681D01*
X163876651Y-71781264D01*
X163905000Y-71799824D01*
X164190000Y-71986265D01*
X164190000Y-72503132D01*
X164190000Y-73020000D01*
X163531666Y-73020000D01*
X163451475Y-73020027D01*
X163374137Y-73020106D01*
X163300233Y-73020233D01*
X163230340Y-73020407D01*
X163165039Y-73020622D01*
X163104907Y-73020877D01*
X163050525Y-73021168D01*
X163002471Y-73021491D01*
X162961324Y-73021844D01*
X162927664Y-73022223D01*
X162902069Y-73022625D01*
X162885119Y-73023046D01*
X162877393Y-73023485D01*
X162876971Y-73023637D01*
X162882024Y-73025736D01*
X162895949Y-73031023D01*
X162918207Y-73039303D01*
X162948259Y-73050381D01*
X162985567Y-73064059D01*
X163029592Y-73080142D01*
X163079796Y-73098433D01*
X163135641Y-73118738D01*
X163196588Y-73140859D01*
X163262098Y-73164601D01*
X163331634Y-73189767D01*
X163404656Y-73216162D01*
X163480626Y-73243590D01*
X163534054Y-73262860D01*
X164187500Y-73498445D01*
X164187500Y-73650411D01*
X164187500Y-73802378D01*
X163372500Y-74090997D01*
X163285552Y-74121781D01*
X163201140Y-74151656D01*
X163119746Y-74180449D01*
X163041855Y-74207991D01*
X162967947Y-74234112D01*
X162898507Y-74258641D01*
X162834016Y-74281408D01*
X162774958Y-74302243D01*
X162721814Y-74320975D01*
X162675069Y-74337434D01*
X162635204Y-74351450D01*
X162602703Y-74362853D01*
X162578047Y-74371473D01*
X162561721Y-74377138D01*
X162554206Y-74379679D01*
X162553750Y-74379807D01*
X162552837Y-74375053D01*
X162552005Y-74361483D01*
X162551281Y-74340281D01*
X162550692Y-74312630D01*
X162550268Y-74279716D01*
X162550036Y-74242722D01*
X162550000Y-74220679D01*
X162550000Y-74061358D01*
X162571250Y-74053389D01*
X162578661Y-74050709D01*
X162594889Y-74044917D01*
X162619319Y-74036228D01*
X162651338Y-74024860D01*
X162690332Y-74011031D01*
X162735690Y-73994957D01*
X162786796Y-73976856D01*
X162843038Y-73956945D01*
X162903802Y-73935441D01*
X162968475Y-73912562D01*
X163036445Y-73888525D01*
X163107096Y-73863547D01*
X163145000Y-73850150D01*
X163216499Y-73824879D01*
X163285432Y-73800513D01*
X163351204Y-73777262D01*
X163413223Y-73755336D01*
X163470893Y-73734945D01*
X163523623Y-73716300D01*
X163570817Y-73699608D01*
X163611884Y-73685082D01*
X163646227Y-73672930D01*
X163673256Y-73663363D01*
X163692375Y-73656591D01*
X163702991Y-73652823D01*
X163705000Y-73652104D01*
X163709991Y-73649229D01*
X163705788Y-73645696D01*
X163705000Y-73645265D01*
X163699425Y-73643084D01*
X163685022Y-73637730D01*
X163662369Y-73629412D01*
X163632048Y-73618340D01*
X163594638Y-73604726D01*
X163550721Y-73588780D01*
X163500876Y-73570711D01*
X163445684Y-73550731D01*
X163385725Y-73529050D01*
X163321580Y-73505878D01*
X163253829Y-73481426D01*
X163183053Y-73455904D01*
X163123750Y-73434536D01*
X162550000Y-73227870D01*
X162550000Y-72592240D01*
X162550000Y-72124097D01*
X162844983Y-72124097D01*
X162847086Y-72124624D01*
X162848872Y-72125985D01*
X162850366Y-72128940D01*
X162851596Y-72134248D01*
X162852586Y-72142669D01*
X162853363Y-72154962D01*
X162853952Y-72171886D01*
X162854380Y-72194201D01*
X162854672Y-72222666D01*
X162854854Y-72258040D01*
X162854952Y-72301083D01*
X162854992Y-72352554D01*
X162854999Y-72413212D01*
X162855000Y-72417847D01*
X162855000Y-72710000D01*
X163005000Y-72710000D01*
X163155000Y-72710000D01*
X163155000Y-72417500D01*
X163155000Y-72125000D01*
X163302500Y-72125000D01*
X163450000Y-72125000D01*
X163450000Y-72417500D01*
X163450000Y-72710000D01*
X163667500Y-72710000D01*
X163885000Y-72710000D01*
X163884953Y-72426250D01*
X163884907Y-72142500D01*
X163618756Y-71967994D01*
X163572244Y-71937554D01*
X163528122Y-71908785D01*
X163487111Y-71882152D01*
X163449935Y-71858119D01*
X163417315Y-71837149D01*
X163389975Y-71819708D01*
X163368636Y-71806258D01*
X163354021Y-71797264D01*
X163346853Y-71793190D01*
X163346308Y-71792994D01*
X163341100Y-71795572D01*
X163328280Y-71803171D01*
X163308592Y-71815318D01*
X163282779Y-71831541D01*
X163251584Y-71851368D01*
X163215751Y-71874325D01*
X163176024Y-71899940D01*
X163133146Y-71927741D01*
X163087861Y-71957255D01*
X163087488Y-71957500D01*
X163027809Y-71996622D01*
X162976587Y-72030475D01*
X162933791Y-72059081D01*
X162899390Y-72082459D01*
X162873355Y-72100630D01*
X162855656Y-72113616D01*
X162846261Y-72121436D01*
X162844983Y-72124097D01*
X162550000Y-72124097D01*
X162550000Y-71956611D01*
X162812500Y-71785000D01*
X162858529Y-71754892D01*
X162901990Y-71726434D01*
X162942174Y-71700092D01*
X162978374Y-71676330D01*
X163009881Y-71655615D01*
X163035989Y-71638412D01*
X163055989Y-71625186D01*
X163069172Y-71616403D01*
X163074833Y-71612528D01*
X163075000Y-71612383D01*
X163070933Y-71609543D01*
X163059206Y-71601694D01*
X163040525Y-71589302D01*
X163015598Y-71572834D01*
X162985132Y-71552755D01*
X162949834Y-71529532D01*
X162910412Y-71503629D01*
X162867572Y-71475515D01*
X162822022Y-71445653D01*
X162812537Y-71439439D01*
X162550074Y-71267500D01*
X162550037Y-71091250D01*
X162550084Y-71050392D01*
X162550234Y-71012884D01*
X162550476Y-70979853D01*
X162550795Y-70952427D01*
X162551179Y-70931733D01*
X162551615Y-70918899D01*
X162552041Y-70915000D01*
X162556425Y-70917678D01*
X162568590Y-70925459D01*
X162587953Y-70937965D01*
X162613931Y-70954815D01*
X162645943Y-70975630D01*
X162683405Y-71000030D01*
X162725736Y-71027637D01*
X162772353Y-71058071D01*
X162822673Y-71090952D01*
X162876114Y-71125902D01*
X162932094Y-71162539D01*
X162945791Y-71171508D01*
X163002385Y-71208565D01*
X163056639Y-71244085D01*
X163107964Y-71277682D01*
X163155771Y-71308970D01*
X163199470Y-71337564D01*
X163238473Y-71363079D01*
X163272190Y-71385129D01*
X163300032Y-71403329D01*
X163321410Y-71417294D01*
X163335735Y-71426637D01*
X163342418Y-71430975D01*
X163342810Y-71431222D01*
X163347646Y-71428990D01*
X163360269Y-71421624D01*
X163380112Y-71409487D01*
X163406608Y-71392942D01*
X163439188Y-71372351D01*
X163477287Y-71348075D01*
X163520335Y-71320478D01*
X163567766Y-71289921D01*
X163619012Y-71256768D01*
X163673507Y-71221379D01*
X163730682Y-71184118D01*
X163767810Y-71159854D01*
X164187500Y-70885281D01*
X164188868Y-71058890D01*
G37*
G36*
X155100981Y-75938750D02*
G01*
X155082060Y-75970635D01*
X155064700Y-76009440D01*
X155050022Y-76052095D01*
X155039144Y-76095531D01*
X155035068Y-76119499D01*
X155032545Y-76139533D01*
X155031955Y-76153795D01*
X155033823Y-76166167D01*
X155038671Y-76180533D01*
X155045543Y-76197256D01*
X155053013Y-76214435D01*
X155059034Y-76227134D01*
X155062617Y-76233311D01*
X155063105Y-76233561D01*
X155064311Y-76228217D01*
X155066249Y-76215126D01*
X155068613Y-76196488D01*
X155070259Y-76182212D01*
X155079856Y-76117817D01*
X155093635Y-76061488D01*
X155111997Y-76012032D01*
X155135341Y-75968258D01*
X155148553Y-75948750D01*
X155165851Y-75925000D01*
X155362925Y-75925000D01*
X155560000Y-75925000D01*
X155560937Y-75953750D01*
X155561521Y-75972057D01*
X155562009Y-75988056D01*
X155562206Y-75995000D01*
X155562886Y-76004258D01*
X155565315Y-76010894D01*
X155570929Y-76015345D01*
X155581164Y-76018046D01*
X155597456Y-76019431D01*
X155621242Y-76019936D01*
X155644682Y-76020000D01*
X155676762Y-76019708D01*
X155699792Y-76018786D01*
X155714706Y-76017158D01*
X155722439Y-76014750D01*
X155723592Y-76013750D01*
X155725994Y-76006031D01*
X155728024Y-75991206D01*
X155729312Y-75972168D01*
X155729460Y-75967660D01*
X155730123Y-75948885D01*
X155730945Y-75934468D01*
X155731777Y-75926897D01*
X155731980Y-75926352D01*
X155737131Y-75926065D01*
X155751218Y-75925859D01*
X155773178Y-75925736D01*
X155801948Y-75925697D01*
X155836465Y-75925741D01*
X155875665Y-75925871D01*
X155918485Y-75926087D01*
X155935474Y-75926192D01*
X156137500Y-75927500D01*
X156106716Y-75960000D01*
X156091362Y-75976808D01*
X156081518Y-75989786D01*
X156075428Y-76001972D01*
X156071337Y-76016406D01*
X156069785Y-76023902D01*
X156067002Y-76040501D01*
X156065800Y-76052860D01*
X156066338Y-76058004D01*
X156070853Y-76055928D01*
X156080694Y-76047876D01*
X156094455Y-76035270D01*
X156110729Y-76019529D01*
X156128110Y-76002074D01*
X156145193Y-75984325D01*
X156160571Y-75967701D01*
X156172839Y-75953623D01*
X156180589Y-75943512D01*
X156181936Y-75941250D01*
X156190256Y-75925000D01*
X156377340Y-75925000D01*
X156564425Y-75925000D01*
X156565962Y-75946136D01*
X156567471Y-75959329D01*
X156571402Y-75966047D01*
X156580673Y-75969400D01*
X156589266Y-75970964D01*
X156610418Y-75976800D01*
X156630953Y-75986307D01*
X156648878Y-75998061D01*
X156662202Y-76010639D01*
X156668933Y-76022615D01*
X156669175Y-76028087D01*
X156662938Y-76037193D01*
X156649184Y-76046412D01*
X156630329Y-76054682D01*
X156608788Y-76060941D01*
X156587236Y-76064112D01*
X156555970Y-76066103D01*
X156552700Y-76089301D01*
X156550207Y-76105142D01*
X156547777Y-76117742D01*
X156546998Y-76120872D01*
X156548085Y-76126742D01*
X156555728Y-76133164D01*
X156571306Y-76141221D01*
X156575099Y-76142947D01*
X156595561Y-76154341D01*
X156614220Y-76168650D01*
X156629081Y-76183933D01*
X156638152Y-76198250D01*
X156640000Y-76206155D01*
X156635385Y-76214626D01*
X156623037Y-76221965D01*
X156605205Y-76227694D01*
X156584133Y-76231330D01*
X156562068Y-76232395D01*
X156541258Y-76230408D01*
X156534202Y-76228768D01*
X156526892Y-76227351D01*
X156521838Y-76229386D01*
X156517414Y-76236745D01*
X156511995Y-76251297D01*
X156510298Y-76256268D01*
X156499690Y-76287500D01*
X156511095Y-76294791D01*
X156525525Y-76305753D01*
X156541465Y-76320516D01*
X156556764Y-76336748D01*
X156569270Y-76352116D01*
X156576830Y-76364290D01*
X156577855Y-76367134D01*
X156578858Y-76379459D01*
X156573221Y-76387564D01*
X156572281Y-76388277D01*
X156560430Y-76392619D01*
X156542131Y-76394652D01*
X156520657Y-76394427D01*
X156499278Y-76391994D01*
X156481265Y-76387402D01*
X156479893Y-76386874D01*
X156467253Y-76382337D01*
X156459189Y-76380422D01*
X156457948Y-76380624D01*
X156454816Y-76385633D01*
X156448289Y-76396810D01*
X156440913Y-76409740D01*
X156425514Y-76436981D01*
X156446050Y-76454559D01*
X156459823Y-76469113D01*
X156472339Y-76487170D01*
X156482386Y-76506261D01*
X156488750Y-76523918D01*
X156490218Y-76537673D01*
X156488980Y-76541892D01*
X156480579Y-76547819D01*
X156465414Y-76549961D01*
X156445871Y-76548563D01*
X156424338Y-76543871D01*
X156403203Y-76536128D01*
X156395543Y-76532313D01*
X156381612Y-76525183D01*
X156371700Y-76520961D01*
X156368404Y-76520441D01*
X156364688Y-76525149D01*
X156356622Y-76535266D01*
X156348156Y-76545848D01*
X156329453Y-76569197D01*
X156346766Y-76591878D01*
X156360287Y-76612919D01*
X156370032Y-76634725D01*
X156375518Y-76655247D01*
X156376263Y-76672440D01*
X156371786Y-76684255D01*
X156369079Y-76686626D01*
X156358012Y-76688648D01*
X156341241Y-76685804D01*
X156321264Y-76678949D01*
X156300579Y-76668935D01*
X156281979Y-76656843D01*
X156258795Y-76639146D01*
X156238224Y-76658323D01*
X156226638Y-76668997D01*
X156218297Y-76676447D01*
X156215597Y-76678646D01*
X156216409Y-76683398D01*
X156220549Y-76694689D01*
X156226611Y-76708917D01*
X156234476Y-76729909D01*
X156240634Y-76752531D01*
X156242877Y-76765271D01*
X156244217Y-76782060D01*
X156242896Y-76792344D01*
X156238339Y-76799395D01*
X156236604Y-76801057D01*
X156230592Y-76805619D01*
X156224369Y-76806601D01*
X156214907Y-76803712D01*
X156201313Y-76797651D01*
X156183074Y-76786989D01*
X156163913Y-76772431D01*
X156153312Y-76762540D01*
X156131134Y-76739394D01*
X156105161Y-76755375D01*
X156090523Y-76765101D01*
X156083230Y-76772341D01*
X156081640Y-76778994D01*
X156082236Y-76781928D01*
X156089665Y-76813433D01*
X156093243Y-76841976D01*
X156092997Y-76866010D01*
X156088953Y-76883987D01*
X156081135Y-76894359D01*
X156080376Y-76894798D01*
X156069617Y-76895329D01*
X156055225Y-76889046D01*
X156039001Y-76877529D01*
X156022745Y-76862362D01*
X156008258Y-76845124D01*
X155997340Y-76827398D01*
X155993725Y-76818675D01*
X155988473Y-76817546D01*
X155976172Y-76820059D01*
X155962284Y-76824567D01*
X155932500Y-76835426D01*
X155932500Y-76884172D01*
X155931047Y-76916746D01*
X155926621Y-76940031D01*
X155919124Y-76954318D01*
X155908456Y-76959896D01*
X155906484Y-76960000D01*
X155897161Y-76955985D01*
X155884917Y-76945420D01*
X155871632Y-76930528D01*
X155859189Y-76913528D01*
X155849469Y-76896643D01*
X155846183Y-76888835D01*
X155837500Y-76864201D01*
X155810000Y-76867600D01*
X155791767Y-76870098D01*
X155781309Y-76872940D01*
X155776464Y-76877616D01*
X155775074Y-76885615D01*
X155775000Y-76891744D01*
X155773239Y-76909654D01*
X155768669Y-76931552D01*
X155762358Y-76953456D01*
X155755375Y-76971384D01*
X155751954Y-76977631D01*
X155742577Y-76986690D01*
X155733174Y-76989893D01*
X155722919Y-76985349D01*
X155711459Y-76973446D01*
X155700116Y-76956498D01*
X155690214Y-76936821D01*
X155683077Y-76916731D01*
X155680029Y-76898541D01*
X155680000Y-76896871D01*
X155679404Y-76890665D01*
X155676166Y-76887112D01*
X155668112Y-76885476D01*
X155653067Y-76885018D01*
X155645000Y-76885000D01*
X155610000Y-76885000D01*
X155610000Y-76900160D01*
X155607341Y-76918625D01*
X155600285Y-76938785D01*
X155590212Y-76958319D01*
X155578504Y-76974907D01*
X155566540Y-76986229D01*
X155556543Y-76990000D01*
X155548623Y-76988174D01*
X155541781Y-76981346D01*
X155534177Y-76967486D01*
X155532115Y-76963064D01*
X155521093Y-76927745D01*
X155518641Y-76905630D01*
X155517212Y-76889230D01*
X155514648Y-76877349D01*
X155512033Y-76873024D01*
X155504271Y-76871257D01*
X155490245Y-76868997D01*
X155479533Y-76867558D01*
X155452500Y-76864201D01*
X155443824Y-76888812D01*
X155435286Y-76907305D01*
X155423473Y-76925600D01*
X155410148Y-76941661D01*
X155397072Y-76953450D01*
X155386005Y-76958928D01*
X155383141Y-76959011D01*
X155371915Y-76953240D01*
X155364004Y-76939325D01*
X155359256Y-76916800D01*
X155357514Y-76885199D01*
X155357500Y-76881465D01*
X155357500Y-76835430D01*
X155330000Y-76824887D01*
X155314472Y-76819211D01*
X155305569Y-76817190D01*
X155300674Y-76818663D01*
X155297500Y-76822895D01*
X155282050Y-76845913D01*
X155264816Y-76866047D01*
X155247281Y-76882058D01*
X155230930Y-76892707D01*
X155217247Y-76896753D01*
X155210716Y-76895383D01*
X155203436Y-76886358D01*
X155198974Y-76870269D01*
X155197342Y-76849651D01*
X155198547Y-76827038D01*
X155202600Y-76804964D01*
X155209510Y-76785963D01*
X155210301Y-76784437D01*
X155213951Y-76776043D01*
X155214155Y-76772950D01*
X155209341Y-76769945D01*
X155198433Y-76763291D01*
X155185466Y-76755443D01*
X155158432Y-76739127D01*
X155139859Y-76760856D01*
X155121827Y-76777959D01*
X155100075Y-76792786D01*
X155078317Y-76803019D01*
X155067699Y-76805850D01*
X155057805Y-76803446D01*
X155051533Y-76793454D01*
X155048898Y-76777614D01*
X155049917Y-76757665D01*
X155054606Y-76735348D01*
X155062981Y-76712402D01*
X155066761Y-76704593D01*
X155078767Y-76681452D01*
X155054022Y-76660137D01*
X155029276Y-76638822D01*
X155015888Y-76651360D01*
X154998723Y-76664530D01*
X154978559Y-76675633D01*
X154957792Y-76683835D01*
X154938821Y-76688297D01*
X154924043Y-76688182D01*
X154918103Y-76685500D01*
X154914104Y-76676221D01*
X154914739Y-76660806D01*
X154919277Y-76641561D01*
X154926987Y-76620789D01*
X154937135Y-76600793D01*
X154948991Y-76583877D01*
X154951150Y-76581446D01*
X154961374Y-76570392D01*
X154942159Y-76545196D01*
X154931714Y-76532137D01*
X154923499Y-76523031D01*
X154919602Y-76520000D01*
X154913696Y-76522255D01*
X154902117Y-76528049D01*
X154892819Y-76533100D01*
X154862154Y-76544928D01*
X154837451Y-76548764D01*
X154820128Y-76549933D01*
X154810256Y-76549445D01*
X154805330Y-76546574D01*
X154802845Y-76540597D01*
X154802331Y-76538607D01*
X154802697Y-76522360D01*
X154809853Y-76502347D01*
X154822652Y-76480883D01*
X154839946Y-76460286D01*
X154842236Y-76458015D01*
X154865169Y-76435727D01*
X154849554Y-76409113D01*
X154841195Y-76394975D01*
X154835079Y-76384833D01*
X154832749Y-76381196D01*
X154827792Y-76381918D01*
X154816618Y-76385244D01*
X154810151Y-76387446D01*
X154789459Y-76392682D01*
X154767246Y-76395001D01*
X154745977Y-76394550D01*
X154728119Y-76391474D01*
X154716138Y-76385918D01*
X154712891Y-76381718D01*
X154713383Y-76370717D01*
X154720104Y-76355764D01*
X154731357Y-76339000D01*
X154745444Y-76322569D01*
X154760669Y-76308614D01*
X154775333Y-76299279D01*
X154779447Y-76297675D01*
X154786484Y-76294118D01*
X154789294Y-76287949D01*
X154787895Y-76277201D01*
X154782306Y-76259911D01*
X154780030Y-76253736D01*
X155330271Y-76253736D01*
X155331794Y-76267467D01*
X155335014Y-76286422D01*
X155339494Y-76308382D01*
X155344797Y-76331126D01*
X155350486Y-76352437D01*
X155353543Y-76362500D01*
X155373319Y-76414479D01*
X155397867Y-76460487D01*
X155428787Y-76503022D01*
X155467681Y-76544582D01*
X155474344Y-76550925D01*
X155495016Y-76569958D01*
X155511049Y-76583207D01*
X155524860Y-76591975D01*
X155538865Y-76597563D01*
X155555482Y-76601274D01*
X155572500Y-76603795D01*
X155589913Y-76606209D01*
X155602843Y-76608146D01*
X155608672Y-76609213D01*
X155608750Y-76609247D01*
X155609991Y-76606354D01*
X155610000Y-76605882D01*
X155606146Y-76601355D01*
X155595891Y-76592913D01*
X155581192Y-76582132D01*
X155575854Y-76578434D01*
X155527131Y-76540631D01*
X155484153Y-76498147D01*
X155447820Y-76452223D01*
X155419032Y-76404098D01*
X155405163Y-76370636D01*
X155750061Y-76370636D01*
X155754575Y-76374692D01*
X155767013Y-76380371D01*
X155785539Y-76387116D01*
X155808320Y-76394370D01*
X155833519Y-76401575D01*
X155859302Y-76408174D01*
X155883832Y-76413610D01*
X155902500Y-76416926D01*
X155921780Y-76418227D01*
X155947649Y-76417836D01*
X155976886Y-76416002D01*
X156006269Y-76412971D01*
X156032576Y-76408994D01*
X156047610Y-76405734D01*
X156071308Y-76398642D01*
X156096653Y-76389665D01*
X156113688Y-76382686D01*
X156130929Y-76374038D01*
X156144252Y-76364475D01*
X156156757Y-76351329D01*
X156169749Y-76334394D01*
X156180869Y-76318900D01*
X156189033Y-76307029D01*
X156192994Y-76300621D01*
X156193121Y-76300000D01*
X156188133Y-76301957D01*
X156176184Y-76307206D01*
X156159379Y-76314815D01*
X156149401Y-76319402D01*
X156083025Y-76346015D01*
X156019686Y-76363112D01*
X155959359Y-76370696D01*
X155902016Y-76368769D01*
X155847631Y-76357335D01*
X155835964Y-76353511D01*
X155823616Y-76349702D01*
X155813422Y-76348688D01*
X155801679Y-76350690D01*
X155784685Y-76355932D01*
X155782276Y-76356736D01*
X155766146Y-76362559D01*
X155754586Y-76367538D01*
X155750063Y-76370609D01*
X155750061Y-76370636D01*
X155405163Y-76370636D01*
X155398687Y-76355012D01*
X155390284Y-76322500D01*
X155386214Y-76305247D01*
X155380579Y-76292660D01*
X155371137Y-76280950D01*
X155358629Y-76269026D01*
X155345620Y-76257688D01*
X155335729Y-76249956D01*
X155330971Y-76247395D01*
X155330883Y-76247450D01*
X155330271Y-76253736D01*
X154780030Y-76253736D01*
X154779852Y-76253252D01*
X154769704Y-76226129D01*
X154748602Y-76230938D01*
X154728242Y-76233277D01*
X154706160Y-76232183D01*
X154684927Y-76228237D01*
X154667110Y-76222015D01*
X154655280Y-76214097D01*
X154652255Y-76209230D01*
X154653245Y-76196786D01*
X154662233Y-76182192D01*
X154677851Y-76166800D01*
X154698731Y-76151965D01*
X154722898Y-76139308D01*
X154736442Y-76132670D01*
X154742654Y-76126974D01*
X154743619Y-76119791D01*
X154742986Y-76115876D01*
X154740260Y-76101405D01*
X154737324Y-76084915D01*
X154737236Y-76084399D01*
X154734130Y-76066299D01*
X154701835Y-76063707D01*
X154677827Y-76059918D01*
X154655547Y-76053096D01*
X154637180Y-76044242D01*
X154624911Y-76034358D01*
X154620989Y-76026643D01*
X154624025Y-76015470D01*
X154634819Y-76003189D01*
X154651423Y-75991101D01*
X154671891Y-75980512D01*
X154694276Y-75972724D01*
X154705000Y-75970386D01*
X154716104Y-75967673D01*
X154721459Y-75962473D01*
X154723603Y-75951561D01*
X154724037Y-75946190D01*
X154725574Y-75925000D01*
X154918127Y-75925000D01*
X155110680Y-75925000D01*
X155100981Y-75938750D01*
G37*
G36*
X161887549Y-75925054D02*
G01*
X161927792Y-75925237D01*
X161959644Y-75925577D01*
X161983911Y-75926101D01*
X162001397Y-75926840D01*
X162012906Y-75927821D01*
X162019243Y-75929073D01*
X162021213Y-75930624D01*
X162020849Y-75931476D01*
X162014327Y-75941598D01*
X162005115Y-75958853D01*
X161994219Y-75981082D01*
X161982642Y-76006123D01*
X161971388Y-76031818D01*
X161961461Y-76056006D01*
X161955171Y-76072760D01*
X161946774Y-76098158D01*
X161938584Y-76125798D01*
X161931207Y-76153305D01*
X161925248Y-76178305D01*
X161921312Y-76198423D01*
X161920000Y-76210711D01*
X161921319Y-76219623D01*
X161924780Y-76233971D01*
X161929639Y-76251349D01*
X161935150Y-76269352D01*
X161940568Y-76285573D01*
X161945148Y-76297608D01*
X161948145Y-76303051D01*
X161948600Y-76303065D01*
X161950490Y-76297536D01*
X161953889Y-76284252D01*
X161958299Y-76265256D01*
X161962824Y-76244487D01*
X161976918Y-76187104D01*
X161994775Y-76129004D01*
X162015485Y-76072560D01*
X162038142Y-76020145D01*
X162061835Y-75974134D01*
X162074093Y-75953793D01*
X162092500Y-75925087D01*
X162221250Y-75925043D01*
X162350000Y-75925000D01*
X162350000Y-75940199D01*
X162354590Y-75963533D01*
X162367091Y-75986403D01*
X162385599Y-76006429D01*
X162408210Y-76021232D01*
X162417965Y-76025153D01*
X162445985Y-76029510D01*
X162473608Y-76025128D01*
X162499020Y-76013165D01*
X162520405Y-75994783D01*
X162535949Y-75971139D01*
X162543652Y-75944859D01*
X162546316Y-75925000D01*
X162745448Y-75925000D01*
X162944579Y-75925000D01*
X162946039Y-75963750D01*
X162947500Y-76002500D01*
X163017500Y-76002500D01*
X163087500Y-76002500D01*
X163088960Y-75963750D01*
X163090420Y-75925000D01*
X163290210Y-75925000D01*
X163490000Y-75925000D01*
X163490000Y-75937554D01*
X163493381Y-75954976D01*
X163502112Y-75975056D01*
X163514072Y-75993805D01*
X163526921Y-76007067D01*
X163555249Y-76022684D01*
X163584309Y-76029020D01*
X163612622Y-76026404D01*
X163638707Y-76015167D01*
X163661084Y-75995638D01*
X163675486Y-75973949D01*
X163681721Y-75958047D01*
X163684897Y-75942627D01*
X163685000Y-75940199D01*
X163685000Y-75925000D01*
X163817740Y-75925000D01*
X163950480Y-75925000D01*
X163934330Y-75948750D01*
X163917449Y-75970753D01*
X163894996Y-75996091D01*
X163869492Y-76022224D01*
X163843459Y-76046615D01*
X163819420Y-76066726D01*
X163810654Y-76073196D01*
X163747922Y-76111252D01*
X163681765Y-76140075D01*
X163612754Y-76159439D01*
X163575866Y-76165704D01*
X163529232Y-76171902D01*
X163519028Y-76192201D01*
X163511299Y-76206087D01*
X163499991Y-76224635D01*
X163487269Y-76244322D01*
X163484411Y-76248579D01*
X163473459Y-76264981D01*
X163465050Y-76277983D01*
X163460471Y-76285576D01*
X163460000Y-76286665D01*
X163464566Y-76286667D01*
X163476887Y-76285079D01*
X163494899Y-76282196D01*
X163509750Y-76279572D01*
X163594885Y-76259136D01*
X163675423Y-76229922D01*
X163750999Y-76192168D01*
X163821250Y-76146112D01*
X163885812Y-76091990D01*
X163944320Y-76030040D01*
X163994236Y-75963750D01*
X164020304Y-75925000D01*
X164202652Y-75925000D01*
X164385000Y-75925000D01*
X164385000Y-75942163D01*
X164385594Y-75952150D01*
X164388803Y-75958376D01*
X164396771Y-75962367D01*
X164411637Y-75965649D01*
X164420000Y-75967106D01*
X164434464Y-75971295D01*
X164451160Y-75978617D01*
X164467513Y-75987587D01*
X164480949Y-75996721D01*
X164488892Y-76004534D01*
X164490000Y-76007472D01*
X164485464Y-76015183D01*
X164473427Y-76023602D01*
X164456246Y-76031758D01*
X164436278Y-76038676D01*
X164415879Y-76043383D01*
X164399333Y-76044924D01*
X164387231Y-76046502D01*
X164379881Y-76052341D01*
X164376193Y-76064276D01*
X164375078Y-76084148D01*
X164375068Y-76085852D01*
X164375974Y-76098294D01*
X164380602Y-76104405D01*
X164391250Y-76107718D01*
X164410296Y-76113639D01*
X164429663Y-76122638D01*
X164447495Y-76133417D01*
X164461939Y-76144679D01*
X164471139Y-76155125D01*
X164473243Y-76163458D01*
X164472681Y-76164705D01*
X164462884Y-76172745D01*
X164445510Y-76179555D01*
X164422971Y-76184439D01*
X164397674Y-76186702D01*
X164396327Y-76186735D01*
X164376819Y-76187394D01*
X164364970Y-76189594D01*
X164358442Y-76195196D01*
X164354899Y-76206062D01*
X164352347Y-76221773D01*
X164350657Y-76235955D01*
X164351988Y-76243550D01*
X164357590Y-76247817D01*
X164363195Y-76250016D01*
X164385159Y-76259295D01*
X164403924Y-76270836D01*
X164420232Y-76283858D01*
X164434580Y-76298357D01*
X164439628Y-76309647D01*
X164435374Y-76318201D01*
X164421815Y-76324491D01*
X164420015Y-76324995D01*
X164401456Y-76328435D01*
X164379389Y-76330325D01*
X164357764Y-76330532D01*
X164340531Y-76328920D01*
X164336074Y-76327841D01*
X164329521Y-76327370D01*
X164324509Y-76332289D01*
X164319297Y-76344562D01*
X164318027Y-76348221D01*
X164312425Y-76365898D01*
X164311039Y-76376897D01*
X164314600Y-76383914D01*
X164323840Y-76389644D01*
X164330045Y-76392520D01*
X164341879Y-76399679D01*
X164356202Y-76410882D01*
X164370839Y-76424065D01*
X164383616Y-76437167D01*
X164392361Y-76448123D01*
X164395000Y-76454173D01*
X164390294Y-76462346D01*
X164377261Y-76468618D01*
X164365000Y-76471252D01*
X164349287Y-76471872D01*
X164328680Y-76470647D01*
X164307491Y-76468034D01*
X164290033Y-76464491D01*
X164284516Y-76462705D01*
X164278772Y-76463173D01*
X164272861Y-76470381D01*
X164265594Y-76485784D01*
X164265500Y-76486009D01*
X164254468Y-76512500D01*
X164265939Y-76520000D01*
X164285807Y-76535125D01*
X164305050Y-76553361D01*
X164320282Y-76571371D01*
X164324438Y-76577671D01*
X164330557Y-76589233D01*
X164331361Y-76596165D01*
X164327210Y-76602073D01*
X164326904Y-76602381D01*
X164314405Y-76608342D01*
X164294632Y-76609503D01*
X164269081Y-76605864D01*
X164254839Y-76602311D01*
X164235071Y-76596950D01*
X164222354Y-76594854D01*
X164214097Y-76596624D01*
X164207712Y-76602859D01*
X164200612Y-76614160D01*
X164200114Y-76615000D01*
X164186771Y-76637500D01*
X164215295Y-76665636D01*
X164232817Y-76685220D01*
X164245594Y-76704167D01*
X164252706Y-76720733D01*
X164253234Y-76733175D01*
X164252169Y-76735534D01*
X164244731Y-76739053D01*
X164230509Y-76739621D01*
X164212150Y-76737608D01*
X164192304Y-76733385D01*
X164173616Y-76727324D01*
X164164667Y-76723276D01*
X164140435Y-76710704D01*
X164123228Y-76733935D01*
X164106021Y-76757166D01*
X164127650Y-76781223D01*
X164142088Y-76799808D01*
X164153725Y-76819543D01*
X164161419Y-76837973D01*
X164164029Y-76852645D01*
X164163172Y-76857550D01*
X164158593Y-76862610D01*
X164148709Y-76863341D01*
X164141315Y-76862340D01*
X164112157Y-76854938D01*
X164084448Y-76843439D01*
X164068550Y-76833967D01*
X164054023Y-76823623D01*
X164033698Y-76843948D01*
X164013373Y-76864273D01*
X164022936Y-76877763D01*
X164036430Y-76897280D01*
X164045435Y-76911921D01*
X164051586Y-76924717D01*
X164056514Y-76938702D01*
X164057534Y-76942032D01*
X164061930Y-76961008D01*
X164060677Y-76972151D01*
X164053061Y-76976323D01*
X164038369Y-76974386D01*
X164032218Y-76972665D01*
X164007470Y-76962691D01*
X163979018Y-76947024D01*
X163958880Y-76933778D01*
X163952793Y-76931283D01*
X163945876Y-76933650D01*
X163935734Y-76942000D01*
X163930355Y-76947152D01*
X163910450Y-76966589D01*
X163919881Y-76979832D01*
X163934457Y-77006478D01*
X163943937Y-77036487D01*
X163946474Y-77055453D01*
X163946684Y-77069062D01*
X163944594Y-77075308D01*
X163938663Y-77076798D01*
X163933969Y-77076588D01*
X163912028Y-77071147D01*
X163887955Y-77058503D01*
X163864560Y-77040148D01*
X163863606Y-77039248D01*
X163843762Y-77020371D01*
X163821881Y-77035425D01*
X163809600Y-77044674D01*
X163801661Y-77052187D01*
X163800000Y-77055086D01*
X163802152Y-77061934D01*
X163807610Y-77074060D01*
X163811083Y-77080956D01*
X163819378Y-77103586D01*
X163823952Y-77130681D01*
X163824162Y-77133545D01*
X163824380Y-77153821D01*
X163821168Y-77165246D01*
X163813496Y-77168676D01*
X163800337Y-77164967D01*
X163791478Y-77160754D01*
X163778669Y-77152687D01*
X163764001Y-77141221D01*
X163749688Y-77128404D01*
X163737947Y-77116286D01*
X163730991Y-77106917D01*
X163730000Y-77103876D01*
X163727620Y-77100958D01*
X163719811Y-77103191D01*
X163705572Y-77110960D01*
X163696037Y-77116844D01*
X163676314Y-77129295D01*
X163685891Y-77157663D01*
X163691681Y-77180024D01*
X163694344Y-77201931D01*
X163693964Y-77221225D01*
X163690627Y-77235748D01*
X163684416Y-77243340D01*
X163682500Y-77243893D01*
X163672676Y-77241352D01*
X163658775Y-77233044D01*
X163643140Y-77220871D01*
X163628115Y-77206730D01*
X163616043Y-77192524D01*
X163612500Y-77187135D01*
X163605207Y-77176292D01*
X163599439Y-77170400D01*
X163598426Y-77170048D01*
X163591832Y-77171858D01*
X163579436Y-77176539D01*
X163570594Y-77180221D01*
X163546834Y-77190442D01*
X163554032Y-77219906D01*
X163557670Y-77241558D01*
X163558626Y-77263539D01*
X163557107Y-77283379D01*
X163553321Y-77298606D01*
X163547477Y-77306751D01*
X163546701Y-77307114D01*
X163537136Y-77305941D01*
X163524125Y-77298022D01*
X163509585Y-77285054D01*
X163495432Y-77268731D01*
X163484171Y-77251801D01*
X163475343Y-77237711D01*
X163467602Y-77228032D01*
X163463272Y-77225075D01*
X163450968Y-77226914D01*
X163436852Y-77231291D01*
X163424045Y-77236903D01*
X163415670Y-77242447D01*
X163414115Y-77245589D01*
X163417305Y-77266185D01*
X163417886Y-77288816D01*
X163416177Y-77311173D01*
X163412498Y-77330948D01*
X163407170Y-77345833D01*
X163400512Y-77353519D01*
X163399090Y-77353982D01*
X163388881Y-77351290D01*
X163376365Y-77341098D01*
X163362936Y-77325200D01*
X163349983Y-77305387D01*
X163338897Y-77283452D01*
X163333554Y-77269519D01*
X163330641Y-77265132D01*
X163324180Y-77263744D01*
X163311641Y-77265098D01*
X163303617Y-77266484D01*
X163276330Y-77271430D01*
X163273717Y-77309553D01*
X163270299Y-77338732D01*
X163264695Y-77361756D01*
X163257332Y-77377455D01*
X163248638Y-77384661D01*
X163246195Y-77385000D01*
X163236858Y-77380630D01*
X163225728Y-77368988D01*
X163214217Y-77352274D01*
X163203737Y-77332688D01*
X163195700Y-77312430D01*
X163192854Y-77301893D01*
X163190246Y-77292509D01*
X163185776Y-77288268D01*
X163176414Y-77287665D01*
X163165993Y-77288537D01*
X163147418Y-77290637D01*
X163136670Y-77293624D01*
X163131609Y-77299199D01*
X163130095Y-77309065D01*
X163130000Y-77317155D01*
X163128116Y-77334992D01*
X163123199Y-77355576D01*
X163116346Y-77375622D01*
X163108656Y-77391847D01*
X163102217Y-77400234D01*
X163094969Y-77403505D01*
X163086953Y-77399220D01*
X163085230Y-77397708D01*
X163074674Y-77384196D01*
X163064322Y-77364386D01*
X163055781Y-77341879D01*
X163050656Y-77320278D01*
X163050624Y-77320060D01*
X163047419Y-77297500D01*
X163020432Y-77295961D01*
X163001853Y-77296050D01*
X162991058Y-77299849D01*
X162986116Y-77308709D01*
X162985076Y-77320639D01*
X162982707Y-77334861D01*
X162976611Y-77352307D01*
X162968104Y-77370504D01*
X162958498Y-77386980D01*
X162949108Y-77399264D01*
X162941248Y-77404884D01*
X162940239Y-77405000D01*
X162935245Y-77401088D01*
X162928023Y-77391341D01*
X162925787Y-77387711D01*
X162911950Y-77356175D01*
X162905376Y-77322529D01*
X162905027Y-77313593D01*
X162904436Y-77302352D01*
X162901272Y-77295590D01*
X162893391Y-77291809D01*
X162878648Y-77289509D01*
X162869176Y-77288556D01*
X162845853Y-77286324D01*
X162840152Y-77309412D01*
X162833823Y-77327792D01*
X162824401Y-77346773D01*
X162813405Y-77364068D01*
X162802352Y-77377385D01*
X162792761Y-77384436D01*
X162790016Y-77385000D01*
X162780564Y-77380198D01*
X162772480Y-77366492D01*
X162766160Y-77344932D01*
X162762000Y-77316565D01*
X162761397Y-77309280D01*
X162758643Y-77271061D01*
X162739759Y-77268041D01*
X162725520Y-77265373D01*
X162714987Y-77262726D01*
X162713922Y-77262353D01*
X162707828Y-77264675D01*
X162700490Y-77276199D01*
X162695781Y-77286680D01*
X162685853Y-77306561D01*
X162673537Y-77325395D01*
X162660521Y-77341115D01*
X162648493Y-77351653D01*
X162639998Y-77355000D01*
X162631530Y-77350251D01*
X162624972Y-77336762D01*
X162620671Y-77315671D01*
X162618972Y-77288115D01*
X162618960Y-77285972D01*
X162619177Y-77267830D01*
X162619822Y-77253225D01*
X162620689Y-77245709D01*
X162617260Y-77239808D01*
X162604484Y-77233163D01*
X162596048Y-77230097D01*
X162569596Y-77221276D01*
X162561557Y-77236888D01*
X162549205Y-77257420D01*
X162534787Y-77276076D01*
X162519811Y-77291457D01*
X162505785Y-77302165D01*
X162494217Y-77306802D01*
X162487818Y-77305264D01*
X162481709Y-77294716D01*
X162478266Y-77277195D01*
X162477501Y-77255373D01*
X162479428Y-77231917D01*
X162484062Y-77209499D01*
X162487282Y-77199808D01*
X162486064Y-77193288D01*
X162476744Y-77185945D01*
X162467494Y-77181058D01*
X162453166Y-77174701D01*
X162442047Y-77170838D01*
X162438616Y-77170271D01*
X162432725Y-77174331D01*
X162424033Y-77184496D01*
X162417500Y-77193881D01*
X162403941Y-77211278D01*
X162387794Y-77226559D01*
X162371431Y-77237904D01*
X162357228Y-77243494D01*
X162352500Y-77243690D01*
X162347246Y-77242055D01*
X162344265Y-77237246D01*
X162342965Y-77227053D01*
X162342755Y-77209266D01*
X162342768Y-77207346D01*
X162344590Y-77181158D01*
X162349159Y-77158104D01*
X162351727Y-77150472D01*
X162356555Y-77137515D01*
X162358967Y-77129224D01*
X162358959Y-77127765D01*
X162354178Y-77124944D01*
X162343378Y-77118702D01*
X162333302Y-77112916D01*
X162309104Y-77099053D01*
X162300933Y-77110776D01*
X162287565Y-77126685D01*
X162270886Y-77141891D01*
X162253064Y-77154916D01*
X162236266Y-77164283D01*
X162222658Y-77168513D01*
X162217015Y-77168005D01*
X162211970Y-77161105D01*
X162210269Y-77147118D01*
X162211806Y-77128346D01*
X162216474Y-77107088D01*
X162220400Y-77095000D01*
X162226365Y-77078588D01*
X162231155Y-77065183D01*
X162233131Y-77059472D01*
X162230830Y-77050908D01*
X162219158Y-77039354D01*
X162214393Y-77035711D01*
X162192999Y-77019977D01*
X162177749Y-77034195D01*
X162157776Y-77050720D01*
X162137242Y-77064145D01*
X162117995Y-77073608D01*
X162101880Y-77078246D01*
X162090742Y-77077197D01*
X162088765Y-77075765D01*
X162086738Y-77067681D01*
X162088141Y-77053157D01*
X162092271Y-77034859D01*
X162098428Y-77015454D01*
X162105911Y-76997609D01*
X162112242Y-76986452D01*
X162124902Y-76967821D01*
X162106436Y-76948910D01*
X162092734Y-76936145D01*
X162082976Y-76930887D01*
X162075230Y-76932559D01*
X162069676Y-76937890D01*
X162059747Y-76946002D01*
X162043499Y-76955514D01*
X162024139Y-76964788D01*
X162004877Y-76972186D01*
X161998975Y-76973968D01*
X161984888Y-76976600D01*
X161976924Y-76974470D01*
X161975375Y-76972952D01*
X161973107Y-76963341D01*
X161975425Y-76948029D01*
X161981343Y-76929615D01*
X161989877Y-76910702D01*
X162000040Y-76893890D01*
X162009467Y-76882975D01*
X162017268Y-76874386D01*
X162018870Y-76866512D01*
X162013750Y-76857090D01*
X162001385Y-76843856D01*
X162000127Y-76842624D01*
X161988525Y-76831761D01*
X161981320Y-76827118D01*
X161975973Y-76827714D01*
X161971194Y-76831418D01*
X161956741Y-76841036D01*
X161936274Y-76850462D01*
X161913684Y-76858114D01*
X161896123Y-76861980D01*
X161881735Y-76863229D01*
X161874261Y-76861075D01*
X161871766Y-76857390D01*
X161871621Y-76845446D01*
X161877067Y-76828570D01*
X161886956Y-76809222D01*
X161900139Y-76789857D01*
X161907391Y-76781176D01*
X161929063Y-76757072D01*
X161912404Y-76734116D01*
X161895744Y-76711160D01*
X161870775Y-76723517D01*
X161852131Y-76730949D01*
X161831785Y-76736249D01*
X161812177Y-76739140D01*
X161795746Y-76739341D01*
X161784932Y-76736573D01*
X161782256Y-76733669D01*
X161782679Y-76722755D01*
X161789128Y-76707189D01*
X161800332Y-76689148D01*
X161815017Y-76670815D01*
X161824967Y-76660581D01*
X161848835Y-76637919D01*
X161835667Y-76613831D01*
X161827131Y-76599715D01*
X161820462Y-76593167D01*
X161813779Y-76592483D01*
X161812500Y-76592829D01*
X161776543Y-76602989D01*
X161748642Y-76608684D01*
X161727959Y-76610017D01*
X161713653Y-76607092D01*
X161710573Y-76605460D01*
X161705726Y-76597183D01*
X161708692Y-76584330D01*
X161719016Y-76567950D01*
X161734188Y-76551093D01*
X161748419Y-76537609D01*
X161761549Y-76526099D01*
X161769656Y-76519828D01*
X161781206Y-76512157D01*
X161769877Y-76485822D01*
X161762409Y-76470410D01*
X161756390Y-76463181D01*
X161750603Y-76462682D01*
X161750524Y-76462713D01*
X161736165Y-76466532D01*
X161716040Y-76469601D01*
X161694375Y-76471482D01*
X161675400Y-76471735D01*
X161668824Y-76471196D01*
X161651393Y-76467076D01*
X161643413Y-76460146D01*
X161644541Y-76449633D01*
X161653365Y-76436090D01*
X161665449Y-76423402D01*
X161667548Y-76421590D01*
X162425617Y-76421590D01*
X162428134Y-76501692D01*
X162434292Y-76550000D01*
X162453358Y-76635030D01*
X162481586Y-76716058D01*
X162518979Y-76793084D01*
X162565537Y-76866114D01*
X162621262Y-76935150D01*
X162652519Y-76968127D01*
X162708010Y-77023755D01*
X162750255Y-77033995D01*
X162770505Y-77038711D01*
X162787745Y-77042379D01*
X162799131Y-77044405D01*
X162801207Y-77044617D01*
X162801353Y-77041736D01*
X162794775Y-77033444D01*
X162782400Y-77020771D01*
X162766207Y-77005693D01*
X162702383Y-76944288D01*
X162647944Y-76883086D01*
X162602331Y-76821248D01*
X162564982Y-76757936D01*
X162535337Y-76692312D01*
X162514291Y-76628829D01*
X162508138Y-76605995D01*
X162503829Y-76587174D01*
X162501035Y-76569584D01*
X162499427Y-76550447D01*
X162498676Y-76526983D01*
X162498453Y-76496411D01*
X162498451Y-76495000D01*
X162498481Y-76488395D01*
X162928176Y-76488395D01*
X162940057Y-76505080D01*
X162947966Y-76514928D01*
X162961149Y-76529999D01*
X162977883Y-76548371D01*
X162996444Y-76568126D01*
X162999718Y-76571547D01*
X163061880Y-76629191D01*
X163129855Y-76678829D01*
X163203159Y-76720221D01*
X163281304Y-76753125D01*
X163363804Y-76777301D01*
X163445000Y-76791867D01*
X163466955Y-76793451D01*
X163496281Y-76793854D01*
X163530431Y-76793204D01*
X163566861Y-76791628D01*
X163603026Y-76789253D01*
X163636382Y-76786206D01*
X163664383Y-76782614D01*
X163677500Y-76780262D01*
X163704668Y-76774144D01*
X163733763Y-76766921D01*
X163759808Y-76759849D01*
X163767500Y-76757575D01*
X163786226Y-76751491D01*
X163800367Y-76745430D01*
X163812712Y-76737593D01*
X163826053Y-76726182D01*
X163843178Y-76709396D01*
X163844874Y-76707687D01*
X163859665Y-76692385D01*
X163870836Y-76680070D01*
X163877138Y-76672174D01*
X163877812Y-76670000D01*
X163871608Y-76671463D01*
X163857866Y-76675459D01*
X163838547Y-76681396D01*
X163815613Y-76688684D01*
X163812937Y-76689547D01*
X163725561Y-76713874D01*
X163641058Y-76729523D01*
X163559764Y-76736565D01*
X163482015Y-76735074D01*
X163408147Y-76725121D01*
X163338497Y-76706777D01*
X163273399Y-76680116D01*
X163213190Y-76645208D01*
X163158206Y-76602125D01*
X163108782Y-76550940D01*
X163096834Y-76536250D01*
X163064457Y-76495000D01*
X163015978Y-76494944D01*
X162992374Y-76494580D01*
X162970235Y-76493650D01*
X162953044Y-76492325D01*
X162947838Y-76491642D01*
X162928176Y-76488395D01*
X162498481Y-76488395D01*
X162498593Y-76463293D01*
X162499326Y-76438917D01*
X162500922Y-76419206D01*
X162503655Y-76401495D01*
X162507797Y-76383119D01*
X162511254Y-76370000D01*
X162518902Y-76344403D01*
X162527960Y-76317753D01*
X162536828Y-76294675D01*
X162539447Y-76288614D01*
X162554702Y-76254729D01*
X162537012Y-76227074D01*
X162525287Y-76207234D01*
X162512835Y-76183844D01*
X162504203Y-76165959D01*
X162489085Y-76132500D01*
X162471707Y-76180000D01*
X162447558Y-76259221D01*
X162432143Y-76340259D01*
X162425617Y-76421590D01*
X161667548Y-76421590D01*
X161681710Y-76409365D01*
X161699047Y-76396373D01*
X161714359Y-76386822D01*
X161721065Y-76383811D01*
X161724024Y-76380329D01*
X161723481Y-76371714D01*
X161719269Y-76356057D01*
X161718354Y-76353123D01*
X161712877Y-76337230D01*
X161708363Y-76329136D01*
X161703365Y-76326935D01*
X161699124Y-76327778D01*
X161684347Y-76330134D01*
X161663741Y-76330599D01*
X161641268Y-76329304D01*
X161620892Y-76326381D01*
X161614984Y-76324995D01*
X161600527Y-76318898D01*
X161595376Y-76310584D01*
X161599527Y-76299578D01*
X161612978Y-76285410D01*
X161614767Y-76283858D01*
X161634932Y-76268128D01*
X161654076Y-76257222D01*
X161671250Y-76250226D01*
X161680791Y-76244381D01*
X161684752Y-76234619D01*
X161683496Y-76219071D01*
X161680061Y-76205000D01*
X161675178Y-76187500D01*
X161638839Y-76186735D01*
X161612235Y-76184547D01*
X161589535Y-76179569D01*
X161572701Y-76172421D01*
X161563698Y-76163721D01*
X161563353Y-76162922D01*
X161565400Y-76155627D01*
X161574128Y-76145513D01*
X161587284Y-76134257D01*
X161602616Y-76123534D01*
X161617872Y-76115020D01*
X161630800Y-76110392D01*
X161634475Y-76110000D01*
X161642581Y-76108351D01*
X161651113Y-76105527D01*
X161657858Y-76102052D01*
X161660936Y-76096432D01*
X161661188Y-76085767D01*
X161660188Y-76074277D01*
X161657500Y-76047500D01*
X161629583Y-76044497D01*
X161610363Y-76040969D01*
X161590119Y-76034914D01*
X161571196Y-76027349D01*
X161555938Y-76019289D01*
X161546689Y-76011748D01*
X161545000Y-76007877D01*
X161549252Y-76001084D01*
X161560298Y-75992266D01*
X161575572Y-75982918D01*
X161592506Y-75974535D01*
X161608536Y-75968611D01*
X161615000Y-75967106D01*
X161633227Y-75963680D01*
X161643698Y-75960156D01*
X161648555Y-75955008D01*
X161649939Y-75946709D01*
X161650000Y-75942163D01*
X161650000Y-75925000D01*
X161838112Y-75925000D01*
X161887549Y-75925054D01*
G37*
G36*
X161415000Y-75942164D02*
G01*
X161415595Y-75952625D01*
X161419126Y-75958211D01*
X161428211Y-75961222D01*
X161438666Y-75962936D01*
X161460547Y-75967894D01*
X161483178Y-75975808D01*
X161504499Y-75985598D01*
X161522447Y-75996186D01*
X161534959Y-76006495D01*
X161539973Y-76015445D01*
X161539991Y-76015909D01*
X161535435Y-76025351D01*
X161523179Y-76035572D01*
X161505368Y-76045593D01*
X161484144Y-76054436D01*
X161461654Y-76061123D01*
X161440040Y-76064675D01*
X161432396Y-76065000D01*
X161411359Y-76065000D01*
X161408179Y-76088197D01*
X161405412Y-76111128D01*
X161404961Y-76126144D01*
X161407285Y-76135157D01*
X161412843Y-76140079D01*
X161421250Y-76142646D01*
X161444887Y-76149425D01*
X161468549Y-76159249D01*
X161490313Y-76170949D01*
X161508258Y-76183359D01*
X161520460Y-76195310D01*
X161524999Y-76205633D01*
X161525000Y-76205696D01*
X161520351Y-76214589D01*
X161507725Y-76223579D01*
X161489105Y-76231854D01*
X161466473Y-76238605D01*
X161441812Y-76243020D01*
X161431407Y-76243978D01*
X161413390Y-76245509D01*
X161399742Y-76247374D01*
X161393102Y-76249201D01*
X161392892Y-76249414D01*
X161391441Y-76255628D01*
X161389475Y-76268865D01*
X161387526Y-76285314D01*
X161384035Y-76318128D01*
X161405767Y-76324546D01*
X161424103Y-76331197D01*
X161441864Y-76339499D01*
X161445000Y-76341259D01*
X161460181Y-76351567D01*
X161475435Y-76364142D01*
X161488584Y-76376904D01*
X161497451Y-76387772D01*
X161500000Y-76393795D01*
X161495302Y-76401787D01*
X161482422Y-76409303D01*
X161463173Y-76415762D01*
X161439373Y-76420584D01*
X161412836Y-76423187D01*
X161407500Y-76423386D01*
X161362500Y-76424605D01*
X161356468Y-76453552D01*
X161353176Y-76470015D01*
X161350895Y-76482675D01*
X161350218Y-76487709D01*
X161354310Y-76492270D01*
X161365245Y-76499198D01*
X161380486Y-76506912D01*
X161399292Y-76517216D01*
X161418226Y-76530386D01*
X161435466Y-76544783D01*
X161449192Y-76558767D01*
X161457582Y-76570699D01*
X161459208Y-76577775D01*
X161452943Y-76585664D01*
X161438791Y-76592460D01*
X161418843Y-76597780D01*
X161395185Y-76601244D01*
X161369908Y-76602470D01*
X161345099Y-76601077D01*
X161337500Y-76600000D01*
X161329428Y-76599169D01*
X161324005Y-76601285D01*
X161319575Y-76608291D01*
X161314481Y-76622125D01*
X161311888Y-76630000D01*
X161306842Y-76646809D01*
X161303771Y-76659763D01*
X161303333Y-76666085D01*
X161303346Y-76666107D01*
X161308799Y-76670115D01*
X161320254Y-76676148D01*
X161327008Y-76679267D01*
X161342531Y-76688174D01*
X161359482Y-76701096D01*
X161375988Y-76716152D01*
X161390176Y-76731465D01*
X161400171Y-76745157D01*
X161404101Y-76755348D01*
X161404044Y-76756513D01*
X161398021Y-76765609D01*
X161384228Y-76772674D01*
X161364749Y-76777382D01*
X161341668Y-76779405D01*
X161317069Y-76778416D01*
X161293035Y-76774086D01*
X161292732Y-76774005D01*
X161278892Y-76770985D01*
X161269499Y-76770198D01*
X161267586Y-76770746D01*
X161264484Y-76776493D01*
X161259041Y-76788853D01*
X161252795Y-76804246D01*
X161240738Y-76835011D01*
X161262338Y-76847669D01*
X161279437Y-76859814D01*
X161298091Y-76876363D01*
X161315683Y-76894647D01*
X161329596Y-76911997D01*
X161336070Y-76922853D01*
X161339462Y-76933189D01*
X161336580Y-76939769D01*
X161332596Y-76943047D01*
X161320946Y-76947317D01*
X161302491Y-76949538D01*
X161280206Y-76949741D01*
X161257069Y-76947962D01*
X161236053Y-76944231D01*
X161227995Y-76941895D01*
X161213044Y-76937889D01*
X161202524Y-76937133D01*
X161199872Y-76938145D01*
X161195669Y-76944775D01*
X161189121Y-76957614D01*
X161182897Y-76971099D01*
X161170259Y-76999698D01*
X161191379Y-77014349D01*
X161211625Y-77030628D01*
X161230253Y-77049613D01*
X161245620Y-77069206D01*
X161256083Y-77087310D01*
X161259999Y-77101825D01*
X161260000Y-77101963D01*
X161255534Y-77110459D01*
X161243356Y-77115912D01*
X161225288Y-77118281D01*
X161203158Y-77117527D01*
X161178790Y-77113607D01*
X161154009Y-77106482D01*
X161148606Y-77104450D01*
X161134044Y-77099621D01*
X161123374Y-77097757D01*
X161119930Y-77098519D01*
X161115804Y-77104832D01*
X161108786Y-77117039D01*
X161102530Y-77128520D01*
X161088660Y-77154540D01*
X161118080Y-77183616D01*
X161135126Y-77202570D01*
X161149866Y-77222860D01*
X161161137Y-77242438D01*
X161167775Y-77259253D01*
X161168618Y-77271259D01*
X161168335Y-77272124D01*
X161161395Y-77277331D01*
X161147342Y-77279589D01*
X161128523Y-77279188D01*
X161107286Y-77276417D01*
X161085980Y-77271566D01*
X161066951Y-77264924D01*
X161054274Y-77258054D01*
X161043869Y-77252082D01*
X161037095Y-77250000D01*
X161031646Y-77253882D01*
X161022850Y-77264053D01*
X161012757Y-77278101D01*
X160994098Y-77306203D01*
X161013772Y-77326851D01*
X161032277Y-77348524D01*
X161047900Y-77371112D01*
X161059638Y-77392716D01*
X161066487Y-77411434D01*
X161067444Y-77425369D01*
X161066865Y-77427351D01*
X161059612Y-77433293D01*
X161045403Y-77435213D01*
X161026268Y-77433482D01*
X161004233Y-77428470D01*
X160981328Y-77420549D01*
X160959579Y-77410090D01*
X160953849Y-77406679D01*
X160942125Y-77399594D01*
X160934467Y-77395447D01*
X160933207Y-77395000D01*
X160929405Y-77398651D01*
X160921283Y-77408255D01*
X160910552Y-77421785D01*
X160909834Y-77422714D01*
X160888453Y-77450428D01*
X160903575Y-77466464D01*
X160919045Y-77485680D01*
X160932840Y-77507913D01*
X160943886Y-77530787D01*
X160951111Y-77551926D01*
X160953443Y-77568953D01*
X160952523Y-77574926D01*
X160949119Y-77581163D01*
X160942320Y-77583189D01*
X160929027Y-77581888D01*
X160928411Y-77581794D01*
X160899789Y-77574862D01*
X160870867Y-77563601D01*
X160846307Y-77549898D01*
X160842168Y-77546908D01*
X160830882Y-77539342D01*
X160822749Y-77535752D01*
X160821220Y-77535779D01*
X160815931Y-77540130D01*
X160806213Y-77549767D01*
X160795538Y-77561123D01*
X160773959Y-77584747D01*
X160788794Y-77603623D01*
X160809702Y-77634901D01*
X160823575Y-77667844D01*
X160828276Y-77685000D01*
X160831707Y-77701165D01*
X160832198Y-77710570D01*
X160829658Y-77716041D01*
X160827204Y-77718199D01*
X160816973Y-77720378D01*
X160800784Y-77717812D01*
X160780908Y-77711434D01*
X160759616Y-77702179D01*
X160739181Y-77690983D01*
X160721872Y-77678779D01*
X160714277Y-77671731D01*
X160703043Y-77659773D01*
X160676821Y-77685670D01*
X160650598Y-77711567D01*
X160664526Y-77732033D01*
X160682965Y-77765792D01*
X160693977Y-77800961D01*
X160696621Y-77822943D01*
X160697500Y-77847500D01*
X160681427Y-77846782D01*
X160659585Y-77842024D01*
X160634500Y-77830337D01*
X160608638Y-77813002D01*
X160595920Y-77802377D01*
X160571646Y-77780553D01*
X160547073Y-77800783D01*
X160534036Y-77811555D01*
X160524383Y-77819604D01*
X160520473Y-77822950D01*
X160521556Y-77828007D01*
X160526313Y-77839496D01*
X160533738Y-77855010D01*
X160534370Y-77856258D01*
X160544129Y-77878849D01*
X160551618Y-77902707D01*
X160556420Y-77925546D01*
X160558123Y-77945079D01*
X160556311Y-77959019D01*
X160553769Y-77963373D01*
X160544219Y-77966296D01*
X160529322Y-77963092D01*
X160510858Y-77954646D01*
X160490607Y-77941845D01*
X160470350Y-77925575D01*
X160462073Y-77917725D01*
X160434329Y-77889981D01*
X160411154Y-77906240D01*
X160397610Y-77915734D01*
X160387227Y-77922996D01*
X160383408Y-77925654D01*
X160382868Y-77931521D01*
X160385812Y-77944061D01*
X160391647Y-77960815D01*
X160392244Y-77962321D01*
X160400335Y-77986423D01*
X160405986Y-78011079D01*
X160408959Y-78034053D01*
X160409020Y-78053109D01*
X160405931Y-78066009D01*
X160403525Y-78069149D01*
X160393859Y-78071136D01*
X160379306Y-78066940D01*
X160361715Y-78057764D01*
X160342934Y-78044815D01*
X160324815Y-78029297D01*
X160309206Y-78012417D01*
X160302631Y-78003401D01*
X160295314Y-77994104D01*
X160289669Y-77990009D01*
X160289500Y-77990000D01*
X160283780Y-77992341D01*
X160272329Y-77998317D01*
X160257954Y-78006355D01*
X160243461Y-78014884D01*
X160231657Y-78022331D01*
X160231066Y-78022729D01*
X160231947Y-78027482D01*
X160235722Y-78038731D01*
X160239798Y-78049487D01*
X160245148Y-78067338D01*
X160249841Y-78090519D01*
X160252950Y-78114364D01*
X160253176Y-78117089D01*
X160254577Y-78137645D01*
X160254672Y-78150517D01*
X160253101Y-78157980D01*
X160249505Y-78162306D01*
X160245642Y-78164655D01*
X160237847Y-78167235D01*
X160229329Y-78165322D01*
X160216966Y-78158042D01*
X160213411Y-78155627D01*
X160188449Y-78135031D01*
X160163143Y-78108023D01*
X160147404Y-78087769D01*
X160137309Y-78073690D01*
X160106364Y-78089311D01*
X160075419Y-78104932D01*
X160083294Y-78126216D01*
X160087313Y-78141875D01*
X160090073Y-78162123D01*
X160091547Y-78184488D01*
X160091704Y-78206494D01*
X160090518Y-78225667D01*
X160087959Y-78239533D01*
X160084659Y-78245316D01*
X160075036Y-78249405D01*
X160071652Y-78249923D01*
X160063529Y-78246347D01*
X160051248Y-78236775D01*
X160036726Y-78223153D01*
X160021880Y-78207430D01*
X160008628Y-78191553D01*
X159998886Y-78177467D01*
X159997099Y-78174208D01*
X159989610Y-78160786D01*
X159983388Y-78151995D01*
X159980765Y-78150000D01*
X159971177Y-78152049D01*
X159957639Y-78157260D01*
X159942943Y-78164225D01*
X159929879Y-78171535D01*
X159921238Y-78177784D01*
X159919352Y-78180970D01*
X159920969Y-78188959D01*
X159923444Y-78203698D01*
X159926250Y-78222034D01*
X159926318Y-78222500D01*
X159928296Y-78246576D01*
X159927603Y-78270308D01*
X159924593Y-78291398D01*
X159919618Y-78307546D01*
X159913033Y-78316455D01*
X159911781Y-78317083D01*
X159901046Y-78316196D01*
X159887217Y-78307777D01*
X159871666Y-78293242D01*
X159855765Y-78274007D01*
X159840885Y-78251489D01*
X159831772Y-78234451D01*
X159823952Y-78220640D01*
X159816990Y-78212504D01*
X159813522Y-78211324D01*
X159805613Y-78214058D01*
X159791836Y-78218674D01*
X159781593Y-78222059D01*
X159755686Y-78230575D01*
X159758085Y-78274037D01*
X159758291Y-78305186D01*
X159755549Y-78332468D01*
X159750204Y-78354143D01*
X159742601Y-78368474D01*
X159738656Y-78371988D01*
X159729576Y-78372241D01*
X159717700Y-78364764D01*
X159704166Y-78351020D01*
X159690113Y-78332471D01*
X159676680Y-78310581D01*
X159665006Y-78286811D01*
X159657997Y-78268351D01*
X159655492Y-78263748D01*
X159650561Y-78261626D01*
X159641369Y-78262051D01*
X159626084Y-78265090D01*
X159605000Y-78270266D01*
X159587500Y-78274712D01*
X159587493Y-78316106D01*
X159586057Y-78344985D01*
X159582091Y-78370922D01*
X159576095Y-78392270D01*
X159568568Y-78407383D01*
X159560010Y-78414612D01*
X159557492Y-78415000D01*
X159547269Y-78410666D01*
X159534955Y-78399063D01*
X159521963Y-78382285D01*
X159509707Y-78362427D01*
X159499602Y-78341584D01*
X159493062Y-78321851D01*
X159492361Y-78318521D01*
X159489058Y-78305761D01*
X159485341Y-78297921D01*
X159484620Y-78297265D01*
X159477846Y-78296729D01*
X159464265Y-78297882D01*
X159447687Y-78300334D01*
X159415000Y-78306026D01*
X159414945Y-78339263D01*
X159413276Y-78365151D01*
X159408800Y-78390282D01*
X159402189Y-78412735D01*
X159394113Y-78430588D01*
X159385246Y-78441920D01*
X159377978Y-78445000D01*
X159369139Y-78440584D01*
X159358388Y-78428690D01*
X159346908Y-78411348D01*
X159335887Y-78390587D01*
X159326510Y-78368437D01*
X159319962Y-78346927D01*
X159319521Y-78344947D01*
X159314077Y-78319564D01*
X159280917Y-78321032D01*
X159247756Y-78322500D01*
X159241215Y-78362500D01*
X159235820Y-78387573D01*
X159228334Y-78411847D01*
X159219661Y-78433147D01*
X159210709Y-78449295D01*
X159202384Y-78458115D01*
X159201153Y-78458708D01*
X159192378Y-78457124D01*
X159182325Y-78447516D01*
X159171901Y-78431619D01*
X159162011Y-78411167D01*
X159153561Y-78387895D01*
X159147457Y-78363538D01*
X159145693Y-78352500D01*
X159142500Y-78327500D01*
X159107754Y-78327500D01*
X159073008Y-78327500D01*
X159067150Y-78357500D01*
X159059484Y-78389958D01*
X159050005Y-78415968D01*
X159037396Y-78439072D01*
X159035984Y-78441250D01*
X159024959Y-78455072D01*
X159015732Y-78459603D01*
X159007459Y-78455198D01*
X159006217Y-78453750D01*
X158994221Y-78433930D01*
X158983442Y-78407144D01*
X158974855Y-78376421D01*
X158969439Y-78344791D01*
X158968727Y-78337500D01*
X158967500Y-78322500D01*
X158932877Y-78322500D01*
X158898255Y-78322500D01*
X158892316Y-78347500D01*
X158885136Y-78373742D01*
X158876729Y-78394659D01*
X158865089Y-78414894D01*
X158859739Y-78422878D01*
X158847262Y-78438280D01*
X158836931Y-78444142D01*
X158827784Y-78440427D01*
X158818858Y-78427100D01*
X158816091Y-78421250D01*
X158805481Y-78393152D01*
X158799767Y-78365469D01*
X158797888Y-78335000D01*
X158797500Y-78307500D01*
X158767500Y-78301396D01*
X158750656Y-78298462D01*
X158737463Y-78297054D01*
X158731721Y-78297309D01*
X158726825Y-78303138D01*
X158722646Y-78314638D01*
X158722355Y-78315912D01*
X158715811Y-78336757D01*
X158705619Y-78358555D01*
X158693155Y-78379289D01*
X158679799Y-78396939D01*
X158666926Y-78409490D01*
X158655916Y-78414921D01*
X158654698Y-78415000D01*
X158646491Y-78410265D01*
X158639107Y-78397109D01*
X158633023Y-78377106D01*
X158628717Y-78351828D01*
X158626665Y-78322849D01*
X158626656Y-78322500D01*
X158625567Y-78277500D01*
X158609033Y-78271857D01*
X158591906Y-78266655D01*
X158576168Y-78262691D01*
X158565486Y-78261179D01*
X158559257Y-78264134D01*
X158554170Y-78273730D01*
X158552330Y-78278334D01*
X158539736Y-78307228D01*
X158526368Y-78330202D01*
X158509875Y-78351211D01*
X158507326Y-78354063D01*
X158494494Y-78367029D01*
X158485200Y-78372996D01*
X158477386Y-78373247D01*
X158476853Y-78373088D01*
X158468212Y-78365380D01*
X158461574Y-78349301D01*
X158457245Y-78326335D01*
X158455531Y-78297967D01*
X158456208Y-78273029D01*
X158458866Y-78230437D01*
X158426613Y-78219705D01*
X158410367Y-78214578D01*
X158398474Y-78211353D01*
X158393447Y-78210711D01*
X158393430Y-78210736D01*
X158390887Y-78215771D01*
X158385141Y-78227226D01*
X158377784Y-78241923D01*
X158367965Y-78258422D01*
X158354934Y-78276141D01*
X158340470Y-78293116D01*
X158326356Y-78307384D01*
X158314371Y-78316980D01*
X158306997Y-78320000D01*
X158299788Y-78316040D01*
X158294221Y-78308750D01*
X158291162Y-78297790D01*
X158289068Y-78279764D01*
X158288000Y-78257566D01*
X158288019Y-78234089D01*
X158289184Y-78212226D01*
X158291558Y-78194871D01*
X158291811Y-78193723D01*
X158296122Y-78174946D01*
X158267918Y-78162473D01*
X158252290Y-78155881D01*
X158240188Y-78151360D01*
X158234959Y-78150000D01*
X158230088Y-78154073D01*
X158223100Y-78164417D01*
X158219368Y-78171237D01*
X158209445Y-78186962D01*
X158195695Y-78203979D01*
X158179990Y-78220495D01*
X158164200Y-78234712D01*
X158150196Y-78244835D01*
X158139849Y-78249068D01*
X158138324Y-78249041D01*
X158131865Y-78246551D01*
X158127562Y-78239772D01*
X158124240Y-78226357D01*
X158122844Y-78218109D01*
X158120907Y-78196786D01*
X158121942Y-78173353D01*
X158126190Y-78145308D01*
X158132744Y-78114963D01*
X158133442Y-78107579D01*
X158130153Y-78101747D01*
X158121033Y-78095534D01*
X158107740Y-78088713D01*
X158092470Y-78081516D01*
X158080798Y-78076550D01*
X158075809Y-78075000D01*
X158071176Y-78078967D01*
X158064147Y-78088965D01*
X158060999Y-78094290D01*
X158047482Y-78113158D01*
X158028559Y-78133186D01*
X158007737Y-78151003D01*
X157990212Y-78162390D01*
X157978312Y-78167419D01*
X157970584Y-78166883D01*
X157966511Y-78164180D01*
X157962326Y-78155297D01*
X157960389Y-78139245D01*
X157960536Y-78118560D01*
X157962602Y-78095775D01*
X157966422Y-78073427D01*
X157971831Y-78054050D01*
X157974041Y-78048501D01*
X157984455Y-78024959D01*
X157957130Y-78007479D01*
X157942633Y-77998496D01*
X157931586Y-77992188D01*
X157926631Y-77990000D01*
X157922035Y-77993455D01*
X157912611Y-78002644D01*
X157900147Y-78015796D01*
X157896094Y-78020237D01*
X157877356Y-78038613D01*
X157857591Y-78054101D01*
X157838733Y-78065517D01*
X157822718Y-78071674D01*
X157812110Y-78071658D01*
X157807145Y-78064787D01*
X157805027Y-78050603D01*
X157805544Y-78031313D01*
X157808486Y-78009126D01*
X157813643Y-77986249D01*
X157820803Y-77964890D01*
X157822721Y-77960402D01*
X157829360Y-77944809D01*
X157833585Y-77933301D01*
X157834484Y-77928357D01*
X157834479Y-77928353D01*
X157829670Y-77924948D01*
X157819047Y-77917463D01*
X157805928Y-77908234D01*
X157779356Y-77889553D01*
X157753059Y-77916274D01*
X157735031Y-77932449D01*
X157715425Y-77946573D01*
X157696188Y-77957615D01*
X157679267Y-77964540D01*
X157666612Y-77966316D01*
X157661980Y-77964568D01*
X157656903Y-77955650D01*
X157655000Y-77943859D01*
X157657212Y-77923537D01*
X157663049Y-77898572D01*
X157671309Y-77873076D01*
X157680794Y-77851166D01*
X157683450Y-77846329D01*
X157696075Y-77824785D01*
X157681885Y-77813642D01*
X157667991Y-77802456D01*
X157655227Y-77791794D01*
X157642758Y-77781088D01*
X157619691Y-77801794D01*
X157596264Y-77820072D01*
X157571636Y-77834611D01*
X157548536Y-77843990D01*
X157533335Y-77846807D01*
X157517500Y-77847500D01*
X157518400Y-77819683D01*
X157522948Y-77791071D01*
X157534139Y-77759367D01*
X157550819Y-77727743D01*
X157553326Y-77723810D01*
X157562242Y-77710120D01*
X157537705Y-77685208D01*
X157513168Y-77660296D01*
X157492834Y-77676910D01*
X157460651Y-77699191D01*
X157426727Y-77714015D01*
X157413944Y-77717775D01*
X157398922Y-77721136D01*
X157390255Y-77721023D01*
X157384888Y-77717357D01*
X157384596Y-77717013D01*
X157381800Y-77706637D01*
X157383826Y-77690103D01*
X157389886Y-77669533D01*
X157399190Y-77647047D01*
X157410951Y-77624766D01*
X157424379Y-77604808D01*
X157428008Y-77600307D01*
X157441570Y-77584189D01*
X157416086Y-77558705D01*
X157390603Y-77533222D01*
X157371551Y-77546377D01*
X157349258Y-77559807D01*
X157325769Y-77570673D01*
X157303079Y-77578403D01*
X157283188Y-77582421D01*
X157268092Y-77582154D01*
X157260620Y-77578247D01*
X157258228Y-77568242D01*
X157261075Y-77552394D01*
X157268254Y-77532752D01*
X157278860Y-77511363D01*
X157291988Y-77490274D01*
X157306730Y-77471534D01*
X157308830Y-77469258D01*
X157326036Y-77451016D01*
X157304885Y-77424258D01*
X157293857Y-77410842D01*
X157285157Y-77401242D01*
X157280644Y-77397505D01*
X157280616Y-77397504D01*
X157274958Y-77399600D01*
X157262810Y-77405142D01*
X157246587Y-77413020D01*
X157243167Y-77414727D01*
X157220124Y-77424564D01*
X157197191Y-77431393D01*
X157176381Y-77434936D01*
X157159708Y-77434914D01*
X157149185Y-77431048D01*
X157147014Y-77428037D01*
X157146930Y-77416287D01*
X157152373Y-77399223D01*
X157162255Y-77379034D01*
X157175488Y-77357906D01*
X157189710Y-77339657D01*
X158310027Y-77339657D01*
X158314647Y-77372001D01*
X158327441Y-77401317D01*
X158347030Y-77426177D01*
X158372034Y-77445158D01*
X158401072Y-77456832D01*
X158426449Y-77459953D01*
X158454805Y-77457100D01*
X158474014Y-77450502D01*
X158502624Y-77430440D01*
X158525438Y-77402962D01*
X158531403Y-77392565D01*
X158538615Y-77370762D01*
X158540695Y-77352127D01*
X158991133Y-77352127D01*
X158998534Y-77383069D01*
X159013978Y-77411289D01*
X159037181Y-77435172D01*
X159052500Y-77445503D01*
X159082082Y-77457115D01*
X159113640Y-77459951D01*
X159144476Y-77453872D01*
X159152500Y-77450605D01*
X159179698Y-77433105D01*
X159200451Y-77409599D01*
X159214464Y-77381850D01*
X159221444Y-77351620D01*
X159221398Y-77347509D01*
X159671444Y-77347509D01*
X159676958Y-77377237D01*
X159689659Y-77404964D01*
X159709666Y-77429088D01*
X159731256Y-77444855D01*
X159761585Y-77456958D01*
X159793286Y-77460021D01*
X159824170Y-77453925D01*
X159832500Y-77450500D01*
X159860320Y-77432692D01*
X159881008Y-77409434D01*
X159894557Y-77382291D01*
X159900962Y-77352830D01*
X159900216Y-77322614D01*
X159892315Y-77293210D01*
X159877252Y-77266182D01*
X159855022Y-77243095D01*
X159833314Y-77229140D01*
X159811143Y-77221943D01*
X159784841Y-77219375D01*
X159759261Y-77221669D01*
X159747522Y-77224988D01*
X159718882Y-77240665D01*
X159696835Y-77262359D01*
X159681501Y-77288467D01*
X159672998Y-77317384D01*
X159671444Y-77347509D01*
X159221398Y-77347509D01*
X159221094Y-77320671D01*
X159213120Y-77290766D01*
X159197227Y-77263667D01*
X159185826Y-77251354D01*
X159159253Y-77232801D01*
X159129606Y-77222430D01*
X159098796Y-77220151D01*
X159068731Y-77225875D01*
X159041320Y-77239513D01*
X159019992Y-77259089D01*
X159001581Y-77288524D01*
X158992055Y-77320074D01*
X158991133Y-77352127D01*
X158540695Y-77352127D01*
X158541599Y-77344027D01*
X158540285Y-77316521D01*
X158534601Y-77292409D01*
X158533183Y-77288921D01*
X158519535Y-77266835D01*
X158500010Y-77246221D01*
X158478163Y-77230616D01*
X158471078Y-77227179D01*
X158446267Y-77220875D01*
X158418058Y-77219990D01*
X158391453Y-77224517D01*
X158383631Y-77227301D01*
X158358769Y-77242727D01*
X158337352Y-77265398D01*
X158321085Y-77292709D01*
X158311674Y-77322056D01*
X158310027Y-77339657D01*
X157189710Y-77339657D01*
X157190982Y-77338025D01*
X157192886Y-77335888D01*
X157219921Y-77306013D01*
X157201744Y-77278006D01*
X157192031Y-77263827D01*
X157184157Y-77253753D01*
X157179887Y-77250000D01*
X157173736Y-77251940D01*
X157161360Y-77256997D01*
X157147324Y-77263223D01*
X157125851Y-77271177D01*
X157102816Y-77276677D01*
X157080682Y-77279475D01*
X157061913Y-77279321D01*
X157048972Y-77275967D01*
X157045819Y-77273487D01*
X157043785Y-77263672D01*
X157048172Y-77248678D01*
X157058073Y-77230128D01*
X157072580Y-77209648D01*
X157090788Y-77188863D01*
X157095954Y-77183670D01*
X157125529Y-77154731D01*
X157109110Y-77124865D01*
X157100319Y-77109885D01*
X157092967Y-77099167D01*
X157088630Y-77095000D01*
X157088597Y-77095000D01*
X157081705Y-77097110D01*
X157070514Y-77102237D01*
X157069627Y-77102692D01*
X157051027Y-77109984D01*
X157029198Y-77115032D01*
X157006459Y-77117746D01*
X156985132Y-77118034D01*
X156967536Y-77115804D01*
X156955992Y-77110967D01*
X156953104Y-77107272D01*
X156953867Y-77097042D01*
X156960793Y-77082207D01*
X156972434Y-77064649D01*
X156987340Y-77046248D01*
X157004063Y-77028885D01*
X157021154Y-77014440D01*
X157028436Y-77009482D01*
X157044372Y-76999571D01*
X157030076Y-76969343D01*
X157022445Y-76953614D01*
X157016340Y-76941773D01*
X157013161Y-76936494D01*
X157007339Y-76936462D01*
X156995368Y-76939270D01*
X156986880Y-76941937D01*
X156968779Y-76946253D01*
X156946610Y-76948922D01*
X156923582Y-76949852D01*
X156902906Y-76948954D01*
X156887790Y-76946135D01*
X156884671Y-76944824D01*
X156877044Y-76938162D01*
X156876068Y-76928782D01*
X156881945Y-76915111D01*
X156890100Y-76902354D01*
X156900846Y-76889632D01*
X156916297Y-76874751D01*
X156933756Y-76859963D01*
X156950525Y-76847521D01*
X156963906Y-76839676D01*
X156966320Y-76838726D01*
X156967904Y-76833072D01*
X156964973Y-76818992D01*
X156959816Y-76803044D01*
X156953432Y-76785556D01*
X156948659Y-76775664D01*
X156943869Y-76771501D01*
X156937431Y-76771203D01*
X156932680Y-76771996D01*
X156900149Y-76776613D01*
X156870335Y-76778167D01*
X156844740Y-76776801D01*
X156824868Y-76772660D01*
X156812221Y-76765886D01*
X156808582Y-76760118D01*
X156810556Y-76750476D01*
X156819056Y-76736994D01*
X156832364Y-76721495D01*
X156848762Y-76705801D01*
X156866532Y-76691734D01*
X156882213Y-76682006D01*
X156896891Y-76673193D01*
X156906784Y-76665026D01*
X156909682Y-76660000D01*
X156908087Y-76651303D01*
X156904286Y-76636805D01*
X156902291Y-76630126D01*
X157632874Y-76630126D01*
X157636928Y-76664635D01*
X157649315Y-76695116D01*
X157669123Y-76720320D01*
X157695446Y-76738997D01*
X157718567Y-76747879D01*
X157746845Y-76752027D01*
X157774406Y-76748275D01*
X157798756Y-76739048D01*
X157824940Y-76721732D01*
X157844455Y-76698472D01*
X157857081Y-76670968D01*
X157862602Y-76640917D01*
X157861945Y-76629676D01*
X158312063Y-76629676D01*
X158315371Y-76661316D01*
X158326708Y-76691114D01*
X158346021Y-76717289D01*
X158356089Y-76726443D01*
X158384601Y-76743521D01*
X158415686Y-76751155D01*
X158448351Y-76749242D01*
X158478641Y-76739103D01*
X158502085Y-76723109D01*
X158521792Y-76699951D01*
X158535629Y-76672336D01*
X158538384Y-76663324D01*
X158542881Y-76644537D01*
X158544050Y-76634513D01*
X158991031Y-76634513D01*
X158996539Y-76667245D01*
X159010987Y-76698297D01*
X159015238Y-76704536D01*
X159038471Y-76728727D01*
X159066295Y-76744525D01*
X159097317Y-76751545D01*
X159130144Y-76749404D01*
X159153025Y-76742424D01*
X159170986Y-76731574D01*
X159189449Y-76714738D01*
X159205188Y-76695209D01*
X159213133Y-76681078D01*
X159219795Y-76656368D01*
X159221300Y-76627552D01*
X159220222Y-76618975D01*
X159670916Y-76618975D01*
X159671251Y-76650024D01*
X159679336Y-76677500D01*
X159698126Y-76708710D01*
X159721846Y-76731813D01*
X159749553Y-76746388D01*
X159780305Y-76752012D01*
X159813161Y-76748265D01*
X159827500Y-76743744D01*
X159854957Y-76728424D01*
X159876778Y-76706246D01*
X159892260Y-76679049D01*
X159900705Y-76648670D01*
X159901099Y-76630948D01*
X160350425Y-76630948D01*
X160354185Y-76661116D01*
X160364916Y-76689451D01*
X160382159Y-76714375D01*
X160405457Y-76734309D01*
X160434352Y-76747673D01*
X160445000Y-76750365D01*
X160475374Y-76751689D01*
X160507500Y-76743744D01*
X160535604Y-76728103D01*
X160557899Y-76705275D01*
X160573302Y-76676883D01*
X160580729Y-76644554D01*
X160581244Y-76633175D01*
X160577062Y-76599261D01*
X160565418Y-76569935D01*
X160547650Y-76545797D01*
X160525093Y-76527448D01*
X160499083Y-76515489D01*
X160470957Y-76510519D01*
X160442051Y-76513140D01*
X160413702Y-76523951D01*
X160387244Y-76543553D01*
X160385539Y-76545229D01*
X160365644Y-76571426D01*
X160354092Y-76600525D01*
X160350425Y-76630948D01*
X159901099Y-76630948D01*
X159901410Y-76616947D01*
X159893675Y-76585720D01*
X159890483Y-76578499D01*
X159872296Y-76551009D01*
X159848443Y-76530043D01*
X159820665Y-76516294D01*
X159790700Y-76510453D01*
X159760288Y-76513211D01*
X159742095Y-76519486D01*
X159714952Y-76536801D01*
X159693531Y-76560438D01*
X159678597Y-76588471D01*
X159670916Y-76618975D01*
X159220222Y-76618975D01*
X159217719Y-76599047D01*
X159211498Y-76580000D01*
X159193842Y-76551867D01*
X159170664Y-76530758D01*
X159143597Y-76516990D01*
X159114274Y-76510884D01*
X159084328Y-76512759D01*
X159055391Y-76522934D01*
X159029096Y-76541728D01*
X159026875Y-76543893D01*
X159006328Y-76571073D01*
X158994337Y-76601868D01*
X158991031Y-76634513D01*
X158544050Y-76634513D01*
X158544482Y-76630809D01*
X158543106Y-76617645D01*
X158538673Y-76600552D01*
X158537165Y-76595432D01*
X158523678Y-76565279D01*
X158503909Y-76541275D01*
X158479427Y-76523875D01*
X158451800Y-76513532D01*
X158422598Y-76510701D01*
X158393388Y-76515835D01*
X158365740Y-76529388D01*
X158350811Y-76541503D01*
X158329732Y-76567989D01*
X158316833Y-76597973D01*
X158312063Y-76629676D01*
X157861945Y-76629676D01*
X157860797Y-76610016D01*
X157851448Y-76579965D01*
X157834336Y-76552460D01*
X157824188Y-76541503D01*
X157798027Y-76522406D01*
X157769924Y-76512120D01*
X157741237Y-76510015D01*
X157713323Y-76515464D01*
X157687541Y-76527837D01*
X157665248Y-76546505D01*
X157647802Y-76570838D01*
X157636561Y-76600209D01*
X157632874Y-76630126D01*
X156902291Y-76630126D01*
X156900760Y-76625000D01*
X156895646Y-76609582D01*
X156891312Y-76601632D01*
X156885594Y-76599062D01*
X156876323Y-76599783D01*
X156874815Y-76600000D01*
X156847317Y-76602316D01*
X156820389Y-76601666D01*
X156795910Y-76598417D01*
X156775761Y-76592933D01*
X156761819Y-76585580D01*
X156755985Y-76576881D01*
X156758984Y-76567315D01*
X156768846Y-76554539D01*
X156783691Y-76540197D01*
X156801642Y-76525939D01*
X156820820Y-76513409D01*
X156838383Y-76504641D01*
X156851304Y-76499304D01*
X156859242Y-76494517D01*
X156862779Y-76488111D01*
X156862500Y-76477918D01*
X156858988Y-76461769D01*
X156854579Y-76444430D01*
X156849981Y-76426361D01*
X156803740Y-76423629D01*
X156769506Y-76420177D01*
X156743062Y-76414445D01*
X156725014Y-76406647D01*
X156715970Y-76397000D01*
X156715000Y-76392165D01*
X156719227Y-76382447D01*
X156730549Y-76370172D01*
X156746929Y-76356853D01*
X156766328Y-76344004D01*
X156786708Y-76333140D01*
X156803269Y-76326599D01*
X156831004Y-76317857D01*
X156827722Y-76292678D01*
X156824836Y-76271170D01*
X156821733Y-76257557D01*
X156816536Y-76249872D01*
X156807368Y-76246148D01*
X156792351Y-76244418D01*
X156780880Y-76243601D01*
X156754517Y-76240184D01*
X156730036Y-76234287D01*
X156709484Y-76226662D01*
X156694910Y-76218064D01*
X156688449Y-76209610D01*
X156690529Y-76199114D01*
X156700461Y-76186937D01*
X156716509Y-76174246D01*
X156736937Y-76162208D01*
X156760011Y-76151989D01*
X156783996Y-76144755D01*
X156785402Y-76144446D01*
X156811134Y-76138928D01*
X156808122Y-76120714D01*
X156805973Y-76102274D01*
X156805055Y-76083750D01*
X156804542Y-76071995D01*
X156801225Y-76066586D01*
X156792297Y-76065044D01*
X156783750Y-76064945D01*
X156761944Y-76062899D01*
X156738850Y-76057477D01*
X156716568Y-76049597D01*
X156697201Y-76040177D01*
X156682849Y-76030134D01*
X156675614Y-76020388D01*
X156675145Y-76017500D01*
X156679814Y-76007026D01*
X156692445Y-75995690D01*
X156711176Y-75984482D01*
X156734141Y-75974392D01*
X156759477Y-75966412D01*
X156778750Y-75962433D01*
X156792063Y-75959770D01*
X156798201Y-75955570D01*
X156799926Y-75947185D01*
X156800000Y-75942060D01*
X156800000Y-75925000D01*
X157214180Y-75925000D01*
X157628360Y-75925000D01*
X157636424Y-75954005D01*
X157649473Y-75985449D01*
X157668262Y-76009964D01*
X157691386Y-76027616D01*
X157717441Y-76038467D01*
X157745024Y-76042582D01*
X157772730Y-76040024D01*
X157799155Y-76030858D01*
X157822896Y-76015146D01*
X157842548Y-75992954D01*
X157856707Y-75964344D01*
X157862050Y-75943750D01*
X157865453Y-75925000D01*
X158087170Y-75925000D01*
X158308887Y-75925000D01*
X158312372Y-75943577D01*
X158322838Y-75975260D01*
X158340758Y-76002697D01*
X158364615Y-76024133D01*
X158392890Y-76037816D01*
X158394357Y-76038255D01*
X158427471Y-76043148D01*
X158458801Y-76038796D01*
X158487083Y-76025938D01*
X158511053Y-76005317D01*
X158529448Y-75977672D01*
X158538554Y-75953750D01*
X158546639Y-75925000D01*
X158783319Y-75925000D01*
X159020000Y-75925000D01*
X159020000Y-75964387D01*
X159020860Y-75988228D01*
X159023374Y-76003468D01*
X159026250Y-76008784D01*
X159033342Y-76010606D01*
X159048640Y-76012159D01*
X159070350Y-76013328D01*
X159096678Y-76013996D01*
X159108385Y-76014098D01*
X159140454Y-76013977D01*
X159163791Y-76013125D01*
X159179652Y-76011249D01*
X159189295Y-76008060D01*
X159193978Y-76003266D01*
X159194957Y-75996576D01*
X159194711Y-75994120D01*
X159194327Y-75985851D01*
X159194237Y-75971072D01*
X159194407Y-75956250D01*
X159195000Y-75925000D01*
X159432500Y-75925000D01*
X159487608Y-75925023D01*
X159533541Y-75925111D01*
X159571122Y-75925294D01*
X159601175Y-75925599D01*
X159624524Y-75926054D01*
X159641993Y-75926688D01*
X159654407Y-75927529D01*
X159662589Y-75928605D01*
X159667363Y-75929946D01*
X159669553Y-75931579D01*
X159670000Y-75933169D01*
X159673952Y-75955011D01*
X159684827Y-75979131D01*
X159701152Y-76002373D01*
X159703589Y-76005155D01*
X159729609Y-76027396D01*
X159758744Y-76040352D01*
X159789945Y-76043829D01*
X159822160Y-76037634D01*
X159839532Y-76030238D01*
X159864907Y-76012428D01*
X159884179Y-75987681D01*
X159897855Y-75955259D01*
X159902146Y-75938750D01*
X159905190Y-75925000D01*
X160127595Y-75925000D01*
X160350000Y-75925000D01*
X160350000Y-75937085D01*
X160354496Y-75960872D01*
X160366760Y-75985151D01*
X160384952Y-76007636D01*
X160407231Y-76026041D01*
X160431128Y-76037874D01*
X160462287Y-76043345D01*
X160492830Y-76039877D01*
X160521200Y-76028487D01*
X160545840Y-76010191D01*
X160565194Y-75986006D01*
X160577703Y-75956949D01*
X160581017Y-75940000D01*
X160582500Y-75927500D01*
X160998750Y-75926221D01*
X161415000Y-75924942D01*
X161415000Y-75942164D01*
G37*
D11*
%TO.C,C2*%
X143990000Y-68859420D02*
X143990000Y-69140580D01*
X145010000Y-68859420D02*
X145010000Y-69140580D01*
%TO.C,C1*%
X142490000Y-68859420D02*
X142490000Y-69140580D01*
X143510000Y-68859420D02*
X143510000Y-69140580D01*
%TO.C,C6*%
X137815580Y-66040000D02*
X137534420Y-66040000D01*
X137815580Y-67060000D02*
X137534420Y-67060000D01*
%TO.C,D3*%
X147150000Y-68990000D02*
X147150000Y-72250000D01*
X148850000Y-68990000D02*
X147150000Y-68990000D01*
X148850000Y-68990000D02*
X148850000Y-72250000D01*
%TO.C,C5*%
X142490000Y-73140580D02*
X142490000Y-72859420D01*
X143510000Y-73140580D02*
X143510000Y-72859420D01*
D16*
%TO.C,U5*%
X136275000Y-86145000D02*
X136275000Y-82145000D01*
X141325000Y-86145000D02*
X141325000Y-82145000D01*
D10*
X136395000Y-88590000D02*
G75*
G02*
X136195000Y-88590000I-100000J0D01*
G01*
X136195000Y-88590000D02*
G75*
G02*
X136395000Y-88590000I100000J0D01*
G01*
D20*
%TO.C,J1*%
X153600000Y-51100000D02*
X160600000Y-51100000D01*
X153600000Y-51900000D02*
X153600000Y-51100000D01*
X153600000Y-51900000D02*
X160600000Y-51900000D01*
X153600000Y-58100000D02*
X153600000Y-51900000D01*
X160600000Y-51100000D02*
X160600000Y-51900000D01*
X160600000Y-51900000D02*
X160600000Y-58100000D01*
X160600000Y-58100000D02*
X153600000Y-58100000D01*
%TD*%
%LPC*%
D21*
%TO.C,CONN1*%
X145710000Y-54850000D03*
X138090000Y-54850000D03*
D22*
X143805000Y-61200000D03*
X142535000Y-63740000D03*
X141265000Y-61200000D03*
X139995000Y-63740000D03*
%TD*%
D23*
%TO.C,C4*%
X144500000Y-73775000D03*
X144500000Y-72225000D03*
%TD*%
D24*
%TO.C,U3*%
X138550000Y-70637500D03*
X139500000Y-70637500D03*
X140450000Y-70637500D03*
X140450000Y-68362500D03*
X139500000Y-68362500D03*
X138550000Y-68362500D03*
%TD*%
D25*
%TO.C,CON1*%
X138065306Y-97058858D03*
D26*
X138065306Y-99598858D03*
X138065306Y-102138858D03*
X138065306Y-104678858D03*
X138065306Y-107218858D03*
X138065306Y-109758858D03*
X138065306Y-112298858D03*
X138065306Y-114838858D03*
X160925306Y-114838858D03*
X160925306Y-112298858D03*
X160925306Y-109758858D03*
X160925306Y-107218858D03*
X160925306Y-104678858D03*
X160925306Y-102138858D03*
X160925306Y-99598858D03*
D27*
X160925306Y-97058858D03*
%TD*%
D23*
%TO.C,C3*%
X136500000Y-70000000D03*
X136500000Y-68450000D03*
%TD*%
D28*
%TO.C,R2*%
X146000000Y-69825000D03*
X146000000Y-68175000D03*
%TD*%
D29*
%TO.C,D1*%
X158900000Y-61800000D03*
X158900000Y-66800000D03*
%TD*%
%TO.C,D2*%
X155400000Y-61800000D03*
X155400000Y-66800000D03*
%TD*%
D28*
%TO.C,R1*%
X146000000Y-73825000D03*
X146000000Y-72175000D03*
%TD*%
D30*
%TO.C,R3*%
X138075000Y-79400000D03*
X139725000Y-79400000D03*
%TD*%
D31*
%TO.C,C2*%
X144500000Y-68225000D03*
X144500000Y-69775000D03*
%TD*%
%TO.C,C1*%
X143000000Y-68225000D03*
X143000000Y-69775000D03*
%TD*%
D32*
%TO.C,C6*%
X138450000Y-66550000D03*
X136900000Y-66550000D03*
%TD*%
D33*
%TO.C,D3*%
X148000000Y-69750000D03*
X148000000Y-72250000D03*
%TD*%
D34*
%TO.C,L1*%
X139500000Y-72700000D03*
X139500000Y-76300000D03*
%TD*%
D23*
%TO.C,C5*%
X143000000Y-73775000D03*
X143000000Y-72225000D03*
%TD*%
D35*
%TO.C,U1*%
X158345762Y-121200000D03*
X158345762Y-118660000D03*
X158345762Y-116120000D03*
X158345762Y-113580000D03*
X158345762Y-111040000D03*
X158345762Y-108500000D03*
X158345762Y-105960000D03*
X158345762Y-103420000D03*
X158345762Y-100880000D03*
X158345762Y-98340000D03*
X158345762Y-95800000D03*
X158345762Y-93260000D03*
X140565762Y-121200000D03*
X140565762Y-118660000D03*
X140565762Y-116120000D03*
X140565762Y-113580000D03*
X140565762Y-111040000D03*
X140565762Y-108500000D03*
X140565762Y-105960000D03*
X140565762Y-103420000D03*
X140565762Y-100880000D03*
X140565762Y-98340000D03*
X140565762Y-95800000D03*
X140565762Y-93260000D03*
%TD*%
D36*
%TO.C,U5*%
X136895000Y-86620000D03*
X138165000Y-86620000D03*
X139435000Y-86620000D03*
X140705000Y-86620000D03*
X140705000Y-81670000D03*
X139435000Y-81670000D03*
X138165000Y-81670000D03*
X136895000Y-81670000D03*
%TD*%
D37*
%TO.C,J1*%
X158850000Y-54700000D03*
D38*
X155350000Y-54700000D03*
%TD*%
%LPD*%
M02*
