%TF.GenerationSoftware,KiCad,Pcbnew,8.0.6*%
%TF.CreationDate,2024-10-28T22:07:04-04:00*%
%TF.ProjectId,VexQwiic,56657851-7769-4696-932e-6b696361645f,rev?*%
%TF.SameCoordinates,Original*%
%TF.FileFunction,Soldermask,Top*%
%TF.FilePolarity,Negative*%
%FSLAX46Y46*%
G04 Gerber Fmt 4.6, Leading zero omitted, Abs format (unit mm)*
G04 Created by KiCad (PCBNEW 8.0.6) date 2024-10-28 22:07:04*
%MOMM*%
%LPD*%
G01*
G04 APERTURE LIST*
G04 Aperture macros list*
%AMRoundRect*
0 Rectangle with rounded corners*
0 $1 Rounding radius*
0 $2 $3 $4 $5 $6 $7 $8 $9 X,Y pos of 4 corners*
0 Add a 4 corners polygon primitive as box body*
4,1,4,$2,$3,$4,$5,$6,$7,$8,$9,$2,$3,0*
0 Add four circle primitives for the rounded corners*
1,1,$1+$1,$2,$3*
1,1,$1+$1,$4,$5*
1,1,$1+$1,$6,$7*
1,1,$1+$1,$8,$9*
0 Add four rect primitives between the rounded corners*
20,1,$1+$1,$2,$3,$4,$5,0*
20,1,$1+$1,$4,$5,$6,$7,0*
20,1,$1+$1,$6,$7,$8,$9,0*
20,1,$1+$1,$8,$9,$2,$3,0*%
G04 Aperture macros list end*
%ADD10C,3.200000*%
%ADD11C,1.300000*%
%ADD12RoundRect,0.225000X0.250000X-0.225000X0.250000X0.225000X-0.250000X0.225000X-0.250000X-0.225000X0*%
%ADD13RoundRect,0.150000X0.150000X-0.512500X0.150000X0.512500X-0.150000X0.512500X-0.150000X-0.512500X0*%
%ADD14R,1.676400X1.676400*%
%ADD15C,1.524000*%
%ADD16R,1.524000X1.524000*%
%ADD17RoundRect,0.200000X0.275000X-0.200000X0.275000X0.200000X-0.275000X0.200000X-0.275000X-0.200000X0*%
%ADD18RoundRect,0.250000X-0.650000X1.500000X-0.650000X-1.500000X0.650000X-1.500000X0.650000X1.500000X0*%
%ADD19RoundRect,0.200000X-0.200000X-0.275000X0.200000X-0.275000X0.200000X0.275000X-0.200000X0.275000X0*%
%ADD20RoundRect,0.225000X-0.250000X0.225000X-0.250000X-0.225000X0.250000X-0.225000X0.250000X0.225000X0*%
%ADD21RoundRect,0.225000X0.225000X0.250000X-0.225000X0.250000X-0.225000X-0.250000X0.225000X-0.250000X0*%
%ADD22RoundRect,0.250000X-0.250000X0.250000X-0.250000X-0.250000X0.250000X-0.250000X0.250000X0.250000X0*%
%ADD23RoundRect,0.375000X-1.625000X0.375000X-1.625000X-0.375000X1.625000X-0.375000X1.625000X0.375000X0*%
%ADD24RoundRect,0.381000X0.762000X0.381000X-0.762000X0.381000X-0.762000X-0.381000X0.762000X-0.381000X0*%
%ADD25RoundRect,0.042000X0.258000X-0.943000X0.258000X0.943000X-0.258000X0.943000X-0.258000X-0.943000X0*%
%ADD26RoundRect,0.101600X1.016000X1.016000X-1.016000X1.016000X-1.016000X-1.016000X1.016000X-1.016000X0*%
%ADD27C,2.235200*%
G04 APERTURE END LIST*
D10*
%TO.C,CONN1*%
X145710000Y-54850000D03*
X138090000Y-54850000D03*
D11*
X143805000Y-61200000D03*
X142535000Y-63740000D03*
X141265000Y-61200000D03*
X139995000Y-63740000D03*
%TD*%
D12*
%TO.C,C4*%
X144500000Y-73775000D03*
X144500000Y-72225000D03*
%TD*%
D13*
%TO.C,U3*%
X138550000Y-70637500D03*
X139500000Y-70637500D03*
X140450000Y-70637500D03*
X140450000Y-68362500D03*
X139500000Y-68362500D03*
X138550000Y-68362500D03*
%TD*%
D14*
%TO.C,CON1*%
X138065306Y-97058858D03*
D15*
X138065306Y-99598858D03*
X138065306Y-102138858D03*
X138065306Y-104678858D03*
X138065306Y-107218858D03*
X138065306Y-109758858D03*
X138065306Y-112298858D03*
X138065306Y-114838858D03*
X160925306Y-114838858D03*
X160925306Y-112298858D03*
X160925306Y-109758858D03*
X160925306Y-107218858D03*
X160925306Y-104678858D03*
X160925306Y-102138858D03*
X160925306Y-99598858D03*
D16*
X160925306Y-97058858D03*
%TD*%
D12*
%TO.C,C3*%
X136500000Y-70000000D03*
X136500000Y-68450000D03*
%TD*%
D17*
%TO.C,R2*%
X146000000Y-69825000D03*
X146000000Y-68175000D03*
%TD*%
D18*
%TO.C,D1*%
X158900000Y-61800000D03*
X158900000Y-66800000D03*
%TD*%
%TO.C,D2*%
X155400000Y-61800000D03*
X155400000Y-66800000D03*
%TD*%
D17*
%TO.C,R1*%
X146000000Y-73825000D03*
X146000000Y-72175000D03*
%TD*%
D19*
%TO.C,R3*%
X138075000Y-79400000D03*
X139725000Y-79400000D03*
%TD*%
D20*
%TO.C,C2*%
X144500000Y-68225000D03*
X144500000Y-69775000D03*
%TD*%
%TO.C,C1*%
X143000000Y-68225000D03*
X143000000Y-69775000D03*
%TD*%
D21*
%TO.C,C6*%
X138450000Y-66550000D03*
X136900000Y-66550000D03*
%TD*%
D22*
%TO.C,D3*%
X148000000Y-69750000D03*
X148000000Y-72250000D03*
%TD*%
D23*
%TO.C,L1*%
X139500000Y-72700000D03*
X139500000Y-76300000D03*
%TD*%
D12*
%TO.C,C5*%
X143000000Y-73775000D03*
X143000000Y-72225000D03*
%TD*%
D24*
%TO.C,U1*%
X158345762Y-121200000D03*
X158345762Y-118660000D03*
X158345762Y-116120000D03*
X158345762Y-113580000D03*
X158345762Y-111040000D03*
X158345762Y-108500000D03*
X158345762Y-105960000D03*
X158345762Y-103420000D03*
X158345762Y-100880000D03*
X158345762Y-98340000D03*
X158345762Y-95800000D03*
X158345762Y-93260000D03*
X140565762Y-121200000D03*
X140565762Y-118660000D03*
X140565762Y-116120000D03*
X140565762Y-113580000D03*
X140565762Y-111040000D03*
X140565762Y-108500000D03*
X140565762Y-105960000D03*
X140565762Y-103420000D03*
X140565762Y-100880000D03*
X140565762Y-98340000D03*
X140565762Y-95800000D03*
X140565762Y-93260000D03*
%TD*%
D25*
%TO.C,U5*%
X136895000Y-86620000D03*
X138165000Y-86620000D03*
X139435000Y-86620000D03*
X140705000Y-86620000D03*
X140705000Y-81670000D03*
X139435000Y-81670000D03*
X138165000Y-81670000D03*
X136895000Y-81670000D03*
%TD*%
D26*
%TO.C,J1*%
X158850000Y-54700000D03*
D27*
X155350000Y-54700000D03*
%TD*%
M02*
