%TF.GenerationSoftware,KiCad,Pcbnew,8.0.6*%
%TF.CreationDate,2024-10-28T22:07:04-04:00*%
%TF.ProjectId,VexQwiic,56657851-7769-4696-932e-6b696361645f,rev?*%
%TF.SameCoordinates,Original*%
%TF.FileFunction,Legend,Bot*%
%TF.FilePolarity,Positive*%
%FSLAX46Y46*%
G04 Gerber Fmt 4.6, Leading zero omitted, Abs format (unit mm)*
G04 Created by KiCad (PCBNEW 8.0.6) date 2024-10-28 22:07:04*
%MOMM*%
%LPD*%
G01*
G04 APERTURE LIST*
G04 Aperture macros list*
%AMRoundRect*
0 Rectangle with rounded corners*
0 $1 Rounding radius*
0 $2 $3 $4 $5 $6 $7 $8 $9 X,Y pos of 4 corners*
0 Add a 4 corners polygon primitive as box body*
4,1,4,$2,$3,$4,$5,$6,$7,$8,$9,$2,$3,0*
0 Add four circle primitives for the rounded corners*
1,1,$1+$1,$2,$3*
1,1,$1+$1,$4,$5*
1,1,$1+$1,$6,$7*
1,1,$1+$1,$8,$9*
0 Add four rect primitives between the rounded corners*
20,1,$1+$1,$2,$3,$4,$5,0*
20,1,$1+$1,$4,$5,$6,$7,0*
20,1,$1+$1,$6,$7,$8,$9,0*
20,1,$1+$1,$8,$9,$2,$3,0*%
G04 Aperture macros list end*
%ADD10C,0.000000*%
%ADD11C,3.200000*%
%ADD12C,1.300000*%
%ADD13R,1.676400X1.676400*%
%ADD14C,1.524000*%
%ADD15R,1.524000X1.524000*%
%ADD16RoundRect,0.101600X1.016000X1.016000X-1.016000X1.016000X-1.016000X-1.016000X1.016000X-1.016000X0*%
%ADD17C,2.235200*%
G04 APERTURE END LIST*
D10*
%TO.C,G\u002A\u002A\u002A*%
G36*
X148787500Y-100793750D02*
G01*
X148787500Y-100912500D01*
X147868750Y-100912500D01*
X146950000Y-100912500D01*
X146950000Y-100793750D01*
X146950000Y-100675000D01*
X147868750Y-100675000D01*
X148787500Y-100675000D01*
X148787500Y-100793750D01*
G37*
G36*
X158525000Y-108137500D02*
G01*
X158525000Y-109025000D01*
X154137500Y-109025000D01*
X149750000Y-109025000D01*
X149750000Y-108137500D01*
X149750000Y-107250000D01*
X154137500Y-107250000D01*
X158525000Y-107250000D01*
X158525000Y-108137500D01*
G37*
G36*
X148787500Y-103393750D02*
G01*
X148787500Y-104125000D01*
X148681250Y-104125000D01*
X148575000Y-104125000D01*
X148575000Y-103818750D01*
X148575000Y-103512500D01*
X147762500Y-103512500D01*
X146950000Y-103512500D01*
X146950000Y-103393750D01*
X146950000Y-103275000D01*
X147762500Y-103275000D01*
X148575000Y-103275000D01*
X148575000Y-102968750D01*
X148575000Y-102662500D01*
X148681250Y-102662500D01*
X148787500Y-102662500D01*
X148787500Y-103393750D01*
G37*
G36*
X158525000Y-102493750D02*
G01*
X158525000Y-106025000D01*
X157781250Y-106025000D01*
X157037500Y-106025000D01*
X157037500Y-104706250D01*
X157037500Y-103387500D01*
X153393750Y-103387500D01*
X149750000Y-103387500D01*
X149750000Y-102500022D01*
X149750000Y-101612543D01*
X153390625Y-101609397D01*
X157031250Y-101606250D01*
X157034433Y-100284375D01*
X157037615Y-98962500D01*
X157781308Y-98962500D01*
X158525000Y-98962500D01*
X158525000Y-102493750D01*
G37*
G36*
X147995721Y-105695472D02*
G01*
X148138203Y-105714817D01*
X148264507Y-105749082D01*
X148378181Y-105799684D01*
X148482775Y-105868039D01*
X148581837Y-105955561D01*
X148619340Y-105994931D01*
X148697921Y-106094788D01*
X148756505Y-106200218D01*
X148796548Y-106314977D01*
X148819506Y-106442819D01*
X148826836Y-106587500D01*
X148825678Y-106647852D01*
X148812248Y-106785322D01*
X148782606Y-106907460D01*
X148735293Y-107018022D01*
X148668856Y-107120764D01*
X148581837Y-107219440D01*
X148538991Y-107259949D01*
X148432714Y-107341063D01*
X148314999Y-107404221D01*
X148180543Y-107452500D01*
X148144419Y-107462301D01*
X148105684Y-107470499D01*
X148064347Y-107475977D01*
X148014810Y-107479251D01*
X147951477Y-107480837D01*
X147913292Y-107481028D01*
X147868750Y-107481250D01*
X147795249Y-107480942D01*
X147729784Y-107479532D01*
X147678820Y-107476499D01*
X147636759Y-107471327D01*
X147598004Y-107463500D01*
X147556958Y-107452500D01*
X147497639Y-107433675D01*
X147370919Y-107379471D01*
X147258694Y-107309085D01*
X147155664Y-107219440D01*
X147134379Y-107197534D01*
X147048006Y-107091558D01*
X146983534Y-106978446D01*
X146939042Y-106854212D01*
X146912612Y-106714873D01*
X146908577Y-106675239D01*
X146908113Y-106627208D01*
X147127060Y-106627208D01*
X147132874Y-106707627D01*
X147144782Y-106773693D01*
X147175524Y-106859908D01*
X147234068Y-106960872D01*
X147312202Y-107048704D01*
X147408134Y-107121817D01*
X147520071Y-107178623D01*
X147646218Y-107217536D01*
X147717513Y-107229029D01*
X147812707Y-107235947D01*
X147913292Y-107236283D01*
X148009430Y-107230043D01*
X148091283Y-107217234D01*
X148112049Y-107212309D01*
X148240411Y-107169373D01*
X148351204Y-107109421D01*
X148443643Y-107033398D01*
X148516944Y-106942249D01*
X148570322Y-106836919D01*
X148602992Y-106718355D01*
X148614169Y-106587500D01*
X148610795Y-106512030D01*
X148587960Y-106388054D01*
X148543878Y-106276862D01*
X148478908Y-106179068D01*
X148393406Y-106095287D01*
X148287729Y-106026131D01*
X148200183Y-105987738D01*
X148078672Y-105954559D01*
X147948041Y-105937339D01*
X147813887Y-105936066D01*
X147681805Y-105950729D01*
X147557391Y-105981317D01*
X147446238Y-106027819D01*
X147421659Y-106041651D01*
X147326956Y-106111636D01*
X147246939Y-106198564D01*
X147184907Y-106298295D01*
X147144162Y-106406688D01*
X147133781Y-106462892D01*
X147127357Y-106542331D01*
X147127060Y-106627208D01*
X146908113Y-106627208D01*
X146907159Y-106528394D01*
X146926388Y-106385420D01*
X146965159Y-106249524D01*
X147022368Y-106123913D01*
X147096909Y-106011794D01*
X147187677Y-105916376D01*
X147209854Y-105897612D01*
X147326005Y-105816919D01*
X147453610Y-105756331D01*
X147594029Y-105715429D01*
X147748623Y-105693793D01*
X147918750Y-105691004D01*
X147995721Y-105695472D01*
G37*
G36*
X147995721Y-112407972D02*
G01*
X148138203Y-112427317D01*
X148264507Y-112461582D01*
X148378181Y-112512184D01*
X148482775Y-112580539D01*
X148581837Y-112668061D01*
X148619340Y-112707431D01*
X148697921Y-112807288D01*
X148756505Y-112912718D01*
X148796548Y-113027477D01*
X148819506Y-113155319D01*
X148826836Y-113300000D01*
X148825678Y-113360352D01*
X148812248Y-113497822D01*
X148782606Y-113619960D01*
X148735293Y-113730522D01*
X148668856Y-113833264D01*
X148581837Y-113931940D01*
X148538991Y-113972449D01*
X148432714Y-114053563D01*
X148314999Y-114116721D01*
X148180543Y-114165000D01*
X148144419Y-114174801D01*
X148105684Y-114182999D01*
X148064347Y-114188477D01*
X148014810Y-114191751D01*
X147951477Y-114193337D01*
X147913292Y-114193528D01*
X147868750Y-114193750D01*
X147795249Y-114193442D01*
X147729784Y-114192032D01*
X147678820Y-114188999D01*
X147636759Y-114183827D01*
X147598004Y-114176000D01*
X147556958Y-114165000D01*
X147497639Y-114146175D01*
X147370919Y-114091971D01*
X147258694Y-114021585D01*
X147155664Y-113931940D01*
X147134379Y-113910034D01*
X147048006Y-113804058D01*
X146983534Y-113690946D01*
X146939042Y-113566712D01*
X146912612Y-113427373D01*
X146908577Y-113387739D01*
X146908113Y-113339708D01*
X147127060Y-113339708D01*
X147132874Y-113420127D01*
X147144782Y-113486193D01*
X147175524Y-113572408D01*
X147234068Y-113673372D01*
X147312202Y-113761204D01*
X147408134Y-113834317D01*
X147520071Y-113891123D01*
X147646218Y-113930036D01*
X147717513Y-113941529D01*
X147812707Y-113948447D01*
X147913292Y-113948783D01*
X148009430Y-113942543D01*
X148091283Y-113929734D01*
X148112049Y-113924809D01*
X148240411Y-113881873D01*
X148351204Y-113821921D01*
X148443643Y-113745898D01*
X148516944Y-113654749D01*
X148570322Y-113549419D01*
X148602992Y-113430855D01*
X148614169Y-113300000D01*
X148604008Y-113173176D01*
X148572273Y-113054013D01*
X148519710Y-112947980D01*
X148447082Y-112856036D01*
X148355150Y-112779140D01*
X148244677Y-112718250D01*
X148116425Y-112674324D01*
X148040998Y-112659709D01*
X147934942Y-112649907D01*
X147823140Y-112649075D01*
X147715287Y-112657214D01*
X147621076Y-112674324D01*
X147545827Y-112697529D01*
X147429964Y-112751241D01*
X147330287Y-112821737D01*
X147248374Y-112907542D01*
X147185806Y-113007184D01*
X147144162Y-113119188D01*
X147133781Y-113175392D01*
X147127357Y-113254831D01*
X147127060Y-113339708D01*
X146908113Y-113339708D01*
X146907159Y-113240894D01*
X146926388Y-113097920D01*
X146965159Y-112962024D01*
X147022368Y-112836413D01*
X147096909Y-112724294D01*
X147187677Y-112628876D01*
X147209854Y-112610112D01*
X147326005Y-112529419D01*
X147453610Y-112468831D01*
X147594029Y-112427929D01*
X147748623Y-112406293D01*
X147918750Y-112403504D01*
X147995721Y-112407972D01*
G37*
G36*
X147625000Y-97366898D02*
G01*
X147625000Y-97487024D01*
X147590625Y-97494234D01*
X147568266Y-97498978D01*
X147506489Y-97513129D01*
X147460105Y-97526143D01*
X147421953Y-97540226D01*
X147384875Y-97557581D01*
X147370959Y-97565013D01*
X147292603Y-97621749D01*
X147224579Y-97696310D01*
X147172432Y-97782818D01*
X147161475Y-97807323D01*
X147144049Y-97856618D01*
X147133748Y-97908570D01*
X147127987Y-97974312D01*
X147126470Y-98046408D01*
X147135002Y-98134113D01*
X147157807Y-98216447D01*
X147196988Y-98303435D01*
X147239994Y-98371932D01*
X147316533Y-98455100D01*
X147411455Y-98524949D01*
X147522202Y-98579690D01*
X147646218Y-98617536D01*
X147652165Y-98618813D01*
X147731151Y-98630261D01*
X147824207Y-98635987D01*
X147921894Y-98635969D01*
X148014770Y-98630183D01*
X148093392Y-98618608D01*
X148168921Y-98598577D01*
X148283643Y-98550854D01*
X148384797Y-98486570D01*
X148470242Y-98407847D01*
X148537834Y-98316805D01*
X148585430Y-98215565D01*
X148610889Y-98106250D01*
X148616047Y-98043486D01*
X148610848Y-97923811D01*
X148585359Y-97815593D01*
X148540408Y-97720356D01*
X148476821Y-97639626D01*
X148395427Y-97574927D01*
X148297053Y-97527784D01*
X148237500Y-97506633D01*
X148237500Y-97390817D01*
X148237502Y-97385062D01*
X148237880Y-97332826D01*
X148239732Y-97300449D01*
X148244208Y-97283210D01*
X148252456Y-97276389D01*
X148265625Y-97275264D01*
X148273909Y-97275825D01*
X148314097Y-97284508D01*
X148366537Y-97301465D01*
X148423711Y-97323826D01*
X148478105Y-97348719D01*
X148522202Y-97373274D01*
X148609826Y-97441700D01*
X148691273Y-97534540D01*
X148755331Y-97643393D01*
X148800284Y-97765835D01*
X148806553Y-97791641D01*
X148820306Y-97878214D01*
X148827338Y-97975332D01*
X148827529Y-98074376D01*
X148820760Y-98166723D01*
X148806910Y-98243750D01*
X148796424Y-98280209D01*
X148746176Y-98404961D01*
X148677766Y-98519604D01*
X148594662Y-98618025D01*
X148556215Y-98654116D01*
X148443521Y-98739916D01*
X148320227Y-98805486D01*
X148184533Y-98851495D01*
X148034641Y-98878610D01*
X147868750Y-98887500D01*
X147855690Y-98887449D01*
X147688110Y-98876539D01*
X147535669Y-98846325D01*
X147397175Y-98796384D01*
X147271434Y-98726295D01*
X147157254Y-98635634D01*
X147156422Y-98634859D01*
X147079196Y-98548630D01*
X147011987Y-98445819D01*
X146959106Y-98334116D01*
X146924866Y-98221211D01*
X146923701Y-98214560D01*
X146920228Y-98176993D01*
X146917946Y-98122459D01*
X146917048Y-98057209D01*
X146917725Y-97987500D01*
X146918393Y-97962423D01*
X146924758Y-97858586D01*
X146937617Y-97772131D01*
X146958527Y-97697140D01*
X146989046Y-97627689D01*
X147030730Y-97557859D01*
X147042689Y-97540637D01*
X147117859Y-97456162D01*
X147211075Y-97382543D01*
X147317460Y-97322621D01*
X147432136Y-97279237D01*
X147550228Y-97255231D01*
X147625000Y-97246771D01*
X147625000Y-97366898D01*
G37*
G36*
X146990218Y-115911550D02*
G01*
X146992828Y-115913030D01*
X147029247Y-115929203D01*
X147077343Y-115942869D01*
X147140447Y-115954663D01*
X147221889Y-115965215D01*
X147325000Y-115975160D01*
X147384490Y-115980831D01*
X147491680Y-115995284D01*
X147578524Y-116014299D01*
X147648066Y-116039109D01*
X147703349Y-116070945D01*
X147747418Y-116111040D01*
X147783316Y-116160624D01*
X147822882Y-116226599D01*
X147856034Y-116160175D01*
X147902671Y-116085061D01*
X147969787Y-116017681D01*
X148054674Y-115966761D01*
X148061790Y-115963507D01*
X148096473Y-115948992D01*
X148128132Y-115939646D01*
X148163770Y-115934344D01*
X148210392Y-115931962D01*
X148275000Y-115931374D01*
X148305119Y-115931407D01*
X148360138Y-115932371D01*
X148400303Y-115935574D01*
X148432697Y-115942247D01*
X148464405Y-115953622D01*
X148502509Y-115970930D01*
X148539893Y-115990724D01*
X148615282Y-116043878D01*
X148678906Y-116106779D01*
X148724199Y-116173429D01*
X148733306Y-116191706D01*
X148746999Y-116222226D01*
X148758182Y-116253453D01*
X148767108Y-116288087D01*
X148774028Y-116328827D01*
X148779192Y-116378371D01*
X148782854Y-116439419D01*
X148785264Y-116514669D01*
X148786674Y-116606821D01*
X148787336Y-116718574D01*
X148787500Y-116852627D01*
X148787500Y-117337500D01*
X148242268Y-117337500D01*
X147868750Y-117337500D01*
X146950000Y-117337500D01*
X146950000Y-117212500D01*
X146950000Y-117087500D01*
X147332007Y-117087500D01*
X147714014Y-117087500D01*
X147909536Y-117087500D01*
X148242268Y-117087500D01*
X148575000Y-117087500D01*
X148575000Y-116764769D01*
X148574953Y-116723646D01*
X148574117Y-116616231D01*
X148571891Y-116529674D01*
X148567830Y-116460879D01*
X148561487Y-116406754D01*
X148552416Y-116364202D01*
X148540170Y-116330130D01*
X148524304Y-116301442D01*
X148504370Y-116275045D01*
X148502808Y-116273202D01*
X148457664Y-116230487D01*
X148405095Y-116202351D01*
X148339743Y-116186777D01*
X148256250Y-116181753D01*
X148223052Y-116181938D01*
X148169481Y-116184876D01*
X148130719Y-116192076D01*
X148100000Y-116204525D01*
X148053796Y-116233917D01*
X147991209Y-116296399D01*
X147948016Y-116374357D01*
X147941026Y-116393579D01*
X147934159Y-116417541D01*
X147928847Y-116445359D01*
X147924797Y-116480557D01*
X147921713Y-116526659D01*
X147919301Y-116587188D01*
X147917266Y-116665669D01*
X147915314Y-116765625D01*
X147909536Y-117087500D01*
X147714014Y-117087500D01*
X147710132Y-116759375D01*
X147709219Y-116684441D01*
X147707984Y-116601539D01*
X147706485Y-116537903D01*
X147704419Y-116490227D01*
X147701484Y-116455202D01*
X147697378Y-116429523D01*
X147691797Y-116409882D01*
X147684438Y-116392972D01*
X147675000Y-116375484D01*
X147646667Y-116333078D01*
X147612151Y-116298929D01*
X147568345Y-116271910D01*
X147512112Y-116250847D01*
X147440317Y-116234565D01*
X147349825Y-116221890D01*
X147237500Y-116211649D01*
X147204449Y-116208992D01*
X147135554Y-116202489D01*
X147074772Y-116195506D01*
X147027717Y-116188726D01*
X147000000Y-116182829D01*
X146956250Y-116168687D01*
X146952718Y-116028275D01*
X146949185Y-115887863D01*
X146990218Y-115911550D01*
G37*
G36*
X147552086Y-109196592D02*
G01*
X147624544Y-109207435D01*
X147684448Y-109228495D01*
X147737891Y-109261972D01*
X147790966Y-109310065D01*
X147792465Y-109311609D01*
X147825076Y-109350084D01*
X147857361Y-109395859D01*
X147885344Y-109442354D01*
X147905049Y-109482991D01*
X147912500Y-109511191D01*
X147914490Y-109522910D01*
X147924638Y-109521905D01*
X147942595Y-109499174D01*
X147967478Y-109455609D01*
X148010604Y-109388516D01*
X148072364Y-109328832D01*
X148147642Y-109288837D01*
X148237885Y-109267798D01*
X148344540Y-109264984D01*
X148441301Y-109278888D01*
X148538018Y-109314439D01*
X148620741Y-109370090D01*
X148688333Y-109444825D01*
X148739655Y-109537631D01*
X148773568Y-109647491D01*
X148777639Y-109680503D01*
X148781071Y-109736882D01*
X148783817Y-109814973D01*
X148785834Y-109913137D01*
X148787076Y-110029731D01*
X148787500Y-110163116D01*
X148787500Y-110612500D01*
X148287500Y-110612500D01*
X147868750Y-110612500D01*
X147481279Y-110612500D01*
X146950000Y-110612500D01*
X146950000Y-110362500D01*
X147160440Y-110362500D01*
X147481279Y-110362500D01*
X147802117Y-110362500D01*
X148000000Y-110362500D01*
X148287500Y-110362500D01*
X148575000Y-110362500D01*
X148575000Y-110051572D01*
X148574975Y-110017320D01*
X148574390Y-109916833D01*
X148572669Y-109836970D01*
X148569343Y-109774361D01*
X148563939Y-109725635D01*
X148555985Y-109687421D01*
X148545010Y-109656348D01*
X148530542Y-109629046D01*
X148512109Y-109602145D01*
X148488101Y-109575190D01*
X148430380Y-109535846D01*
X148362003Y-109512965D01*
X148288476Y-109506713D01*
X148215310Y-109517259D01*
X148148011Y-109544769D01*
X148092088Y-109589409D01*
X148060267Y-109632050D01*
X148031950Y-109695356D01*
X148013137Y-109776457D01*
X148012958Y-109777583D01*
X148008922Y-109816220D01*
X148005404Y-109874172D01*
X148002617Y-109945984D01*
X148000777Y-110026203D01*
X148000095Y-110109375D01*
X148000000Y-110362500D01*
X147802117Y-110362500D01*
X147797611Y-110028125D01*
X147796919Y-109979417D01*
X147795260Y-109886093D01*
X147793284Y-109813186D01*
X147790774Y-109757520D01*
X147787508Y-109715920D01*
X147783266Y-109685208D01*
X147777828Y-109662210D01*
X147770974Y-109643750D01*
X147745546Y-109592998D01*
X147694649Y-109522861D01*
X147633516Y-109474502D01*
X147560114Y-109446517D01*
X147472410Y-109437500D01*
X147438684Y-109438605D01*
X147356416Y-109453777D01*
X147289337Y-109487952D01*
X147235085Y-109542658D01*
X147191297Y-109619423D01*
X147187065Y-109629937D01*
X147181229Y-109650263D01*
X147176626Y-109677023D01*
X147173049Y-109713310D01*
X147170292Y-109762219D01*
X147168149Y-109826846D01*
X147166414Y-109910283D01*
X147164881Y-110015625D01*
X147160440Y-110362500D01*
X146950000Y-110362500D01*
X146950000Y-110133877D01*
X146950072Y-110039579D01*
X146950566Y-109921272D01*
X146951776Y-109823373D01*
X146953984Y-109743156D01*
X146957471Y-109677898D01*
X146962522Y-109624873D01*
X146969417Y-109581358D01*
X146978440Y-109544629D01*
X146989872Y-109511961D01*
X147003996Y-109480629D01*
X147021094Y-109447910D01*
X147026645Y-109438039D01*
X147086654Y-109356405D01*
X147163483Y-109285597D01*
X147250000Y-109232333D01*
X147258099Y-109228508D01*
X147294569Y-109212521D01*
X147326481Y-109202354D01*
X147361224Y-109196706D01*
X147406185Y-109194272D01*
X147468750Y-109193750D01*
X147552086Y-109196592D01*
G37*
G36*
X147512205Y-94132013D02*
G01*
X147613845Y-94151854D01*
X147707065Y-94189913D01*
X147786968Y-94245646D01*
X147820459Y-94278112D01*
X147857326Y-94321883D01*
X147889749Y-94371981D01*
X147919022Y-94431479D01*
X147946437Y-94503455D01*
X147973287Y-94590983D01*
X148000865Y-94697140D01*
X148030462Y-94825000D01*
X148036699Y-94852587D01*
X148067427Y-94973505D01*
X148099163Y-95071633D01*
X148133031Y-95148808D01*
X148170156Y-95206863D01*
X148211663Y-95247633D01*
X148258678Y-95272953D01*
X148312325Y-95284659D01*
X148360092Y-95287269D01*
X148419857Y-95280822D01*
X148469772Y-95259598D01*
X148517513Y-95221222D01*
X148538104Y-95199753D01*
X148580050Y-95140800D01*
X148608162Y-95072091D01*
X148623934Y-94989150D01*
X148628859Y-94887500D01*
X148626845Y-94817607D01*
X148615893Y-94732982D01*
X148593676Y-94662622D01*
X148558237Y-94600949D01*
X148507615Y-94542386D01*
X148452503Y-94496866D01*
X148388956Y-94459509D01*
X148324930Y-94434270D01*
X148268282Y-94425000D01*
X148263004Y-94424964D01*
X148250631Y-94423035D01*
X148243090Y-94414751D01*
X148239187Y-94395449D01*
X148237723Y-94360470D01*
X148237500Y-94305152D01*
X148237500Y-94185303D01*
X148290625Y-94194169D01*
X148329027Y-94202557D01*
X148391478Y-94221073D01*
X148457337Y-94244692D01*
X148517310Y-94270009D01*
X148562105Y-94293621D01*
X148611612Y-94329688D01*
X148687158Y-94408462D01*
X148746782Y-94505268D01*
X148789950Y-94618891D01*
X148816129Y-94748116D01*
X148824783Y-94891725D01*
X148818801Y-95003304D01*
X148796143Y-95128475D01*
X148757671Y-95238631D01*
X148704516Y-95332527D01*
X148637808Y-95408920D01*
X148558681Y-95466567D01*
X148468263Y-95504224D01*
X148367689Y-95520646D01*
X148258087Y-95514592D01*
X148223849Y-95508527D01*
X148153056Y-95488480D01*
X148092309Y-95457198D01*
X148031285Y-95409919D01*
X148008301Y-95387695D01*
X147972508Y-95343042D01*
X147939539Y-95287126D01*
X147908239Y-95217234D01*
X147877456Y-95130653D01*
X147846033Y-95024672D01*
X147812817Y-94896577D01*
X147802584Y-94855248D01*
X147778740Y-94761585D01*
X147758444Y-94687328D01*
X147740406Y-94628840D01*
X147723335Y-94582481D01*
X147705941Y-94544611D01*
X147686934Y-94511592D01*
X147665024Y-94479784D01*
X147657192Y-94469702D01*
X147601384Y-94419963D01*
X147533358Y-94388023D01*
X147458067Y-94374274D01*
X147380469Y-94379106D01*
X147305517Y-94402911D01*
X147238168Y-94446079D01*
X147195754Y-94492164D01*
X147153392Y-94566682D01*
X147124091Y-94655392D01*
X147108471Y-94753963D01*
X147107149Y-94858063D01*
X147120741Y-94963360D01*
X147149866Y-95065523D01*
X147163343Y-95097773D01*
X147217038Y-95185048D01*
X147289010Y-95256121D01*
X147377623Y-95309613D01*
X147481239Y-95344150D01*
X147575000Y-95365010D01*
X147575000Y-95483946D01*
X147575000Y-95602881D01*
X147505218Y-95594162D01*
X147426730Y-95579894D01*
X147306940Y-95538938D01*
X147199697Y-95477600D01*
X147106787Y-95397538D01*
X147029996Y-95300411D01*
X146971109Y-95187879D01*
X146931913Y-95061600D01*
X146922689Y-95005717D01*
X146915340Y-94919015D01*
X146913164Y-94824015D01*
X146916079Y-94728923D01*
X146924002Y-94641946D01*
X146936851Y-94571289D01*
X146948104Y-94530991D01*
X146993935Y-94413762D01*
X147054089Y-94316189D01*
X147128188Y-94238799D01*
X147215854Y-94182120D01*
X147303237Y-94149162D01*
X147407037Y-94130934D01*
X147512205Y-94132013D01*
G37*
G36*
X149829574Y-110381838D02*
G01*
X149854621Y-110405518D01*
X149855443Y-110406762D01*
X149892588Y-110448550D01*
X149946222Y-110486457D01*
X150017280Y-110520689D01*
X150106699Y-110551452D01*
X150215416Y-110578951D01*
X150344368Y-110603392D01*
X150494490Y-110624979D01*
X150666721Y-110643920D01*
X150861995Y-110660418D01*
X151081250Y-110674680D01*
X151254107Y-110684802D01*
X151476337Y-110698793D01*
X151676700Y-110712782D01*
X151857022Y-110727028D01*
X152019129Y-110741789D01*
X152164848Y-110757323D01*
X152296005Y-110773890D01*
X152414426Y-110791746D01*
X152521937Y-110811150D01*
X152620365Y-110832362D01*
X152711536Y-110855639D01*
X152797277Y-110881239D01*
X152879413Y-110909422D01*
X152959771Y-110940444D01*
X152986600Y-110951485D01*
X153097096Y-111001124D01*
X153191666Y-111052349D01*
X153277483Y-111109856D01*
X153361717Y-111178341D01*
X153451540Y-111262500D01*
X153529563Y-111343785D01*
X153642011Y-111481945D01*
X153737260Y-111629756D01*
X153818128Y-111791807D01*
X153887432Y-111972688D01*
X153891408Y-111984363D01*
X153912315Y-112039123D01*
X153929453Y-112070952D01*
X153943547Y-112081250D01*
X153946267Y-112080690D01*
X153958347Y-112067988D01*
X153974008Y-112037047D01*
X153994146Y-111985880D01*
X154019658Y-111912500D01*
X154075684Y-111759176D01*
X154165210Y-111560286D01*
X154268041Y-111380156D01*
X154385421Y-111216678D01*
X154518597Y-111067743D01*
X154573006Y-111015278D01*
X154735820Y-110881762D01*
X154914802Y-110766985D01*
X155109395Y-110671197D01*
X155319039Y-110594649D01*
X155543177Y-110537592D01*
X155781250Y-110500277D01*
X155794382Y-110498863D01*
X155931292Y-110489387D01*
X156081029Y-110487244D01*
X156236149Y-110492057D01*
X156389207Y-110503453D01*
X156532758Y-110521056D01*
X156659356Y-110544492D01*
X156666767Y-110546191D01*
X156831293Y-110592481D01*
X157002178Y-110655428D01*
X157171619Y-110731543D01*
X157331812Y-110817334D01*
X157474954Y-110909312D01*
X157524211Y-110945964D01*
X157642051Y-111045317D01*
X157760417Y-111159948D01*
X157873866Y-111284056D01*
X157976957Y-111411840D01*
X158064248Y-111537500D01*
X158150137Y-111684883D01*
X158247818Y-111884833D01*
X158332950Y-112097223D01*
X158403096Y-112315843D01*
X158455816Y-112534486D01*
X158464082Y-112575867D01*
X158471839Y-112615254D01*
X158478908Y-112652808D01*
X158485321Y-112689749D01*
X158491110Y-112727296D01*
X158496308Y-112766668D01*
X158500945Y-112809087D01*
X158505053Y-112855770D01*
X158508666Y-112907939D01*
X158511814Y-112966812D01*
X158514530Y-113033609D01*
X158516845Y-113109551D01*
X158518791Y-113195856D01*
X158520401Y-113293744D01*
X158521706Y-113404436D01*
X158522738Y-113529151D01*
X158523529Y-113669107D01*
X158524111Y-113825527D01*
X158524516Y-113999627D01*
X158524775Y-114192630D01*
X158524922Y-114405754D01*
X158524987Y-114640218D01*
X158525002Y-114897243D01*
X158525000Y-115178049D01*
X158525000Y-117337500D01*
X154648635Y-117337500D01*
X154137500Y-117337500D01*
X149750000Y-117337500D01*
X149750000Y-116450000D01*
X149750000Y-115562624D01*
X154648635Y-115562624D01*
X155871193Y-115559437D01*
X157093750Y-115556250D01*
X157093466Y-114475000D01*
X157093425Y-114343167D01*
X157093331Y-114169606D01*
X157093161Y-114018058D01*
X157092875Y-113886747D01*
X157092434Y-113773898D01*
X157091799Y-113677733D01*
X157090928Y-113596477D01*
X157089784Y-113528354D01*
X157088326Y-113471588D01*
X157086514Y-113424402D01*
X157084310Y-113385020D01*
X157081674Y-113351667D01*
X157078565Y-113322566D01*
X157074945Y-113295941D01*
X157070774Y-113270016D01*
X157066013Y-113243016D01*
X157049833Y-113162472D01*
X157002549Y-112991802D01*
X156940879Y-112840664D01*
X156864410Y-112708140D01*
X156772726Y-112593308D01*
X156767615Y-112587877D01*
X156642615Y-112473150D01*
X156504776Y-112379639D01*
X156353738Y-112307169D01*
X156189137Y-112255565D01*
X156010611Y-112224652D01*
X155890731Y-112216335D01*
X155714777Y-112222989D01*
X155546072Y-112252346D01*
X155386204Y-112303974D01*
X155236760Y-112377442D01*
X155099329Y-112472319D01*
X155025239Y-112537730D01*
X154927900Y-112646540D01*
X154845645Y-112770304D01*
X154777466Y-112910890D01*
X154722355Y-113070167D01*
X154679301Y-113250000D01*
X154675724Y-113270441D01*
X154672452Y-113294914D01*
X154669571Y-113324464D01*
X154667045Y-113360751D01*
X154664839Y-113405437D01*
X154662918Y-113460180D01*
X154661246Y-113526641D01*
X154659789Y-113606481D01*
X154658510Y-113701359D01*
X154657375Y-113812936D01*
X154656348Y-113942872D01*
X154655394Y-114092827D01*
X154654477Y-114264462D01*
X154653562Y-114459437D01*
X154648635Y-115562624D01*
X149750000Y-115562624D01*
X149750000Y-115562500D01*
X151512500Y-115562500D01*
X153275000Y-115562500D01*
X153275000Y-114764671D01*
X153275000Y-114750040D01*
X153274764Y-114557038D01*
X153273997Y-114386766D01*
X153272528Y-114237106D01*
X153270189Y-114105942D01*
X153266810Y-113991156D01*
X153262223Y-113890630D01*
X153256259Y-113802248D01*
X153248748Y-113723893D01*
X153239523Y-113653446D01*
X153228413Y-113588791D01*
X153215250Y-113527811D01*
X153199864Y-113468388D01*
X153182088Y-113408405D01*
X153161751Y-113345745D01*
X153109945Y-113213538D01*
X153025875Y-113057009D01*
X152922659Y-112916134D01*
X152800763Y-112791265D01*
X152660652Y-112682751D01*
X152502794Y-112590942D01*
X152327654Y-112516188D01*
X152135699Y-112458839D01*
X151927394Y-112419245D01*
X151894075Y-112415121D01*
X151832802Y-112408755D01*
X151753667Y-112401395D01*
X151660619Y-112393379D01*
X151557609Y-112385043D01*
X151448586Y-112376728D01*
X151337500Y-112368769D01*
X151159551Y-112356144D01*
X150948170Y-112340124D01*
X150759379Y-112324471D01*
X150591819Y-112309001D01*
X150444131Y-112293534D01*
X150314956Y-112277887D01*
X150202935Y-112261879D01*
X150106708Y-112245327D01*
X150024916Y-112228049D01*
X149956199Y-112209864D01*
X149899199Y-112190590D01*
X149852556Y-112170045D01*
X149836598Y-112162378D01*
X149819084Y-112154291D01*
X149804089Y-112146203D01*
X149791421Y-112136328D01*
X149780883Y-112122879D01*
X149772282Y-112104072D01*
X149765423Y-112078121D01*
X149760112Y-112043240D01*
X149756154Y-111997645D01*
X149753354Y-111939548D01*
X149751519Y-111867166D01*
X149750454Y-111778712D01*
X149749964Y-111672401D01*
X149749855Y-111546447D01*
X149749932Y-111399065D01*
X149750000Y-111228469D01*
X149750000Y-110375000D01*
X149792313Y-110375000D01*
X149829574Y-110381838D01*
G37*
G36*
X156300438Y-94837500D02*
G01*
X156346838Y-94908371D01*
X156423298Y-95024890D01*
X156495140Y-95134049D01*
X156561235Y-95234149D01*
X156620455Y-95323492D01*
X156671669Y-95400381D01*
X156713750Y-95463117D01*
X156745567Y-95510002D01*
X156765992Y-95539339D01*
X156773896Y-95549430D01*
X156775631Y-95547553D01*
X156788937Y-95528960D01*
X156814243Y-95491871D01*
X156850400Y-95438017D01*
X156896261Y-95369130D01*
X156950678Y-95286944D01*
X157012503Y-95193189D01*
X157080588Y-95089597D01*
X157153785Y-94977901D01*
X157230946Y-94859832D01*
X157261458Y-94813095D01*
X157337769Y-94696327D01*
X157409952Y-94586047D01*
X157476815Y-94484064D01*
X157537171Y-94392185D01*
X157589829Y-94312217D01*
X157633600Y-94245968D01*
X157667295Y-94195245D01*
X157689723Y-94161854D01*
X157699696Y-94147605D01*
X157703307Y-94143679D01*
X157711120Y-94138267D01*
X157723509Y-94134027D01*
X157743025Y-94130849D01*
X157772222Y-94128621D01*
X157813653Y-94127231D01*
X157869871Y-94126569D01*
X157943428Y-94126521D01*
X158036879Y-94126978D01*
X158152774Y-94127828D01*
X158586798Y-94131250D01*
X157900364Y-95180475D01*
X157839704Y-95273294D01*
X157746551Y-95416232D01*
X157658080Y-95552468D01*
X157575196Y-95680584D01*
X157498804Y-95799162D01*
X157429811Y-95906783D01*
X157369123Y-96002028D01*
X157317644Y-96083480D01*
X157276281Y-96149719D01*
X157245939Y-96199326D01*
X157227525Y-96230885D01*
X157221944Y-96242975D01*
X157222563Y-96243955D01*
X157233406Y-96260661D01*
X157256765Y-96296474D01*
X157291676Y-96349919D01*
X157337176Y-96419524D01*
X157392301Y-96503817D01*
X157456089Y-96601323D01*
X157527574Y-96710572D01*
X157605795Y-96830088D01*
X157689786Y-96958401D01*
X157778586Y-97094036D01*
X157871229Y-97235521D01*
X157893651Y-97269763D01*
X157985245Y-97409713D01*
X158072618Y-97543317D01*
X158154821Y-97669117D01*
X158230906Y-97785659D01*
X158299923Y-97891486D01*
X158360925Y-97985142D01*
X158412963Y-98065171D01*
X158455088Y-98130117D01*
X158486351Y-98178524D01*
X158505805Y-98208936D01*
X158512500Y-98219896D01*
X158502753Y-98220961D01*
X158470666Y-98222052D01*
X158418931Y-98223012D01*
X158350366Y-98223810D01*
X158267789Y-98224413D01*
X158174020Y-98224790D01*
X158071875Y-98224908D01*
X157631250Y-98224815D01*
X157201403Y-97568658D01*
X157185866Y-97544944D01*
X157111213Y-97431069D01*
X157040926Y-97323970D01*
X156976170Y-97225413D01*
X156918111Y-97137169D01*
X156867914Y-97061003D01*
X156826743Y-96998686D01*
X156795765Y-96951984D01*
X156776143Y-96922666D01*
X156769043Y-96912500D01*
X156768680Y-96912918D01*
X156758993Y-96927068D01*
X156737035Y-96960028D01*
X156703970Y-97010027D01*
X156660962Y-97075296D01*
X156609174Y-97154065D01*
X156549770Y-97244565D01*
X156483914Y-97345025D01*
X156412770Y-97453677D01*
X156337500Y-97568750D01*
X155908471Y-98225000D01*
X155489756Y-98225000D01*
X154319398Y-98225000D01*
X152730325Y-98225000D01*
X152213659Y-96790625D01*
X152160238Y-96642368D01*
X152096433Y-96465426D01*
X152035303Y-96296049D01*
X151977373Y-96135686D01*
X151923171Y-95985789D01*
X151873221Y-95847809D01*
X151828049Y-95723197D01*
X151788183Y-95613403D01*
X151754148Y-95519879D01*
X151726470Y-95444076D01*
X151705675Y-95387445D01*
X151692289Y-95351436D01*
X151686838Y-95337500D01*
X151685759Y-95335529D01*
X151676926Y-95325022D01*
X151669740Y-95337500D01*
X151667942Y-95342523D01*
X151658522Y-95369063D01*
X151641591Y-95416860D01*
X151617673Y-95484431D01*
X151587294Y-95570290D01*
X151550978Y-95672956D01*
X151509250Y-95790942D01*
X151462636Y-95922766D01*
X151411659Y-96066942D01*
X151356844Y-96221988D01*
X151298717Y-96386419D01*
X151237802Y-96558751D01*
X151174625Y-96737500D01*
X151141132Y-96832258D01*
X151078686Y-97008888D01*
X151018593Y-97178811D01*
X150961396Y-97340494D01*
X150907637Y-97492405D01*
X150857859Y-97633010D01*
X150812606Y-97760775D01*
X150772422Y-97874168D01*
X150737848Y-97971655D01*
X150709429Y-98051702D01*
X150687707Y-98112777D01*
X150673226Y-98153346D01*
X150666528Y-98171875D01*
X150646604Y-98225000D01*
X150248302Y-98225000D01*
X150193195Y-98224910D01*
X150100709Y-98224329D01*
X150018423Y-98223268D01*
X149949297Y-98221798D01*
X149896292Y-98219987D01*
X149862367Y-98217907D01*
X149850481Y-98215625D01*
X149850802Y-98214485D01*
X149857154Y-98195697D01*
X149871318Y-98154881D01*
X149892866Y-98093243D01*
X149921373Y-98011989D01*
X149956414Y-97912327D01*
X149997562Y-97795464D01*
X150044393Y-97662605D01*
X150096480Y-97514959D01*
X150153398Y-97353732D01*
X150214720Y-97180131D01*
X150280022Y-96995362D01*
X150348877Y-96800633D01*
X150420860Y-96597150D01*
X150495546Y-96386120D01*
X150572507Y-96168750D01*
X151294053Y-94131250D01*
X151673971Y-94131250D01*
X152053888Y-94131250D01*
X152642850Y-95764864D01*
X152691025Y-95898434D01*
X152759594Y-96088360D01*
X152825582Y-96270915D01*
X152888498Y-96444754D01*
X152947852Y-96608530D01*
X153003155Y-96760897D01*
X153053916Y-96900509D01*
X153099645Y-97026019D01*
X153139853Y-97136082D01*
X153174048Y-97229352D01*
X153201741Y-97304482D01*
X153222442Y-97360126D01*
X153235660Y-97394938D01*
X153240906Y-97407573D01*
X153241287Y-97406516D01*
X153242383Y-97387201D01*
X153243438Y-97344826D01*
X153244443Y-97280839D01*
X153245390Y-97196689D01*
X153246272Y-97093823D01*
X153247080Y-96973688D01*
X153247807Y-96837732D01*
X153248443Y-96687403D01*
X153248983Y-96524149D01*
X153249416Y-96349417D01*
X153249735Y-96164656D01*
X153249933Y-95971312D01*
X153250000Y-95770834D01*
X153250000Y-95431250D01*
X154025000Y-95431250D01*
X154025000Y-95975000D01*
X154756250Y-95975000D01*
X155487500Y-95975000D01*
X155487500Y-96343750D01*
X155487500Y-96712500D01*
X154756250Y-96712500D01*
X154025000Y-96712500D01*
X154025000Y-97087500D01*
X154025000Y-97462500D01*
X154755381Y-97462500D01*
X154766970Y-97462501D01*
X154918615Y-97462520D01*
X155047292Y-97462620D01*
X155154898Y-97462865D01*
X155243334Y-97463320D01*
X155314496Y-97464050D01*
X155370283Y-97465119D01*
X155412594Y-97466592D01*
X155443327Y-97468534D01*
X155464379Y-97471010D01*
X155477650Y-97474084D01*
X155485038Y-97477820D01*
X155488440Y-97482285D01*
X155489756Y-97487542D01*
X155496409Y-97484346D01*
X155515960Y-97460860D01*
X155548424Y-97416611D01*
X155593852Y-97351524D01*
X155652297Y-97265523D01*
X155723811Y-97158532D01*
X155808444Y-97030476D01*
X155906250Y-96881280D01*
X155906861Y-96880346D01*
X155980646Y-96767134D01*
X156050148Y-96659939D01*
X156114187Y-96560622D01*
X156171580Y-96471040D01*
X156221147Y-96393053D01*
X156261705Y-96328520D01*
X156292073Y-96279299D01*
X156311069Y-96247249D01*
X156317513Y-96234230D01*
X156317024Y-96232866D01*
X156306840Y-96214946D01*
X156284355Y-96178409D01*
X156250730Y-96125062D01*
X156207126Y-96056711D01*
X156154702Y-95975162D01*
X156094619Y-95882221D01*
X156028036Y-95779694D01*
X155956114Y-95669388D01*
X155880013Y-95553108D01*
X155443750Y-94887732D01*
X154734375Y-94887616D01*
X154025000Y-94887500D01*
X154025000Y-95431250D01*
X153250000Y-95431250D01*
X153250000Y-94125000D01*
X154542168Y-94125000D01*
X155834336Y-94125000D01*
X156300438Y-94837500D01*
G37*
G36*
X145743462Y-112927666D02*
G01*
X145773403Y-112944493D01*
X145804846Y-112977803D01*
X145834231Y-113022617D01*
X145857999Y-113073954D01*
X145872590Y-113126835D01*
X145876498Y-113148316D01*
X145884881Y-113171494D01*
X145901677Y-113181322D01*
X145934658Y-113185094D01*
X145987500Y-113188938D01*
X145987500Y-113656648D01*
X145987500Y-114124358D01*
X145946875Y-114145160D01*
X145941220Y-114148526D01*
X145915941Y-114167902D01*
X145880747Y-114198571D01*
X145839188Y-114237016D01*
X145794814Y-114279723D01*
X145751177Y-114323177D01*
X145711825Y-114363862D01*
X145680309Y-114398264D01*
X145660180Y-114422866D01*
X145654989Y-114434155D01*
X145667849Y-114435499D01*
X145698747Y-114432493D01*
X145740244Y-114425537D01*
X145758984Y-114421658D01*
X145795069Y-114411428D01*
X145825535Y-114396204D01*
X145857979Y-114371595D01*
X145900000Y-114333210D01*
X145981250Y-114256250D01*
X145984519Y-114761315D01*
X145984781Y-114803786D01*
X145985321Y-114910837D01*
X145985646Y-115008837D01*
X145985758Y-115095128D01*
X145985659Y-115167054D01*
X145985352Y-115221954D01*
X145984838Y-115257172D01*
X145984119Y-115270049D01*
X145982756Y-115270558D01*
X145963829Y-115272636D01*
X145927787Y-115274692D01*
X145880850Y-115276348D01*
X145869578Y-115276719D01*
X145821984Y-115279939D01*
X145784921Y-115285013D01*
X145765625Y-115291020D01*
X145763124Y-115293902D01*
X145757105Y-115313234D01*
X145753035Y-115350519D01*
X145750728Y-115408094D01*
X145750000Y-115488293D01*
X145750159Y-115546893D01*
X145751422Y-115606358D01*
X145754885Y-115647089D01*
X145761636Y-115672677D01*
X145772763Y-115686712D01*
X145789355Y-115692784D01*
X145812500Y-115694484D01*
X145829860Y-115694977D01*
X145869856Y-115696197D01*
X145915625Y-115697656D01*
X145987500Y-115700000D01*
X145987500Y-116192686D01*
X145987500Y-116685371D01*
X145928125Y-116728616D01*
X145879354Y-116761647D01*
X145769919Y-116820006D01*
X145646280Y-116865911D01*
X145505456Y-116900360D01*
X145344469Y-116924353D01*
X145308780Y-116928466D01*
X145262184Y-116934377D01*
X145229457Y-116939223D01*
X145216097Y-116942237D01*
X145216722Y-116943457D01*
X145232163Y-116952415D01*
X145263913Y-116967467D01*
X145306859Y-116986143D01*
X145348666Y-117003322D01*
X145384583Y-117015442D01*
X145415512Y-117020111D01*
X145451166Y-117018637D01*
X145501252Y-117012329D01*
X145561171Y-117002140D01*
X145669761Y-116974945D01*
X145776400Y-116938249D01*
X145873413Y-116894850D01*
X145953125Y-116847546D01*
X145987500Y-116823298D01*
X145987500Y-117304681D01*
X145987500Y-117786063D01*
X145934525Y-117789907D01*
X145921098Y-117790991D01*
X145893817Y-117796353D01*
X145880818Y-117809740D01*
X145874033Y-117837500D01*
X145868189Y-117864310D01*
X145848720Y-117920271D01*
X145822246Y-117971441D01*
X145792028Y-118012952D01*
X145761324Y-118039937D01*
X145733393Y-118047527D01*
X145714105Y-118037722D01*
X145689395Y-118007049D01*
X145667260Y-117961132D01*
X145650205Y-117905432D01*
X145640733Y-117845411D01*
X145634252Y-117764673D01*
X145589001Y-117756909D01*
X145587713Y-117756688D01*
X145546487Y-117749350D01*
X145510309Y-117742535D01*
X145500523Y-117740952D01*
X145482565Y-117743363D01*
X145468325Y-117758895D01*
X145451729Y-117792754D01*
X145420087Y-117853173D01*
X145383000Y-117905372D01*
X145344520Y-117944417D01*
X145308033Y-117966886D01*
X145276923Y-117969361D01*
X145264756Y-117961800D01*
X145244962Y-117932224D01*
X145229408Y-117887682D01*
X145219541Y-117834598D01*
X145216807Y-117779395D01*
X145222655Y-117728495D01*
X145234677Y-117675740D01*
X145166870Y-117650370D01*
X145165658Y-117649923D01*
X145150222Y-117644234D01*
X145106996Y-117630261D01*
X145080128Y-117626765D01*
X145064705Y-117633790D01*
X145055812Y-117651382D01*
X145051802Y-117661668D01*
X145028464Y-117698328D01*
X144993577Y-117736389D01*
X144952500Y-117771607D01*
X144910590Y-117799739D01*
X144873206Y-117816541D01*
X144845705Y-117817771D01*
X144835204Y-117809655D01*
X144821314Y-117779702D01*
X144813623Y-117735057D01*
X144812496Y-117681884D01*
X144818295Y-117626351D01*
X144831384Y-117574622D01*
X144836890Y-117558455D01*
X144845205Y-117530519D01*
X144847009Y-117518127D01*
X144837916Y-117512301D01*
X144812563Y-117497013D01*
X144777216Y-117476115D01*
X144710682Y-117437077D01*
X144654961Y-117494410D01*
X144649284Y-117500133D01*
X144597792Y-117543370D01*
X144544133Y-117575367D01*
X144494099Y-117593257D01*
X144453481Y-117594172D01*
X144448506Y-117592886D01*
X144433564Y-117586673D01*
X144426388Y-117574359D01*
X144425167Y-117549679D01*
X144428090Y-117506371D01*
X144437679Y-117444614D01*
X144467249Y-117367951D01*
X144479878Y-117344706D01*
X144494361Y-117315759D01*
X144500000Y-117300995D01*
X144492421Y-117291252D01*
X144469656Y-117270714D01*
X144437010Y-117244601D01*
X144374020Y-117196564D01*
X144346385Y-117222125D01*
X144340306Y-117227521D01*
X144298017Y-117257162D01*
X144248027Y-117282533D01*
X144196096Y-117301806D01*
X144147983Y-117313151D01*
X144109448Y-117314740D01*
X144086249Y-117304743D01*
X144079544Y-117289891D01*
X144079258Y-117252946D01*
X144090412Y-117205519D01*
X144110916Y-117153603D01*
X144138675Y-117103192D01*
X144171598Y-117060280D01*
X144202945Y-117026809D01*
X144149657Y-116964945D01*
X144096369Y-116903082D01*
X144038516Y-116933097D01*
X144018994Y-116942546D01*
X143961629Y-116963484D01*
X143905836Y-116975207D01*
X143855965Y-116977755D01*
X143816365Y-116971168D01*
X143791385Y-116955486D01*
X143785375Y-116930751D01*
X143792451Y-116904206D01*
X143818035Y-116849811D01*
X143855101Y-116795431D01*
X143897859Y-116750353D01*
X143952181Y-116703920D01*
X143911393Y-116636335D01*
X143891771Y-116603918D01*
X143875137Y-116576647D01*
X143867623Y-116564613D01*
X143859891Y-116565123D01*
X143838907Y-116574248D01*
X143835093Y-116576224D01*
X143787589Y-116593499D01*
X143732403Y-116603632D01*
X143675871Y-116606645D01*
X143624326Y-116602563D01*
X143584105Y-116591410D01*
X143561542Y-116573209D01*
X143558116Y-116556882D01*
X143568232Y-116522673D01*
X143594853Y-116481796D01*
X143634881Y-116437960D01*
X143685217Y-116394875D01*
X143742763Y-116356250D01*
X143753342Y-116348315D01*
X143757025Y-116336076D01*
X143751971Y-116313819D01*
X143737781Y-116275000D01*
X143711424Y-116206250D01*
X143596337Y-116206250D01*
X143587002Y-116206214D01*
X143507999Y-116201860D01*
X143451686Y-116189988D01*
X143416898Y-116170212D01*
X143402471Y-116142147D01*
X143402678Y-116134986D01*
X143416375Y-116107320D01*
X143445846Y-116074629D01*
X143485998Y-116041316D01*
X143531737Y-116011785D01*
X143577969Y-115990439D01*
X143639496Y-115968750D01*
X143631104Y-115901166D01*
X143627508Y-115874387D01*
X143621856Y-115839321D01*
X143617440Y-115819916D01*
X143606626Y-115813380D01*
X143576925Y-115806969D01*
X143535923Y-115803396D01*
X143480636Y-115797266D01*
X143392340Y-115769713D01*
X143381285Y-115764557D01*
X143346634Y-115745548D01*
X143329563Y-115728443D01*
X143325000Y-115708642D01*
X143334426Y-115683650D01*
X143362731Y-115653740D01*
X143404202Y-115624469D01*
X143453037Y-115599288D01*
X143503437Y-115581648D01*
X143527900Y-115578125D01*
X144276883Y-115578125D01*
X144276967Y-115578320D01*
X144279633Y-115592892D01*
X144284476Y-115625218D01*
X144290511Y-115668750D01*
X144296814Y-115711293D01*
X144306091Y-115752837D01*
X144320062Y-115787850D01*
X144341981Y-115822377D01*
X144375104Y-115862459D01*
X144422686Y-115914140D01*
X144438544Y-115930796D01*
X144542445Y-116028032D01*
X144648783Y-116105333D01*
X144763803Y-116166701D01*
X144893750Y-116216142D01*
X144918908Y-116223785D01*
X144972183Y-116238007D01*
X145029045Y-116251265D01*
X145083944Y-116262465D01*
X145131332Y-116270515D01*
X145165658Y-116274322D01*
X145181375Y-116272793D01*
X145181511Y-116272572D01*
X145175110Y-116260676D01*
X145155779Y-116235948D01*
X145127434Y-116203427D01*
X145097625Y-116172157D01*
X145068350Y-116148551D01*
X145036882Y-116134464D01*
X144993750Y-116124290D01*
X144912468Y-116103282D01*
X144873408Y-116087092D01*
X144789754Y-116052419D01*
X144669442Y-115980448D01*
X144554631Y-115889617D01*
X144448422Y-115782173D01*
X144353913Y-115660363D01*
X144344670Y-115647020D01*
X144317716Y-115610272D01*
X144296613Y-115584634D01*
X144285294Y-115575000D01*
X144284114Y-115575022D01*
X144276883Y-115578125D01*
X143527900Y-115578125D01*
X143549599Y-115575000D01*
X143587500Y-115575000D01*
X143587500Y-115487500D01*
X143587454Y-115467331D01*
X143586309Y-115429718D01*
X143582218Y-115409584D01*
X143573337Y-115401490D01*
X143557822Y-115400000D01*
X143553646Y-115399928D01*
X143508173Y-115392306D01*
X143457946Y-115374464D01*
X143408754Y-115349710D01*
X143366385Y-115321352D01*
X143336627Y-115292701D01*
X143325267Y-115267063D01*
X143333273Y-115243557D01*
X143355923Y-115220115D01*
X143371540Y-115211561D01*
X143416360Y-115194104D01*
X143471120Y-115178327D01*
X143525865Y-115166902D01*
X143570639Y-115162500D01*
X143585961Y-115162314D01*
X143605960Y-115158838D01*
X143617649Y-115146728D01*
X143624754Y-115120582D01*
X143630999Y-115075000D01*
X143639496Y-115006250D01*
X143577911Y-114984541D01*
X143558392Y-114976326D01*
X143516178Y-114952027D01*
X143473680Y-114920919D01*
X143436449Y-114887707D01*
X143410038Y-114857096D01*
X143400000Y-114833790D01*
X143400260Y-114828859D01*
X143414205Y-114802188D01*
X143426857Y-114795549D01*
X144754431Y-114795549D01*
X144757685Y-114843750D01*
X144765974Y-114890418D01*
X144779564Y-114951745D01*
X144796062Y-115016202D01*
X144814075Y-115079199D01*
X144832209Y-115136151D01*
X144849071Y-115182468D01*
X144863269Y-115213562D01*
X144873408Y-115224846D01*
X144873476Y-115224842D01*
X144881154Y-115213535D01*
X144893603Y-115184635D01*
X144908159Y-115144309D01*
X144910169Y-115138287D01*
X144923273Y-115095801D01*
X144928280Y-115066444D01*
X144925744Y-115040960D01*
X144916223Y-115010089D01*
X144906661Y-114980922D01*
X144878077Y-114844959D01*
X144873260Y-114701602D01*
X144892220Y-114550784D01*
X144934962Y-114392438D01*
X145001494Y-114226497D01*
X145012962Y-114201551D01*
X145031983Y-114159539D01*
X145045107Y-114129668D01*
X145050000Y-114117196D01*
X145048446Y-114117515D01*
X145032426Y-114127417D01*
X145002750Y-114147828D01*
X144964014Y-114175626D01*
X144921677Y-114208107D01*
X144888811Y-114239369D01*
X144864904Y-114272678D01*
X144843285Y-114315780D01*
X144825836Y-114358366D01*
X144803393Y-114421729D01*
X144785663Y-114480973D01*
X144777514Y-114518558D01*
X144767571Y-114584327D01*
X144759995Y-114657784D01*
X144755408Y-114730876D01*
X144754431Y-114795549D01*
X143426857Y-114795549D01*
X143449922Y-114783446D01*
X143508135Y-114772383D01*
X143589570Y-114768750D01*
X143711433Y-114768750D01*
X143738582Y-114694289D01*
X143749852Y-114659570D01*
X143756135Y-114628817D01*
X143753312Y-114615688D01*
X143731504Y-114606649D01*
X143687189Y-114579353D01*
X143644095Y-114543136D01*
X143606176Y-114502497D01*
X143577385Y-114461938D01*
X143561677Y-114425958D01*
X143563005Y-114399058D01*
X143564103Y-114397162D01*
X143590033Y-114377617D01*
X143634975Y-114367506D01*
X143695060Y-114366891D01*
X143766418Y-114375838D01*
X143845179Y-114394409D01*
X143852513Y-114395900D01*
X143869147Y-114391925D01*
X143887246Y-114373692D01*
X143911561Y-114337097D01*
X143951514Y-114272165D01*
X143893648Y-114216720D01*
X143868921Y-114190216D01*
X143832527Y-114142314D01*
X143805872Y-114096716D01*
X143790720Y-114062732D01*
X143783496Y-114039076D01*
X143785952Y-114023520D01*
X143797356Y-114008488D01*
X143801512Y-114004151D01*
X143819140Y-113992759D01*
X143844848Y-113989456D01*
X143886821Y-113992806D01*
X143918672Y-113998414D01*
X143975227Y-114013809D01*
X144027706Y-114033471D01*
X144063276Y-114048627D01*
X144091504Y-114058976D01*
X144103385Y-114061007D01*
X144108881Y-114054257D01*
X144127506Y-114033404D01*
X144154192Y-114004439D01*
X144202134Y-113953012D01*
X144157891Y-113895051D01*
X144127663Y-113848552D01*
X144102628Y-113796840D01*
X144085488Y-113746898D01*
X144078379Y-113704970D01*
X144083435Y-113677303D01*
X144089362Y-113670535D01*
X144118900Y-113659342D01*
X144161881Y-113661205D01*
X144213187Y-113674920D01*
X144267701Y-113699282D01*
X144320305Y-113733085D01*
X144377008Y-113776367D01*
X144435379Y-113729609D01*
X144461834Y-113708444D01*
X144487126Y-113688279D01*
X144498896Y-113678988D01*
X144497596Y-113670750D01*
X144487041Y-113645969D01*
X144469218Y-113611142D01*
X144459678Y-113591992D01*
X144440322Y-113539154D01*
X144428591Y-113485323D01*
X144425097Y-113436465D01*
X144430452Y-113398552D01*
X144445268Y-113377550D01*
X144455817Y-113374453D01*
X144490204Y-113378123D01*
X144534346Y-113394034D01*
X144582074Y-113419151D01*
X144627216Y-113450442D01*
X144663602Y-113484873D01*
X144707548Y-113536214D01*
X144775649Y-113497717D01*
X144807973Y-113479277D01*
X144835916Y-113462960D01*
X144848440Y-113455129D01*
X144848943Y-113452026D01*
X144844157Y-113431866D01*
X144832815Y-113400266D01*
X144831494Y-113396838D01*
X144820015Y-113351805D01*
X144813932Y-113298357D01*
X144813370Y-113244671D01*
X144818453Y-113198925D01*
X144829306Y-113169296D01*
X144831089Y-113166947D01*
X144851351Y-113152853D01*
X144882163Y-113155363D01*
X144889275Y-113157924D01*
X144919709Y-113176825D01*
X144958130Y-113208089D01*
X144998709Y-113246336D01*
X145035616Y-113286187D01*
X145063021Y-113322262D01*
X145081250Y-113350773D01*
X145159330Y-113324255D01*
X145171757Y-113320011D01*
X145208137Y-113306463D01*
X145226534Y-113295404D01*
X145231623Y-113282769D01*
X145228080Y-113264493D01*
X145223980Y-113246854D01*
X145219012Y-113194828D01*
X145221674Y-113139667D01*
X145230765Y-113086988D01*
X145245086Y-113042406D01*
X145263435Y-113011538D01*
X145284613Y-113000000D01*
X145304375Y-113004619D01*
X145340166Y-113027297D01*
X145378374Y-113064450D01*
X145414148Y-113111097D01*
X145442633Y-113162252D01*
X145446946Y-113171734D01*
X145467089Y-113210679D01*
X145483144Y-113229786D01*
X145497820Y-113232505D01*
X145505644Y-113230556D01*
X145537144Y-113224481D01*
X145576747Y-113218250D01*
X145634743Y-113210075D01*
X145639720Y-113131910D01*
X145647646Y-113078030D01*
X145663295Y-113024177D01*
X145683969Y-112977039D01*
X145707016Y-112942655D01*
X145729781Y-112927061D01*
X145743462Y-112927666D01*
G37*
G36*
X145788663Y-93377769D02*
G01*
X145808196Y-93397626D01*
X145831031Y-93431216D01*
X145853458Y-93472100D01*
X145871762Y-93513840D01*
X145882234Y-93550000D01*
X145885876Y-93570907D01*
X145894081Y-93608072D01*
X145904059Y-93627991D01*
X145919624Y-93636015D01*
X145944593Y-93637500D01*
X145987500Y-93637500D01*
X145987500Y-94093370D01*
X145987500Y-94549239D01*
X145890625Y-94614409D01*
X145724899Y-94739198D01*
X145570024Y-94885469D01*
X145434719Y-95046873D01*
X145319578Y-95222501D01*
X145225194Y-95411443D01*
X145152160Y-95612787D01*
X145101069Y-95825625D01*
X145094509Y-95862751D01*
X145087301Y-95907781D01*
X145083332Y-95938585D01*
X145083337Y-95950000D01*
X145086059Y-95948822D01*
X145105043Y-95937375D01*
X145137547Y-95916352D01*
X145178551Y-95888971D01*
X145189194Y-95881827D01*
X145238411Y-95850021D01*
X145284782Y-95821752D01*
X145319497Y-95802430D01*
X145370243Y-95776919D01*
X145385739Y-95660335D01*
X145401402Y-95568113D01*
X145449813Y-95395587D01*
X145521869Y-95230194D01*
X145617008Y-95073365D01*
X145633184Y-95051448D01*
X145683461Y-94991351D01*
X145744439Y-94926270D01*
X145809772Y-94862510D01*
X145873116Y-94806376D01*
X145928125Y-94764174D01*
X145987500Y-94723799D01*
X145987500Y-95055650D01*
X145987500Y-95387500D01*
X145949503Y-95387500D01*
X145943432Y-95387757D01*
X145904881Y-95395696D01*
X145865128Y-95411284D01*
X145810905Y-95447288D01*
X145762082Y-95503232D01*
X145733989Y-95568445D01*
X145727449Y-95639227D01*
X145743289Y-95711877D01*
X145782332Y-95782696D01*
X145815488Y-95814819D01*
X145862358Y-95844720D01*
X145912559Y-95866547D01*
X145956114Y-95875000D01*
X145987500Y-95875000D01*
X145987500Y-96374475D01*
X145987500Y-96873949D01*
X145890625Y-96877600D01*
X145793750Y-96881250D01*
X145793750Y-97056250D01*
X145793750Y-97231250D01*
X145890625Y-97234901D01*
X145987500Y-97238552D01*
X145987500Y-97736380D01*
X145987500Y-98234209D01*
X145937852Y-98240868D01*
X145872151Y-98260126D01*
X145813042Y-98298986D01*
X145767086Y-98352450D01*
X145737180Y-98415979D01*
X145726224Y-98485037D01*
X145737116Y-98555086D01*
X145746920Y-98579474D01*
X145783926Y-98636002D01*
X145833992Y-98682273D01*
X145891167Y-98713525D01*
X145949503Y-98725000D01*
X145987500Y-98725000D01*
X145987391Y-99046875D01*
X145987282Y-99368750D01*
X145915516Y-99414766D01*
X145864664Y-99445411D01*
X145749636Y-99504645D01*
X145618599Y-99561286D01*
X145477489Y-99613062D01*
X145332239Y-99657704D01*
X145188782Y-99692938D01*
X145136860Y-99704252D01*
X145089368Y-99715278D01*
X145056158Y-99723773D01*
X145042336Y-99728498D01*
X145042371Y-99729636D01*
X145055978Y-99737129D01*
X145086066Y-99748580D01*
X145126619Y-99762125D01*
X145171626Y-99775902D01*
X145215071Y-99788048D01*
X145250941Y-99796702D01*
X145273221Y-99800000D01*
X145303943Y-99796718D01*
X145354237Y-99786880D01*
X145416736Y-99771983D01*
X145485504Y-99753540D01*
X145554604Y-99733065D01*
X145618100Y-99712072D01*
X145659985Y-99696347D01*
X145720455Y-99671530D01*
X145784692Y-99643395D01*
X145847295Y-99614452D01*
X145902866Y-99587211D01*
X145946004Y-99564183D01*
X145971309Y-99547877D01*
X145973440Y-99546967D01*
X145977318Y-99551892D01*
X145980447Y-99567735D01*
X145982899Y-99596508D01*
X145984746Y-99640222D01*
X145986058Y-99700888D01*
X145986907Y-99780519D01*
X145987364Y-99881126D01*
X145987500Y-100004720D01*
X145987500Y-100475000D01*
X145944593Y-100475000D01*
X145933227Y-100475153D01*
X145912480Y-100478612D01*
X145899609Y-100490754D01*
X145890799Y-100516933D01*
X145882234Y-100562500D01*
X145878471Y-100578660D01*
X145863662Y-100618734D01*
X145842703Y-100661070D01*
X145819333Y-100699254D01*
X145797289Y-100726870D01*
X145780306Y-100737500D01*
X145770630Y-100733276D01*
X145751777Y-100710154D01*
X145731626Y-100672008D01*
X145712713Y-100624701D01*
X145697578Y-100574092D01*
X145688756Y-100526043D01*
X145681250Y-100456250D01*
X145614307Y-100449529D01*
X145585581Y-100447029D01*
X145558918Y-100447660D01*
X145544869Y-100455355D01*
X145536182Y-100472218D01*
X145529121Y-100493546D01*
X145525000Y-100513812D01*
X145524020Y-100522999D01*
X145512449Y-100555318D01*
X145491164Y-100593458D01*
X145464357Y-100631789D01*
X145436216Y-100664679D01*
X145410932Y-100686498D01*
X145392694Y-100691616D01*
X145390697Y-100690755D01*
X145368948Y-100668246D01*
X145351077Y-100626163D01*
X145338632Y-100569412D01*
X145333161Y-100502902D01*
X145331250Y-100412053D01*
X145287500Y-100399846D01*
X145252323Y-100391260D01*
X145213451Y-100388119D01*
X145189046Y-100398021D01*
X145174433Y-100421875D01*
X145156944Y-100464810D01*
X145129680Y-100512669D01*
X145090353Y-100563081D01*
X145086475Y-100567554D01*
X145051054Y-100601182D01*
X145023540Y-100611560D01*
X145002754Y-100598682D01*
X144987511Y-100562540D01*
X144984048Y-100547769D01*
X144976739Y-100496830D01*
X144973502Y-100440648D01*
X144974665Y-100389132D01*
X144980555Y-100352190D01*
X144982661Y-100341586D01*
X144977159Y-100329091D01*
X144956925Y-100317806D01*
X144917193Y-100304115D01*
X144909856Y-100301828D01*
X144870714Y-100291296D01*
X144849176Y-100289939D01*
X144840472Y-100297337D01*
X144832944Y-100314102D01*
X144809067Y-100352381D01*
X144776587Y-100395724D01*
X144746023Y-100431131D01*
X144741494Y-100436378D01*
X144709775Y-100466588D01*
X144675918Y-100488646D01*
X144649634Y-100491468D01*
X144632310Y-100471516D01*
X144622010Y-100427940D01*
X144620661Y-100411498D01*
X144621294Y-100364061D01*
X144625996Y-100309900D01*
X144633669Y-100259586D01*
X144643216Y-100223690D01*
X144643295Y-100223492D01*
X144642046Y-100209024D01*
X144623974Y-100193978D01*
X144585444Y-100175308D01*
X144519606Y-100146985D01*
X144500428Y-100175858D01*
X144484753Y-100196126D01*
X144455976Y-100228952D01*
X144422266Y-100264530D01*
X144380123Y-100302459D01*
X144339174Y-100328269D01*
X144307043Y-100335684D01*
X144286350Y-100323567D01*
X144282268Y-100315867D01*
X144274957Y-100280103D01*
X144278290Y-100228394D01*
X144292526Y-100158642D01*
X144317926Y-100068750D01*
X144318792Y-100065553D01*
X144317083Y-100048845D01*
X144300713Y-100032171D01*
X144265422Y-100010831D01*
X144205201Y-99977911D01*
X144148547Y-100037581D01*
X144122963Y-100062457D01*
X144077128Y-100099168D01*
X144032028Y-100127178D01*
X143993111Y-100143303D01*
X143965826Y-100144358D01*
X143958568Y-100137669D01*
X143951646Y-100110633D01*
X143952149Y-100069556D01*
X143959376Y-100020536D01*
X143972628Y-99969672D01*
X143991206Y-99923063D01*
X144022099Y-99860638D01*
X143964709Y-99818990D01*
X143907319Y-99777342D01*
X143847059Y-99831522D01*
X143825356Y-99849651D01*
X143776944Y-99882609D01*
X143728573Y-99907331D01*
X143686385Y-99920947D01*
X143656524Y-99920585D01*
X143647312Y-99914347D01*
X143641926Y-99895662D01*
X143645049Y-99859692D01*
X143654714Y-99815790D01*
X143673843Y-99759313D01*
X143697409Y-99708147D01*
X143721454Y-99672014D01*
X143730715Y-99660068D01*
X143732203Y-99646698D01*
X143720597Y-99628686D01*
X143693439Y-99599682D01*
X143690359Y-99596537D01*
X143657275Y-99565624D01*
X143633719Y-99552825D01*
X143614033Y-99556830D01*
X143592563Y-99576331D01*
X143565273Y-99599898D01*
X143523245Y-99625306D01*
X143475962Y-99646641D01*
X143429928Y-99661437D01*
X143391646Y-99667233D01*
X143367619Y-99661562D01*
X143363824Y-99657688D01*
X143358500Y-99637778D01*
X143365079Y-99602561D01*
X143369534Y-99587807D01*
X143388030Y-99539651D01*
X143411214Y-99491252D01*
X143434994Y-99450632D01*
X143455275Y-99425810D01*
X143468603Y-99411924D01*
X143472781Y-99392558D01*
X143459638Y-99368165D01*
X143427723Y-99333909D01*
X143380446Y-99287744D01*
X143333869Y-99319394D01*
X143305976Y-99335222D01*
X143261364Y-99353929D01*
X143212853Y-99369322D01*
X143167108Y-99379648D01*
X143130797Y-99383153D01*
X143110587Y-99378087D01*
X143107007Y-99373145D01*
X143104385Y-99345300D01*
X143115980Y-99305012D01*
X143139637Y-99256894D01*
X143173199Y-99205560D01*
X143214512Y-99155626D01*
X143250057Y-99117502D01*
X143210722Y-99064016D01*
X143201614Y-99052105D01*
X143172729Y-99022924D01*
X143151319Y-99017172D01*
X143137042Y-99022113D01*
X143103530Y-99034087D01*
X143062500Y-99049000D01*
X143032280Y-99058814D01*
X142979134Y-99070484D01*
X142932204Y-99074326D01*
X142897238Y-99070074D01*
X142879986Y-99057462D01*
X142878718Y-99043355D01*
X142889293Y-99009335D01*
X142912709Y-98967339D01*
X142945272Y-98922784D01*
X142983286Y-98881087D01*
X143023059Y-98847668D01*
X143052367Y-98827240D01*
X143017709Y-98766745D01*
X143003243Y-98741553D01*
X142987639Y-98714554D01*
X142980586Y-98702602D01*
X142976940Y-98702581D01*
X142956213Y-98708612D01*
X142923819Y-98720682D01*
X142904738Y-98727102D01*
X142847105Y-98738525D01*
X142781634Y-98743080D01*
X142776833Y-98743113D01*
X142732366Y-98742586D01*
X142706884Y-98739337D01*
X142694861Y-98731884D01*
X142690774Y-98718750D01*
X142691265Y-98706930D01*
X142705239Y-98671421D01*
X142733602Y-98630515D01*
X142771804Y-98590146D01*
X142815298Y-98556250D01*
X142838759Y-98539917D01*
X142864173Y-98518188D01*
X142874322Y-98503460D01*
X142872904Y-98494881D01*
X142863247Y-98467085D01*
X142847353Y-98431263D01*
X142835136Y-98408139D01*
X142816780Y-98384838D01*
X142800478Y-98381793D01*
X142776252Y-98389845D01*
X142720207Y-98401429D01*
X142661568Y-98406247D01*
X142607011Y-98404335D01*
X142563209Y-98395726D01*
X142536839Y-98380453D01*
X142532994Y-98364458D01*
X142544587Y-98335536D01*
X142571357Y-98300471D01*
X142609809Y-98263032D01*
X142656448Y-98226988D01*
X142707780Y-98196107D01*
X142746809Y-98176009D01*
X142724756Y-98109880D01*
X142717092Y-98088790D01*
X142700479Y-98056850D01*
X142685727Y-98048276D01*
X142666937Y-98050444D01*
X142630425Y-98052057D01*
X142585070Y-98052599D01*
X142579712Y-98052568D01*
X142510822Y-98048322D01*
X142458095Y-98037568D01*
X142424373Y-98021174D01*
X142412500Y-98000005D01*
X142420866Y-97978766D01*
X142447211Y-97948697D01*
X142486511Y-97916157D01*
X142533596Y-97885367D01*
X142583298Y-97860547D01*
X142609503Y-97848775D01*
X142638311Y-97830429D01*
X142644116Y-97815195D01*
X142643184Y-97812532D01*
X142636567Y-97786199D01*
X142629897Y-97750603D01*
X142622347Y-97703391D01*
X142526799Y-97696506D01*
X142508587Y-97694999D01*
X142437670Y-97684600D01*
X142383768Y-97668800D01*
X142349504Y-97648589D01*
X142337500Y-97624960D01*
X142338910Y-97618096D01*
X142354432Y-97596982D01*
X143188457Y-97596982D01*
X143188986Y-97602172D01*
X143194051Y-97630636D01*
X143203221Y-97673738D01*
X143215013Y-97724363D01*
X143240613Y-97829975D01*
X143379682Y-97968702D01*
X143462124Y-98046843D01*
X143634714Y-98186157D01*
X143817288Y-98302552D01*
X144009855Y-98396033D01*
X144212423Y-98466604D01*
X144425000Y-98514269D01*
X144545768Y-98529663D01*
X144746023Y-98535956D01*
X144949352Y-98519641D01*
X145151947Y-98481105D01*
X145350000Y-98420731D01*
X145468750Y-98377286D01*
X145385102Y-98339492D01*
X145340389Y-98317912D01*
X145281915Y-98286782D01*
X145232314Y-98257470D01*
X145163176Y-98213243D01*
X145078463Y-98251383D01*
X145063312Y-98257930D01*
X145005617Y-98280099D01*
X144938993Y-98302745D01*
X144875000Y-98321864D01*
X144842201Y-98330506D01*
X144796262Y-98340862D01*
X144751984Y-98347694D01*
X144702707Y-98351685D01*
X144641766Y-98353517D01*
X144579011Y-98353798D01*
X144562500Y-98353872D01*
X144558972Y-98353866D01*
X144482543Y-98353308D01*
X144423882Y-98351431D01*
X144376039Y-98347412D01*
X144332065Y-98340427D01*
X144285011Y-98329655D01*
X144227927Y-98314273D01*
X144069220Y-98261656D01*
X143905160Y-98187545D01*
X143746880Y-98094172D01*
X143592285Y-97980138D01*
X143439279Y-97844042D01*
X143285767Y-97684482D01*
X143248071Y-97643999D01*
X143216389Y-97613062D01*
X143195659Y-97596617D01*
X143188457Y-97596982D01*
X142354432Y-97596982D01*
X142356537Y-97594119D01*
X142389830Y-97566487D01*
X142433066Y-97538996D01*
X142480520Y-97515441D01*
X142526470Y-97499619D01*
X142584189Y-97485366D01*
X142578609Y-97427058D01*
X142576227Y-97403380D01*
X142570478Y-97366521D01*
X142561024Y-97346818D01*
X142544119Y-97338910D01*
X142516018Y-97337431D01*
X142493677Y-97336559D01*
X142409562Y-97320124D01*
X142330722Y-97285532D01*
X142321648Y-97279941D01*
X142297279Y-97261886D01*
X142287500Y-97249402D01*
X142287790Y-97246880D01*
X142301839Y-97227228D01*
X142332549Y-97203753D01*
X142373739Y-97179739D01*
X142419232Y-97158471D01*
X142462846Y-97143233D01*
X142498402Y-97137309D01*
X142528227Y-97134709D01*
X142550376Y-97122354D01*
X142559875Y-97095367D01*
X142560096Y-97048919D01*
X142556250Y-96981453D01*
X142499848Y-96973438D01*
X142499304Y-96973360D01*
X142445302Y-96960546D01*
X142389035Y-96939193D01*
X142339508Y-96913314D01*
X142305729Y-96886924D01*
X142301950Y-96882616D01*
X142291237Y-96862576D01*
X142299414Y-96844457D01*
X142320381Y-96828360D01*
X142360943Y-96809134D01*
X142411060Y-96792001D01*
X142462520Y-96779708D01*
X142507112Y-96775000D01*
X142527337Y-96774761D01*
X142552001Y-96770977D01*
X142565940Y-96758324D01*
X142573408Y-96731453D01*
X142578657Y-96685016D01*
X142580836Y-96658963D01*
X142579328Y-96635560D01*
X142568728Y-96624385D01*
X142545268Y-96617865D01*
X142518925Y-96610748D01*
X142468280Y-96590657D01*
X142419314Y-96564457D01*
X142377529Y-96535679D01*
X142348424Y-96507854D01*
X142337500Y-96484512D01*
X142338346Y-96478404D01*
X142356361Y-96456668D01*
X142395610Y-96438262D01*
X142453169Y-96424253D01*
X142526116Y-96415706D01*
X142621423Y-96409173D01*
X142633788Y-96340956D01*
X142637253Y-96320897D01*
X142640640Y-96289549D01*
X142637170Y-96273397D01*
X142626202Y-96266114D01*
X142591370Y-96252756D01*
X142536533Y-96225042D01*
X142487000Y-96192659D01*
X142447254Y-96159086D01*
X142421775Y-96127798D01*
X142415044Y-96102273D01*
X142416201Y-96098719D01*
X142435418Y-96082074D01*
X142472630Y-96068753D01*
X142522067Y-96059557D01*
X142577959Y-96055285D01*
X142634536Y-96056736D01*
X142686028Y-96064712D01*
X142693883Y-96060824D01*
X142707743Y-96039886D01*
X142721772Y-96007870D01*
X142732713Y-95972580D01*
X142737311Y-95941819D01*
X142729920Y-95930993D01*
X142705722Y-95911642D01*
X142670497Y-95889572D01*
X142628171Y-95861418D01*
X142625725Y-95859297D01*
X143815364Y-95859297D01*
X143816372Y-95932611D01*
X143820331Y-95987500D01*
X143856746Y-96190488D01*
X143917187Y-96396740D01*
X143999447Y-96592103D01*
X144102926Y-96775362D01*
X144227022Y-96945300D01*
X144371132Y-97100704D01*
X144379685Y-97108888D01*
X144429071Y-97155291D01*
X144475003Y-97197126D01*
X144512680Y-97230085D01*
X144537300Y-97249858D01*
X144579011Y-97279559D01*
X144570893Y-97230405D01*
X144569187Y-97217390D01*
X144565874Y-97174411D01*
X144563550Y-97119065D01*
X144562638Y-97060054D01*
X144562500Y-96938857D01*
X144459375Y-96857914D01*
X144422650Y-96828044D01*
X144294687Y-96704485D01*
X144186980Y-96567024D01*
X144099710Y-96416501D01*
X144033056Y-96253757D01*
X143987197Y-96079631D01*
X143962314Y-95894962D01*
X143958586Y-95700590D01*
X143976193Y-95497355D01*
X144015314Y-95286097D01*
X144076131Y-95067656D01*
X144078290Y-95060968D01*
X144096510Y-95003631D01*
X144111353Y-94955333D01*
X144121342Y-94920978D01*
X144125000Y-94905468D01*
X144119564Y-94907155D01*
X144099824Y-94922908D01*
X144069038Y-94950836D01*
X144030782Y-94987813D01*
X144026510Y-94992055D01*
X143984545Y-95034868D01*
X143956016Y-95068218D01*
X143936424Y-95099082D01*
X143921272Y-95134434D01*
X143906063Y-95181250D01*
X143900378Y-95200480D01*
X143882697Y-95265591D01*
X143864640Y-95338329D01*
X143849344Y-95406250D01*
X143843463Y-95439041D01*
X143834483Y-95509045D01*
X143826866Y-95592434D01*
X143820929Y-95682847D01*
X143816989Y-95773922D01*
X143815364Y-95859297D01*
X142625725Y-95859297D01*
X142587365Y-95826037D01*
X142554944Y-95789687D01*
X142535148Y-95757160D01*
X142532214Y-95733247D01*
X142533123Y-95731308D01*
X142553483Y-95716696D01*
X142591551Y-95707232D01*
X142641151Y-95703435D01*
X142696104Y-95705824D01*
X142750233Y-95714919D01*
X142823895Y-95732914D01*
X142849448Y-95673515D01*
X142858653Y-95651409D01*
X142870354Y-95620418D01*
X142874878Y-95603933D01*
X142873999Y-95601403D01*
X142859270Y-95586983D01*
X142832162Y-95568750D01*
X142818690Y-95559891D01*
X142783174Y-95529711D01*
X142747823Y-95492148D01*
X142717388Y-95453062D01*
X142696620Y-95418310D01*
X142690268Y-95393750D01*
X142691648Y-95388958D01*
X142710630Y-95373432D01*
X142746937Y-95365089D01*
X142795173Y-95364139D01*
X142849940Y-95370796D01*
X142905841Y-95385272D01*
X142976761Y-95409215D01*
X143007888Y-95359906D01*
X143022599Y-95336069D01*
X143042021Y-95300471D01*
X143047605Y-95280950D01*
X143040308Y-95275000D01*
X143032707Y-95272523D01*
X143009283Y-95255133D01*
X142978989Y-95225778D01*
X142946947Y-95189997D01*
X142918281Y-95153326D01*
X142898115Y-95121305D01*
X142887582Y-95099157D01*
X142878310Y-95066259D01*
X142886885Y-95047080D01*
X142915447Y-95039049D01*
X142966136Y-95039595D01*
X142973297Y-95040119D01*
X143041035Y-95051554D01*
X143097609Y-95072291D01*
X143114850Y-95080974D01*
X143145165Y-95094620D01*
X143162285Y-95100000D01*
X143169531Y-95095848D01*
X143188314Y-95076000D01*
X143211436Y-95045297D01*
X143249073Y-94990594D01*
X143201880Y-94940985D01*
X143199629Y-94938599D01*
X143153741Y-94880113D01*
X143122132Y-94819930D01*
X143108529Y-94765077D01*
X143108004Y-94753342D01*
X143111730Y-94738513D01*
X143127344Y-94733290D01*
X143161366Y-94733815D01*
X143208781Y-94740156D01*
X143283804Y-94763858D01*
X143350418Y-94800298D01*
X143383527Y-94823874D01*
X143432119Y-94774111D01*
X143444999Y-94760665D01*
X143465875Y-94735309D01*
X143471791Y-94718016D01*
X143465554Y-94702799D01*
X143432438Y-94652454D01*
X143393271Y-94581324D01*
X143368337Y-94519453D01*
X143364035Y-94504076D01*
X143359193Y-94467347D01*
X143369622Y-94448306D01*
X143397478Y-94445173D01*
X143444919Y-94456165D01*
X143453244Y-94458715D01*
X143488206Y-94471034D01*
X143520198Y-94486411D01*
X143556800Y-94508925D01*
X143605593Y-94542658D01*
X143639317Y-94566566D01*
X143690129Y-94515754D01*
X143740941Y-94464942D01*
X143715082Y-94428625D01*
X143691401Y-94388880D01*
X143662654Y-94319606D01*
X143644148Y-94246712D01*
X143641647Y-94228227D01*
X143643475Y-94203518D01*
X143656125Y-94192069D01*
X143668387Y-94189927D01*
X143705067Y-94196451D01*
X143751142Y-94215686D01*
X143800478Y-94244779D01*
X143846941Y-94280874D01*
X143907085Y-94334948D01*
X143965161Y-94291929D01*
X144023238Y-94248911D01*
X143991809Y-94188332D01*
X143981689Y-94165959D01*
X143966536Y-94119240D01*
X143955979Y-94069623D01*
X143950947Y-94023727D01*
X143952366Y-93988172D01*
X143961164Y-93969576D01*
X143967062Y-93966915D01*
X143998166Y-93968233D01*
X144039581Y-93986013D01*
X144086949Y-94017956D01*
X144135910Y-94061762D01*
X144206250Y-94133072D01*
X144262500Y-94099715D01*
X144264600Y-94098470D01*
X144292853Y-94080718D01*
X144308440Y-94064758D01*
X144312864Y-94044115D01*
X144307625Y-94012321D01*
X144294223Y-93962901D01*
X144285339Y-93927296D01*
X144276242Y-93863419D01*
X144279144Y-93813986D01*
X144294047Y-93782740D01*
X144294818Y-93781974D01*
X144309588Y-93771596D01*
X144326918Y-93773607D01*
X144355821Y-93788903D01*
X144371571Y-93799294D01*
X144416596Y-93837374D01*
X144462187Y-93885481D01*
X144500000Y-93935153D01*
X144518750Y-93963830D01*
X144584977Y-93936249D01*
X144585538Y-93936015D01*
X144624048Y-93917847D01*
X144642068Y-93903069D01*
X144643236Y-93888709D01*
X144638771Y-93874918D01*
X144629915Y-93831272D01*
X144623383Y-93778299D01*
X144620319Y-93726781D01*
X144621869Y-93687500D01*
X144628454Y-93656846D01*
X144644135Y-93624264D01*
X144664567Y-93612500D01*
X144679691Y-93619097D01*
X144707081Y-93640958D01*
X144739836Y-93672902D01*
X144772795Y-93709495D01*
X144800803Y-93745302D01*
X144818700Y-93774888D01*
X144825890Y-93790399D01*
X144840214Y-93813499D01*
X144857756Y-93822403D01*
X144885255Y-93818937D01*
X144929447Y-93804931D01*
X144938594Y-93801756D01*
X144969278Y-93788727D01*
X144981573Y-93776197D01*
X144980398Y-93759813D01*
X144977700Y-93748671D01*
X144973670Y-93705589D01*
X144974186Y-93651526D01*
X144978911Y-93596358D01*
X144987511Y-93549961D01*
X144988772Y-93545462D01*
X145004498Y-93511564D01*
X145025882Y-93500928D01*
X145054106Y-93513549D01*
X145090353Y-93549420D01*
X145122909Y-93590190D01*
X145151761Y-93637102D01*
X145174960Y-93692012D01*
X145180456Y-93706024D01*
X145191123Y-93720029D01*
X145210113Y-93723356D01*
X145245566Y-93719132D01*
X145284843Y-93712752D01*
X145312008Y-93703894D01*
X145326013Y-93687575D01*
X145331513Y-93657952D01*
X145333161Y-93609183D01*
X145333244Y-93605814D01*
X145338901Y-93542573D01*
X145351111Y-93486223D01*
X145368136Y-93442789D01*
X145388236Y-93418296D01*
X145391354Y-93416892D01*
X145412187Y-93422151D01*
X145438303Y-93445152D01*
X145466456Y-93481261D01*
X145493403Y-93525842D01*
X145515901Y-93574259D01*
X145530704Y-93621875D01*
X145538986Y-93648494D01*
X145554263Y-93660063D01*
X145585369Y-93662330D01*
X145589630Y-93662305D01*
X145639308Y-93659516D01*
X145669148Y-93650297D01*
X145683743Y-93631922D01*
X145687690Y-93601668D01*
X145691542Y-93560302D01*
X145703309Y-93509305D01*
X145720604Y-93459384D01*
X145740993Y-93416432D01*
X145762043Y-93386340D01*
X145781319Y-93375000D01*
X145788663Y-93377769D01*
G37*
G36*
X145761386Y-100750066D02*
G01*
X145783763Y-100762602D01*
X145809534Y-100793882D01*
X145836005Y-100838751D01*
X145860480Y-100892053D01*
X145880263Y-100948633D01*
X145892660Y-101003333D01*
X145896945Y-101029473D01*
X145904471Y-101052185D01*
X145918438Y-101061013D01*
X145944588Y-101062500D01*
X145987644Y-101062500D01*
X145984447Y-102103125D01*
X145981250Y-103143750D01*
X145950000Y-103147457D01*
X145907627Y-103155741D01*
X145834984Y-103187015D01*
X145774522Y-103235398D01*
X145728782Y-103296999D01*
X145700306Y-103367924D01*
X145691636Y-103444281D01*
X145705313Y-103522178D01*
X145734897Y-103581922D01*
X145780910Y-103637620D01*
X145837122Y-103683099D01*
X145897818Y-103713759D01*
X145957287Y-103725000D01*
X145987500Y-103725000D01*
X145987500Y-104281012D01*
X145987500Y-104837024D01*
X145953125Y-104844635D01*
X145911852Y-104855362D01*
X145830796Y-104889551D01*
X145768929Y-104937732D01*
X145724404Y-105001170D01*
X145705914Y-105044599D01*
X145690426Y-105125137D01*
X145699119Y-105203138D01*
X145731509Y-105275976D01*
X145787111Y-105341027D01*
X145794066Y-105347118D01*
X145852172Y-105387932D01*
X145912471Y-105415120D01*
X145967076Y-105425000D01*
X145971053Y-105426116D01*
X145975135Y-105431592D01*
X145978486Y-105443528D01*
X145981177Y-105463982D01*
X145983280Y-105495016D01*
X145984865Y-105538690D01*
X145986003Y-105597063D01*
X145986764Y-105672195D01*
X145987221Y-105766147D01*
X145987442Y-105880979D01*
X145987500Y-106018750D01*
X145987500Y-106612500D01*
X145909375Y-106613982D01*
X145872319Y-106614407D01*
X145835371Y-106614181D01*
X145814698Y-106613221D01*
X145808558Y-106612607D01*
X145791834Y-106615055D01*
X145779849Y-106626761D01*
X145771876Y-106650868D01*
X145767187Y-106690521D01*
X145765056Y-106748863D01*
X145764753Y-106829037D01*
X145765009Y-106858304D01*
X145766679Y-106924124D01*
X145769601Y-106978398D01*
X145773484Y-107016644D01*
X145778038Y-107034375D01*
X145791329Y-107041565D01*
X145829429Y-107047848D01*
X145889031Y-107050000D01*
X145987500Y-107050000D01*
X145987500Y-107641701D01*
X145987500Y-108233402D01*
X145915625Y-108253615D01*
X145855819Y-108276380D01*
X145786707Y-108322366D01*
X145735153Y-108382292D01*
X145703010Y-108452998D01*
X145692129Y-108531323D01*
X145704363Y-108614107D01*
X145705460Y-108617773D01*
X145739666Y-108688461D01*
X145793257Y-108748103D01*
X145861849Y-108792905D01*
X145941057Y-108819070D01*
X145987500Y-108827783D01*
X145987500Y-109382075D01*
X145987500Y-109936368D01*
X145940625Y-109944874D01*
X145889139Y-109958232D01*
X145817615Y-109993630D01*
X145762134Y-110042759D01*
X145722855Y-110102111D01*
X145699939Y-110168174D01*
X145693545Y-110237440D01*
X145703832Y-110306397D01*
X145730960Y-110371535D01*
X145775089Y-110429345D01*
X145836377Y-110476316D01*
X145914986Y-110508938D01*
X145987500Y-110529099D01*
X145987500Y-111564550D01*
X145987500Y-112600000D01*
X145944849Y-112600000D01*
X145932037Y-112600183D01*
X145911075Y-112604496D01*
X145900575Y-112619842D01*
X145893917Y-112653125D01*
X145883968Y-112701306D01*
X145864018Y-112764646D01*
X145838794Y-112822059D01*
X145810774Y-112868886D01*
X145782434Y-112900465D01*
X145756250Y-112912137D01*
X145749030Y-112910964D01*
X145724664Y-112892876D01*
X145699558Y-112856996D01*
X145676007Y-112808578D01*
X145656306Y-112752875D01*
X145642751Y-112695140D01*
X145637636Y-112640625D01*
X145637390Y-112619257D01*
X145633535Y-112596936D01*
X145620012Y-112588644D01*
X145590625Y-112587363D01*
X145544314Y-112585068D01*
X145498215Y-112579695D01*
X145452680Y-112572164D01*
X145438884Y-112636495D01*
X145438113Y-112640010D01*
X145420027Y-112699971D01*
X145394478Y-112757657D01*
X145364383Y-112808728D01*
X145332657Y-112848847D01*
X145302215Y-112873676D01*
X145275973Y-112878877D01*
X145254840Y-112862723D01*
X145233343Y-112826288D01*
X145214282Y-112774909D01*
X145199539Y-112713706D01*
X145190996Y-112647798D01*
X145188955Y-112619123D01*
X145184630Y-112581580D01*
X145175320Y-112558659D01*
X145156106Y-112545666D01*
X145122073Y-112537909D01*
X145068304Y-112530694D01*
X145005357Y-112522490D01*
X144983501Y-112591826D01*
X144967150Y-112633230D01*
X144939989Y-112684180D01*
X144907867Y-112732677D01*
X144874570Y-112773626D01*
X144843882Y-112801933D01*
X144819587Y-112812500D01*
X144807500Y-112810073D01*
X144783382Y-112787463D01*
X144763888Y-112742344D01*
X144749557Y-112676233D01*
X144740926Y-112590649D01*
X144734097Y-112475048D01*
X144688924Y-112463551D01*
X144645577Y-112452530D01*
X144605204Y-112443749D01*
X144579721Y-112443051D01*
X144563706Y-112451895D01*
X144551739Y-112471739D01*
X144538397Y-112504041D01*
X144516476Y-112547950D01*
X144485153Y-112595894D01*
X144449506Y-112640771D01*
X144413653Y-112677884D01*
X144381711Y-112702538D01*
X144357797Y-112710037D01*
X144336050Y-112695452D01*
X144317668Y-112660597D01*
X144303957Y-112610223D01*
X144295833Y-112549027D01*
X144294210Y-112481708D01*
X144300000Y-112412961D01*
X144300541Y-112409192D01*
X144302344Y-112386015D01*
X144295918Y-112371718D01*
X144276044Y-112360885D01*
X144237500Y-112348099D01*
X144224683Y-112344271D01*
X144207987Y-112339284D01*
X144171741Y-112329782D01*
X144150000Y-112325794D01*
X144137434Y-112333040D01*
X144117017Y-112357773D01*
X144094984Y-112394466D01*
X144070663Y-112433670D01*
X144035497Y-112478095D01*
X143996262Y-112519090D01*
X143957515Y-112552359D01*
X143923810Y-112573608D01*
X143899704Y-112578545D01*
X143885283Y-112569446D01*
X143868350Y-112537830D01*
X143857996Y-112488149D01*
X143854582Y-112424162D01*
X143858466Y-112349626D01*
X143870009Y-112268299D01*
X143871991Y-112256422D01*
X143871246Y-112240326D01*
X143860840Y-112228351D01*
X143836108Y-112216420D01*
X143792390Y-112200460D01*
X143752519Y-112187566D01*
X143717319Y-112180240D01*
X143703184Y-112184200D01*
X143700808Y-112190233D01*
X143681197Y-112223686D01*
X143650091Y-112265608D01*
X143613122Y-112309257D01*
X143575920Y-112347885D01*
X143544115Y-112374750D01*
X143512222Y-112395137D01*
X143478044Y-112409828D01*
X143454593Y-112407389D01*
X143437940Y-112388322D01*
X143434661Y-112380525D01*
X143427615Y-112342735D01*
X143425368Y-112291044D01*
X143427694Y-112233475D01*
X143434366Y-112178052D01*
X143445156Y-112132800D01*
X143451823Y-112111580D01*
X143458845Y-112081652D01*
X143458763Y-112067097D01*
X143445566Y-112059148D01*
X143415965Y-112043887D01*
X143376643Y-112024808D01*
X143301071Y-111989068D01*
X143276294Y-112028909D01*
X143263899Y-112047114D01*
X143227787Y-112089842D01*
X143184379Y-112131649D01*
X143138376Y-112168915D01*
X143094481Y-112198017D01*
X143057395Y-112215332D01*
X143031820Y-112217239D01*
X143022583Y-112210020D01*
X143010489Y-112181160D01*
X143004915Y-112137170D01*
X143005634Y-112083851D01*
X143012418Y-112027005D01*
X143025039Y-111972431D01*
X143043269Y-111925932D01*
X143044406Y-111923715D01*
X143057223Y-111895737D01*
X143062500Y-111878507D01*
X143062498Y-111878425D01*
X143052083Y-111867581D01*
X143025287Y-111849203D01*
X142987836Y-111827224D01*
X142913172Y-111786177D01*
X142840825Y-111860114D01*
X142827842Y-111873029D01*
X142775879Y-111918548D01*
X142724680Y-111954817D01*
X142678305Y-111979569D01*
X142640818Y-111990536D01*
X142616281Y-111985451D01*
X142610082Y-111977570D01*
X142601696Y-111945217D01*
X142601312Y-111898294D01*
X142608306Y-111842960D01*
X142622057Y-111785373D01*
X142641942Y-111731689D01*
X142657508Y-111696598D01*
X142670150Y-111665658D01*
X142675000Y-111650282D01*
X142665616Y-111639606D01*
X142640431Y-111619922D01*
X142604984Y-111595640D01*
X142534967Y-111550196D01*
X142460280Y-111617783D01*
X142454937Y-111622545D01*
X142450857Y-111625725D01*
X142405234Y-111661280D01*
X142352413Y-111694361D01*
X142301941Y-111719066D01*
X142259283Y-111732674D01*
X142229906Y-111732464D01*
X142222380Y-111727037D01*
X142212715Y-111700729D01*
X142212659Y-111659047D01*
X142221516Y-111607023D01*
X142238589Y-111549690D01*
X142263181Y-111492081D01*
X142267449Y-111483533D01*
X142287145Y-111442974D01*
X142301000Y-111412605D01*
X142306239Y-111398458D01*
X142306236Y-111398389D01*
X142296894Y-111387106D01*
X142272893Y-111365357D01*
X142239354Y-111337788D01*
X142172458Y-111284909D01*
X142126854Y-111327923D01*
X142121165Y-111333173D01*
X142074313Y-111370030D01*
X142021592Y-111402849D01*
X141968119Y-111429364D01*
X141919013Y-111447312D01*
X141879394Y-111454428D01*
X141854381Y-111448449D01*
X141844615Y-111429768D01*
X141843948Y-111392029D01*
X141853993Y-111342301D01*
X141873316Y-111285577D01*
X141900482Y-111226853D01*
X141934057Y-111171122D01*
X141966945Y-111123493D01*
X141903236Y-111059783D01*
X141839526Y-110996074D01*
X141799231Y-111029980D01*
X141787978Y-111039052D01*
X141738085Y-111072622D01*
X141682381Y-111102023D01*
X141626166Y-111125285D01*
X141574741Y-111140434D01*
X141533408Y-111145500D01*
X141507467Y-111138510D01*
X141506606Y-111137780D01*
X141497441Y-111124363D01*
X141497160Y-111102693D01*
X141505563Y-111065140D01*
X141514962Y-111033182D01*
X141552023Y-110948371D01*
X141607725Y-110867915D01*
X141649259Y-110817080D01*
X141586979Y-110755737D01*
X141524699Y-110694393D01*
X141490475Y-110716684D01*
X141480643Y-110722951D01*
X141401581Y-110764651D01*
X141322323Y-110792630D01*
X141250791Y-110804000D01*
X141181250Y-110806250D01*
X141182981Y-110766662D01*
X141190024Y-110728659D01*
X141213471Y-110670910D01*
X141249820Y-110609339D01*
X141295515Y-110550772D01*
X141347280Y-110493104D01*
X141320515Y-110461933D01*
X141293860Y-110430022D01*
X141265894Y-110395286D01*
X141238037Y-110359811D01*
X141184177Y-110391374D01*
X141172085Y-110398014D01*
X141117309Y-110421726D01*
X141053570Y-110442378D01*
X140991156Y-110456970D01*
X140940352Y-110462500D01*
X140910873Y-110457741D01*
X140888578Y-110445049D01*
X140884209Y-110433469D01*
X140888650Y-110401831D01*
X140905963Y-110359530D01*
X140933566Y-110311437D01*
X140968877Y-110262421D01*
X140995375Y-110232888D01*
X143919933Y-110232888D01*
X143930303Y-110303582D01*
X143952506Y-110361385D01*
X143999200Y-110427191D01*
X144062210Y-110476712D01*
X144138412Y-110507678D01*
X144224683Y-110517815D01*
X144299476Y-110508598D01*
X144372903Y-110480494D01*
X144433738Y-110436879D01*
X144480407Y-110381146D01*
X144511339Y-110316691D01*
X144524961Y-110246907D01*
X144519700Y-110175190D01*
X144493985Y-110104932D01*
X144446242Y-110039530D01*
X144418848Y-110014159D01*
X144350087Y-109971380D01*
X144274958Y-109948008D01*
X144225810Y-109945137D01*
X144197707Y-109943495D01*
X144122579Y-109957296D01*
X144053818Y-109988863D01*
X143995670Y-110037650D01*
X143952380Y-110103110D01*
X143929313Y-110163985D01*
X143919933Y-110232888D01*
X140995375Y-110232888D01*
X141009314Y-110217353D01*
X141076116Y-110151610D01*
X141029415Y-110085180D01*
X141006342Y-110052382D01*
X140987629Y-110025824D01*
X140979117Y-110013802D01*
X140979107Y-110013789D01*
X140966747Y-110016038D01*
X140937976Y-110026598D01*
X140898995Y-110043196D01*
X140887774Y-110047992D01*
X140834377Y-110065893D01*
X140777185Y-110078784D01*
X140721716Y-110086140D01*
X140673492Y-110087433D01*
X140638031Y-110082136D01*
X140620854Y-110069725D01*
X140620814Y-110043205D01*
X140636207Y-110003167D01*
X140664746Y-109956022D01*
X140703467Y-109906608D01*
X140749408Y-109859763D01*
X140760508Y-109849632D01*
X140793390Y-109818471D01*
X140816361Y-109794912D01*
X140825000Y-109783421D01*
X140819529Y-109771034D01*
X140803760Y-109743417D01*
X140781302Y-109707174D01*
X140737603Y-109638861D01*
X140678747Y-109664896D01*
X140664875Y-109670422D01*
X140616433Y-109683944D01*
X140560561Y-109693494D01*
X140503600Y-109698660D01*
X140451886Y-109699027D01*
X140411757Y-109694185D01*
X140389550Y-109683721D01*
X140382791Y-109673539D01*
X140381453Y-109654219D01*
X140394025Y-109624469D01*
X140422492Y-109580656D01*
X140467033Y-109528602D01*
X140517105Y-109481295D01*
X140564274Y-109447502D01*
X140577588Y-109439632D01*
X140602583Y-109422059D01*
X140612500Y-109410476D01*
X140608625Y-109398005D01*
X140596210Y-109368825D01*
X140578216Y-109330650D01*
X140561163Y-109297416D01*
X140545631Y-109274618D01*
X140531052Y-109266394D01*
X140512591Y-109268139D01*
X140436728Y-109284524D01*
X140366617Y-109295144D01*
X140308034Y-109297733D01*
X140254726Y-109292890D01*
X140234106Y-109289399D01*
X140200570Y-109281094D01*
X140183623Y-109270337D01*
X140177396Y-109254190D01*
X140177330Y-109250378D01*
X140187912Y-109224509D01*
X140213219Y-109189499D01*
X140248762Y-109150024D01*
X140290051Y-109110761D01*
X140332595Y-109076387D01*
X140371907Y-109051579D01*
X140388956Y-109042248D01*
X140414818Y-109024778D01*
X140425000Y-109012603D01*
X140421599Y-108999529D01*
X140410297Y-108969275D01*
X140393818Y-108930203D01*
X140362635Y-108859693D01*
X140315693Y-108870472D01*
X140312823Y-108871105D01*
X140269434Y-108877038D01*
X140214776Y-108879952D01*
X140156083Y-108879998D01*
X140100589Y-108877328D01*
X140055525Y-108872094D01*
X140028125Y-108864446D01*
X140009900Y-108850529D01*
X140000000Y-108832507D01*
X140007550Y-108814071D01*
X140031540Y-108784109D01*
X140067209Y-108748823D01*
X140109648Y-108712665D01*
X140153945Y-108680086D01*
X140195191Y-108655540D01*
X140231935Y-108637147D01*
X140260573Y-108622781D01*
X140273160Y-108616424D01*
X140273221Y-108616382D01*
X140271616Y-108603815D01*
X140263555Y-108574081D01*
X140250868Y-108533878D01*
X142150118Y-108533878D01*
X142157920Y-108597319D01*
X142187105Y-108669915D01*
X142234556Y-108732424D01*
X142296708Y-108781396D01*
X142369996Y-108813382D01*
X142450857Y-108824931D01*
X142494859Y-108820815D01*
X142568227Y-108797288D01*
X142636504Y-108756620D01*
X142693181Y-108703077D01*
X142731748Y-108640923D01*
X142738708Y-108621366D01*
X142749016Y-108560784D01*
X143922111Y-108560784D01*
X143941196Y-108638497D01*
X143983892Y-108709776D01*
X144006777Y-108734946D01*
X144072214Y-108783230D01*
X144146709Y-108811571D01*
X144225810Y-108819843D01*
X144305067Y-108807918D01*
X144380028Y-108775670D01*
X144446242Y-108722971D01*
X144476528Y-108685649D01*
X144510412Y-108616529D01*
X144523247Y-108543505D01*
X144516169Y-108470498D01*
X144490312Y-108401431D01*
X144446811Y-108340226D01*
X144386802Y-108290804D01*
X144311419Y-108257087D01*
X144298619Y-108253317D01*
X144255887Y-108242234D01*
X144222978Y-108238795D01*
X144213716Y-108239875D01*
X144188657Y-108242797D01*
X144141690Y-108254039D01*
X144119160Y-108260928D01*
X144050121Y-108295518D01*
X143992226Y-108344786D01*
X143952241Y-108403397D01*
X143926895Y-108479121D01*
X143922111Y-108560784D01*
X142749016Y-108560784D01*
X142750025Y-108554853D01*
X142747812Y-108484331D01*
X142732051Y-108422303D01*
X142723460Y-108404591D01*
X142684446Y-108349974D01*
X142632912Y-108301161D01*
X142577698Y-108267042D01*
X142568976Y-108263498D01*
X142508696Y-108249287D01*
X142439932Y-108246001D01*
X142419682Y-108248261D01*
X142373094Y-108253462D01*
X142318587Y-108271491D01*
X142292593Y-108286405D01*
X142223899Y-108343439D01*
X142173744Y-108414964D01*
X142157250Y-108462987D01*
X142150118Y-108533878D01*
X140250868Y-108533878D01*
X140250738Y-108533466D01*
X140223906Y-108452835D01*
X140117427Y-108459478D01*
X140055082Y-108461171D01*
X139984162Y-108456888D01*
X139926748Y-108446065D01*
X139886550Y-108429469D01*
X139867280Y-108407866D01*
X139866881Y-108406535D01*
X139867510Y-108386998D01*
X139882426Y-108363764D01*
X139914843Y-108331683D01*
X139921971Y-108325311D01*
X139974495Y-108284080D01*
X140031930Y-108250660D01*
X140104164Y-108219173D01*
X140115674Y-108214574D01*
X140139664Y-108201857D01*
X140147052Y-108186285D01*
X140143271Y-108159580D01*
X140133361Y-108120233D01*
X140120358Y-108077417D01*
X140106250Y-108036083D01*
X139993750Y-108033358D01*
X139992877Y-108033337D01*
X139920429Y-108028207D01*
X139857235Y-108017441D01*
X139807227Y-108002232D01*
X139774338Y-107983773D01*
X139762500Y-107963254D01*
X139762696Y-107960209D01*
X139776275Y-107932684D01*
X139807651Y-107900503D01*
X139851778Y-107867111D01*
X139903612Y-107835952D01*
X139958107Y-107810471D01*
X140010220Y-107794112D01*
X140013405Y-107793384D01*
X140042154Y-107782937D01*
X140056728Y-107770697D01*
X140057364Y-107756341D01*
X140053845Y-107723360D01*
X140046508Y-107681250D01*
X140031250Y-107606250D01*
X139962500Y-107605280D01*
X139886328Y-107600581D01*
X139817119Y-107586298D01*
X139746875Y-107559772D01*
X139732248Y-107552855D01*
X139698931Y-107530539D01*
X139689645Y-107507671D01*
X139704299Y-107481843D01*
X139742805Y-107450651D01*
X139762765Y-107437277D01*
X139813352Y-107408176D01*
X139865644Y-107387159D01*
X139931250Y-107369210D01*
X139993750Y-107354361D01*
X139993750Y-107267806D01*
X139993750Y-107181250D01*
X139956250Y-107178181D01*
X139938023Y-107176402D01*
X139858947Y-107162862D01*
X139782139Y-107141395D01*
X139715173Y-107114446D01*
X139665625Y-107084457D01*
X139662003Y-107081352D01*
X139650991Y-107060670D01*
X139662320Y-107037602D01*
X139696875Y-107010039D01*
X139702320Y-107006509D01*
X139760078Y-106974986D01*
X139825105Y-106951290D01*
X139906250Y-106932125D01*
X139981250Y-106917479D01*
X139981250Y-106830615D01*
X139981250Y-106815899D01*
X142150123Y-106815899D01*
X142157211Y-106894795D01*
X142186241Y-106968750D01*
X142212069Y-107007046D01*
X142271778Y-107065055D01*
X142342326Y-107103663D01*
X142419682Y-107122166D01*
X142499813Y-107119862D01*
X142578689Y-107096047D01*
X142652277Y-107050018D01*
X142701216Y-106996699D01*
X142735311Y-106928172D01*
X142748917Y-106856706D01*
X143921138Y-106856706D01*
X143938688Y-106934262D01*
X143978181Y-107003822D01*
X144038660Y-107061904D01*
X144054257Y-107072533D01*
X144131888Y-107108653D01*
X144213716Y-107122421D01*
X144295330Y-107114157D01*
X144372318Y-107084180D01*
X144440267Y-107032811D01*
X144445679Y-107027259D01*
X144492665Y-106961522D01*
X144518102Y-106889179D01*
X144522789Y-106814314D01*
X144507524Y-106741006D01*
X144473105Y-106673339D01*
X144420331Y-106615394D01*
X144350000Y-106571253D01*
X144302381Y-106555703D01*
X144252561Y-106549444D01*
X144231120Y-106546750D01*
X144159079Y-106550512D01*
X144097303Y-106567167D01*
X144061976Y-106587029D01*
X144013153Y-106626377D01*
X143971064Y-106672535D01*
X143943940Y-106717437D01*
X143926489Y-106774639D01*
X143921138Y-106856706D01*
X142748917Y-106856706D01*
X142749621Y-106853009D01*
X142743924Y-106775984D01*
X142717996Y-106701868D01*
X142671615Y-106635435D01*
X142640831Y-106606932D01*
X142573084Y-106567200D01*
X142498322Y-106547265D01*
X142431227Y-106546506D01*
X142420950Y-106546390D01*
X142345374Y-106563838D01*
X142276001Y-106598872D01*
X142217236Y-106650755D01*
X142173486Y-106718750D01*
X142165320Y-106738810D01*
X142150123Y-106815899D01*
X139981250Y-106815899D01*
X139981250Y-106743750D01*
X139918750Y-106735767D01*
X139891153Y-106731357D01*
X139830261Y-106716097D01*
X139772081Y-106694973D01*
X139720951Y-106670248D01*
X139681208Y-106644187D01*
X139657188Y-106619055D01*
X139653229Y-106597117D01*
X139654711Y-106594039D01*
X139676762Y-106573226D01*
X139717132Y-106550846D01*
X139770381Y-106529165D01*
X139831067Y-106510448D01*
X139893750Y-106496961D01*
X139993750Y-106480608D01*
X139997420Y-106397707D01*
X140001090Y-106314806D01*
X139937632Y-106301197D01*
X139932682Y-106300094D01*
X139878907Y-106283725D01*
X139823531Y-106260282D01*
X139771629Y-106232729D01*
X139728273Y-106204030D01*
X139698539Y-106177151D01*
X139687500Y-106155055D01*
X139695200Y-106136884D01*
X139723530Y-106114716D01*
X139768162Y-106094528D01*
X139824293Y-106077999D01*
X139887121Y-106066809D01*
X139951842Y-106062636D01*
X140034934Y-106062500D01*
X140049165Y-105980781D01*
X140055295Y-105939337D01*
X140058178Y-105905384D01*
X140056836Y-105888448D01*
X140055197Y-105886646D01*
X140035596Y-105877353D01*
X140003696Y-105869096D01*
X139995371Y-105867345D01*
X139946040Y-105850995D01*
X139893933Y-105825732D01*
X139844288Y-105795093D01*
X139802342Y-105762612D01*
X139773334Y-105731826D01*
X139762500Y-105706270D01*
X139763469Y-105699975D01*
X139781542Y-105678580D01*
X139819324Y-105659762D01*
X139872695Y-105644771D01*
X139937538Y-105634856D01*
X140009735Y-105631266D01*
X140113220Y-105631250D01*
X140124333Y-105587500D01*
X140137275Y-105534788D01*
X140144871Y-105496576D01*
X140145934Y-105473597D01*
X140140628Y-105461268D01*
X140129121Y-105455007D01*
X140082971Y-105437484D01*
X140023548Y-105408298D01*
X139968822Y-105374716D01*
X139922449Y-105339584D01*
X139888088Y-105305750D01*
X139869396Y-105276059D01*
X139870030Y-105253359D01*
X139878814Y-105243497D01*
X139914642Y-105224490D01*
X139968830Y-105211127D01*
X140037034Y-105204272D01*
X140114906Y-105204786D01*
X140223562Y-105210784D01*
X140244852Y-105146017D01*
X140253315Y-105120408D01*
X140254529Y-105116784D01*
X142149946Y-105116784D01*
X142157605Y-105196038D01*
X142187861Y-105271859D01*
X142227280Y-105325835D01*
X142287589Y-105375851D01*
X142356908Y-105407603D01*
X142431227Y-105421389D01*
X142506538Y-105417505D01*
X142578833Y-105396247D01*
X142644102Y-105357911D01*
X142698337Y-105302795D01*
X142737529Y-105231195D01*
X142745826Y-105201846D01*
X142750545Y-105149236D01*
X143919970Y-105149236D01*
X143934030Y-105226117D01*
X143970466Y-105295384D01*
X144028224Y-105354683D01*
X144106250Y-105401659D01*
X144174939Y-105421872D01*
X144252561Y-105422710D01*
X144328821Y-105403506D01*
X144398905Y-105366171D01*
X144457997Y-105312619D01*
X144501284Y-105244761D01*
X144516972Y-105199279D01*
X144523868Y-105123248D01*
X144509265Y-105048336D01*
X144474891Y-104978891D01*
X144422478Y-104919260D01*
X144353752Y-104873791D01*
X144335700Y-104865811D01*
X144257632Y-104846474D01*
X144222630Y-104847252D01*
X144178325Y-104848237D01*
X144102377Y-104869348D01*
X144034383Y-104908055D01*
X143978939Y-104962606D01*
X143940640Y-105031250D01*
X143929337Y-105067097D01*
X143919970Y-105149236D01*
X142750545Y-105149236D01*
X142751562Y-105137896D01*
X142745141Y-105072142D01*
X142727150Y-105016714D01*
X142692263Y-104962445D01*
X142634545Y-104906869D01*
X142566975Y-104869212D01*
X142493464Y-104849458D01*
X142417925Y-104847595D01*
X142344271Y-104863607D01*
X142276415Y-104897480D01*
X142218270Y-104949199D01*
X142173749Y-105018750D01*
X142165188Y-105039575D01*
X142149946Y-105116784D01*
X140254529Y-105116784D01*
X140264854Y-105085966D01*
X140271690Y-105066195D01*
X140268739Y-105057524D01*
X140248399Y-105040119D01*
X140213872Y-105020570D01*
X140171277Y-104997787D01*
X140114982Y-104960586D01*
X140066895Y-104920833D01*
X140030557Y-104881957D01*
X140009509Y-104847385D01*
X140007291Y-104820547D01*
X140008862Y-104817416D01*
X140031134Y-104800953D01*
X140071505Y-104788518D01*
X140124228Y-104780992D01*
X140183559Y-104779260D01*
X140243750Y-104784204D01*
X140244913Y-104784374D01*
X140290755Y-104791389D01*
X140327603Y-104797578D01*
X140347574Y-104801619D01*
X140355540Y-104796903D01*
X140371161Y-104775303D01*
X140389437Y-104742643D01*
X140406848Y-104705901D01*
X140419876Y-104672056D01*
X140425000Y-104648088D01*
X140420012Y-104641529D01*
X140398035Y-104625974D01*
X140364478Y-104607253D01*
X140356332Y-104602784D01*
X140321118Y-104578429D01*
X140281423Y-104545298D01*
X140242116Y-104508183D01*
X140208063Y-104471878D01*
X140184132Y-104441176D01*
X140175192Y-104420868D01*
X140176486Y-104412410D01*
X140186709Y-104388353D01*
X140201166Y-104380101D01*
X140235832Y-104373705D01*
X140283765Y-104370739D01*
X140338780Y-104371133D01*
X140394691Y-104374816D01*
X140445313Y-104381717D01*
X140484460Y-104391765D01*
X140537670Y-104411451D01*
X140576723Y-104334089D01*
X140615775Y-104256727D01*
X140580576Y-104231489D01*
X140529941Y-104192143D01*
X140462422Y-104128876D01*
X140410933Y-104066472D01*
X140404895Y-104057584D01*
X140386693Y-104026677D01*
X140381911Y-104005381D01*
X140388361Y-103985893D01*
X140394235Y-103976238D01*
X140405049Y-103967247D01*
X140423706Y-103963319D01*
X140455888Y-103963557D01*
X140507276Y-103967058D01*
X140514089Y-103967623D01*
X140573702Y-103975398D01*
X140631654Y-103987128D01*
X140676281Y-104000505D01*
X140703171Y-104010695D01*
X140731295Y-104020131D01*
X140743178Y-104022334D01*
X140744172Y-104020857D01*
X140762790Y-103991347D01*
X140784112Y-103955115D01*
X140804208Y-103919177D01*
X140819147Y-103890550D01*
X140825000Y-103876250D01*
X140824977Y-103875828D01*
X140814740Y-103861713D01*
X140791496Y-103843423D01*
X140768957Y-103826984D01*
X140726756Y-103787962D01*
X140687962Y-103742663D01*
X140655589Y-103695712D01*
X140632650Y-103651734D01*
X140622159Y-103615351D01*
X140627127Y-103591188D01*
X140634977Y-103585173D01*
X140667227Y-103577450D01*
X140714866Y-103577601D01*
X140772301Y-103585034D01*
X140833941Y-103599161D01*
X140894196Y-103619389D01*
X140897961Y-103620881D01*
X140939847Y-103635470D01*
X140971197Y-103642829D01*
X140985864Y-103641478D01*
X140992509Y-103631931D01*
X141010664Y-103605974D01*
X141034399Y-103572114D01*
X141075047Y-103514178D01*
X141005687Y-103444818D01*
X140986063Y-103424125D01*
X140975975Y-103411565D01*
X143920776Y-103411565D01*
X143924086Y-103487500D01*
X143930816Y-103514119D01*
X143964228Y-103586358D01*
X144014062Y-103644603D01*
X144076371Y-103687710D01*
X144147209Y-103714537D01*
X144222630Y-103723938D01*
X144298688Y-103714770D01*
X144371435Y-103685889D01*
X144436926Y-103636152D01*
X144441116Y-103631888D01*
X144490122Y-103565745D01*
X144517150Y-103494871D01*
X144523702Y-103422607D01*
X144511277Y-103352292D01*
X144481379Y-103287268D01*
X144435507Y-103230875D01*
X144375162Y-103186453D01*
X144301848Y-103157345D01*
X144217063Y-103146889D01*
X144188615Y-103148178D01*
X144107791Y-103166744D01*
X144036813Y-103205251D01*
X143979741Y-103260990D01*
X143940640Y-103331250D01*
X143920776Y-103411565D01*
X140975975Y-103411565D01*
X140945387Y-103373481D01*
X140913384Y-103322854D01*
X140892270Y-103276694D01*
X140884258Y-103239451D01*
X140891567Y-103215577D01*
X140902453Y-103209221D01*
X140937302Y-103204692D01*
X140986135Y-103208949D01*
X141043233Y-103220955D01*
X141102878Y-103239676D01*
X141159353Y-103264075D01*
X141162474Y-103265654D01*
X141201258Y-103284217D01*
X141229981Y-103296109D01*
X141242624Y-103298817D01*
X141250989Y-103289043D01*
X141271111Y-103264910D01*
X141298041Y-103232317D01*
X141348616Y-103170884D01*
X141294056Y-103110200D01*
X141267495Y-103078405D01*
X141224157Y-103013749D01*
X141194940Y-102951036D01*
X141183045Y-102896431D01*
X141181250Y-102856250D01*
X141242641Y-102858447D01*
X141297596Y-102865056D01*
X141385518Y-102892588D01*
X141469916Y-102938684D01*
X141521081Y-102973505D01*
X141585824Y-102907948D01*
X141650567Y-102842391D01*
X141620672Y-102814306D01*
X141603052Y-102795318D01*
X141572543Y-102752047D01*
X141544551Y-102700958D01*
X141521415Y-102647729D01*
X141505470Y-102598039D01*
X141499053Y-102557566D01*
X141504502Y-102531990D01*
X141509896Y-102525854D01*
X141523574Y-102519504D01*
X141547087Y-102520732D01*
X141587500Y-102529310D01*
X141630388Y-102541061D01*
X141712746Y-102575744D01*
X141790942Y-102628014D01*
X141838133Y-102665102D01*
X141897192Y-102611153D01*
X141925581Y-102584466D01*
X141949673Y-102560171D01*
X141960552Y-102546949D01*
X141960619Y-102543126D01*
X141951645Y-102522794D01*
X141932729Y-102494578D01*
X141925255Y-102484233D01*
X141890997Y-102422833D01*
X141862844Y-102350526D01*
X141845514Y-102278972D01*
X141845279Y-102277432D01*
X141842027Y-102244198D01*
X141847093Y-102227203D01*
X141862684Y-102218692D01*
X141877617Y-102216391D01*
X141920184Y-102222221D01*
X141973031Y-102240285D01*
X142030216Y-102267900D01*
X142085800Y-102302386D01*
X142133840Y-102341063D01*
X142173930Y-102378867D01*
X142243215Y-102325414D01*
X142245536Y-102323620D01*
X142279361Y-102296791D01*
X142303371Y-102276487D01*
X142312500Y-102266982D01*
X142311381Y-102263831D01*
X142301013Y-102244687D01*
X142283302Y-102215377D01*
X142274775Y-102201051D01*
X142248627Y-102146680D01*
X142228824Y-102089416D01*
X142216295Y-102034330D01*
X142211967Y-101986491D01*
X142216767Y-101950970D01*
X142231622Y-101932838D01*
X142236578Y-101931389D01*
X142271413Y-101933781D01*
X142318210Y-101950904D01*
X142372218Y-101980249D01*
X142428689Y-102019307D01*
X142482871Y-102065569D01*
X142534492Y-102114753D01*
X142604746Y-102068107D01*
X142639867Y-102042874D01*
X142665295Y-102020885D01*
X142675000Y-102007262D01*
X142669794Y-101990327D01*
X142654864Y-101964314D01*
X142637689Y-101932621D01*
X142621085Y-101885050D01*
X142608957Y-101831784D01*
X142602030Y-101778692D01*
X142601026Y-101731645D01*
X142606671Y-101696511D01*
X142619689Y-101679161D01*
X142621853Y-101678454D01*
X142651866Y-101680561D01*
X142693905Y-101697157D01*
X142742848Y-101725334D01*
X142793573Y-101762184D01*
X142840959Y-101804800D01*
X142913649Y-101878349D01*
X142978700Y-101843673D01*
X143007403Y-101828035D01*
X143037918Y-101810490D01*
X143053701Y-101800173D01*
X143055606Y-101791563D01*
X143050947Y-101764890D01*
X143038874Y-101728484D01*
X143033793Y-101714976D01*
X143015981Y-101653024D01*
X143006182Y-101592104D01*
X143004296Y-101536778D01*
X143010220Y-101491610D01*
X143023852Y-101461164D01*
X143045091Y-101450000D01*
X143045436Y-101450002D01*
X143081725Y-101459791D01*
X143126984Y-101485949D01*
X143175967Y-101524367D01*
X143223430Y-101570937D01*
X143264126Y-101621551D01*
X143300755Y-101674352D01*
X143372253Y-101642758D01*
X143405963Y-101627198D01*
X143438062Y-101610828D01*
X143454637Y-101600320D01*
X143457166Y-101593690D01*
X143455276Y-101567388D01*
X143445262Y-101530012D01*
X143439422Y-101509867D01*
X143430095Y-101457328D01*
X143425646Y-101399483D01*
X143426155Y-101343772D01*
X143431707Y-101297634D01*
X143442381Y-101268509D01*
X143450576Y-101258550D01*
X143467026Y-101251343D01*
X143492867Y-101259823D01*
X143520007Y-101276008D01*
X143563382Y-101310791D01*
X143609091Y-101354772D01*
X143650464Y-101401407D01*
X143680826Y-101444154D01*
X143712472Y-101498154D01*
X143789385Y-101468012D01*
X143827868Y-101452396D01*
X143858766Y-101438789D01*
X143873134Y-101431034D01*
X143874503Y-101426252D01*
X143872537Y-101402770D01*
X143864986Y-101368169D01*
X143864784Y-101367412D01*
X143853960Y-101307328D01*
X143851486Y-101245829D01*
X143856543Y-101188126D01*
X143868313Y-101139428D01*
X143885978Y-101104946D01*
X143908718Y-101089888D01*
X143911628Y-101089746D01*
X143937107Y-101099571D01*
X143971336Y-101124560D01*
X144009619Y-101160028D01*
X144047260Y-101201293D01*
X144079563Y-101243672D01*
X144101832Y-101282480D01*
X144109630Y-101299364D01*
X144124712Y-101328002D01*
X144134731Y-101341635D01*
X144134787Y-101341666D01*
X144150592Y-101340571D01*
X144182978Y-101332894D01*
X144225000Y-101320278D01*
X144244687Y-101313797D01*
X144279272Y-101301062D01*
X144296786Y-101289987D01*
X144302078Y-101276430D01*
X144300000Y-101256250D01*
X144297306Y-101237253D01*
X144293823Y-101175230D01*
X144296889Y-101112036D01*
X144305549Y-101052893D01*
X144318850Y-101003021D01*
X144335839Y-100967643D01*
X144355562Y-100951979D01*
X144373251Y-100956044D01*
X144403082Y-100977019D01*
X144438042Y-101011334D01*
X144474034Y-101054435D01*
X144506959Y-101101769D01*
X144532718Y-101148783D01*
X144552005Y-101186886D01*
X144569325Y-101214223D01*
X144580727Y-101224455D01*
X144593313Y-101222761D01*
X144624961Y-101217060D01*
X144666119Y-101208830D01*
X144738488Y-101193750D01*
X144741534Y-101081250D01*
X144742033Y-101067909D01*
X144748540Y-101001567D01*
X144760593Y-100942066D01*
X144776741Y-100893945D01*
X144795531Y-100861743D01*
X144815511Y-100850000D01*
X144830569Y-100856372D01*
X144857740Y-100878539D01*
X144889644Y-100911412D01*
X144921081Y-100949546D01*
X144946853Y-100987500D01*
X144951252Y-100995339D01*
X144972006Y-101039743D01*
X144988634Y-101085581D01*
X145004680Y-101139912D01*
X145086715Y-101131184D01*
X145127837Y-101126311D01*
X145160930Y-101121397D01*
X145176463Y-101117768D01*
X145176997Y-101117244D01*
X145181563Y-101100645D01*
X145186226Y-101066524D01*
X145190054Y-101021482D01*
X145192448Y-100995470D01*
X145203486Y-100933816D01*
X145220363Y-100877236D01*
X145241052Y-100830687D01*
X145263526Y-100799123D01*
X145285759Y-100787500D01*
X145285916Y-100787501D01*
X145311725Y-100798848D01*
X145341601Y-100829355D01*
X145372626Y-100874216D01*
X145401878Y-100928627D01*
X145426437Y-100987781D01*
X145443385Y-101046875D01*
X145449802Y-101067891D01*
X145462107Y-101081787D01*
X145484640Y-101087598D01*
X145522180Y-101086470D01*
X145579506Y-101079551D01*
X145637500Y-101071602D01*
X145637500Y-101019008D01*
X145638312Y-100999898D01*
X145647192Y-100945864D01*
X145663909Y-100889638D01*
X145686017Y-100836580D01*
X145711069Y-100792051D01*
X145736621Y-100761412D01*
X145760227Y-100750023D01*
X145761386Y-100750066D01*
G37*
%TD*%
%LPC*%
D11*
%TO.C,CONN1*%
X145710000Y-54850000D03*
X138090000Y-54850000D03*
D12*
X143805000Y-61200000D03*
X142535000Y-63740000D03*
X141265000Y-61200000D03*
X139995000Y-63740000D03*
%TD*%
D13*
%TO.C,CON1*%
X138065306Y-97058858D03*
D14*
X138065306Y-99598858D03*
X138065306Y-102138858D03*
X138065306Y-104678858D03*
X138065306Y-107218858D03*
X138065306Y-109758858D03*
X138065306Y-112298858D03*
X138065306Y-114838858D03*
X160925306Y-114838858D03*
X160925306Y-112298858D03*
X160925306Y-109758858D03*
X160925306Y-107218858D03*
X160925306Y-104678858D03*
X160925306Y-102138858D03*
X160925306Y-99598858D03*
D15*
X160925306Y-97058858D03*
%TD*%
D16*
%TO.C,J1*%
X158850000Y-54700000D03*
D17*
X155350000Y-54700000D03*
%TD*%
%LPD*%
M02*
