M48
; DRILL file {KiCad 8.0.6} date 2024-10-28T22:07:04-0400
; FORMAT={-:-/ absolute / inch / decimal}
; #@! TF.CreationDate,2024-10-28T22:07:04-04:00
; #@! TF.GenerationSoftware,Kicad,Pcbnew,8.0.6
; #@! TF.FileFunction,Plated,1,2,PTH
FMAT,2
INCH
; #@! TA.AperFunction,Plated,PTH,ViaDrill
T1C0.0118
; #@! TA.AperFunction,Plated,PTH,ComponentDrill
T2C0.0350
; #@! TA.AperFunction,Plated,PTH,ComponentDrill
T3C0.0354
; #@! TA.AperFunction,Plated,PTH,ComponentDrill
T4C0.0472
%
G90
G05
T1
X5.3524Y-2.6201
X5.3976Y-3.126
X5.4129Y-2.8016
X5.5029Y-3.722
X5.5302Y-3.922
X5.5433Y-3.126
X5.5906Y-3.2323
X5.6089Y-3.7992
X5.6596Y-2.7953
X5.7874Y-2.6841
X6.1601Y-3.7913
X6.189Y-2.6299
T2
X5.4356Y-3.8212
X5.4356Y-3.9212
X5.4356Y-4.0212
X5.4356Y-4.1212
X5.4356Y-4.2212
X5.4356Y-4.3212
X5.4356Y-4.4212
X5.4356Y-4.5212
X6.3356Y-3.8212
X6.3356Y-3.9212
X6.3356Y-4.0212
X6.3356Y-4.1212
X6.3356Y-4.2212
X6.3356Y-4.3212
X6.3356Y-4.4212
X6.3356Y-4.5212
T3
X5.5116Y-2.5094
X5.5616Y-2.4094
X5.6116Y-2.5094
X5.6616Y-2.4094
T4
X6.1161Y-2.1535
X6.2539Y-2.1535
M30
